ISO-10303-21;
HEADER;
/* Generated by software containing ST-Developer
 * from STEP Tools, Inc. (www.steptools.com) 
 */

FILE_DESCRIPTION(
/* description */ (''),
/* implementation_level */ '2;1');

FILE_NAME(
/* name */ 'sensor piece.step',
/* time_stamp */ '2026-03-29T14:20:54-05:00',
/* author */ (''),
/* organization */ (''),
/* preprocessor_version */ 'ST-DEVELOPER v20.1',
/* originating_system */ 'Autodesk Translation Framework v14.24.0.0',
/* authorisation */ '');

FILE_SCHEMA (('AUTOMOTIVE_DESIGN { 1 0 10303 214 3 1 1 }'));
ENDSEC;

DATA;
#10=MECHANICAL_DESIGN_GEOMETRIC_PRESENTATION_REPRESENTATION('',(#38,#39,
#40,#41,#42,#43,#44,#45,#46),#1599);
#11=SHAPE_REPRESENTATION_RELATIONSHIP('SRR','None',#1609,#12);
#12=ADVANCED_BREP_SHAPE_REPRESENTATION('',(#47,#48,#49,#50,#51,#52,#53,
#54,#55),#1598);
#13=CONICAL_SURFACE('',#950,0.355,0.785398163397448);
#14=CONICAL_SURFACE('',#953,0.340857864376269,0.785398163397448);
#15=CONICAL_SURFACE('',#995,0.355,0.785398163397448);
#16=CONICAL_SURFACE('',#999,0.340857864376269,0.785398163397448);
#17=CONICAL_SURFACE('',#1008,0.340857864376269,0.785398163397448);
#18=CONICAL_SURFACE('',#1014,0.355,0.785398163397448);
#19=CONICAL_SURFACE('',#1023,0.355,0.785398163397448);
#20=CONICAL_SURFACE('',#1027,0.340857864376269,0.785398163397448);
#21=(
BOUNDED_CURVE()
B_SPLINE_CURVE(2,(#1351,#1352,#1353),.UNSPECIFIED.,.F.,.F.)
B_SPLINE_CURVE_WITH_KNOTS((3,3),(0.,0.108451118091102),.UNSPECIFIED.)
CURVE()
GEOMETRIC_REPRESENTATION_ITEM()
RATIONAL_B_SPLINE_CURVE((1.,1.00115225891476,1.))
REPRESENTATION_ITEM('')
);
#22=(
BOUNDED_CURVE()
B_SPLINE_CURVE(2,(#1357,#1358,#1359),.UNSPECIFIED.,.F.,.F.)
B_SPLINE_CURVE_WITH_KNOTS((3,3),(0.,0.180516287596019),.UNSPECIFIED.)
CURVE()
GEOMETRIC_REPRESENTATION_ITEM()
RATIONAL_B_SPLINE_CURVE((1.,1.00253975557434,1.))
REPRESENTATION_ITEM('')
);
#23=(
BOUNDED_CURVE()
B_SPLINE_CURVE(2,(#1365,#1366,#1367),.UNSPECIFIED.,.F.,.F.)
B_SPLINE_CURVE_WITH_KNOTS((3,3),(0.,0.180516287596019),.UNSPECIFIED.)
CURVE()
GEOMETRIC_REPRESENTATION_ITEM()
RATIONAL_B_SPLINE_CURVE((1.,1.00253975557434,1.))
REPRESENTATION_ITEM('')
);
#24=(
BOUNDED_CURVE()
B_SPLINE_CURVE(2,(#1370,#1371,#1372),.UNSPECIFIED.,.F.,.F.)
B_SPLINE_CURVE_WITH_KNOTS((3,3),(0.,0.108451118091102),.UNSPECIFIED.)
CURVE()
GEOMETRIC_REPRESENTATION_ITEM()
RATIONAL_B_SPLINE_CURVE((1.,1.00115225891476,1.))
REPRESENTATION_ITEM('')
);
#25=(
BOUNDED_CURVE()
B_SPLINE_CURVE(2,(#1481,#1482,#1483),.UNSPECIFIED.,.F.,.F.)
B_SPLINE_CURVE_WITH_KNOTS((3,3),(0.,0.108451118091102),.UNSPECIFIED.)
CURVE()
GEOMETRIC_REPRESENTATION_ITEM()
RATIONAL_B_SPLINE_CURVE((1.,1.00115225891476,1.))
REPRESENTATION_ITEM('')
);
#26=(
BOUNDED_CURVE()
B_SPLINE_CURVE(2,(#1486,#1487,#1488),.UNSPECIFIED.,.F.,.F.)
B_SPLINE_CURVE_WITH_KNOTS((3,3),(0.,0.180516287596019),.UNSPECIFIED.)
CURVE()
GEOMETRIC_REPRESENTATION_ITEM()
RATIONAL_B_SPLINE_CURVE((1.,1.00253975557434,1.))
REPRESENTATION_ITEM('')
);
#27=(
BOUNDED_CURVE()
B_SPLINE_CURVE(2,(#1491,#1492,#1493),.UNSPECIFIED.,.F.,.F.)
B_SPLINE_CURVE_WITH_KNOTS((3,3),(0.,0.180516287596019),.UNSPECIFIED.)
CURVE()
GEOMETRIC_REPRESENTATION_ITEM()
RATIONAL_B_SPLINE_CURVE((1.,1.00253975557434,1.))
REPRESENTATION_ITEM('')
);
#28=(
BOUNDED_CURVE()
B_SPLINE_CURVE(2,(#1500,#1501,#1502),.UNSPECIFIED.,.F.,.F.)
B_SPLINE_CURVE_WITH_KNOTS((3,3),(0.,0.108451118091102),.UNSPECIFIED.)
CURVE()
GEOMETRIC_REPRESENTATION_ITEM()
RATIONAL_B_SPLINE_CURVE((1.,1.00115225891476,1.))
REPRESENTATION_ITEM('')
);
#29=(
BOUNDED_CURVE()
B_SPLINE_CURVE(2,(#1523,#1524,#1525),.UNSPECIFIED.,.F.,.F.)
B_SPLINE_CURVE_WITH_KNOTS((3,3),(0.,0.180516287596019),.UNSPECIFIED.)
CURVE()
GEOMETRIC_REPRESENTATION_ITEM()
RATIONAL_B_SPLINE_CURVE((1.,1.00253975557434,1.))
REPRESENTATION_ITEM('')
);
#30=(
BOUNDED_CURVE()
B_SPLINE_CURVE(2,(#1528,#1529,#1530),.UNSPECIFIED.,.F.,.F.)
B_SPLINE_CURVE_WITH_KNOTS((3,3),(0.,0.108451118091102),.UNSPECIFIED.)
CURVE()
GEOMETRIC_REPRESENTATION_ITEM()
RATIONAL_B_SPLINE_CURVE((1.,1.00115225891476,1.))
REPRESENTATION_ITEM('')
);
#31=(
BOUNDED_CURVE()
B_SPLINE_CURVE(2,(#1533,#1534,#1535),.UNSPECIFIED.,.F.,.F.)
B_SPLINE_CURVE_WITH_KNOTS((3,3),(0.,0.108451118091102),.UNSPECIFIED.)
CURVE()
GEOMETRIC_REPRESENTATION_ITEM()
RATIONAL_B_SPLINE_CURVE((1.,1.00115225891476,1.))
REPRESENTATION_ITEM('')
);
#32=(
BOUNDED_CURVE()
B_SPLINE_CURVE(2,(#1539,#1540,#1541),.UNSPECIFIED.,.F.,.F.)
B_SPLINE_CURVE_WITH_KNOTS((3,3),(0.,0.180516287596019),.UNSPECIFIED.)
CURVE()
GEOMETRIC_REPRESENTATION_ITEM()
RATIONAL_B_SPLINE_CURVE((1.,1.00253975557434,1.))
REPRESENTATION_ITEM('')
);
#33=(
BOUNDED_CURVE()
B_SPLINE_CURVE(2,(#1573,#1574,#1575),.UNSPECIFIED.,.F.,.F.)
B_SPLINE_CURVE_WITH_KNOTS((3,3),(0.,0.108451118091102),.UNSPECIFIED.)
CURVE()
GEOMETRIC_REPRESENTATION_ITEM()
RATIONAL_B_SPLINE_CURVE((1.,1.00115225891476,1.))
REPRESENTATION_ITEM('')
);
#34=(
BOUNDED_CURVE()
B_SPLINE_CURVE(2,(#1578,#1579,#1580),.UNSPECIFIED.,.F.,.F.)
B_SPLINE_CURVE_WITH_KNOTS((3,3),(0.,0.180516287596019),.UNSPECIFIED.)
CURVE()
GEOMETRIC_REPRESENTATION_ITEM()
RATIONAL_B_SPLINE_CURVE((1.,1.00253975557434,1.))
REPRESENTATION_ITEM('')
);
#35=(
BOUNDED_CURVE()
B_SPLINE_CURVE(2,(#1583,#1584,#1585),.UNSPECIFIED.,.F.,.F.)
B_SPLINE_CURVE_WITH_KNOTS((3,3),(0.,0.180516287596019),.UNSPECIFIED.)
CURVE()
GEOMETRIC_REPRESENTATION_ITEM()
RATIONAL_B_SPLINE_CURVE((1.,1.00253975557434,1.))
REPRESENTATION_ITEM('')
);
#36=(
BOUNDED_CURVE()
B_SPLINE_CURVE(2,(#1592,#1593,#1594),.UNSPECIFIED.,.F.,.F.)
B_SPLINE_CURVE_WITH_KNOTS((3,3),(0.,0.108451118091102),.UNSPECIFIED.)
CURVE()
GEOMETRIC_REPRESENTATION_ITEM()
RATIONAL_B_SPLINE_CURVE((1.,1.00115225891476,1.))
REPRESENTATION_ITEM('')
);
#37=TOROIDAL_SURFACE('',#937,0.35,0.05);
#38=STYLED_ITEM('',(#1618),#47);
#39=STYLED_ITEM('',(#1618),#48);
#40=STYLED_ITEM('',(#1618),#49);
#41=STYLED_ITEM('',(#1618),#50);
#42=STYLED_ITEM('',(#1618),#51);
#43=STYLED_ITEM('',(#1618),#52);
#44=STYLED_ITEM('',(#1618),#53);
#45=STYLED_ITEM('',(#1618),#54);
#46=STYLED_ITEM('',(#1618),#55);
#47=MANIFOLD_SOLID_BREP('Body1',#905);
#48=MANIFOLD_SOLID_BREP('Body3',#906);
#49=MANIFOLD_SOLID_BREP('Body7',#907);
#50=MANIFOLD_SOLID_BREP('Body11',#908);
#51=MANIFOLD_SOLID_BREP('Body10',#909);
#52=MANIFOLD_SOLID_BREP('Body9',#910);
#53=MANIFOLD_SOLID_BREP('Body8',#911);
#54=MANIFOLD_SOLID_BREP('Body12',#912);
#55=MANIFOLD_SOLID_BREP('Body13',#913);
#56=PLANE('',#930);
#57=PLANE('',#931);
#58=PLANE('',#933);
#59=PLANE('',#934);
#60=PLANE('',#941);
#61=PLANE('',#942);
#62=PLANE('',#943);
#63=PLANE('',#948);
#64=PLANE('',#949);
#65=PLANE('',#955);
#66=PLANE('',#956);
#67=PLANE('',#960);
#68=PLANE('',#962);
#69=PLANE('',#965);
#70=PLANE('',#966);
#71=PLANE('',#970);
#72=PLANE('',#971);
#73=PLANE('',#973);
#74=PLANE('',#974);
#75=PLANE('',#980);
#76=PLANE('',#982);
#77=PLANE('',#985);
#78=PLANE('',#986);
#79=PLANE('',#990);
#80=PLANE('',#992);
#81=PLANE('',#994);
#82=PLANE('',#997);
#83=PLANE('',#1000);
#84=PLANE('',#1001);
#85=PLANE('',#1006);
#86=PLANE('',#1007);
#87=PLANE('',#1010);
#88=PLANE('',#1012);
#89=PLANE('',#1018);
#90=PLANE('',#1020);
#91=PLANE('',#1022);
#92=PLANE('',#1025);
#93=PLANE('',#1028);
#94=FACE_OUTER_BOUND('',#153,.T.);
#95=FACE_OUTER_BOUND('',#154,.T.);
#96=FACE_OUTER_BOUND('',#155,.T.);
#97=FACE_OUTER_BOUND('',#156,.T.);
#98=FACE_OUTER_BOUND('',#157,.T.);
#99=FACE_OUTER_BOUND('',#158,.T.);
#100=FACE_OUTER_BOUND('',#159,.T.);
#101=FACE_OUTER_BOUND('',#160,.T.);
#102=FACE_OUTER_BOUND('',#161,.T.);
#103=FACE_OUTER_BOUND('',#162,.T.);
#104=FACE_OUTER_BOUND('',#163,.T.);
#105=FACE_OUTER_BOUND('',#164,.T.);
#106=FACE_OUTER_BOUND('',#165,.T.);
#107=FACE_OUTER_BOUND('',#166,.T.);
#108=FACE_OUTER_BOUND('',#167,.T.);
#109=FACE_OUTER_BOUND('',#168,.T.);
#110=FACE_OUTER_BOUND('',#169,.T.);
#111=FACE_OUTER_BOUND('',#170,.T.);
#112=FACE_OUTER_BOUND('',#171,.T.);
#113=FACE_OUTER_BOUND('',#172,.T.);
#114=FACE_OUTER_BOUND('',#173,.T.);
#115=FACE_OUTER_BOUND('',#174,.T.);
#116=FACE_OUTER_BOUND('',#175,.T.);
#117=FACE_OUTER_BOUND('',#176,.T.);
#118=FACE_OUTER_BOUND('',#177,.T.);
#119=FACE_OUTER_BOUND('',#178,.T.);
#120=FACE_OUTER_BOUND('',#179,.T.);
#121=FACE_OUTER_BOUND('',#180,.T.);
#122=FACE_OUTER_BOUND('',#181,.T.);
#123=FACE_OUTER_BOUND('',#182,.T.);
#124=FACE_OUTER_BOUND('',#183,.T.);
#125=FACE_OUTER_BOUND('',#184,.T.);
#126=FACE_OUTER_BOUND('',#185,.T.);
#127=FACE_OUTER_BOUND('',#186,.T.);
#128=FACE_OUTER_BOUND('',#187,.T.);
#129=FACE_OUTER_BOUND('',#188,.T.);
#130=FACE_OUTER_BOUND('',#189,.T.);
#131=FACE_OUTER_BOUND('',#190,.T.);
#132=FACE_OUTER_BOUND('',#191,.T.);
#133=FACE_OUTER_BOUND('',#192,.T.);
#134=FACE_OUTER_BOUND('',#193,.T.);
#135=FACE_OUTER_BOUND('',#194,.T.);
#136=FACE_OUTER_BOUND('',#195,.T.);
#137=FACE_OUTER_BOUND('',#196,.T.);
#138=FACE_OUTER_BOUND('',#197,.T.);
#139=FACE_OUTER_BOUND('',#198,.T.);
#140=FACE_OUTER_BOUND('',#199,.T.);
#141=FACE_OUTER_BOUND('',#200,.T.);
#142=FACE_OUTER_BOUND('',#201,.T.);
#143=FACE_OUTER_BOUND('',#202,.T.);
#144=FACE_OUTER_BOUND('',#203,.T.);
#145=FACE_OUTER_BOUND('',#204,.T.);
#146=FACE_OUTER_BOUND('',#205,.T.);
#147=FACE_OUTER_BOUND('',#206,.T.);
#148=FACE_OUTER_BOUND('',#207,.T.);
#149=FACE_OUTER_BOUND('',#208,.T.);
#150=FACE_OUTER_BOUND('',#209,.T.);
#151=FACE_OUTER_BOUND('',#210,.T.);
#152=FACE_OUTER_BOUND('',#211,.T.);
#153=EDGE_LOOP('',(#588,#589,#590,#591));
#154=EDGE_LOOP('',(#592,#593,#594,#595));
#155=EDGE_LOOP('',(#596,#597,#598,#599));
#156=EDGE_LOOP('',(#600,#601,#602,#603));
#157=EDGE_LOOP('',(#604,#605,#606,#607));
#158=EDGE_LOOP('',(#608,#609,#610,#611));
#159=EDGE_LOOP('',(#612,#613,#614,#615));
#160=EDGE_LOOP('',(#616));
#161=EDGE_LOOP('',(#617));
#162=EDGE_LOOP('',(#618,#619,#620,#621));
#163=EDGE_LOOP('',(#622,#623,#624,#625));
#164=EDGE_LOOP('',(#626,#627,#628,#629,#630,#631));
#165=EDGE_LOOP('',(#632,#633,#634,#635,#636,#637));
#166=EDGE_LOOP('',(#638,#639,#640,#641));
#167=EDGE_LOOP('',(#642,#643,#644,#645));
#168=EDGE_LOOP('',(#646,#647,#648,#649));
#169=EDGE_LOOP('',(#650,#651,#652,#653));
#170=EDGE_LOOP('',(#654,#655,#656,#657));
#171=EDGE_LOOP('',(#658,#659,#660,#661));
#172=EDGE_LOOP('',(#662,#663,#664,#665));
#173=EDGE_LOOP('',(#666,#667,#668,#669));
#174=EDGE_LOOP('',(#670,#671,#672,#673));
#175=EDGE_LOOP('',(#674,#675,#676,#677));
#176=EDGE_LOOP('',(#678,#679,#680,#681));
#177=EDGE_LOOP('',(#682,#683,#684,#685));
#178=EDGE_LOOP('',(#686,#687,#688,#689));
#179=EDGE_LOOP('',(#690,#691,#692,#693));
#180=EDGE_LOOP('',(#694,#695,#696,#697));
#181=EDGE_LOOP('',(#698,#699,#700,#701));
#182=EDGE_LOOP('',(#702,#703,#704,#705));
#183=EDGE_LOOP('',(#706,#707,#708,#709));
#184=EDGE_LOOP('',(#710,#711,#712,#713));
#185=EDGE_LOOP('',(#714,#715,#716,#717));
#186=EDGE_LOOP('',(#718,#719,#720,#721));
#187=EDGE_LOOP('',(#722,#723,#724,#725));
#188=EDGE_LOOP('',(#726,#727,#728,#729));
#189=EDGE_LOOP('',(#730,#731,#732,#733));
#190=EDGE_LOOP('',(#734,#735,#736,#737));
#191=EDGE_LOOP('',(#738,#739,#740,#741,#742,#743));
#192=EDGE_LOOP('',(#744,#745,#746,#747));
#193=EDGE_LOOP('',(#748,#749,#750,#751));
#194=EDGE_LOOP('',(#752,#753,#754,#755));
#195=EDGE_LOOP('',(#756,#757,#758,#759,#760,#761));
#196=EDGE_LOOP('',(#762,#763,#764,#765));
#197=EDGE_LOOP('',(#766,#767,#768,#769));
#198=EDGE_LOOP('',(#770,#771,#772,#773,#774,#775));
#199=EDGE_LOOP('',(#776,#777,#778,#779,#780,#781));
#200=EDGE_LOOP('',(#782,#783,#784,#785));
#201=EDGE_LOOP('',(#786,#787,#788,#789));
#202=EDGE_LOOP('',(#790,#791,#792,#793));
#203=EDGE_LOOP('',(#794,#795,#796,#797));
#204=EDGE_LOOP('',(#798,#799,#800,#801));
#205=EDGE_LOOP('',(#802,#803,#804,#805));
#206=EDGE_LOOP('',(#806,#807,#808,#809));
#207=EDGE_LOOP('',(#810,#811,#812,#813,#814,#815));
#208=EDGE_LOOP('',(#816,#817,#818,#819));
#209=EDGE_LOOP('',(#820,#821,#822,#823));
#210=EDGE_LOOP('',(#824,#825,#826,#827));
#211=EDGE_LOOP('',(#828,#829,#830,#831,#832,#833));
#212=CIRCLE('',#928,0.34);
#213=CIRCLE('',#929,0.34);
#214=CIRCLE('',#932,0.36);
#215=CIRCLE('',#935,0.36);
#216=CIRCLE('',#938,0.35);
#217=CIRCLE('',#939,0.05);
#218=CIRCLE('',#940,0.4);
#219=CIRCLE('',#944,0.34);
#220=CIRCLE('',#945,0.331715728752538);
#221=CIRCLE('',#947,0.34);
#222=CIRCLE('',#951,0.33);
#223=CIRCLE('',#952,0.38);
#224=CIRCLE('',#954,0.301715728752538);
#225=CIRCLE('',#958,0.34);
#226=CIRCLE('',#959,0.34);
#227=CIRCLE('',#961,0.36);
#228=CIRCLE('',#964,0.36);
#229=CIRCLE('',#968,0.34);
#230=CIRCLE('',#969,0.34);
#231=CIRCLE('',#972,0.36);
#232=CIRCLE('',#975,0.36);
#233=CIRCLE('',#978,0.34);
#234=CIRCLE('',#979,0.34);
#235=CIRCLE('',#981,0.36);
#236=CIRCLE('',#984,0.36);
#237=CIRCLE('',#988,0.34);
#238=CIRCLE('',#989,0.34);
#239=CIRCLE('',#991,0.331715728752538);
#240=CIRCLE('',#993,0.38);
#241=CIRCLE('',#996,0.33);
#242=CIRCLE('',#998,0.301715728752538);
#243=CIRCLE('',#1002,0.34);
#244=CIRCLE('',#1003,0.331715728752538);
#245=CIRCLE('',#1005,0.34);
#246=CIRCLE('',#1009,0.301715728752538);
#247=CIRCLE('',#1011,0.33);
#248=CIRCLE('',#1013,0.38);
#249=CIRCLE('',#1016,0.34);
#250=CIRCLE('',#1017,0.34);
#251=CIRCLE('',#1019,0.331715728752538);
#252=CIRCLE('',#1021,0.38);
#253=CIRCLE('',#1024,0.33);
#254=CIRCLE('',#1026,0.301715728752538);
#255=LINE('',#1303,#319);
#256=LINE('',#1307,#320);
#257=LINE('',#1311,#321);
#258=LINE('',#1313,#322);
#259=LINE('',#1314,#323);
#260=LINE('',#1317,#324);
#261=LINE('',#1321,#325);
#262=LINE('',#1322,#326);
#263=LINE('',#1337,#327);
#264=LINE('',#1341,#328);
#265=LINE('',#1345,#329);
#266=LINE('',#1348,#330);
#267=LINE('',#1355,#331);
#268=LINE('',#1360,#332);
#269=LINE('',#1363,#333);
#270=LINE('',#1369,#334);
#271=LINE('',#1385,#335);
#272=LINE('',#1388,#336);
#273=LINE('',#1391,#337);
#274=LINE('',#1394,#338);
#275=LINE('',#1397,#339);
#276=LINE('',#1398,#340);
#277=LINE('',#1401,#341);
#278=LINE('',#1404,#342);
#279=LINE('',#1409,#343);
#280=LINE('',#1413,#344);
#281=LINE('',#1417,#345);
#282=LINE('',#1419,#346);
#283=LINE('',#1420,#347);
#284=LINE('',#1423,#348);
#285=LINE('',#1427,#349);
#286=LINE('',#1428,#350);
#287=LINE('',#1437,#351);
#288=LINE('',#1440,#352);
#289=LINE('',#1443,#353);
#290=LINE('',#1446,#354);
#291=LINE('',#1449,#355);
#292=LINE('',#1450,#356);
#293=LINE('',#1454,#357);
#294=LINE('',#1456,#358);
#295=LINE('',#1461,#359);
#296=LINE('',#1465,#360);
#297=LINE('',#1469,#361);
#298=LINE('',#1472,#362);
#299=LINE('',#1475,#363);
#300=LINE('',#1478,#364);
#301=LINE('',#1485,#365);
#302=LINE('',#1497,#366);
#303=LINE('',#1507,#367);
#304=LINE('',#1511,#368);
#305=LINE('',#1515,#369);
#306=LINE('',#1518,#370);
#307=LINE('',#1521,#371);
#308=LINE('',#1527,#372);
#309=LINE('',#1537,#373);
#310=LINE('',#1542,#374);
#311=LINE('',#1553,#375);
#312=LINE('',#1557,#376);
#313=LINE('',#1561,#377);
#314=LINE('',#1564,#378);
#315=LINE('',#1567,#379);
#316=LINE('',#1570,#380);
#317=LINE('',#1577,#381);
#318=LINE('',#1589,#382);
#319=VECTOR('',#1033,0.393700787401575);
#320=VECTOR('',#1036,0.393700787401575);
#321=VECTOR('',#1041,0.393700787401575);
#322=VECTOR('',#1042,0.393700787401575);
#323=VECTOR('',#1043,0.393700787401575);
#324=VECTOR('',#1046,0.393700787401575);
#325=VECTOR('',#1051,0.393700787401575);
#326=VECTOR('',#1052,0.393700787401575);
#327=VECTOR('',#1073,0.393700787401575);
#328=VECTOR('',#1076,0.393700787401575);
#329=VECTOR('',#1081,0.393700787401575);
#330=VECTOR('',#1084,0.393700787401575);
#331=VECTOR('',#1087,0.393700787401575);
#332=VECTOR('',#1088,0.393700787401575);
#333=VECTOR('',#1091,0.393700787401575);
#334=VECTOR('',#1092,0.393700787401575);
#335=VECTOR('',#1111,0.393700787401575);
#336=VECTOR('',#1114,0.393700787401575);
#337=VECTOR('',#1117,0.393700787401575);
#338=VECTOR('',#1120,0.393700787401575);
#339=VECTOR('',#1123,0.393700787401575);
#340=VECTOR('',#1124,0.393700787401575);
#341=VECTOR('',#1127,0.393700787401575);
#342=VECTOR('',#1132,0.393700787401575);
#343=VECTOR('',#1137,0.393700787401575);
#344=VECTOR('',#1140,0.393700787401575);
#345=VECTOR('',#1145,0.393700787401575);
#346=VECTOR('',#1146,0.393700787401575);
#347=VECTOR('',#1147,0.393700787401575);
#348=VECTOR('',#1150,0.393700787401575);
#349=VECTOR('',#1155,0.393700787401575);
#350=VECTOR('',#1156,0.393700787401575);
#351=VECTOR('',#1167,0.393700787401575);
#352=VECTOR('',#1170,0.393700787401575);
#353=VECTOR('',#1173,0.393700787401575);
#354=VECTOR('',#1176,0.393700787401575);
#355=VECTOR('',#1179,0.393700787401575);
#356=VECTOR('',#1180,0.393700787401575);
#357=VECTOR('',#1185,0.393700787401575);
#358=VECTOR('',#1188,0.393700787401575);
#359=VECTOR('',#1193,0.393700787401575);
#360=VECTOR('',#1196,0.393700787401575);
#361=VECTOR('',#1201,0.393700787401575);
#362=VECTOR('',#1204,0.393700787401575);
#363=VECTOR('',#1207,0.393700787401575);
#364=VECTOR('',#1210,0.393700787401575);
#365=VECTOR('',#1213,0.393700787401575);
#366=VECTOR('',#1220,0.393700787401575);
#367=VECTOR('',#1229,0.393700787401575);
#368=VECTOR('',#1232,0.393700787401575);
#369=VECTOR('',#1237,0.393700787401575);
#370=VECTOR('',#1240,0.393700787401575);
#371=VECTOR('',#1243,0.393700787401575);
#372=VECTOR('',#1244,0.393700787401575);
#373=VECTOR('',#1247,0.393700787401575);
#374=VECTOR('',#1248,0.393700787401575);
#375=VECTOR('',#1265,0.393700787401575);
#376=VECTOR('',#1268,0.393700787401575);
#377=VECTOR('',#1273,0.393700787401575);
#378=VECTOR('',#1276,0.393700787401575);
#379=VECTOR('',#1279,0.393700787401575);
#380=VECTOR('',#1282,0.393700787401575);
#381=VECTOR('',#1285,0.393700787401575);
#382=VECTOR('',#1292,0.393700787401575);
#383=VERTEX_POINT('',#1301);
#384=VERTEX_POINT('',#1302);
#385=VERTEX_POINT('',#1304);
#386=VERTEX_POINT('',#1306);
#387=VERTEX_POINT('',#1310);
#388=VERTEX_POINT('',#1312);
#389=VERTEX_POINT('',#1316);
#390=VERTEX_POINT('',#1320);
#391=VERTEX_POINT('',#1327);
#392=VERTEX_POINT('',#1329);
#393=VERTEX_POINT('',#1335);
#394=VERTEX_POINT('',#1336);
#395=VERTEX_POINT('',#1338);
#396=VERTEX_POINT('',#1340);
#397=VERTEX_POINT('',#1344);
#398=VERTEX_POINT('',#1346);
#399=VERTEX_POINT('',#1350);
#400=VERTEX_POINT('',#1354);
#401=VERTEX_POINT('',#1356);
#402=VERTEX_POINT('',#1362);
#403=VERTEX_POINT('',#1364);
#404=VERTEX_POINT('',#1368);
#405=VERTEX_POINT('',#1381);
#406=VERTEX_POINT('',#1382);
#407=VERTEX_POINT('',#1384);
#408=VERTEX_POINT('',#1386);
#409=VERTEX_POINT('',#1390);
#410=VERTEX_POINT('',#1392);
#411=VERTEX_POINT('',#1396);
#412=VERTEX_POINT('',#1400);
#413=VERTEX_POINT('',#1407);
#414=VERTEX_POINT('',#1408);
#415=VERTEX_POINT('',#1410);
#416=VERTEX_POINT('',#1412);
#417=VERTEX_POINT('',#1416);
#418=VERTEX_POINT('',#1418);
#419=VERTEX_POINT('',#1422);
#420=VERTEX_POINT('',#1426);
#421=VERTEX_POINT('',#1433);
#422=VERTEX_POINT('',#1434);
#423=VERTEX_POINT('',#1436);
#424=VERTEX_POINT('',#1438);
#425=VERTEX_POINT('',#1442);
#426=VERTEX_POINT('',#1444);
#427=VERTEX_POINT('',#1448);
#428=VERTEX_POINT('',#1452);
#429=VERTEX_POINT('',#1459);
#430=VERTEX_POINT('',#1460);
#431=VERTEX_POINT('',#1462);
#432=VERTEX_POINT('',#1464);
#433=VERTEX_POINT('',#1468);
#434=VERTEX_POINT('',#1470);
#435=VERTEX_POINT('',#1474);
#436=VERTEX_POINT('',#1476);
#437=VERTEX_POINT('',#1480);
#438=VERTEX_POINT('',#1484);
#439=VERTEX_POINT('',#1490);
#440=VERTEX_POINT('',#1496);
#441=VERTEX_POINT('',#1505);
#442=VERTEX_POINT('',#1506);
#443=VERTEX_POINT('',#1508);
#444=VERTEX_POINT('',#1510);
#445=VERTEX_POINT('',#1514);
#446=VERTEX_POINT('',#1516);
#447=VERTEX_POINT('',#1520);
#448=VERTEX_POINT('',#1522);
#449=VERTEX_POINT('',#1526);
#450=VERTEX_POINT('',#1532);
#451=VERTEX_POINT('',#1536);
#452=VERTEX_POINT('',#1538);
#453=VERTEX_POINT('',#1551);
#454=VERTEX_POINT('',#1552);
#455=VERTEX_POINT('',#1554);
#456=VERTEX_POINT('',#1556);
#457=VERTEX_POINT('',#1560);
#458=VERTEX_POINT('',#1562);
#459=VERTEX_POINT('',#1566);
#460=VERTEX_POINT('',#1568);
#461=VERTEX_POINT('',#1572);
#462=VERTEX_POINT('',#1576);
#463=VERTEX_POINT('',#1582);
#464=VERTEX_POINT('',#1588);
#465=EDGE_CURVE('',#383,#384,#255,.T.);
#466=EDGE_CURVE('',#385,#383,#212,.T.);
#467=EDGE_CURVE('',#386,#385,#256,.T.);
#468=EDGE_CURVE('',#384,#386,#213,.T.);
#469=EDGE_CURVE('',#387,#385,#257,.T.);
#470=EDGE_CURVE('',#388,#387,#258,.T.);
#471=EDGE_CURVE('',#386,#388,#259,.T.);
#472=EDGE_CURVE('',#383,#389,#260,.T.);
#473=EDGE_CURVE('',#389,#387,#214,.T.);
#474=EDGE_CURVE('',#390,#384,#261,.T.);
#475=EDGE_CURVE('',#389,#390,#262,.T.);
#476=EDGE_CURVE('',#390,#388,#215,.T.);
#477=EDGE_CURVE('',#391,#391,#216,.T.);
#478=EDGE_CURVE('',#391,#392,#217,.T.);
#479=EDGE_CURVE('',#392,#392,#218,.T.);
#480=EDGE_CURVE('',#393,#394,#263,.T.);
#481=EDGE_CURVE('',#395,#393,#219,.T.);
#482=EDGE_CURVE('',#396,#395,#264,.T.);
#483=EDGE_CURVE('',#396,#394,#220,.F.);
#484=EDGE_CURVE('',#397,#393,#265,.T.);
#485=EDGE_CURVE('',#398,#397,#221,.T.);
#486=EDGE_CURVE('',#395,#398,#266,.T.);
#487=EDGE_CURVE('',#399,#394,#21,.T.);
#488=EDGE_CURVE('',#400,#399,#267,.T.);
#489=EDGE_CURVE('',#401,#400,#22,.T.);
#490=EDGE_CURVE('',#397,#401,#268,.T.);
#491=EDGE_CURVE('',#402,#398,#269,.T.);
#492=EDGE_CURVE('',#403,#402,#23,.T.);
#493=EDGE_CURVE('',#404,#403,#270,.T.);
#494=EDGE_CURVE('',#396,#404,#24,.T.);
#495=EDGE_CURVE('',#400,#403,#222,.T.);
#496=EDGE_CURVE('',#402,#401,#223,.T.);
#497=EDGE_CURVE('',#399,#404,#224,.T.);
#498=EDGE_CURVE('',#405,#406,#225,.T.);
#499=EDGE_CURVE('',#407,#405,#271,.T.);
#500=EDGE_CURVE('',#408,#407,#226,.T.);
#501=EDGE_CURVE('',#406,#408,#272,.T.);
#502=EDGE_CURVE('',#407,#409,#273,.T.);
#503=EDGE_CURVE('',#409,#410,#227,.T.);
#504=EDGE_CURVE('',#410,#408,#274,.T.);
#505=EDGE_CURVE('',#411,#405,#275,.T.);
#506=EDGE_CURVE('',#409,#411,#276,.T.);
#507=EDGE_CURVE('',#412,#410,#277,.T.);
#508=EDGE_CURVE('',#411,#412,#228,.T.);
#509=EDGE_CURVE('',#406,#412,#278,.T.);
#510=EDGE_CURVE('',#413,#414,#279,.T.);
#511=EDGE_CURVE('',#415,#413,#229,.T.);
#512=EDGE_CURVE('',#416,#415,#280,.T.);
#513=EDGE_CURVE('',#414,#416,#230,.T.);
#514=EDGE_CURVE('',#417,#415,#281,.T.);
#515=EDGE_CURVE('',#418,#417,#282,.T.);
#516=EDGE_CURVE('',#416,#418,#283,.T.);
#517=EDGE_CURVE('',#413,#419,#284,.T.);
#518=EDGE_CURVE('',#419,#417,#231,.T.);
#519=EDGE_CURVE('',#420,#414,#285,.T.);
#520=EDGE_CURVE('',#419,#420,#286,.T.);
#521=EDGE_CURVE('',#420,#418,#232,.T.);
#522=EDGE_CURVE('',#421,#422,#233,.T.);
#523=EDGE_CURVE('',#423,#421,#287,.T.);
#524=EDGE_CURVE('',#424,#423,#234,.T.);
#525=EDGE_CURVE('',#422,#424,#288,.T.);
#526=EDGE_CURVE('',#423,#425,#289,.T.);
#527=EDGE_CURVE('',#425,#426,#235,.T.);
#528=EDGE_CURVE('',#426,#424,#290,.T.);
#529=EDGE_CURVE('',#427,#421,#291,.T.);
#530=EDGE_CURVE('',#425,#427,#292,.T.);
#531=EDGE_CURVE('',#427,#428,#236,.T.);
#532=EDGE_CURVE('',#428,#426,#293,.T.);
#533=EDGE_CURVE('',#422,#428,#294,.T.);
#534=EDGE_CURVE('',#429,#430,#295,.T.);
#535=EDGE_CURVE('',#429,#431,#237,.T.);
#536=EDGE_CURVE('',#432,#431,#296,.T.);
#537=EDGE_CURVE('',#430,#432,#238,.T.);
#538=EDGE_CURVE('',#433,#429,#297,.T.);
#539=EDGE_CURVE('',#433,#434,#239,.F.);
#540=EDGE_CURVE('',#431,#434,#298,.T.);
#541=EDGE_CURVE('',#432,#435,#299,.T.);
#542=EDGE_CURVE('',#436,#435,#240,.T.);
#543=EDGE_CURVE('',#436,#430,#300,.T.);
#544=EDGE_CURVE('',#437,#434,#25,.T.);
#545=EDGE_CURVE('',#438,#437,#301,.T.);
#546=EDGE_CURVE('',#435,#438,#26,.T.);
#547=EDGE_CURVE('',#439,#436,#27,.T.);
#548=EDGE_CURVE('',#438,#439,#241,.T.);
#549=EDGE_CURVE('',#440,#439,#302,.T.);
#550=EDGE_CURVE('',#437,#440,#242,.T.);
#551=EDGE_CURVE('',#433,#440,#28,.T.);
#552=EDGE_CURVE('',#441,#442,#303,.T.);
#553=EDGE_CURVE('',#443,#441,#243,.T.);
#554=EDGE_CURVE('',#444,#443,#304,.T.);
#555=EDGE_CURVE('',#444,#442,#244,.F.);
#556=EDGE_CURVE('',#445,#441,#305,.T.);
#557=EDGE_CURVE('',#446,#445,#245,.T.);
#558=EDGE_CURVE('',#443,#446,#306,.T.);
#559=EDGE_CURVE('',#447,#446,#307,.T.);
#560=EDGE_CURVE('',#448,#447,#29,.T.);
#561=EDGE_CURVE('',#449,#448,#308,.T.);
#562=EDGE_CURVE('',#444,#449,#30,.T.);
#563=EDGE_CURVE('',#450,#442,#31,.T.);
#564=EDGE_CURVE('',#451,#450,#309,.T.);
#565=EDGE_CURVE('',#452,#451,#32,.T.);
#566=EDGE_CURVE('',#445,#452,#310,.T.);
#567=EDGE_CURVE('',#450,#449,#246,.T.);
#568=EDGE_CURVE('',#451,#448,#247,.T.);
#569=EDGE_CURVE('',#447,#452,#248,.T.);
#570=EDGE_CURVE('',#453,#454,#311,.T.);
#571=EDGE_CURVE('',#453,#455,#249,.T.);
#572=EDGE_CURVE('',#456,#455,#312,.T.);
#573=EDGE_CURVE('',#454,#456,#250,.T.);
#574=EDGE_CURVE('',#457,#453,#313,.T.);
#575=EDGE_CURVE('',#457,#458,#251,.F.);
#576=EDGE_CURVE('',#455,#458,#314,.T.);
#577=EDGE_CURVE('',#456,#459,#315,.T.);
#578=EDGE_CURVE('',#460,#459,#252,.T.);
#579=EDGE_CURVE('',#460,#454,#316,.T.);
#580=EDGE_CURVE('',#461,#458,#33,.T.);
#581=EDGE_CURVE('',#462,#461,#317,.T.);
#582=EDGE_CURVE('',#459,#462,#34,.T.);
#583=EDGE_CURVE('',#463,#460,#35,.T.);
#584=EDGE_CURVE('',#462,#463,#253,.T.);
#585=EDGE_CURVE('',#464,#463,#318,.T.);
#586=EDGE_CURVE('',#461,#464,#254,.T.);
#587=EDGE_CURVE('',#457,#464,#36,.T.);
#588=ORIENTED_EDGE('',*,*,#465,.F.);
#589=ORIENTED_EDGE('',*,*,#466,.F.);
#590=ORIENTED_EDGE('',*,*,#467,.F.);
#591=ORIENTED_EDGE('',*,*,#468,.F.);
#592=ORIENTED_EDGE('',*,*,#467,.T.);
#593=ORIENTED_EDGE('',*,*,#469,.F.);
#594=ORIENTED_EDGE('',*,*,#470,.F.);
#595=ORIENTED_EDGE('',*,*,#471,.F.);
#596=ORIENTED_EDGE('',*,*,#466,.T.);
#597=ORIENTED_EDGE('',*,*,#472,.T.);
#598=ORIENTED_EDGE('',*,*,#473,.T.);
#599=ORIENTED_EDGE('',*,*,#469,.T.);
#600=ORIENTED_EDGE('',*,*,#465,.T.);
#601=ORIENTED_EDGE('',*,*,#474,.F.);
#602=ORIENTED_EDGE('',*,*,#475,.F.);
#603=ORIENTED_EDGE('',*,*,#472,.F.);
#604=ORIENTED_EDGE('',*,*,#468,.T.);
#605=ORIENTED_EDGE('',*,*,#471,.T.);
#606=ORIENTED_EDGE('',*,*,#476,.F.);
#607=ORIENTED_EDGE('',*,*,#474,.T.);
#608=ORIENTED_EDGE('',*,*,#475,.T.);
#609=ORIENTED_EDGE('',*,*,#476,.T.);
#610=ORIENTED_EDGE('',*,*,#470,.T.);
#611=ORIENTED_EDGE('',*,*,#473,.F.);
#612=ORIENTED_EDGE('',*,*,#477,.T.);
#613=ORIENTED_EDGE('',*,*,#478,.T.);
#614=ORIENTED_EDGE('',*,*,#479,.T.);
#615=ORIENTED_EDGE('',*,*,#478,.F.);
#616=ORIENTED_EDGE('',*,*,#477,.F.);
#617=ORIENTED_EDGE('',*,*,#479,.F.);
#618=ORIENTED_EDGE('',*,*,#480,.F.);
#619=ORIENTED_EDGE('',*,*,#481,.F.);
#620=ORIENTED_EDGE('',*,*,#482,.F.);
#621=ORIENTED_EDGE('',*,*,#483,.T.);
#622=ORIENTED_EDGE('',*,*,#484,.F.);
#623=ORIENTED_EDGE('',*,*,#485,.F.);
#624=ORIENTED_EDGE('',*,*,#486,.F.);
#625=ORIENTED_EDGE('',*,*,#481,.T.);
#626=ORIENTED_EDGE('',*,*,#484,.T.);
#627=ORIENTED_EDGE('',*,*,#480,.T.);
#628=ORIENTED_EDGE('',*,*,#487,.F.);
#629=ORIENTED_EDGE('',*,*,#488,.F.);
#630=ORIENTED_EDGE('',*,*,#489,.F.);
#631=ORIENTED_EDGE('',*,*,#490,.F.);
#632=ORIENTED_EDGE('',*,*,#486,.T.);
#633=ORIENTED_EDGE('',*,*,#491,.F.);
#634=ORIENTED_EDGE('',*,*,#492,.F.);
#635=ORIENTED_EDGE('',*,*,#493,.F.);
#636=ORIENTED_EDGE('',*,*,#494,.F.);
#637=ORIENTED_EDGE('',*,*,#482,.T.);
#638=ORIENTED_EDGE('',*,*,#489,.T.);
#639=ORIENTED_EDGE('',*,*,#495,.T.);
#640=ORIENTED_EDGE('',*,*,#492,.T.);
#641=ORIENTED_EDGE('',*,*,#496,.T.);
#642=ORIENTED_EDGE('',*,*,#487,.T.);
#643=ORIENTED_EDGE('',*,*,#483,.F.);
#644=ORIENTED_EDGE('',*,*,#494,.T.);
#645=ORIENTED_EDGE('',*,*,#497,.F.);
#646=ORIENTED_EDGE('',*,*,#488,.T.);
#647=ORIENTED_EDGE('',*,*,#497,.T.);
#648=ORIENTED_EDGE('',*,*,#493,.T.);
#649=ORIENTED_EDGE('',*,*,#495,.F.);
#650=ORIENTED_EDGE('',*,*,#485,.T.);
#651=ORIENTED_EDGE('',*,*,#490,.T.);
#652=ORIENTED_EDGE('',*,*,#496,.F.);
#653=ORIENTED_EDGE('',*,*,#491,.T.);
#654=ORIENTED_EDGE('',*,*,#498,.F.);
#655=ORIENTED_EDGE('',*,*,#499,.F.);
#656=ORIENTED_EDGE('',*,*,#500,.F.);
#657=ORIENTED_EDGE('',*,*,#501,.F.);
#658=ORIENTED_EDGE('',*,*,#500,.T.);
#659=ORIENTED_EDGE('',*,*,#502,.T.);
#660=ORIENTED_EDGE('',*,*,#503,.T.);
#661=ORIENTED_EDGE('',*,*,#504,.T.);
#662=ORIENTED_EDGE('',*,*,#499,.T.);
#663=ORIENTED_EDGE('',*,*,#505,.F.);
#664=ORIENTED_EDGE('',*,*,#506,.F.);
#665=ORIENTED_EDGE('',*,*,#502,.F.);
#666=ORIENTED_EDGE('',*,*,#507,.T.);
#667=ORIENTED_EDGE('',*,*,#503,.F.);
#668=ORIENTED_EDGE('',*,*,#506,.T.);
#669=ORIENTED_EDGE('',*,*,#508,.T.);
#670=ORIENTED_EDGE('',*,*,#498,.T.);
#671=ORIENTED_EDGE('',*,*,#509,.T.);
#672=ORIENTED_EDGE('',*,*,#508,.F.);
#673=ORIENTED_EDGE('',*,*,#505,.T.);
#674=ORIENTED_EDGE('',*,*,#501,.T.);
#675=ORIENTED_EDGE('',*,*,#504,.F.);
#676=ORIENTED_EDGE('',*,*,#507,.F.);
#677=ORIENTED_EDGE('',*,*,#509,.F.);
#678=ORIENTED_EDGE('',*,*,#510,.F.);
#679=ORIENTED_EDGE('',*,*,#511,.F.);
#680=ORIENTED_EDGE('',*,*,#512,.F.);
#681=ORIENTED_EDGE('',*,*,#513,.F.);
#682=ORIENTED_EDGE('',*,*,#512,.T.);
#683=ORIENTED_EDGE('',*,*,#514,.F.);
#684=ORIENTED_EDGE('',*,*,#515,.F.);
#685=ORIENTED_EDGE('',*,*,#516,.F.);
#686=ORIENTED_EDGE('',*,*,#511,.T.);
#687=ORIENTED_EDGE('',*,*,#517,.T.);
#688=ORIENTED_EDGE('',*,*,#518,.T.);
#689=ORIENTED_EDGE('',*,*,#514,.T.);
#690=ORIENTED_EDGE('',*,*,#510,.T.);
#691=ORIENTED_EDGE('',*,*,#519,.F.);
#692=ORIENTED_EDGE('',*,*,#520,.F.);
#693=ORIENTED_EDGE('',*,*,#517,.F.);
#694=ORIENTED_EDGE('',*,*,#513,.T.);
#695=ORIENTED_EDGE('',*,*,#516,.T.);
#696=ORIENTED_EDGE('',*,*,#521,.F.);
#697=ORIENTED_EDGE('',*,*,#519,.T.);
#698=ORIENTED_EDGE('',*,*,#515,.T.);
#699=ORIENTED_EDGE('',*,*,#518,.F.);
#700=ORIENTED_EDGE('',*,*,#520,.T.);
#701=ORIENTED_EDGE('',*,*,#521,.T.);
#702=ORIENTED_EDGE('',*,*,#522,.F.);
#703=ORIENTED_EDGE('',*,*,#523,.F.);
#704=ORIENTED_EDGE('',*,*,#524,.F.);
#705=ORIENTED_EDGE('',*,*,#525,.F.);
#706=ORIENTED_EDGE('',*,*,#524,.T.);
#707=ORIENTED_EDGE('',*,*,#526,.T.);
#708=ORIENTED_EDGE('',*,*,#527,.T.);
#709=ORIENTED_EDGE('',*,*,#528,.T.);
#710=ORIENTED_EDGE('',*,*,#523,.T.);
#711=ORIENTED_EDGE('',*,*,#529,.F.);
#712=ORIENTED_EDGE('',*,*,#530,.F.);
#713=ORIENTED_EDGE('',*,*,#526,.F.);
#714=ORIENTED_EDGE('',*,*,#530,.T.);
#715=ORIENTED_EDGE('',*,*,#531,.T.);
#716=ORIENTED_EDGE('',*,*,#532,.T.);
#717=ORIENTED_EDGE('',*,*,#527,.F.);
#718=ORIENTED_EDGE('',*,*,#522,.T.);
#719=ORIENTED_EDGE('',*,*,#533,.T.);
#720=ORIENTED_EDGE('',*,*,#531,.F.);
#721=ORIENTED_EDGE('',*,*,#529,.T.);
#722=ORIENTED_EDGE('',*,*,#525,.T.);
#723=ORIENTED_EDGE('',*,*,#528,.F.);
#724=ORIENTED_EDGE('',*,*,#532,.F.);
#725=ORIENTED_EDGE('',*,*,#533,.F.);
#726=ORIENTED_EDGE('',*,*,#534,.F.);
#727=ORIENTED_EDGE('',*,*,#535,.T.);
#728=ORIENTED_EDGE('',*,*,#536,.F.);
#729=ORIENTED_EDGE('',*,*,#537,.F.);
#730=ORIENTED_EDGE('',*,*,#538,.F.);
#731=ORIENTED_EDGE('',*,*,#539,.T.);
#732=ORIENTED_EDGE('',*,*,#540,.F.);
#733=ORIENTED_EDGE('',*,*,#535,.F.);
#734=ORIENTED_EDGE('',*,*,#537,.T.);
#735=ORIENTED_EDGE('',*,*,#541,.T.);
#736=ORIENTED_EDGE('',*,*,#542,.F.);
#737=ORIENTED_EDGE('',*,*,#543,.T.);
#738=ORIENTED_EDGE('',*,*,#536,.T.);
#739=ORIENTED_EDGE('',*,*,#540,.T.);
#740=ORIENTED_EDGE('',*,*,#544,.F.);
#741=ORIENTED_EDGE('',*,*,#545,.F.);
#742=ORIENTED_EDGE('',*,*,#546,.F.);
#743=ORIENTED_EDGE('',*,*,#541,.F.);
#744=ORIENTED_EDGE('',*,*,#547,.T.);
#745=ORIENTED_EDGE('',*,*,#542,.T.);
#746=ORIENTED_EDGE('',*,*,#546,.T.);
#747=ORIENTED_EDGE('',*,*,#548,.T.);
#748=ORIENTED_EDGE('',*,*,#549,.T.);
#749=ORIENTED_EDGE('',*,*,#548,.F.);
#750=ORIENTED_EDGE('',*,*,#545,.T.);
#751=ORIENTED_EDGE('',*,*,#550,.T.);
#752=ORIENTED_EDGE('',*,*,#551,.T.);
#753=ORIENTED_EDGE('',*,*,#550,.F.);
#754=ORIENTED_EDGE('',*,*,#544,.T.);
#755=ORIENTED_EDGE('',*,*,#539,.F.);
#756=ORIENTED_EDGE('',*,*,#534,.T.);
#757=ORIENTED_EDGE('',*,*,#543,.F.);
#758=ORIENTED_EDGE('',*,*,#547,.F.);
#759=ORIENTED_EDGE('',*,*,#549,.F.);
#760=ORIENTED_EDGE('',*,*,#551,.F.);
#761=ORIENTED_EDGE('',*,*,#538,.T.);
#762=ORIENTED_EDGE('',*,*,#552,.F.);
#763=ORIENTED_EDGE('',*,*,#553,.F.);
#764=ORIENTED_EDGE('',*,*,#554,.F.);
#765=ORIENTED_EDGE('',*,*,#555,.T.);
#766=ORIENTED_EDGE('',*,*,#556,.F.);
#767=ORIENTED_EDGE('',*,*,#557,.F.);
#768=ORIENTED_EDGE('',*,*,#558,.F.);
#769=ORIENTED_EDGE('',*,*,#553,.T.);
#770=ORIENTED_EDGE('',*,*,#554,.T.);
#771=ORIENTED_EDGE('',*,*,#558,.T.);
#772=ORIENTED_EDGE('',*,*,#559,.F.);
#773=ORIENTED_EDGE('',*,*,#560,.F.);
#774=ORIENTED_EDGE('',*,*,#561,.F.);
#775=ORIENTED_EDGE('',*,*,#562,.F.);
#776=ORIENTED_EDGE('',*,*,#552,.T.);
#777=ORIENTED_EDGE('',*,*,#563,.F.);
#778=ORIENTED_EDGE('',*,*,#564,.F.);
#779=ORIENTED_EDGE('',*,*,#565,.F.);
#780=ORIENTED_EDGE('',*,*,#566,.F.);
#781=ORIENTED_EDGE('',*,*,#556,.T.);
#782=ORIENTED_EDGE('',*,*,#563,.T.);
#783=ORIENTED_EDGE('',*,*,#555,.F.);
#784=ORIENTED_EDGE('',*,*,#562,.T.);
#785=ORIENTED_EDGE('',*,*,#567,.F.);
#786=ORIENTED_EDGE('',*,*,#564,.T.);
#787=ORIENTED_EDGE('',*,*,#567,.T.);
#788=ORIENTED_EDGE('',*,*,#561,.T.);
#789=ORIENTED_EDGE('',*,*,#568,.F.);
#790=ORIENTED_EDGE('',*,*,#557,.T.);
#791=ORIENTED_EDGE('',*,*,#566,.T.);
#792=ORIENTED_EDGE('',*,*,#569,.F.);
#793=ORIENTED_EDGE('',*,*,#559,.T.);
#794=ORIENTED_EDGE('',*,*,#565,.T.);
#795=ORIENTED_EDGE('',*,*,#568,.T.);
#796=ORIENTED_EDGE('',*,*,#560,.T.);
#797=ORIENTED_EDGE('',*,*,#569,.T.);
#798=ORIENTED_EDGE('',*,*,#570,.F.);
#799=ORIENTED_EDGE('',*,*,#571,.T.);
#800=ORIENTED_EDGE('',*,*,#572,.F.);
#801=ORIENTED_EDGE('',*,*,#573,.F.);
#802=ORIENTED_EDGE('',*,*,#574,.F.);
#803=ORIENTED_EDGE('',*,*,#575,.T.);
#804=ORIENTED_EDGE('',*,*,#576,.F.);
#805=ORIENTED_EDGE('',*,*,#571,.F.);
#806=ORIENTED_EDGE('',*,*,#573,.T.);
#807=ORIENTED_EDGE('',*,*,#577,.T.);
#808=ORIENTED_EDGE('',*,*,#578,.F.);
#809=ORIENTED_EDGE('',*,*,#579,.T.);
#810=ORIENTED_EDGE('',*,*,#572,.T.);
#811=ORIENTED_EDGE('',*,*,#576,.T.);
#812=ORIENTED_EDGE('',*,*,#580,.F.);
#813=ORIENTED_EDGE('',*,*,#581,.F.);
#814=ORIENTED_EDGE('',*,*,#582,.F.);
#815=ORIENTED_EDGE('',*,*,#577,.F.);
#816=ORIENTED_EDGE('',*,*,#583,.T.);
#817=ORIENTED_EDGE('',*,*,#578,.T.);
#818=ORIENTED_EDGE('',*,*,#582,.T.);
#819=ORIENTED_EDGE('',*,*,#584,.T.);
#820=ORIENTED_EDGE('',*,*,#585,.T.);
#821=ORIENTED_EDGE('',*,*,#584,.F.);
#822=ORIENTED_EDGE('',*,*,#581,.T.);
#823=ORIENTED_EDGE('',*,*,#586,.T.);
#824=ORIENTED_EDGE('',*,*,#587,.T.);
#825=ORIENTED_EDGE('',*,*,#586,.F.);
#826=ORIENTED_EDGE('',*,*,#580,.T.);
#827=ORIENTED_EDGE('',*,*,#575,.F.);
#828=ORIENTED_EDGE('',*,*,#570,.T.);
#829=ORIENTED_EDGE('',*,*,#579,.F.);
#830=ORIENTED_EDGE('',*,*,#583,.F.);
#831=ORIENTED_EDGE('',*,*,#585,.F.);
#832=ORIENTED_EDGE('',*,*,#587,.F.);
#833=ORIENTED_EDGE('',*,*,#574,.T.);
#834=CYLINDRICAL_SURFACE('',#927,0.34);
#835=CYLINDRICAL_SURFACE('',#936,0.36);
#836=CYLINDRICAL_SURFACE('',#946,0.34);
#837=CYLINDRICAL_SURFACE('',#957,0.34);
#838=CYLINDRICAL_SURFACE('',#963,0.36);
#839=CYLINDRICAL_SURFACE('',#967,0.34);
#840=CYLINDRICAL_SURFACE('',#976,0.36);
#841=CYLINDRICAL_SURFACE('',#977,0.34);
#842=CYLINDRICAL_SURFACE('',#983,0.36);
#843=CYLINDRICAL_SURFACE('',#987,0.34);
#844=CYLINDRICAL_SURFACE('',#1004,0.34);
#845=CYLINDRICAL_SURFACE('',#1015,0.34);
#846=ADVANCED_FACE('',(#94),#834,.F.);
#847=ADVANCED_FACE('',(#95),#56,.F.);
#848=ADVANCED_FACE('',(#96),#57,.T.);
#849=ADVANCED_FACE('',(#97),#58,.F.);
#850=ADVANCED_FACE('',(#98),#59,.F.);
#851=ADVANCED_FACE('',(#99),#835,.T.);
#852=ADVANCED_FACE('',(#100),#37,.T.);
#853=ADVANCED_FACE('',(#101),#60,.T.);
#854=ADVANCED_FACE('',(#102),#61,.F.);
#855=ADVANCED_FACE('',(#103),#62,.F.);
#856=ADVANCED_FACE('',(#104),#836,.F.);
#857=ADVANCED_FACE('',(#105),#63,.F.);
#858=ADVANCED_FACE('',(#106),#64,.F.);
#859=ADVANCED_FACE('',(#107),#13,.T.);
#860=ADVANCED_FACE('',(#108),#14,.F.);
#861=ADVANCED_FACE('',(#109),#65,.T.);
#862=ADVANCED_FACE('',(#110),#66,.F.);
#863=ADVANCED_FACE('',(#111),#837,.F.);
#864=ADVANCED_FACE('',(#112),#67,.T.);
#865=ADVANCED_FACE('',(#113),#68,.F.);
#866=ADVANCED_FACE('',(#114),#838,.T.);
#867=ADVANCED_FACE('',(#115),#69,.F.);
#868=ADVANCED_FACE('',(#116),#70,.F.);
#869=ADVANCED_FACE('',(#117),#839,.F.);
#870=ADVANCED_FACE('',(#118),#71,.F.);
#871=ADVANCED_FACE('',(#119),#72,.T.);
#872=ADVANCED_FACE('',(#120),#73,.F.);
#873=ADVANCED_FACE('',(#121),#74,.F.);
#874=ADVANCED_FACE('',(#122),#840,.T.);
#875=ADVANCED_FACE('',(#123),#841,.F.);
#876=ADVANCED_FACE('',(#124),#75,.T.);
#877=ADVANCED_FACE('',(#125),#76,.F.);
#878=ADVANCED_FACE('',(#126),#842,.T.);
#879=ADVANCED_FACE('',(#127),#77,.F.);
#880=ADVANCED_FACE('',(#128),#78,.F.);
#881=ADVANCED_FACE('',(#129),#843,.F.);
#882=ADVANCED_FACE('',(#130),#79,.F.);
#883=ADVANCED_FACE('',(#131),#80,.F.);
#884=ADVANCED_FACE('',(#132),#81,.F.);
#885=ADVANCED_FACE('',(#133),#15,.T.);
#886=ADVANCED_FACE('',(#134),#82,.T.);
#887=ADVANCED_FACE('',(#135),#16,.F.);
#888=ADVANCED_FACE('',(#136),#83,.F.);
#889=ADVANCED_FACE('',(#137),#84,.F.);
#890=ADVANCED_FACE('',(#138),#844,.F.);
#891=ADVANCED_FACE('',(#139),#85,.F.);
#892=ADVANCED_FACE('',(#140),#86,.F.);
#893=ADVANCED_FACE('',(#141),#17,.F.);
#894=ADVANCED_FACE('',(#142),#87,.T.);
#895=ADVANCED_FACE('',(#143),#88,.F.);
#896=ADVANCED_FACE('',(#144),#18,.T.);
#897=ADVANCED_FACE('',(#145),#845,.F.);
#898=ADVANCED_FACE('',(#146),#89,.F.);
#899=ADVANCED_FACE('',(#147),#90,.F.);
#900=ADVANCED_FACE('',(#148),#91,.F.);
#901=ADVANCED_FACE('',(#149),#19,.T.);
#902=ADVANCED_FACE('',(#150),#92,.T.);
#903=ADVANCED_FACE('',(#151),#20,.F.);
#904=ADVANCED_FACE('',(#152),#93,.F.);
#905=CLOSED_SHELL('',(#846,#847,#848,#849,#850,#851));
#906=CLOSED_SHELL('',(#852,#853,#854));
#907=CLOSED_SHELL('',(#855,#856,#857,#858,#859,#860,#861,#862));
#908=CLOSED_SHELL('',(#863,#864,#865,#866,#867,#868));
#909=CLOSED_SHELL('',(#869,#870,#871,#872,#873,#874));
#910=CLOSED_SHELL('',(#875,#876,#877,#878,#879,#880));
#911=CLOSED_SHELL('',(#881,#882,#883,#884,#885,#886,#887,#888));
#912=CLOSED_SHELL('',(#889,#890,#891,#892,#893,#894,#895,#896));
#913=CLOSED_SHELL('',(#897,#898,#899,#900,#901,#902,#903,#904));
#914=DERIVED_UNIT_ELEMENT(#916,1.);
#915=DERIVED_UNIT_ELEMENT(#1603,-3.);
#916=(
MASS_UNIT()
NAMED_UNIT(*)
SI_UNIT(.KILO.,.GRAM.)
);
#917=DERIVED_UNIT((#914,#915));
#918=MEASURE_REPRESENTATION_ITEM('density measure',
POSITIVE_RATIO_MEASURE(7850.),#917);
#919=PROPERTY_DEFINITION_REPRESENTATION(#924,#921);
#920=PROPERTY_DEFINITION_REPRESENTATION(#925,#922);
#921=REPRESENTATION('material name',(#923),#1598);
#922=REPRESENTATION('density',(#918),#1598);
#923=DESCRIPTIVE_REPRESENTATION_ITEM('Steel','Steel');
#924=PROPERTY_DEFINITION('material property','material name',#1611);
#925=PROPERTY_DEFINITION('material property','density of part',#1611);
#926=AXIS2_PLACEMENT_3D('',#1299,#1029,#1030);
#927=AXIS2_PLACEMENT_3D('',#1300,#1031,#1032);
#928=AXIS2_PLACEMENT_3D('',#1305,#1034,#1035);
#929=AXIS2_PLACEMENT_3D('',#1308,#1037,#1038);
#930=AXIS2_PLACEMENT_3D('',#1309,#1039,#1040);
#931=AXIS2_PLACEMENT_3D('',#1315,#1044,#1045);
#932=AXIS2_PLACEMENT_3D('',#1318,#1047,#1048);
#933=AXIS2_PLACEMENT_3D('',#1319,#1049,#1050);
#934=AXIS2_PLACEMENT_3D('',#1323,#1053,#1054);
#935=AXIS2_PLACEMENT_3D('',#1324,#1055,#1056);
#936=AXIS2_PLACEMENT_3D('',#1325,#1057,#1058);
#937=AXIS2_PLACEMENT_3D('',#1326,#1059,#1060);
#938=AXIS2_PLACEMENT_3D('',#1328,#1061,#1062);
#939=AXIS2_PLACEMENT_3D('',#1330,#1063,#1064);
#940=AXIS2_PLACEMENT_3D('',#1331,#1065,#1066);
#941=AXIS2_PLACEMENT_3D('',#1332,#1067,#1068);
#942=AXIS2_PLACEMENT_3D('',#1333,#1069,#1070);
#943=AXIS2_PLACEMENT_3D('',#1334,#1071,#1072);
#944=AXIS2_PLACEMENT_3D('',#1339,#1074,#1075);
#945=AXIS2_PLACEMENT_3D('',#1342,#1077,#1078);
#946=AXIS2_PLACEMENT_3D('',#1343,#1079,#1080);
#947=AXIS2_PLACEMENT_3D('',#1347,#1082,#1083);
#948=AXIS2_PLACEMENT_3D('',#1349,#1085,#1086);
#949=AXIS2_PLACEMENT_3D('',#1361,#1089,#1090);
#950=AXIS2_PLACEMENT_3D('',#1373,#1093,#1094);
#951=AXIS2_PLACEMENT_3D('',#1374,#1095,#1096);
#952=AXIS2_PLACEMENT_3D('',#1375,#1097,#1098);
#953=AXIS2_PLACEMENT_3D('',#1376,#1099,#1100);
#954=AXIS2_PLACEMENT_3D('',#1377,#1101,#1102);
#955=AXIS2_PLACEMENT_3D('',#1378,#1103,#1104);
#956=AXIS2_PLACEMENT_3D('',#1379,#1105,#1106);
#957=AXIS2_PLACEMENT_3D('',#1380,#1107,#1108);
#958=AXIS2_PLACEMENT_3D('',#1383,#1109,#1110);
#959=AXIS2_PLACEMENT_3D('',#1387,#1112,#1113);
#960=AXIS2_PLACEMENT_3D('',#1389,#1115,#1116);
#961=AXIS2_PLACEMENT_3D('',#1393,#1118,#1119);
#962=AXIS2_PLACEMENT_3D('',#1395,#1121,#1122);
#963=AXIS2_PLACEMENT_3D('',#1399,#1125,#1126);
#964=AXIS2_PLACEMENT_3D('',#1402,#1128,#1129);
#965=AXIS2_PLACEMENT_3D('',#1403,#1130,#1131);
#966=AXIS2_PLACEMENT_3D('',#1405,#1133,#1134);
#967=AXIS2_PLACEMENT_3D('',#1406,#1135,#1136);
#968=AXIS2_PLACEMENT_3D('',#1411,#1138,#1139);
#969=AXIS2_PLACEMENT_3D('',#1414,#1141,#1142);
#970=AXIS2_PLACEMENT_3D('',#1415,#1143,#1144);
#971=AXIS2_PLACEMENT_3D('',#1421,#1148,#1149);
#972=AXIS2_PLACEMENT_3D('',#1424,#1151,#1152);
#973=AXIS2_PLACEMENT_3D('',#1425,#1153,#1154);
#974=AXIS2_PLACEMENT_3D('',#1429,#1157,#1158);
#975=AXIS2_PLACEMENT_3D('',#1430,#1159,#1160);
#976=AXIS2_PLACEMENT_3D('',#1431,#1161,#1162);
#977=AXIS2_PLACEMENT_3D('',#1432,#1163,#1164);
#978=AXIS2_PLACEMENT_3D('',#1435,#1165,#1166);
#979=AXIS2_PLACEMENT_3D('',#1439,#1168,#1169);
#980=AXIS2_PLACEMENT_3D('',#1441,#1171,#1172);
#981=AXIS2_PLACEMENT_3D('',#1445,#1174,#1175);
#982=AXIS2_PLACEMENT_3D('',#1447,#1177,#1178);
#983=AXIS2_PLACEMENT_3D('',#1451,#1181,#1182);
#984=AXIS2_PLACEMENT_3D('',#1453,#1183,#1184);
#985=AXIS2_PLACEMENT_3D('',#1455,#1186,#1187);
#986=AXIS2_PLACEMENT_3D('',#1457,#1189,#1190);
#987=AXIS2_PLACEMENT_3D('',#1458,#1191,#1192);
#988=AXIS2_PLACEMENT_3D('',#1463,#1194,#1195);
#989=AXIS2_PLACEMENT_3D('',#1466,#1197,#1198);
#990=AXIS2_PLACEMENT_3D('',#1467,#1199,#1200);
#991=AXIS2_PLACEMENT_3D('',#1471,#1202,#1203);
#992=AXIS2_PLACEMENT_3D('',#1473,#1205,#1206);
#993=AXIS2_PLACEMENT_3D('',#1477,#1208,#1209);
#994=AXIS2_PLACEMENT_3D('',#1479,#1211,#1212);
#995=AXIS2_PLACEMENT_3D('',#1489,#1214,#1215);
#996=AXIS2_PLACEMENT_3D('',#1494,#1216,#1217);
#997=AXIS2_PLACEMENT_3D('',#1495,#1218,#1219);
#998=AXIS2_PLACEMENT_3D('',#1498,#1221,#1222);
#999=AXIS2_PLACEMENT_3D('',#1499,#1223,#1224);
#1000=AXIS2_PLACEMENT_3D('',#1503,#1225,#1226);
#1001=AXIS2_PLACEMENT_3D('',#1504,#1227,#1228);
#1002=AXIS2_PLACEMENT_3D('',#1509,#1230,#1231);
#1003=AXIS2_PLACEMENT_3D('',#1512,#1233,#1234);
#1004=AXIS2_PLACEMENT_3D('',#1513,#1235,#1236);
#1005=AXIS2_PLACEMENT_3D('',#1517,#1238,#1239);
#1006=AXIS2_PLACEMENT_3D('',#1519,#1241,#1242);
#1007=AXIS2_PLACEMENT_3D('',#1531,#1245,#1246);
#1008=AXIS2_PLACEMENT_3D('',#1543,#1249,#1250);
#1009=AXIS2_PLACEMENT_3D('',#1544,#1251,#1252);
#1010=AXIS2_PLACEMENT_3D('',#1545,#1253,#1254);
#1011=AXIS2_PLACEMENT_3D('',#1546,#1255,#1256);
#1012=AXIS2_PLACEMENT_3D('',#1547,#1257,#1258);
#1013=AXIS2_PLACEMENT_3D('',#1548,#1259,#1260);
#1014=AXIS2_PLACEMENT_3D('',#1549,#1261,#1262);
#1015=AXIS2_PLACEMENT_3D('',#1550,#1263,#1264);
#1016=AXIS2_PLACEMENT_3D('',#1555,#1266,#1267);
#1017=AXIS2_PLACEMENT_3D('',#1558,#1269,#1270);
#1018=AXIS2_PLACEMENT_3D('',#1559,#1271,#1272);
#1019=AXIS2_PLACEMENT_3D('',#1563,#1274,#1275);
#1020=AXIS2_PLACEMENT_3D('',#1565,#1277,#1278);
#1021=AXIS2_PLACEMENT_3D('',#1569,#1280,#1281);
#1022=AXIS2_PLACEMENT_3D('',#1571,#1283,#1284);
#1023=AXIS2_PLACEMENT_3D('',#1581,#1286,#1287);
#1024=AXIS2_PLACEMENT_3D('',#1586,#1288,#1289);
#1025=AXIS2_PLACEMENT_3D('',#1587,#1290,#1291);
#1026=AXIS2_PLACEMENT_3D('',#1590,#1293,#1294);
#1027=AXIS2_PLACEMENT_3D('',#1591,#1295,#1296);
#1028=AXIS2_PLACEMENT_3D('',#1595,#1297,#1298);
#1029=DIRECTION('axis',(0.,0.,1.));
#1030=DIRECTION('refdir',(1.,0.,0.));
#1031=DIRECTION('center_axis',(0.,0.,1.));
#1032=DIRECTION('ref_axis',(1.,0.,0.));
#1033=DIRECTION('',(0.,0.,-1.));
#1034=DIRECTION('center_axis',(0.,0.,-1.));
#1035=DIRECTION('ref_axis',(1.,0.,0.));
#1036=DIRECTION('',(0.,0.,1.));
#1037=DIRECTION('center_axis',(0.,0.,1.));
#1038=DIRECTION('ref_axis',(1.,0.,0.));
#1039=DIRECTION('center_axis',(0.,1.,0.));
#1040=DIRECTION('ref_axis',(-1.,0.,0.));
#1041=DIRECTION('',(1.,0.,0.));
#1042=DIRECTION('',(0.,0.,1.));
#1043=DIRECTION('',(-1.,0.,0.));
#1044=DIRECTION('center_axis',(0.,0.,1.));
#1045=DIRECTION('ref_axis',(1.,0.,0.));
#1046=DIRECTION('',(0.,1.,0.));
#1047=DIRECTION('center_axis',(0.,0.,1.));
#1048=DIRECTION('ref_axis',(1.,0.,0.));
#1049=DIRECTION('center_axis',(-1.,0.,0.));
#1050=DIRECTION('ref_axis',(0.,-1.,0.));
#1051=DIRECTION('',(0.,-1.,0.));
#1052=DIRECTION('',(0.,0.,-1.));
#1053=DIRECTION('center_axis',(0.,0.,1.));
#1054=DIRECTION('ref_axis',(1.,0.,0.));
#1055=DIRECTION('center_axis',(0.,0.,1.));
#1056=DIRECTION('ref_axis',(1.,0.,0.));
#1057=DIRECTION('center_axis',(0.,0.,1.));
#1058=DIRECTION('ref_axis',(1.,0.,0.));
#1059=DIRECTION('center_axis',(0.,0.,1.));
#1060=DIRECTION('ref_axis',(1.,0.,0.));
#1061=DIRECTION('center_axis',(0.,0.,-1.));
#1062=DIRECTION('ref_axis',(-1.,0.,0.));
#1063=DIRECTION('center_axis',(1.22464679914735E-16,-1.,0.));
#1064=DIRECTION('ref_axis',(-1.,-1.22464679914735E-16,0.));
#1065=DIRECTION('center_axis',(0.,0.,1.));
#1066=DIRECTION('ref_axis',(-1.,0.,0.));
#1067=DIRECTION('center_axis',(0.,0.,1.));
#1068=DIRECTION('ref_axis',(-1.,0.,0.));
#1069=DIRECTION('center_axis',(0.,0.,1.));
#1070=DIRECTION('ref_axis',(-1.,0.,0.));
#1071=DIRECTION('center_axis',(0.,0.,-1.));
#1072=DIRECTION('ref_axis',(1.,0.,0.));
#1073=DIRECTION('',(0.,-1.,0.));
#1074=DIRECTION('center_axis',(0.,0.,-1.));
#1075=DIRECTION('ref_axis',(1.,0.,0.));
#1076=DIRECTION('',(-1.,0.,0.));
#1077=DIRECTION('center_axis',(0.,0.,1.));
#1078=DIRECTION('ref_axis',(1.,0.,0.));
#1079=DIRECTION('center_axis',(0.,0.,1.));
#1080=DIRECTION('ref_axis',(1.,0.,0.));
#1081=DIRECTION('',(0.,0.,-1.));
#1082=DIRECTION('center_axis',(0.,0.,-1.));
#1083=DIRECTION('ref_axis',(1.,0.,0.));
#1084=DIRECTION('',(0.,0.,1.));
#1085=DIRECTION('center_axis',(-1.,0.,0.));
#1086=DIRECTION('ref_axis',(0.,-1.,0.));
#1087=DIRECTION('',(0.,-1.,0.));
#1088=DIRECTION('',(0.,1.,0.));
#1089=DIRECTION('center_axis',(0.,1.,0.));
#1090=DIRECTION('ref_axis',(-1.,0.,0.));
#1091=DIRECTION('',(1.,0.,0.));
#1092=DIRECTION('',(-1.,0.,0.));
#1093=DIRECTION('center_axis',(0.,0.,1.));
#1094=DIRECTION('ref_axis',(1.,0.,0.));
#1095=DIRECTION('center_axis',(0.,0.,1.));
#1096=DIRECTION('ref_axis',(1.,0.,0.));
#1097=DIRECTION('center_axis',(0.,0.,-1.));
#1098=DIRECTION('ref_axis',(1.,0.,0.));
#1099=DIRECTION('center_axis',(0.,0.,1.));
#1100=DIRECTION('ref_axis',(1.,0.,0.));
#1101=DIRECTION('center_axis',(0.,0.,1.));
#1102=DIRECTION('ref_axis',(1.,0.,0.));
#1103=DIRECTION('center_axis',(0.,0.,-1.));
#1104=DIRECTION('ref_axis',(1.,0.,0.));
#1105=DIRECTION('center_axis',(0.,0.,-1.));
#1106=DIRECTION('ref_axis',(1.,0.,0.));
#1107=DIRECTION('center_axis',(0.,0.,1.));
#1108=DIRECTION('ref_axis',(1.,0.,0.));
#1109=DIRECTION('center_axis',(0.,0.,1.));
#1110=DIRECTION('ref_axis',(1.,0.,0.));
#1111=DIRECTION('',(0.,0.,-1.));
#1112=DIRECTION('center_axis',(0.,0.,-1.));
#1113=DIRECTION('ref_axis',(1.,0.,0.));
#1114=DIRECTION('',(0.,0.,1.));
#1115=DIRECTION('center_axis',(0.,0.,1.));
#1116=DIRECTION('ref_axis',(1.,0.,0.));
#1117=DIRECTION('',(0.,-1.,0.));
#1118=DIRECTION('center_axis',(0.,0.,1.));
#1119=DIRECTION('ref_axis',(1.,0.,0.));
#1120=DIRECTION('',(-1.,0.,0.));
#1121=DIRECTION('center_axis',(1.,0.,0.));
#1122=DIRECTION('ref_axis',(0.,1.,0.));
#1123=DIRECTION('',(0.,1.,0.));
#1124=DIRECTION('',(0.,0.,-1.));
#1125=DIRECTION('center_axis',(0.,0.,1.));
#1126=DIRECTION('ref_axis',(1.,0.,0.));
#1127=DIRECTION('',(0.,0.,1.));
#1128=DIRECTION('center_axis',(0.,0.,1.));
#1129=DIRECTION('ref_axis',(1.,0.,0.));
#1130=DIRECTION('center_axis',(0.,0.,1.));
#1131=DIRECTION('ref_axis',(1.,0.,0.));
#1132=DIRECTION('',(1.,0.,0.));
#1133=DIRECTION('center_axis',(0.,-1.,0.));
#1134=DIRECTION('ref_axis',(1.,0.,0.));
#1135=DIRECTION('center_axis',(0.,0.,1.));
#1136=DIRECTION('ref_axis',(1.,0.,0.));
#1137=DIRECTION('',(0.,0.,-1.));
#1138=DIRECTION('center_axis',(0.,0.,-1.));
#1139=DIRECTION('ref_axis',(1.,0.,0.));
#1140=DIRECTION('',(0.,0.,1.));
#1141=DIRECTION('center_axis',(0.,0.,1.));
#1142=DIRECTION('ref_axis',(1.,0.,0.));
#1143=DIRECTION('center_axis',(1.,0.,0.));
#1144=DIRECTION('ref_axis',(0.,1.,0.));
#1145=DIRECTION('',(0.,-1.,0.));
#1146=DIRECTION('',(0.,0.,1.));
#1147=DIRECTION('',(0.,1.,0.));
#1148=DIRECTION('center_axis',(0.,0.,1.));
#1149=DIRECTION('ref_axis',(1.,0.,0.));
#1150=DIRECTION('',(1.,0.,0.));
#1151=DIRECTION('center_axis',(0.,0.,1.));
#1152=DIRECTION('ref_axis',(1.,0.,0.));
#1153=DIRECTION('center_axis',(0.,1.,0.));
#1154=DIRECTION('ref_axis',(-1.,0.,0.));
#1155=DIRECTION('',(-1.,0.,0.));
#1156=DIRECTION('',(0.,0.,-1.));
#1157=DIRECTION('center_axis',(0.,0.,1.));
#1158=DIRECTION('ref_axis',(1.,0.,0.));
#1159=DIRECTION('center_axis',(0.,0.,1.));
#1160=DIRECTION('ref_axis',(1.,0.,0.));
#1161=DIRECTION('center_axis',(0.,0.,1.));
#1162=DIRECTION('ref_axis',(1.,0.,0.));
#1163=DIRECTION('center_axis',(0.,0.,1.));
#1164=DIRECTION('ref_axis',(1.,0.,0.));
#1165=DIRECTION('center_axis',(0.,0.,1.));
#1166=DIRECTION('ref_axis',(1.,0.,0.));
#1167=DIRECTION('',(0.,0.,-1.));
#1168=DIRECTION('center_axis',(0.,0.,-1.));
#1169=DIRECTION('ref_axis',(1.,0.,0.));
#1170=DIRECTION('',(0.,0.,1.));
#1171=DIRECTION('center_axis',(0.,0.,1.));
#1172=DIRECTION('ref_axis',(1.,0.,0.));
#1173=DIRECTION('',(-1.,0.,0.));
#1174=DIRECTION('center_axis',(0.,0.,1.));
#1175=DIRECTION('ref_axis',(1.,0.,0.));
#1176=DIRECTION('',(0.,1.,0.));
#1177=DIRECTION('center_axis',(0.,-1.,0.));
#1178=DIRECTION('ref_axis',(1.,0.,0.));
#1179=DIRECTION('',(1.,0.,0.));
#1180=DIRECTION('',(0.,0.,-1.));
#1181=DIRECTION('center_axis',(0.,0.,1.));
#1182=DIRECTION('ref_axis',(1.,0.,0.));
#1183=DIRECTION('center_axis',(0.,0.,1.));
#1184=DIRECTION('ref_axis',(1.,0.,0.));
#1185=DIRECTION('',(0.,0.,1.));
#1186=DIRECTION('center_axis',(0.,0.,1.));
#1187=DIRECTION('ref_axis',(1.,0.,0.));
#1188=DIRECTION('',(0.,-1.,0.));
#1189=DIRECTION('center_axis',(-1.,0.,0.));
#1190=DIRECTION('ref_axis',(0.,-1.,0.));
#1191=DIRECTION('center_axis',(0.,0.,1.));
#1192=DIRECTION('ref_axis',(1.,0.,0.));
#1193=DIRECTION('',(0.,0.,1.));
#1194=DIRECTION('center_axis',(0.,0.,-1.));
#1195=DIRECTION('ref_axis',(1.,0.,0.));
#1196=DIRECTION('',(0.,0.,-1.));
#1197=DIRECTION('center_axis',(0.,0.,-1.));
#1198=DIRECTION('ref_axis',(1.,0.,0.));
#1199=DIRECTION('center_axis',(0.,0.,-1.));
#1200=DIRECTION('ref_axis',(1.,0.,0.));
#1201=DIRECTION('',(1.,0.,0.));
#1202=DIRECTION('center_axis',(0.,0.,1.));
#1203=DIRECTION('ref_axis',(1.,0.,0.));
#1204=DIRECTION('',(0.,1.,0.));
#1205=DIRECTION('center_axis',(0.,0.,-1.));
#1206=DIRECTION('ref_axis',(1.,0.,0.));
#1207=DIRECTION('',(0.,-1.,0.));
#1208=DIRECTION('center_axis',(0.,0.,-1.));
#1209=DIRECTION('ref_axis',(1.,0.,0.));
#1210=DIRECTION('',(-1.,0.,0.));
#1211=DIRECTION('center_axis',(1.,0.,0.));
#1212=DIRECTION('ref_axis',(0.,1.,0.));
#1213=DIRECTION('',(0.,1.,0.));
#1214=DIRECTION('center_axis',(0.,0.,1.));
#1215=DIRECTION('ref_axis',(1.,0.,0.));
#1216=DIRECTION('center_axis',(0.,0.,1.));
#1217=DIRECTION('ref_axis',(1.,0.,0.));
#1218=DIRECTION('center_axis',(0.,0.,-1.));
#1219=DIRECTION('ref_axis',(1.,0.,0.));
#1220=DIRECTION('',(1.,0.,0.));
#1221=DIRECTION('center_axis',(0.,0.,1.));
#1222=DIRECTION('ref_axis',(1.,0.,0.));
#1223=DIRECTION('center_axis',(0.,0.,1.));
#1224=DIRECTION('ref_axis',(1.,0.,0.));
#1225=DIRECTION('center_axis',(0.,-1.,0.));
#1226=DIRECTION('ref_axis',(1.,0.,0.));
#1227=DIRECTION('center_axis',(0.,0.,-1.));
#1228=DIRECTION('ref_axis',(1.,0.,0.));
#1229=DIRECTION('',(1.,0.,0.));
#1230=DIRECTION('center_axis',(0.,0.,-1.));
#1231=DIRECTION('ref_axis',(1.,0.,0.));
#1232=DIRECTION('',(0.,-1.,0.));
#1233=DIRECTION('center_axis',(0.,0.,1.));
#1234=DIRECTION('ref_axis',(1.,0.,0.));
#1235=DIRECTION('center_axis',(0.,0.,1.));
#1236=DIRECTION('ref_axis',(1.,0.,0.));
#1237=DIRECTION('',(0.,0.,-1.));
#1238=DIRECTION('center_axis',(0.,0.,-1.));
#1239=DIRECTION('ref_axis',(1.,0.,0.));
#1240=DIRECTION('',(0.,0.,1.));
#1241=DIRECTION('center_axis',(-1.,0.,0.));
#1242=DIRECTION('ref_axis',(0.,-1.,0.));
#1243=DIRECTION('',(0.,1.,0.));
#1244=DIRECTION('',(0.,-1.,0.));
#1245=DIRECTION('center_axis',(0.,-1.,0.));
#1246=DIRECTION('ref_axis',(1.,0.,0.));
#1247=DIRECTION('',(1.,0.,0.));
#1248=DIRECTION('',(-1.,0.,0.));
#1249=DIRECTION('center_axis',(0.,0.,1.));
#1250=DIRECTION('ref_axis',(1.,0.,0.));
#1251=DIRECTION('center_axis',(0.,0.,1.));
#1252=DIRECTION('ref_axis',(1.,0.,0.));
#1253=DIRECTION('center_axis',(0.,0.,-1.));
#1254=DIRECTION('ref_axis',(1.,0.,0.));
#1255=DIRECTION('center_axis',(0.,0.,1.));
#1256=DIRECTION('ref_axis',(1.,0.,0.));
#1257=DIRECTION('center_axis',(0.,0.,-1.));
#1258=DIRECTION('ref_axis',(1.,0.,0.));
#1259=DIRECTION('center_axis',(0.,0.,-1.));
#1260=DIRECTION('ref_axis',(1.,0.,0.));
#1261=DIRECTION('center_axis',(0.,0.,1.));
#1262=DIRECTION('ref_axis',(1.,0.,0.));
#1263=DIRECTION('center_axis',(0.,0.,1.));
#1264=DIRECTION('ref_axis',(1.,0.,0.));
#1265=DIRECTION('',(0.,0.,1.));
#1266=DIRECTION('center_axis',(0.,0.,-1.));
#1267=DIRECTION('ref_axis',(1.,0.,0.));
#1268=DIRECTION('',(0.,0.,-1.));
#1269=DIRECTION('center_axis',(0.,0.,-1.));
#1270=DIRECTION('ref_axis',(1.,0.,0.));
#1271=DIRECTION('center_axis',(0.,0.,-1.));
#1272=DIRECTION('ref_axis',(1.,0.,0.));
#1273=DIRECTION('',(0.,1.,0.));
#1274=DIRECTION('center_axis',(0.,0.,1.));
#1275=DIRECTION('ref_axis',(1.,0.,0.));
#1276=DIRECTION('',(-1.,0.,0.));
#1277=DIRECTION('center_axis',(0.,0.,-1.));
#1278=DIRECTION('ref_axis',(1.,0.,0.));
#1279=DIRECTION('',(1.,0.,0.));
#1280=DIRECTION('center_axis',(0.,0.,-1.));
#1281=DIRECTION('ref_axis',(1.,0.,0.));
#1282=DIRECTION('',(0.,-1.,0.));
#1283=DIRECTION('center_axis',(0.,1.,0.));
#1284=DIRECTION('ref_axis',(-1.,0.,0.));
#1285=DIRECTION('',(-1.,0.,0.));
#1286=DIRECTION('center_axis',(0.,0.,1.));
#1287=DIRECTION('ref_axis',(1.,0.,0.));
#1288=DIRECTION('center_axis',(0.,0.,1.));
#1289=DIRECTION('ref_axis',(1.,0.,0.));
#1290=DIRECTION('center_axis',(0.,0.,-1.));
#1291=DIRECTION('ref_axis',(1.,0.,0.));
#1292=DIRECTION('',(0.,1.,0.));
#1293=DIRECTION('center_axis',(0.,0.,1.));
#1294=DIRECTION('ref_axis',(1.,0.,0.));
#1295=DIRECTION('center_axis',(0.,0.,1.));
#1296=DIRECTION('ref_axis',(1.,0.,0.));
#1297=DIRECTION('center_axis',(1.,0.,0.));
#1298=DIRECTION('ref_axis',(0.,1.,0.));
#1299=CARTESIAN_POINT('',(0.,0.,0.));
#1300=CARTESIAN_POINT('Origin',(0.,0.,-0.02));
#1301=CARTESIAN_POINT('',(-0.05,0.336303434416005,0.05));
#1302=CARTESIAN_POINT('',(-0.05,0.336303434416005,0.));
#1303=CARTESIAN_POINT('',(-0.05,0.336303434416005,-0.02));
#1304=CARTESIAN_POINT('',(-0.336303434416005,0.05,0.05));
#1305=CARTESIAN_POINT('Origin',(0.,0.,0.05));
#1306=CARTESIAN_POINT('',(-0.336303434416005,0.05,0.));
#1307=CARTESIAN_POINT('',(-0.336303434416005,0.05,-0.02));
#1308=CARTESIAN_POINT('Origin',(0.,0.,0.));
#1309=CARTESIAN_POINT('Origin',(-0.05,0.05,-0.05));
#1310=CARTESIAN_POINT('',(-0.356510869399518,0.05,0.05));
#1311=CARTESIAN_POINT('',(-0.025,0.05,0.05));
#1312=CARTESIAN_POINT('',(-0.356510869399518,0.05,0.));
#1313=CARTESIAN_POINT('',(-0.356510869399518,0.05,0.));
#1314=CARTESIAN_POINT('',(-0.025,0.05,0.));
#1315=CARTESIAN_POINT('Origin',(0.,0.,0.05));
#1316=CARTESIAN_POINT('',(-0.05,0.356510869399518,0.05));
#1317=CARTESIAN_POINT('',(-0.05,0.25,0.05));
#1318=CARTESIAN_POINT('Origin',(0.,0.,0.05));
#1319=CARTESIAN_POINT('Origin',(-0.05,0.5,-0.05));
#1320=CARTESIAN_POINT('',(-0.05,0.356510869399518,0.));
#1321=CARTESIAN_POINT('',(-0.05,0.25,0.));
#1322=CARTESIAN_POINT('',(-0.05,0.356510869399518,0.));
#1323=CARTESIAN_POINT('Origin',(0.,0.,0.));
#1324=CARTESIAN_POINT('Origin',(0.,0.,0.));
#1325=CARTESIAN_POINT('Origin',(0.,0.,0.));
#1326=CARTESIAN_POINT('Origin',(0.,0.,0.05));
#1327=CARTESIAN_POINT('',(-0.35,-4.28626379701574E-17,0.1));
#1328=CARTESIAN_POINT('Origin',(0.,0.,0.1));
#1329=CARTESIAN_POINT('',(-0.4,-4.89858719658941E-17,0.05));
#1330=CARTESIAN_POINT('Origin',(-0.35,-4.28626379701574E-17,0.05));
#1331=CARTESIAN_POINT('Origin',(0.,0.,0.05));
#1332=CARTESIAN_POINT('Origin',(0.,0.,0.1));
#1333=CARTESIAN_POINT('Origin',(0.,0.,0.05));
#1334=CARTESIAN_POINT('Origin',(0.,0.,-0.02));
#1335=CARTESIAN_POINT('',(-0.05,0.336303434416005,-0.02));
#1336=CARTESIAN_POINT('',(-0.05,0.32792579145567,-0.02));
#1337=CARTESIAN_POINT('',(-0.05,0.25,-0.02));
#1338=CARTESIAN_POINT('',(-0.336303434416005,0.05,-0.02));
#1339=CARTESIAN_POINT('Origin',(0.,0.,-0.02));
#1340=CARTESIAN_POINT('',(-0.32792579145567,0.05,-0.02));
#1341=CARTESIAN_POINT('',(-0.025,0.05,-0.02));
#1342=CARTESIAN_POINT('Origin',(0.,0.,-0.02));
#1343=CARTESIAN_POINT('Origin',(0.,0.,-0.02));
#1344=CARTESIAN_POINT('',(-0.05,0.336303434416005,0.));
#1345=CARTESIAN_POINT('',(-0.05,0.336303434416005,-0.02));
#1346=CARTESIAN_POINT('',(-0.336303434416005,0.05,0.));
#1347=CARTESIAN_POINT('Origin',(0.,0.,0.));
#1348=CARTESIAN_POINT('',(-0.336303434416005,0.05,-0.02));
#1349=CARTESIAN_POINT('Origin',(-0.05,0.5,-0.05));
#1350=CARTESIAN_POINT('',(-0.05,0.297543914366729,-0.05));
#1351=CARTESIAN_POINT('Ctrl Pts',(-0.05,0.297543914366729,-0.05));
#1352=CARTESIAN_POINT('Ctrl Pts',(-0.05,0.312015393606627,-0.0357286174720839));
#1353=CARTESIAN_POINT('Ctrl Pts',(-0.05,0.32792579145567,-0.02));
#1354=CARTESIAN_POINT('',(-0.05,0.326190128606002,-0.05));
#1355=CARTESIAN_POINT('',(-0.05,0.25,-0.05));
#1356=CARTESIAN_POINT('',(-0.05,0.376696164036747,0.));
#1357=CARTESIAN_POINT('Ctrl Pts',(-0.05,0.376696164036747,0.));
#1358=CARTESIAN_POINT('Ctrl Pts',(-0.05,0.349664764790797,-0.0267963800118279));
#1359=CARTESIAN_POINT('Ctrl Pts',(-0.05,0.326190128606002,-0.05));
#1360=CARTESIAN_POINT('',(-0.05,0.25,0.));
#1361=CARTESIAN_POINT('Origin',(-0.05,0.05,-0.05));
#1362=CARTESIAN_POINT('',(-0.376696164036747,0.05,0.));
#1363=CARTESIAN_POINT('',(-0.025,0.05,0.));
#1364=CARTESIAN_POINT('',(-0.326190128606002,0.05,-0.05));
#1365=CARTESIAN_POINT('Ctrl Pts',(-0.326190128606002,0.05,-0.05));
#1366=CARTESIAN_POINT('Ctrl Pts',(-0.349664764790797,0.05,-0.0267963800118279));
#1367=CARTESIAN_POINT('Ctrl Pts',(-0.376696164036747,0.05,0.));
#1368=CARTESIAN_POINT('',(-0.297543914366729,0.05,-0.05));
#1369=CARTESIAN_POINT('',(-0.025,0.05,-0.05));
#1370=CARTESIAN_POINT('Ctrl Pts',(-0.32792579145567,0.05,-0.02));
#1371=CARTESIAN_POINT('Ctrl Pts',(-0.312015393606627,0.05,-0.0357286174720839));
#1372=CARTESIAN_POINT('Ctrl Pts',(-0.297543914366729,0.05,-0.05));
#1373=CARTESIAN_POINT('Origin',(0.,0.,-0.025));
#1374=CARTESIAN_POINT('Origin',(0.,0.,-0.05));
#1375=CARTESIAN_POINT('Origin',(0.,0.,0.));
#1376=CARTESIAN_POINT('Origin',(0.,0.,-0.010857864376269));
#1377=CARTESIAN_POINT('Origin',(0.,0.,-0.05));
#1378=CARTESIAN_POINT('Origin',(0.,0.,-0.05));
#1379=CARTESIAN_POINT('Origin',(0.,0.,0.));
#1380=CARTESIAN_POINT('Origin',(0.,0.,-0.02));
#1381=CARTESIAN_POINT('',(0.05,-0.336303434416005,0.));
#1382=CARTESIAN_POINT('',(0.336303434416005,-0.05,0.));
#1383=CARTESIAN_POINT('Origin',(0.,0.,0.));
#1384=CARTESIAN_POINT('',(0.05,-0.336303434416005,0.05));
#1385=CARTESIAN_POINT('',(0.05,-0.336303434416005,-0.02));
#1386=CARTESIAN_POINT('',(0.336303434416005,-0.05,0.05));
#1387=CARTESIAN_POINT('Origin',(0.,0.,0.05));
#1388=CARTESIAN_POINT('',(0.336303434416005,-0.05,-0.02));
#1389=CARTESIAN_POINT('Origin',(0.,0.,0.05));
#1390=CARTESIAN_POINT('',(0.05,-0.356510869399518,0.05));
#1391=CARTESIAN_POINT('',(0.05,-0.25,0.05));
#1392=CARTESIAN_POINT('',(0.356510869399518,-0.05,0.05));
#1393=CARTESIAN_POINT('Origin',(0.,0.,0.05));
#1394=CARTESIAN_POINT('',(0.025,-0.05,0.05));
#1395=CARTESIAN_POINT('Origin',(0.05,-0.5,-0.05));
#1396=CARTESIAN_POINT('',(0.05,-0.356510869399518,0.));
#1397=CARTESIAN_POINT('',(0.05,-0.25,0.));
#1398=CARTESIAN_POINT('',(0.05,-0.356510869399518,0.));
#1399=CARTESIAN_POINT('Origin',(0.,0.,0.));
#1400=CARTESIAN_POINT('',(0.356510869399518,-0.05,0.));
#1401=CARTESIAN_POINT('',(0.356510869399518,-0.05,0.));
#1402=CARTESIAN_POINT('Origin',(0.,0.,0.));
#1403=CARTESIAN_POINT('Origin',(0.,0.,0.));
#1404=CARTESIAN_POINT('',(0.025,-0.05,0.));
#1405=CARTESIAN_POINT('Origin',(0.05,-0.05,-0.05));
#1406=CARTESIAN_POINT('Origin',(0.,0.,-0.02));
#1407=CARTESIAN_POINT('',(0.336303434416005,0.05,0.05));
#1408=CARTESIAN_POINT('',(0.336303434416005,0.05,0.));
#1409=CARTESIAN_POINT('',(0.336303434416005,0.05,-0.02));
#1410=CARTESIAN_POINT('',(0.05,0.336303434416005,0.05));
#1411=CARTESIAN_POINT('Origin',(0.,0.,0.05));
#1412=CARTESIAN_POINT('',(0.05,0.336303434416005,0.));
#1413=CARTESIAN_POINT('',(0.05,0.336303434416005,-0.02));
#1414=CARTESIAN_POINT('Origin',(0.,0.,0.));
#1415=CARTESIAN_POINT('Origin',(0.05,0.05,-0.05));
#1416=CARTESIAN_POINT('',(0.05,0.356510869399518,0.05));
#1417=CARTESIAN_POINT('',(0.05,0.025,0.05));
#1418=CARTESIAN_POINT('',(0.05,0.356510869399518,0.));
#1419=CARTESIAN_POINT('',(0.05,0.356510869399518,0.));
#1420=CARTESIAN_POINT('',(0.05,0.025,0.));
#1421=CARTESIAN_POINT('Origin',(0.,0.,0.05));
#1422=CARTESIAN_POINT('',(0.356510869399518,0.05,0.05));
#1423=CARTESIAN_POINT('',(0.25,0.05,0.05));
#1424=CARTESIAN_POINT('Origin',(0.,0.,0.05));
#1425=CARTESIAN_POINT('Origin',(0.5,0.05,-0.05));
#1426=CARTESIAN_POINT('',(0.356510869399518,0.05,0.));
#1427=CARTESIAN_POINT('',(0.25,0.05,0.));
#1428=CARTESIAN_POINT('',(0.356510869399518,0.05,0.));
#1429=CARTESIAN_POINT('Origin',(0.,0.,0.));
#1430=CARTESIAN_POINT('Origin',(0.,0.,0.));
#1431=CARTESIAN_POINT('Origin',(0.,0.,0.));
#1432=CARTESIAN_POINT('Origin',(0.,0.,-0.02));
#1433=CARTESIAN_POINT('',(-0.336303434416005,-0.05,0.));
#1434=CARTESIAN_POINT('',(-0.05,-0.336303434416005,0.));
#1435=CARTESIAN_POINT('Origin',(0.,0.,0.));
#1436=CARTESIAN_POINT('',(-0.336303434416005,-0.05,0.05));
#1437=CARTESIAN_POINT('',(-0.336303434416005,-0.05,-0.02));
#1438=CARTESIAN_POINT('',(-0.05,-0.336303434416005,0.05));
#1439=CARTESIAN_POINT('Origin',(0.,0.,0.05));
#1440=CARTESIAN_POINT('',(-0.05,-0.336303434416005,-0.02));
#1441=CARTESIAN_POINT('Origin',(0.,0.,0.05));
#1442=CARTESIAN_POINT('',(-0.356510869399518,-0.05,0.05));
#1443=CARTESIAN_POINT('',(-0.25,-0.05,0.05));
#1444=CARTESIAN_POINT('',(-0.05,-0.356510869399518,0.05));
#1445=CARTESIAN_POINT('Origin',(0.,0.,0.05));
#1446=CARTESIAN_POINT('',(-0.05,-0.025,0.05));
#1447=CARTESIAN_POINT('Origin',(-0.5,-0.05,-0.05));
#1448=CARTESIAN_POINT('',(-0.356510869399518,-0.05,0.));
#1449=CARTESIAN_POINT('',(-0.25,-0.05,0.));
#1450=CARTESIAN_POINT('',(-0.356510869399518,-0.05,0.));
#1451=CARTESIAN_POINT('Origin',(0.,0.,0.));
#1452=CARTESIAN_POINT('',(-0.05,-0.356510869399518,0.));
#1453=CARTESIAN_POINT('Origin',(0.,0.,0.));
#1454=CARTESIAN_POINT('',(-0.05,-0.356510869399518,0.));
#1455=CARTESIAN_POINT('Origin',(0.,0.,0.));
#1456=CARTESIAN_POINT('',(-0.05,-0.025,0.));
#1457=CARTESIAN_POINT('Origin',(-0.05,-0.05,-0.05));
#1458=CARTESIAN_POINT('Origin',(0.,0.,-0.02));
#1459=CARTESIAN_POINT('',(0.336303434416005,-0.05,-0.02));
#1460=CARTESIAN_POINT('',(0.336303434416005,-0.05,0.));
#1461=CARTESIAN_POINT('',(0.336303434416005,-0.05,-0.02));
#1462=CARTESIAN_POINT('',(0.05,-0.336303434416005,-0.02));
#1463=CARTESIAN_POINT('Origin',(0.,0.,-0.02));
#1464=CARTESIAN_POINT('',(0.05,-0.336303434416005,0.));
#1465=CARTESIAN_POINT('',(0.05,-0.336303434416005,-0.02));
#1466=CARTESIAN_POINT('Origin',(0.,0.,0.));
#1467=CARTESIAN_POINT('Origin',(0.,0.,-0.02));
#1468=CARTESIAN_POINT('',(0.32792579145567,-0.05,-0.02));
#1469=CARTESIAN_POINT('',(0.025,-0.05,-0.02));
#1470=CARTESIAN_POINT('',(0.05,-0.32792579145567,-0.02));
#1471=CARTESIAN_POINT('Origin',(0.,0.,-0.02));
#1472=CARTESIAN_POINT('',(0.05,-0.25,-0.02));
#1473=CARTESIAN_POINT('Origin',(0.,0.,0.));
#1474=CARTESIAN_POINT('',(0.05,-0.376696164036747,0.));
#1475=CARTESIAN_POINT('',(0.05,-0.25,0.));
#1476=CARTESIAN_POINT('',(0.376696164036747,-0.05,0.));
#1477=CARTESIAN_POINT('Origin',(0.,0.,0.));
#1478=CARTESIAN_POINT('',(0.025,-0.05,0.));
#1479=CARTESIAN_POINT('Origin',(0.05,-0.5,-0.05));
#1480=CARTESIAN_POINT('',(0.05,-0.297543914366729,-0.05));
#1481=CARTESIAN_POINT('Ctrl Pts',(0.05,-0.297543914366729,-0.05));
#1482=CARTESIAN_POINT('Ctrl Pts',(0.05,-0.312015393606627,-0.0357286174720839));
#1483=CARTESIAN_POINT('Ctrl Pts',(0.05,-0.32792579145567,-0.02));
#1484=CARTESIAN_POINT('',(0.05,-0.326190128606002,-0.05));
#1485=CARTESIAN_POINT('',(0.05,-0.25,-0.05));
#1486=CARTESIAN_POINT('Ctrl Pts',(0.05,-0.376696164036747,0.));
#1487=CARTESIAN_POINT('Ctrl Pts',(0.05,-0.349664764790797,-0.0267963800118279));
#1488=CARTESIAN_POINT('Ctrl Pts',(0.05,-0.326190128606002,-0.05));
#1489=CARTESIAN_POINT('Origin',(0.,0.,-0.025));
#1490=CARTESIAN_POINT('',(0.326190128606002,-0.05,-0.05));
#1491=CARTESIAN_POINT('Ctrl Pts',(0.326190128606002,-0.05,-0.05));
#1492=CARTESIAN_POINT('Ctrl Pts',(0.349664764790797,-0.05,-0.0267963800118279));
#1493=CARTESIAN_POINT('Ctrl Pts',(0.376696164036747,-0.05,0.));
#1494=CARTESIAN_POINT('Origin',(0.,0.,-0.05));
#1495=CARTESIAN_POINT('Origin',(0.,0.,-0.05));
#1496=CARTESIAN_POINT('',(0.297543914366729,-0.05,-0.05));
#1497=CARTESIAN_POINT('',(0.025,-0.05,-0.05));
#1498=CARTESIAN_POINT('Origin',(0.,0.,-0.05));
#1499=CARTESIAN_POINT('Origin',(0.,0.,-0.010857864376269));
#1500=CARTESIAN_POINT('Ctrl Pts',(0.32792579145567,-0.05,-0.02));
#1501=CARTESIAN_POINT('Ctrl Pts',(0.312015393606627,-0.05,-0.0357286174720839));
#1502=CARTESIAN_POINT('Ctrl Pts',(0.297543914366729,-0.05,-0.05));
#1503=CARTESIAN_POINT('Origin',(0.05,-0.05,-0.05));
#1504=CARTESIAN_POINT('Origin',(0.,0.,-0.02));
#1505=CARTESIAN_POINT('',(-0.336303434416005,-0.05,-0.02));
#1506=CARTESIAN_POINT('',(-0.32792579145567,-0.05,-0.02));
#1507=CARTESIAN_POINT('',(-0.25,-0.05,-0.02));
#1508=CARTESIAN_POINT('',(-0.05,-0.336303434416005,-0.02));
#1509=CARTESIAN_POINT('Origin',(0.,0.,-0.02));
#1510=CARTESIAN_POINT('',(-0.05,-0.32792579145567,-0.02));
#1511=CARTESIAN_POINT('',(-0.05,-0.025,-0.02));
#1512=CARTESIAN_POINT('Origin',(0.,0.,-0.02));
#1513=CARTESIAN_POINT('Origin',(0.,0.,-0.02));
#1514=CARTESIAN_POINT('',(-0.336303434416005,-0.05,0.));
#1515=CARTESIAN_POINT('',(-0.336303434416005,-0.05,-0.02));
#1516=CARTESIAN_POINT('',(-0.05,-0.336303434416005,0.));
#1517=CARTESIAN_POINT('Origin',(0.,0.,0.));
#1518=CARTESIAN_POINT('',(-0.05,-0.336303434416005,-0.02));
#1519=CARTESIAN_POINT('Origin',(-0.05,-0.05,-0.05));
#1520=CARTESIAN_POINT('',(-0.05,-0.376696164036747,0.));
#1521=CARTESIAN_POINT('',(-0.05,-0.025,0.));
#1522=CARTESIAN_POINT('',(-0.05,-0.326190128606002,-0.05));
#1523=CARTESIAN_POINT('Ctrl Pts',(-0.05,-0.326190128606002,-0.05));
#1524=CARTESIAN_POINT('Ctrl Pts',(-0.05,-0.349664764790797,-0.0267963800118279));
#1525=CARTESIAN_POINT('Ctrl Pts',(-0.05,-0.376696164036747,0.));
#1526=CARTESIAN_POINT('',(-0.05,-0.297543914366729,-0.05));
#1527=CARTESIAN_POINT('',(-0.05,-0.025,-0.05));
#1528=CARTESIAN_POINT('Ctrl Pts',(-0.05,-0.32792579145567,-0.02));
#1529=CARTESIAN_POINT('Ctrl Pts',(-0.05,-0.312015393606627,-0.0357286174720839));
#1530=CARTESIAN_POINT('Ctrl Pts',(-0.05,-0.297543914366729,-0.05));
#1531=CARTESIAN_POINT('Origin',(-0.5,-0.05,-0.05));
#1532=CARTESIAN_POINT('',(-0.297543914366729,-0.05,-0.05));
#1533=CARTESIAN_POINT('Ctrl Pts',(-0.297543914366729,-0.05,-0.05));
#1534=CARTESIAN_POINT('Ctrl Pts',(-0.312015393606627,-0.05,-0.0357286174720839));
#1535=CARTESIAN_POINT('Ctrl Pts',(-0.32792579145567,-0.05,-0.02));
#1536=CARTESIAN_POINT('',(-0.326190128606002,-0.05,-0.05));
#1537=CARTESIAN_POINT('',(-0.25,-0.05,-0.05));
#1538=CARTESIAN_POINT('',(-0.376696164036747,-0.05,0.));
#1539=CARTESIAN_POINT('Ctrl Pts',(-0.376696164036747,-0.05,0.));
#1540=CARTESIAN_POINT('Ctrl Pts',(-0.349664764790797,-0.05,-0.0267963800118279));
#1541=CARTESIAN_POINT('Ctrl Pts',(-0.326190128606002,-0.05,-0.05));
#1542=CARTESIAN_POINT('',(-0.25,-0.05,0.));
#1543=CARTESIAN_POINT('Origin',(0.,0.,-0.010857864376269));
#1544=CARTESIAN_POINT('Origin',(0.,0.,-0.05));
#1545=CARTESIAN_POINT('Origin',(0.,0.,-0.05));
#1546=CARTESIAN_POINT('Origin',(0.,0.,-0.05));
#1547=CARTESIAN_POINT('Origin',(0.,0.,0.));
#1548=CARTESIAN_POINT('Origin',(0.,0.,0.));
#1549=CARTESIAN_POINT('Origin',(0.,0.,-0.025));
#1550=CARTESIAN_POINT('Origin',(0.,0.,-0.02));
#1551=CARTESIAN_POINT('',(0.05,0.336303434416005,-0.02));
#1552=CARTESIAN_POINT('',(0.05,0.336303434416005,0.));
#1553=CARTESIAN_POINT('',(0.05,0.336303434416005,-0.02));
#1554=CARTESIAN_POINT('',(0.336303434416005,0.05,-0.02));
#1555=CARTESIAN_POINT('Origin',(0.,0.,-0.02));
#1556=CARTESIAN_POINT('',(0.336303434416005,0.05,0.));
#1557=CARTESIAN_POINT('',(0.336303434416005,0.05,-0.02));
#1558=CARTESIAN_POINT('Origin',(0.,0.,0.));
#1559=CARTESIAN_POINT('Origin',(0.,0.,-0.02));
#1560=CARTESIAN_POINT('',(0.05,0.32792579145567,-0.02));
#1561=CARTESIAN_POINT('',(0.05,0.025,-0.02));
#1562=CARTESIAN_POINT('',(0.32792579145567,0.05,-0.02));
#1563=CARTESIAN_POINT('Origin',(0.,0.,-0.02));
#1564=CARTESIAN_POINT('',(0.25,0.05,-0.02));
#1565=CARTESIAN_POINT('Origin',(0.,0.,0.));
#1566=CARTESIAN_POINT('',(0.376696164036747,0.05,0.));
#1567=CARTESIAN_POINT('',(0.25,0.05,0.));
#1568=CARTESIAN_POINT('',(0.05,0.376696164036747,0.));
#1569=CARTESIAN_POINT('Origin',(0.,0.,0.));
#1570=CARTESIAN_POINT('',(0.05,0.025,0.));
#1571=CARTESIAN_POINT('Origin',(0.5,0.05,-0.05));
#1572=CARTESIAN_POINT('',(0.297543914366729,0.05,-0.05));
#1573=CARTESIAN_POINT('Ctrl Pts',(0.297543914366729,0.05,-0.05));
#1574=CARTESIAN_POINT('Ctrl Pts',(0.312015393606627,0.05,-0.0357286174720839));
#1575=CARTESIAN_POINT('Ctrl Pts',(0.32792579145567,0.05,-0.02));
#1576=CARTESIAN_POINT('',(0.326190128606002,0.05,-0.05));
#1577=CARTESIAN_POINT('',(0.25,0.05,-0.05));
#1578=CARTESIAN_POINT('Ctrl Pts',(0.376696164036747,0.05,0.));
#1579=CARTESIAN_POINT('Ctrl Pts',(0.349664764790797,0.05,-0.0267963800118279));
#1580=CARTESIAN_POINT('Ctrl Pts',(0.326190128606002,0.05,-0.05));
#1581=CARTESIAN_POINT('Origin',(0.,0.,-0.025));
#1582=CARTESIAN_POINT('',(0.05,0.326190128606002,-0.05));
#1583=CARTESIAN_POINT('Ctrl Pts',(0.05,0.326190128606002,-0.05));
#1584=CARTESIAN_POINT('Ctrl Pts',(0.05,0.349664764790797,-0.0267963800118279));
#1585=CARTESIAN_POINT('Ctrl Pts',(0.05,0.376696164036747,0.));
#1586=CARTESIAN_POINT('Origin',(0.,0.,-0.05));
#1587=CARTESIAN_POINT('Origin',(0.,0.,-0.05));
#1588=CARTESIAN_POINT('',(0.05,0.297543914366729,-0.05));
#1589=CARTESIAN_POINT('',(0.05,0.025,-0.05));
#1590=CARTESIAN_POINT('Origin',(0.,0.,-0.05));
#1591=CARTESIAN_POINT('Origin',(0.,0.,-0.010857864376269));
#1592=CARTESIAN_POINT('Ctrl Pts',(0.05,0.32792579145567,-0.02));
#1593=CARTESIAN_POINT('Ctrl Pts',(0.05,0.312015393606627,-0.0357286174720839));
#1594=CARTESIAN_POINT('Ctrl Pts',(0.05,0.297543914366729,-0.05));
#1595=CARTESIAN_POINT('Origin',(0.05,0.05,-0.05));
#1596=UNCERTAINTY_MEASURE_WITH_UNIT(LENGTH_MEASURE(0.000393700787401575),
#1601,'DISTANCE_ACCURACY_VALUE',
'Maximum model space distance between geometric entities at asserted c
onnectivities');
#1597=UNCERTAINTY_MEASURE_WITH_UNIT(LENGTH_MEASURE(0.000393700787401575),
#1601,'DISTANCE_ACCURACY_VALUE',
'Maximum model space distance between geometric entities at asserted c
onnectivities');
#1598=(
GEOMETRIC_REPRESENTATION_CONTEXT(3)
GLOBAL_UNCERTAINTY_ASSIGNED_CONTEXT((#1596))
GLOBAL_UNIT_ASSIGNED_CONTEXT((#1601,#1605,#1606))
REPRESENTATION_CONTEXT('','3D')
);
#1599=(
GEOMETRIC_REPRESENTATION_CONTEXT(3)
GLOBAL_UNCERTAINTY_ASSIGNED_CONTEXT((#1597))
GLOBAL_UNIT_ASSIGNED_CONTEXT((#1601,#1605,#1606))
REPRESENTATION_CONTEXT('','3D')
);
#1600=DIMENSIONAL_EXPONENTS(1.,0.,0.,0.,0.,0.,0.);
#1601=(
CONVERSION_BASED_UNIT('inch',#1604)
LENGTH_UNIT()
NAMED_UNIT(#1600)
);
#1602=(
LENGTH_UNIT()
NAMED_UNIT(*)
SI_UNIT(.MILLI.,.METRE.)
);
#1603=(
LENGTH_UNIT()
NAMED_UNIT(*)
SI_UNIT($,.METRE.)
);
#1604=LENGTH_MEASURE_WITH_UNIT(LENGTH_MEASURE(25.4),#1602);
#1605=(
NAMED_UNIT(*)
PLANE_ANGLE_UNIT()
SI_UNIT($,.RADIAN.)
);
#1606=(
NAMED_UNIT(*)
SI_UNIT($,.STERADIAN.)
SOLID_ANGLE_UNIT()
);
#1607=SHAPE_DEFINITION_REPRESENTATION(#1608,#1609);
#1608=PRODUCT_DEFINITION_SHAPE('',$,#1611);
#1609=SHAPE_REPRESENTATION('',(#926),#1598);
#1610=PRODUCT_DEFINITION_CONTEXT('part definition',#1615,'design');
#1611=PRODUCT_DEFINITION('2026-03-29-13-33-44-627','sensor piece',#1612,
#1610);
#1612=PRODUCT_DEFINITION_FORMATION('',$,#1617);
#1613=PRODUCT_RELATED_PRODUCT_CATEGORY('sensor piece','sensor piece',(#1617));
#1614=APPLICATION_PROTOCOL_DEFINITION('international standard',
'automotive_design',2009,#1615);
#1615=APPLICATION_CONTEXT(
'Core Data for Automotive Mechanical Design Process');
#1616=PRODUCT_CONTEXT('part definition',#1615,'mechanical');
#1617=PRODUCT('2026-03-29-13-33-44-627','sensor piece',$,(#1616));
#1618=PRESENTATION_STYLE_ASSIGNMENT((#1619));
#1619=SURFACE_STYLE_USAGE(.BOTH.,#1620);
#1620=SURFACE_SIDE_STYLE('',(#1621));
#1621=SURFACE_STYLE_FILL_AREA(#1622);
#1622=FILL_AREA_STYLE('Steel - Satin',(#1623));
#1623=FILL_AREA_STYLE_COLOUR('Steel - Satin',#1624);
#1624=COLOUR_RGB('Steel - Satin',0.627450980392157,0.627450980392157,0.627450980392157);
ENDSEC;
END-ISO-10303-21;
