ISO-10303-21;
HEADER;
/* Generated by software containing ST-Developer
 * from STEP Tools, Inc. (www.steptools.com) 
 */

FILE_DESCRIPTION(
/* description */ (''),
/* implementation_level */ '2;1');

FILE_NAME(
/* name */ 'Shoe Rack Bracket v2.2.step',
/* time_stamp */ '2026-02-15T16:03:22-06:00',
/* author */ (''),
/* organization */ (''),
/* preprocessor_version */ 'ST-DEVELOPER v20.1',
/* originating_system */ 'Autodesk Translation Framework v14.24.0.0',
/* authorisation */ '');

FILE_SCHEMA (('AUTOMOTIVE_DESIGN { 1 0 10303 214 3 1 1 }'));
ENDSEC;

DATA;
#10=MECHANICAL_DESIGN_GEOMETRIC_PRESENTATION_REPRESENTATION('',(#13),#858);
#11=SHAPE_REPRESENTATION_RELATIONSHIP('SRR','None',#868,#12);
#12=ADVANCED_BREP_SHAPE_REPRESENTATION('',(#14),#857);
#13=STYLED_ITEM('',(#877),#14);
#14=MANIFOLD_SOLID_BREP('Body1',#523);
#15=CIRCLE('',#557,0.1);
#16=CIRCLE('',#560,0.1);
#17=FACE_BOUND('',#71,.T.);
#18=FACE_BOUND('',#89,.T.);
#19=ELLIPSE('',#543,0.0707106781186548,0.05);
#20=ELLIPSE('',#544,0.0707106781186548,0.05);
#21=ELLIPSE('',#546,0.0707106781186548,0.05);
#22=ELLIPSE('',#548,0.0707106781186548,0.05);
#23=ELLIPSE('',#558,0.14142135623731,0.1);
#24=CYLINDRICAL_SURFACE('',#542,0.05);
#25=CYLINDRICAL_SURFACE('',#545,0.05);
#26=CYLINDRICAL_SURFACE('',#547,0.05);
#27=CYLINDRICAL_SURFACE('',#549,0.05);
#28=CYLINDRICAL_SURFACE('',#556,0.1);
#29=CYLINDRICAL_SURFACE('',#559,0.1);
#30=FACE_OUTER_BOUND('',#59,.T.);
#31=FACE_OUTER_BOUND('',#60,.T.);
#32=FACE_OUTER_BOUND('',#61,.T.);
#33=FACE_OUTER_BOUND('',#62,.T.);
#34=FACE_OUTER_BOUND('',#63,.T.);
#35=FACE_OUTER_BOUND('',#64,.T.);
#36=FACE_OUTER_BOUND('',#65,.T.);
#37=FACE_OUTER_BOUND('',#66,.T.);
#38=FACE_OUTER_BOUND('',#67,.T.);
#39=FACE_OUTER_BOUND('',#68,.T.);
#40=FACE_OUTER_BOUND('',#69,.T.);
#41=FACE_OUTER_BOUND('',#70,.T.);
#42=FACE_OUTER_BOUND('',#72,.T.);
#43=FACE_OUTER_BOUND('',#73,.T.);
#44=FACE_OUTER_BOUND('',#74,.T.);
#45=FACE_OUTER_BOUND('',#75,.T.);
#46=FACE_OUTER_BOUND('',#76,.T.);
#47=FACE_OUTER_BOUND('',#77,.T.);
#48=FACE_OUTER_BOUND('',#78,.T.);
#49=FACE_OUTER_BOUND('',#79,.T.);
#50=FACE_OUTER_BOUND('',#80,.T.);
#51=FACE_OUTER_BOUND('',#81,.T.);
#52=FACE_OUTER_BOUND('',#82,.T.);
#53=FACE_OUTER_BOUND('',#83,.T.);
#54=FACE_OUTER_BOUND('',#84,.T.);
#55=FACE_OUTER_BOUND('',#85,.T.);
#56=FACE_OUTER_BOUND('',#86,.T.);
#57=FACE_OUTER_BOUND('',#87,.T.);
#58=FACE_OUTER_BOUND('',#88,.T.);
#59=EDGE_LOOP('',(#331,#332,#333,#334));
#60=EDGE_LOOP('',(#335,#336,#337,#338));
#61=EDGE_LOOP('',(#339,#340,#341,#342));
#62=EDGE_LOOP('',(#343,#344,#345,#346));
#63=EDGE_LOOP('',(#347,#348,#349,#350));
#64=EDGE_LOOP('',(#351,#352,#353,#354));
#65=EDGE_LOOP('',(#355,#356,#357,#358));
#66=EDGE_LOOP('',(#359,#360,#361,#362));
#67=EDGE_LOOP('',(#363,#364,#365,#366));
#68=EDGE_LOOP('',(#367,#368,#369,#370));
#69=EDGE_LOOP('',(#371,#372,#373,#374));
#70=EDGE_LOOP('',(#375,#376,#377,#378));
#71=EDGE_LOOP('',(#379,#380,#381,#382));
#72=EDGE_LOOP('',(#383,#384,#385,#386));
#73=EDGE_LOOP('',(#387,#388,#389,#390));
#74=EDGE_LOOP('',(#391,#392,#393,#394));
#75=EDGE_LOOP('',(#395,#396,#397,#398));
#76=EDGE_LOOP('',(#399,#400,#401,#402));
#77=EDGE_LOOP('',(#403,#404,#405,#406,#407,#408));
#78=EDGE_LOOP('',(#409,#410,#411,#412));
#79=EDGE_LOOP('',(#413,#414,#415,#416));
#80=EDGE_LOOP('',(#417,#418,#419,#420));
#81=EDGE_LOOP('',(#421,#422,#423,#424));
#82=EDGE_LOOP('',(#425,#426,#427,#428));
#83=EDGE_LOOP('',(#429,#430,#431,#432));
#84=EDGE_LOOP('',(#433,#434,#435,#436,#437,#438,#439,#440));
#85=EDGE_LOOP('',(#441,#442,#443,#444,#445,#446,#447,#448));
#86=EDGE_LOOP('',(#449,#450,#451,#452,#453,#454,#455));
#87=EDGE_LOOP('',(#456,#457,#458,#459,#460,#461,#462));
#88=EDGE_LOOP('',(#463,#464,#465,#466));
#89=EDGE_LOOP('',(#467,#468,#469,#470));
#90=LINE('',#714,#153);
#91=LINE('',#716,#154);
#92=LINE('',#718,#155);
#93=LINE('',#719,#156);
#94=LINE('',#722,#157);
#95=LINE('',#724,#158);
#96=LINE('',#725,#159);
#97=LINE('',#728,#160);
#98=LINE('',#730,#161);
#99=LINE('',#731,#162);
#100=LINE('',#733,#163);
#101=LINE('',#734,#164);
#102=LINE('',#739,#165);
#103=LINE('',#743,#166);
#104=LINE('',#747,#167);
#105=LINE('',#750,#168);
#106=LINE('',#753,#169);
#107=LINE('',#756,#170);
#108=LINE('',#758,#171);
#109=LINE('',#759,#172);
#110=LINE('',#762,#173);
#111=LINE('',#764,#174);
#112=LINE('',#765,#175);
#113=LINE('',#768,#176);
#114=LINE('',#769,#177);
#115=LINE('',#773,#178);
#116=LINE('',#775,#179);
#117=LINE('',#777,#180);
#118=LINE('',#778,#181);
#119=LINE('',#781,#182);
#120=LINE('',#782,#183);
#121=LINE('',#784,#184);
#122=LINE('',#789,#185);
#123=LINE('',#793,#186);
#124=LINE('',#797,#187);
#125=LINE('',#800,#188);
#126=LINE('',#803,#189);
#127=LINE('',#805,#190);
#128=LINE('',#807,#191);
#129=LINE('',#808,#192);
#130=LINE('',#810,#193);
#131=LINE('',#811,#194);
#132=LINE('',#813,#195);
#133=LINE('',#817,#196);
#134=LINE('',#819,#197);
#135=LINE('',#821,#198);
#136=LINE('',#822,#199);
#137=LINE('',#825,#200);
#138=LINE('',#827,#201);
#139=LINE('',#828,#202);
#140=LINE('',#831,#203);
#141=LINE('',#833,#204);
#142=LINE('',#834,#205);
#143=LINE('',#836,#206);
#144=LINE('',#839,#207);
#145=LINE('',#841,#208);
#146=LINE('',#842,#209);
#147=LINE('',#843,#210);
#148=LINE('',#846,#211);
#149=LINE('',#847,#212);
#150=LINE('',#850,#213);
#151=LINE('',#851,#214);
#152=LINE('',#853,#215);
#153=VECTOR('',#577,0.393700787401575);
#154=VECTOR('',#578,0.393700787401575);
#155=VECTOR('',#579,0.393700787401575);
#156=VECTOR('',#580,0.393700787401575);
#157=VECTOR('',#583,0.393700787401575);
#158=VECTOR('',#584,0.393700787401575);
#159=VECTOR('',#585,0.393700787401575);
#160=VECTOR('',#588,0.393700787401575);
#161=VECTOR('',#589,0.393700787401575);
#162=VECTOR('',#590,0.393700787401575);
#163=VECTOR('',#593,0.393700787401575);
#164=VECTOR('',#594,0.393700787401575);
#165=VECTOR('',#599,0.393700787401575);
#166=VECTOR('',#602,0.393700787401575);
#167=VECTOR('',#607,0.393700787401575);
#168=VECTOR('',#610,0.393700787401575);
#169=VECTOR('',#613,0.393700787401575);
#170=VECTOR('',#616,0.393700787401575);
#171=VECTOR('',#619,0.393700787401575);
#172=VECTOR('',#620,0.393700787401575);
#173=VECTOR('',#623,0.393700787401575);
#174=VECTOR('',#624,0.393700787401575);
#175=VECTOR('',#625,0.393700787401575);
#176=VECTOR('',#628,0.393700787401575);
#177=VECTOR('',#629,0.393700787401575);
#178=VECTOR('',#632,0.393700787401575);
#179=VECTOR('',#633,0.393700787401575);
#180=VECTOR('',#634,0.393700787401575);
#181=VECTOR('',#635,0.393700787401575);
#182=VECTOR('',#638,0.393700787401575);
#183=VECTOR('',#639,0.393700787401575);
#184=VECTOR('',#642,0.393700787401575);
#185=VECTOR('',#647,0.393700787401575);
#186=VECTOR('',#650,0.393700787401575);
#187=VECTOR('',#655,0.393700787401575);
#188=VECTOR('',#658,0.393700787401575);
#189=VECTOR('',#661,0.393700787401575);
#190=VECTOR('',#662,0.393700787401575);
#191=VECTOR('',#663,0.393700787401575);
#192=VECTOR('',#664,0.393700787401575);
#193=VECTOR('',#667,0.393700787401575);
#194=VECTOR('',#668,0.393700787401575);
#195=VECTOR('',#671,0.393700787401575);
#196=VECTOR('',#674,0.393700787401575);
#197=VECTOR('',#675,0.393700787401575);
#198=VECTOR('',#676,0.393700787401575);
#199=VECTOR('',#677,0.393700787401575);
#200=VECTOR('',#680,0.393700787401575);
#201=VECTOR('',#681,0.393700787401575);
#202=VECTOR('',#682,0.393700787401575);
#203=VECTOR('',#685,0.393700787401575);
#204=VECTOR('',#686,0.393700787401575);
#205=VECTOR('',#687,0.393700787401575);
#206=VECTOR('',#690,0.393700787401575);
#207=VECTOR('',#693,0.393700787401575);
#208=VECTOR('',#694,0.393700787401575);
#209=VECTOR('',#695,0.393700787401575);
#210=VECTOR('',#696,0.393700787401575);
#211=VECTOR('',#699,0.393700787401575);
#212=VECTOR('',#700,0.393700787401575);
#213=VECTOR('',#703,0.393700787401575);
#214=VECTOR('',#704,0.393700787401575);
#215=VECTOR('',#707,0.393700787401575);
#216=VERTEX_POINT('',#712);
#217=VERTEX_POINT('',#713);
#218=VERTEX_POINT('',#715);
#219=VERTEX_POINT('',#717);
#220=VERTEX_POINT('',#721);
#221=VERTEX_POINT('',#723);
#222=VERTEX_POINT('',#727);
#223=VERTEX_POINT('',#729);
#224=VERTEX_POINT('',#737);
#225=VERTEX_POINT('',#738);
#226=VERTEX_POINT('',#740);
#227=VERTEX_POINT('',#742);
#228=VERTEX_POINT('',#746);
#229=VERTEX_POINT('',#748);
#230=VERTEX_POINT('',#752);
#231=VERTEX_POINT('',#754);
#232=VERTEX_POINT('',#761);
#233=VERTEX_POINT('',#763);
#234=VERTEX_POINT('',#767);
#235=VERTEX_POINT('',#771);
#236=VERTEX_POINT('',#772);
#237=VERTEX_POINT('',#774);
#238=VERTEX_POINT('',#776);
#239=VERTEX_POINT('',#780);
#240=VERTEX_POINT('',#787);
#241=VERTEX_POINT('',#788);
#242=VERTEX_POINT('',#790);
#243=VERTEX_POINT('',#792);
#244=VERTEX_POINT('',#796);
#245=VERTEX_POINT('',#798);
#246=VERTEX_POINT('',#802);
#247=VERTEX_POINT('',#804);
#248=VERTEX_POINT('',#806);
#249=VERTEX_POINT('',#815);
#250=VERTEX_POINT('',#816);
#251=VERTEX_POINT('',#818);
#252=VERTEX_POINT('',#820);
#253=VERTEX_POINT('',#824);
#254=VERTEX_POINT('',#826);
#255=VERTEX_POINT('',#830);
#256=VERTEX_POINT('',#832);
#257=VERTEX_POINT('',#838);
#258=VERTEX_POINT('',#840);
#259=VERTEX_POINT('',#845);
#260=VERTEX_POINT('',#849);
#261=EDGE_CURVE('',#216,#217,#90,.T.);
#262=EDGE_CURVE('',#216,#218,#91,.T.);
#263=EDGE_CURVE('',#219,#218,#92,.T.);
#264=EDGE_CURVE('',#217,#219,#93,.T.);
#265=EDGE_CURVE('',#217,#220,#94,.T.);
#266=EDGE_CURVE('',#221,#219,#95,.T.);
#267=EDGE_CURVE('',#220,#221,#96,.T.);
#268=EDGE_CURVE('',#220,#222,#97,.T.);
#269=EDGE_CURVE('',#223,#221,#98,.T.);
#270=EDGE_CURVE('',#222,#223,#99,.T.);
#271=EDGE_CURVE('',#222,#216,#100,.T.);
#272=EDGE_CURVE('',#218,#223,#101,.T.);
#273=EDGE_CURVE('',#224,#225,#102,.T.);
#274=EDGE_CURVE('',#225,#226,#19,.T.);
#275=EDGE_CURVE('',#226,#227,#103,.T.);
#276=EDGE_CURVE('',#227,#224,#20,.T.);
#277=EDGE_CURVE('',#225,#228,#104,.T.);
#278=EDGE_CURVE('',#228,#229,#21,.T.);
#279=EDGE_CURVE('',#229,#226,#105,.T.);
#280=EDGE_CURVE('',#228,#230,#106,.T.);
#281=EDGE_CURVE('',#230,#231,#22,.T.);
#282=EDGE_CURVE('',#231,#229,#107,.T.);
#283=EDGE_CURVE('',#227,#231,#108,.T.);
#284=EDGE_CURVE('',#230,#224,#109,.T.);
#285=EDGE_CURVE('',#227,#232,#110,.T.);
#286=EDGE_CURVE('',#232,#233,#111,.T.);
#287=EDGE_CURVE('',#231,#233,#112,.T.);
#288=EDGE_CURVE('',#226,#234,#113,.T.);
#289=EDGE_CURVE('',#234,#232,#114,.T.);
#290=EDGE_CURVE('',#235,#236,#115,.T.);
#291=EDGE_CURVE('',#236,#237,#116,.T.);
#292=EDGE_CURVE('',#237,#238,#117,.T.);
#293=EDGE_CURVE('',#238,#235,#118,.T.);
#294=EDGE_CURVE('',#229,#239,#119,.T.);
#295=EDGE_CURVE('',#239,#234,#120,.T.);
#296=EDGE_CURVE('',#233,#239,#121,.T.);
#297=EDGE_CURVE('',#240,#241,#122,.T.);
#298=EDGE_CURVE('',#241,#242,#15,.T.);
#299=EDGE_CURVE('',#242,#243,#123,.T.);
#300=EDGE_CURVE('',#243,#240,#23,.T.);
#301=EDGE_CURVE('',#243,#244,#124,.T.);
#302=EDGE_CURVE('',#244,#245,#16,.T.);
#303=EDGE_CURVE('',#245,#240,#125,.T.);
#304=EDGE_CURVE('',#245,#246,#126,.T.);
#305=EDGE_CURVE('',#246,#247,#127,.T.);
#306=EDGE_CURVE('',#247,#248,#128,.T.);
#307=EDGE_CURVE('',#248,#241,#129,.T.);
#308=EDGE_CURVE('',#242,#235,#130,.T.);
#309=EDGE_CURVE('',#243,#238,#131,.T.);
#310=EDGE_CURVE('',#244,#237,#132,.T.);
#311=EDGE_CURVE('',#249,#250,#133,.T.);
#312=EDGE_CURVE('',#249,#251,#134,.T.);
#313=EDGE_CURVE('',#251,#252,#135,.T.);
#314=EDGE_CURVE('',#250,#252,#136,.T.);
#315=EDGE_CURVE('',#253,#249,#137,.T.);
#316=EDGE_CURVE('',#253,#254,#138,.T.);
#317=EDGE_CURVE('',#254,#251,#139,.T.);
#318=EDGE_CURVE('',#255,#253,#140,.T.);
#319=EDGE_CURVE('',#256,#255,#141,.T.);
#320=EDGE_CURVE('',#256,#254,#142,.T.);
#321=EDGE_CURVE('',#252,#256,#143,.T.);
#322=EDGE_CURVE('',#257,#255,#144,.T.);
#323=EDGE_CURVE('',#257,#258,#145,.T.);
#324=EDGE_CURVE('',#258,#248,#146,.T.);
#325=EDGE_CURVE('',#250,#247,#147,.T.);
#326=EDGE_CURVE('',#259,#246,#148,.T.);
#327=EDGE_CURVE('',#259,#257,#149,.T.);
#328=EDGE_CURVE('',#260,#259,#150,.T.);
#329=EDGE_CURVE('',#260,#236,#151,.T.);
#330=EDGE_CURVE('',#258,#260,#152,.T.);
#331=ORIENTED_EDGE('',*,*,#261,.F.);
#332=ORIENTED_EDGE('',*,*,#262,.T.);
#333=ORIENTED_EDGE('',*,*,#263,.F.);
#334=ORIENTED_EDGE('',*,*,#264,.F.);
#335=ORIENTED_EDGE('',*,*,#265,.F.);
#336=ORIENTED_EDGE('',*,*,#264,.T.);
#337=ORIENTED_EDGE('',*,*,#266,.F.);
#338=ORIENTED_EDGE('',*,*,#267,.F.);
#339=ORIENTED_EDGE('',*,*,#268,.F.);
#340=ORIENTED_EDGE('',*,*,#267,.T.);
#341=ORIENTED_EDGE('',*,*,#269,.F.);
#342=ORIENTED_EDGE('',*,*,#270,.F.);
#343=ORIENTED_EDGE('',*,*,#271,.F.);
#344=ORIENTED_EDGE('',*,*,#270,.T.);
#345=ORIENTED_EDGE('',*,*,#272,.F.);
#346=ORIENTED_EDGE('',*,*,#262,.F.);
#347=ORIENTED_EDGE('',*,*,#272,.T.);
#348=ORIENTED_EDGE('',*,*,#269,.T.);
#349=ORIENTED_EDGE('',*,*,#266,.T.);
#350=ORIENTED_EDGE('',*,*,#263,.T.);
#351=ORIENTED_EDGE('',*,*,#273,.T.);
#352=ORIENTED_EDGE('',*,*,#274,.T.);
#353=ORIENTED_EDGE('',*,*,#275,.T.);
#354=ORIENTED_EDGE('',*,*,#276,.T.);
#355=ORIENTED_EDGE('',*,*,#277,.T.);
#356=ORIENTED_EDGE('',*,*,#278,.T.);
#357=ORIENTED_EDGE('',*,*,#279,.T.);
#358=ORIENTED_EDGE('',*,*,#274,.F.);
#359=ORIENTED_EDGE('',*,*,#280,.T.);
#360=ORIENTED_EDGE('',*,*,#281,.T.);
#361=ORIENTED_EDGE('',*,*,#282,.T.);
#362=ORIENTED_EDGE('',*,*,#278,.F.);
#363=ORIENTED_EDGE('',*,*,#283,.T.);
#364=ORIENTED_EDGE('',*,*,#281,.F.);
#365=ORIENTED_EDGE('',*,*,#284,.T.);
#366=ORIENTED_EDGE('',*,*,#276,.F.);
#367=ORIENTED_EDGE('',*,*,#283,.F.);
#368=ORIENTED_EDGE('',*,*,#285,.T.);
#369=ORIENTED_EDGE('',*,*,#286,.T.);
#370=ORIENTED_EDGE('',*,*,#287,.F.);
#371=ORIENTED_EDGE('',*,*,#275,.F.);
#372=ORIENTED_EDGE('',*,*,#288,.T.);
#373=ORIENTED_EDGE('',*,*,#289,.T.);
#374=ORIENTED_EDGE('',*,*,#285,.F.);
#375=ORIENTED_EDGE('',*,*,#290,.T.);
#376=ORIENTED_EDGE('',*,*,#291,.T.);
#377=ORIENTED_EDGE('',*,*,#292,.T.);
#378=ORIENTED_EDGE('',*,*,#293,.T.);
#379=ORIENTED_EDGE('',*,*,#273,.F.);
#380=ORIENTED_EDGE('',*,*,#284,.F.);
#381=ORIENTED_EDGE('',*,*,#280,.F.);
#382=ORIENTED_EDGE('',*,*,#277,.F.);
#383=ORIENTED_EDGE('',*,*,#279,.F.);
#384=ORIENTED_EDGE('',*,*,#294,.T.);
#385=ORIENTED_EDGE('',*,*,#295,.T.);
#386=ORIENTED_EDGE('',*,*,#288,.F.);
#387=ORIENTED_EDGE('',*,*,#282,.F.);
#388=ORIENTED_EDGE('',*,*,#287,.T.);
#389=ORIENTED_EDGE('',*,*,#296,.T.);
#390=ORIENTED_EDGE('',*,*,#294,.F.);
#391=ORIENTED_EDGE('',*,*,#286,.F.);
#392=ORIENTED_EDGE('',*,*,#289,.F.);
#393=ORIENTED_EDGE('',*,*,#295,.F.);
#394=ORIENTED_EDGE('',*,*,#296,.F.);
#395=ORIENTED_EDGE('',*,*,#297,.T.);
#396=ORIENTED_EDGE('',*,*,#298,.T.);
#397=ORIENTED_EDGE('',*,*,#299,.T.);
#398=ORIENTED_EDGE('',*,*,#300,.T.);
#399=ORIENTED_EDGE('',*,*,#301,.T.);
#400=ORIENTED_EDGE('',*,*,#302,.T.);
#401=ORIENTED_EDGE('',*,*,#303,.T.);
#402=ORIENTED_EDGE('',*,*,#300,.F.);
#403=ORIENTED_EDGE('',*,*,#297,.F.);
#404=ORIENTED_EDGE('',*,*,#303,.F.);
#405=ORIENTED_EDGE('',*,*,#304,.T.);
#406=ORIENTED_EDGE('',*,*,#305,.T.);
#407=ORIENTED_EDGE('',*,*,#306,.T.);
#408=ORIENTED_EDGE('',*,*,#307,.T.);
#409=ORIENTED_EDGE('',*,*,#299,.F.);
#410=ORIENTED_EDGE('',*,*,#308,.T.);
#411=ORIENTED_EDGE('',*,*,#293,.F.);
#412=ORIENTED_EDGE('',*,*,#309,.F.);
#413=ORIENTED_EDGE('',*,*,#301,.F.);
#414=ORIENTED_EDGE('',*,*,#309,.T.);
#415=ORIENTED_EDGE('',*,*,#292,.F.);
#416=ORIENTED_EDGE('',*,*,#310,.F.);
#417=ORIENTED_EDGE('',*,*,#311,.F.);
#418=ORIENTED_EDGE('',*,*,#312,.T.);
#419=ORIENTED_EDGE('',*,*,#313,.T.);
#420=ORIENTED_EDGE('',*,*,#314,.F.);
#421=ORIENTED_EDGE('',*,*,#315,.F.);
#422=ORIENTED_EDGE('',*,*,#316,.T.);
#423=ORIENTED_EDGE('',*,*,#317,.T.);
#424=ORIENTED_EDGE('',*,*,#312,.F.);
#425=ORIENTED_EDGE('',*,*,#318,.F.);
#426=ORIENTED_EDGE('',*,*,#319,.F.);
#427=ORIENTED_EDGE('',*,*,#320,.T.);
#428=ORIENTED_EDGE('',*,*,#316,.F.);
#429=ORIENTED_EDGE('',*,*,#321,.F.);
#430=ORIENTED_EDGE('',*,*,#313,.F.);
#431=ORIENTED_EDGE('',*,*,#317,.F.);
#432=ORIENTED_EDGE('',*,*,#320,.F.);
#433=ORIENTED_EDGE('',*,*,#314,.T.);
#434=ORIENTED_EDGE('',*,*,#321,.T.);
#435=ORIENTED_EDGE('',*,*,#319,.T.);
#436=ORIENTED_EDGE('',*,*,#322,.F.);
#437=ORIENTED_EDGE('',*,*,#323,.T.);
#438=ORIENTED_EDGE('',*,*,#324,.T.);
#439=ORIENTED_EDGE('',*,*,#306,.F.);
#440=ORIENTED_EDGE('',*,*,#325,.F.);
#441=ORIENTED_EDGE('',*,*,#311,.T.);
#442=ORIENTED_EDGE('',*,*,#325,.T.);
#443=ORIENTED_EDGE('',*,*,#305,.F.);
#444=ORIENTED_EDGE('',*,*,#326,.F.);
#445=ORIENTED_EDGE('',*,*,#327,.T.);
#446=ORIENTED_EDGE('',*,*,#322,.T.);
#447=ORIENTED_EDGE('',*,*,#318,.T.);
#448=ORIENTED_EDGE('',*,*,#315,.T.);
#449=ORIENTED_EDGE('',*,*,#328,.T.);
#450=ORIENTED_EDGE('',*,*,#326,.T.);
#451=ORIENTED_EDGE('',*,*,#304,.F.);
#452=ORIENTED_EDGE('',*,*,#302,.F.);
#453=ORIENTED_EDGE('',*,*,#310,.T.);
#454=ORIENTED_EDGE('',*,*,#291,.F.);
#455=ORIENTED_EDGE('',*,*,#329,.F.);
#456=ORIENTED_EDGE('',*,*,#330,.T.);
#457=ORIENTED_EDGE('',*,*,#329,.T.);
#458=ORIENTED_EDGE('',*,*,#290,.F.);
#459=ORIENTED_EDGE('',*,*,#308,.F.);
#460=ORIENTED_EDGE('',*,*,#298,.F.);
#461=ORIENTED_EDGE('',*,*,#307,.F.);
#462=ORIENTED_EDGE('',*,*,#324,.F.);
#463=ORIENTED_EDGE('',*,*,#330,.F.);
#464=ORIENTED_EDGE('',*,*,#323,.F.);
#465=ORIENTED_EDGE('',*,*,#327,.F.);
#466=ORIENTED_EDGE('',*,*,#328,.F.);
#467=ORIENTED_EDGE('',*,*,#261,.T.);
#468=ORIENTED_EDGE('',*,*,#265,.T.);
#469=ORIENTED_EDGE('',*,*,#268,.T.);
#470=ORIENTED_EDGE('',*,*,#271,.T.);
#471=PLANE('',#537);
#472=PLANE('',#538);
#473=PLANE('',#539);
#474=PLANE('',#540);
#475=PLANE('',#541);
#476=PLANE('',#550);
#477=PLANE('',#551);
#478=PLANE('',#552);
#479=PLANE('',#553);
#480=PLANE('',#554);
#481=PLANE('',#555);
#482=PLANE('',#561);
#483=PLANE('',#562);
#484=PLANE('',#563);
#485=PLANE('',#564);
#486=PLANE('',#565);
#487=PLANE('',#566);
#488=PLANE('',#567);
#489=PLANE('',#568);
#490=PLANE('',#569);
#491=PLANE('',#570);
#492=PLANE('',#571);
#493=PLANE('',#572);
#494=ADVANCED_FACE('',(#30),#471,.T.);
#495=ADVANCED_FACE('',(#31),#472,.T.);
#496=ADVANCED_FACE('',(#32),#473,.T.);
#497=ADVANCED_FACE('',(#33),#474,.T.);
#498=ADVANCED_FACE('',(#34),#475,.T.);
#499=ADVANCED_FACE('',(#35),#24,.T.);
#500=ADVANCED_FACE('',(#36),#25,.T.);
#501=ADVANCED_FACE('',(#37),#26,.T.);
#502=ADVANCED_FACE('',(#38),#27,.T.);
#503=ADVANCED_FACE('',(#39),#476,.F.);
#504=ADVANCED_FACE('',(#40),#477,.F.);
#505=ADVANCED_FACE('',(#41,#17),#478,.T.);
#506=ADVANCED_FACE('',(#42),#479,.F.);
#507=ADVANCED_FACE('',(#43),#480,.F.);
#508=ADVANCED_FACE('',(#44),#481,.F.);
#509=ADVANCED_FACE('',(#45),#28,.F.);
#510=ADVANCED_FACE('',(#46),#29,.F.);
#511=ADVANCED_FACE('',(#47),#482,.T.);
#512=ADVANCED_FACE('',(#48),#483,.T.);
#513=ADVANCED_FACE('',(#49),#484,.T.);
#514=ADVANCED_FACE('',(#50),#485,.F.);
#515=ADVANCED_FACE('',(#51),#486,.F.);
#516=ADVANCED_FACE('',(#52),#487,.F.);
#517=ADVANCED_FACE('',(#53),#488,.F.);
#518=ADVANCED_FACE('',(#54),#489,.T.);
#519=ADVANCED_FACE('',(#55),#490,.T.);
#520=ADVANCED_FACE('',(#56),#491,.T.);
#521=ADVANCED_FACE('',(#57),#492,.T.);
#522=ADVANCED_FACE('',(#58,#18),#493,.F.);
#523=CLOSED_SHELL('',(#494,#495,#496,#497,#498,#499,#500,#501,#502,#503,
#504,#505,#506,#507,#508,#509,#510,#511,#512,#513,#514,#515,#516,#517,#518,
#519,#520,#521,#522));
#524=DERIVED_UNIT_ELEMENT(#526,1.);
#525=DERIVED_UNIT_ELEMENT(#862,-3.);
#526=(
MASS_UNIT()
NAMED_UNIT(*)
SI_UNIT(.KILO.,.GRAM.)
);
#527=DERIVED_UNIT((#524,#525));
#528=MEASURE_REPRESENTATION_ITEM('density measure',
POSITIVE_RATIO_MEASURE(7850.),#527);
#529=PROPERTY_DEFINITION_REPRESENTATION(#534,#531);
#530=PROPERTY_DEFINITION_REPRESENTATION(#535,#532);
#531=REPRESENTATION('material name',(#533),#857);
#532=REPRESENTATION('density',(#528),#857);
#533=DESCRIPTIVE_REPRESENTATION_ITEM('Steel','Steel');
#534=PROPERTY_DEFINITION('material property','material name',#870);
#535=PROPERTY_DEFINITION('material property','density of part',#870);
#536=AXIS2_PLACEMENT_3D('',#710,#573,#574);
#537=AXIS2_PLACEMENT_3D('',#711,#575,#576);
#538=AXIS2_PLACEMENT_3D('',#720,#581,#582);
#539=AXIS2_PLACEMENT_3D('',#726,#586,#587);
#540=AXIS2_PLACEMENT_3D('',#732,#591,#592);
#541=AXIS2_PLACEMENT_3D('',#735,#595,#596);
#542=AXIS2_PLACEMENT_3D('',#736,#597,#598);
#543=AXIS2_PLACEMENT_3D('',#741,#600,#601);
#544=AXIS2_PLACEMENT_3D('',#744,#603,#604);
#545=AXIS2_PLACEMENT_3D('',#745,#605,#606);
#546=AXIS2_PLACEMENT_3D('',#749,#608,#609);
#547=AXIS2_PLACEMENT_3D('',#751,#611,#612);
#548=AXIS2_PLACEMENT_3D('',#755,#614,#615);
#549=AXIS2_PLACEMENT_3D('',#757,#617,#618);
#550=AXIS2_PLACEMENT_3D('',#760,#621,#622);
#551=AXIS2_PLACEMENT_3D('',#766,#626,#627);
#552=AXIS2_PLACEMENT_3D('',#770,#630,#631);
#553=AXIS2_PLACEMENT_3D('',#779,#636,#637);
#554=AXIS2_PLACEMENT_3D('',#783,#640,#641);
#555=AXIS2_PLACEMENT_3D('',#785,#643,#644);
#556=AXIS2_PLACEMENT_3D('',#786,#645,#646);
#557=AXIS2_PLACEMENT_3D('',#791,#648,#649);
#558=AXIS2_PLACEMENT_3D('',#794,#651,#652);
#559=AXIS2_PLACEMENT_3D('',#795,#653,#654);
#560=AXIS2_PLACEMENT_3D('',#799,#656,#657);
#561=AXIS2_PLACEMENT_3D('',#801,#659,#660);
#562=AXIS2_PLACEMENT_3D('',#809,#665,#666);
#563=AXIS2_PLACEMENT_3D('',#812,#669,#670);
#564=AXIS2_PLACEMENT_3D('',#814,#672,#673);
#565=AXIS2_PLACEMENT_3D('',#823,#678,#679);
#566=AXIS2_PLACEMENT_3D('',#829,#683,#684);
#567=AXIS2_PLACEMENT_3D('',#835,#688,#689);
#568=AXIS2_PLACEMENT_3D('',#837,#691,#692);
#569=AXIS2_PLACEMENT_3D('',#844,#697,#698);
#570=AXIS2_PLACEMENT_3D('',#848,#701,#702);
#571=AXIS2_PLACEMENT_3D('',#852,#705,#706);
#572=AXIS2_PLACEMENT_3D('',#854,#708,#709);
#573=DIRECTION('axis',(0.,0.,1.));
#574=DIRECTION('refdir',(1.,0.,0.));
#575=DIRECTION('center_axis',(-1.,0.,0.));
#576=DIRECTION('ref_axis',(0.,1.,0.));
#577=DIRECTION('',(0.,-1.,0.));
#578=DIRECTION('',(0.,0.,-1.));
#579=DIRECTION('',(0.,1.,0.));
#580=DIRECTION('',(0.,0.,-1.));
#581=DIRECTION('center_axis',(0.,-1.,0.));
#582=DIRECTION('ref_axis',(-1.,0.,0.));
#583=DIRECTION('',(1.,0.,0.));
#584=DIRECTION('',(-1.,0.,0.));
#585=DIRECTION('',(0.,0.,-1.));
#586=DIRECTION('center_axis',(1.,0.,0.));
#587=DIRECTION('ref_axis',(0.,-1.,0.));
#588=DIRECTION('',(0.,1.,0.));
#589=DIRECTION('',(0.,-1.,0.));
#590=DIRECTION('',(0.,0.,-1.));
#591=DIRECTION('center_axis',(0.,1.,0.));
#592=DIRECTION('ref_axis',(1.,0.,0.));
#593=DIRECTION('',(-1.,0.,0.));
#594=DIRECTION('',(1.,0.,0.));
#595=DIRECTION('center_axis',(0.,0.,-1.));
#596=DIRECTION('ref_axis',(-1.,0.,0.));
#597=DIRECTION('center_axis',(0.,-1.,0.));
#598=DIRECTION('ref_axis',(-0.70710678118656,0.,0.707106781186535));
#599=DIRECTION('',(0.,1.,0.));
#600=DIRECTION('center_axis',(0.707106781186548,-0.707106781186548,0.));
#601=DIRECTION('ref_axis',(0.707106781186548,0.707106781186548,0.));
#602=DIRECTION('',(0.,-1.,0.));
#603=DIRECTION('center_axis',(0.707106781186548,0.707106781186547,0.));
#604=DIRECTION('ref_axis',(-0.707106781186547,0.707106781186548,0.));
#605=DIRECTION('center_axis',(1.,0.,0.));
#606=DIRECTION('ref_axis',(0.,-0.70710678118656,0.707106781186535));
#607=DIRECTION('',(-1.,0.,0.));
#608=DIRECTION('center_axis',(0.707106781186547,0.707106781186548,0.));
#609=DIRECTION('ref_axis',(-0.707106781186548,0.707106781186547,0.));
#610=DIRECTION('',(1.,0.,0.));
#611=DIRECTION('center_axis',(0.,1.,0.));
#612=DIRECTION('ref_axis',(0.70710678118656,0.,0.707106781186535));
#613=DIRECTION('',(0.,-1.,0.));
#614=DIRECTION('center_axis',(-0.707106781186548,0.707106781186548,0.));
#615=DIRECTION('ref_axis',(-0.707106781186547,-0.707106781186547,0.));
#616=DIRECTION('',(0.,1.,0.));
#617=DIRECTION('center_axis',(-1.,0.,0.));
#618=DIRECTION('ref_axis',(0.,0.70710678118656,0.707106781186535));
#619=DIRECTION('',(-1.,0.,0.));
#620=DIRECTION('',(1.,0.,0.));
#621=DIRECTION('center_axis',(0.,-1.,0.));
#622=DIRECTION('ref_axis',(-1.,0.,0.));
#623=DIRECTION('',(0.,0.,-1.));
#624=DIRECTION('',(-1.,0.,0.));
#625=DIRECTION('',(0.,0.,-1.));
#626=DIRECTION('center_axis',(1.,0.,0.));
#627=DIRECTION('ref_axis',(0.,-1.,0.));
#628=DIRECTION('',(0.,0.,-1.));
#629=DIRECTION('',(0.,-1.,0.));
#630=DIRECTION('center_axis',(0.,0.,1.));
#631=DIRECTION('ref_axis',(1.,0.,0.));
#632=DIRECTION('',(0.,-1.,0.));
#633=DIRECTION('',(1.,0.,0.));
#634=DIRECTION('',(0.,1.,0.));
#635=DIRECTION('',(-1.,0.,0.));
#636=DIRECTION('center_axis',(0.,1.,0.));
#637=DIRECTION('ref_axis',(1.,0.,0.));
#638=DIRECTION('',(0.,0.,-1.));
#639=DIRECTION('',(1.,0.,0.));
#640=DIRECTION('center_axis',(-1.,0.,0.));
#641=DIRECTION('ref_axis',(0.,1.,0.));
#642=DIRECTION('',(0.,1.,0.));
#643=DIRECTION('center_axis',(0.,0.,-1.));
#644=DIRECTION('ref_axis',(-1.,0.,0.));
#645=DIRECTION('center_axis',(1.,0.,0.));
#646=DIRECTION('ref_axis',(0.,-0.707106781186549,-0.707106781186546));
#647=DIRECTION('',(-1.,0.,0.));
#648=DIRECTION('center_axis',(-1.,0.,0.));
#649=DIRECTION('ref_axis',(0.,-0.707106781186549,-0.707106781186546));
#650=DIRECTION('',(1.,0.,0.));
#651=DIRECTION('center_axis',(0.707106781186548,-0.707106781186548,0.));
#652=DIRECTION('ref_axis',(-0.707106781186548,-0.707106781186548,0.));
#653=DIRECTION('center_axis',(0.,-1.,0.));
#654=DIRECTION('ref_axis',(-0.707106781186549,0.,-0.707106781186546));
#655=DIRECTION('',(0.,-1.,0.));
#656=DIRECTION('center_axis',(0.,-1.,0.));
#657=DIRECTION('ref_axis',(-0.707106781186549,0.,-0.707106781186546));
#658=DIRECTION('',(0.,1.,0.));
#659=DIRECTION('center_axis',(0.,0.,1.));
#660=DIRECTION('ref_axis',(1.,0.,0.));
#661=DIRECTION('',(1.,0.,0.));
#662=DIRECTION('',(0.,1.,0.));
#663=DIRECTION('',(-1.,0.,0.));
#664=DIRECTION('',(0.,-1.,0.));
#665=DIRECTION('center_axis',(0.,1.,0.));
#666=DIRECTION('ref_axis',(-1.,0.,0.));
#667=DIRECTION('',(0.,0.,1.));
#668=DIRECTION('',(0.,0.,1.));
#669=DIRECTION('center_axis',(1.,0.,0.));
#670=DIRECTION('ref_axis',(0.,1.,0.));
#671=DIRECTION('',(0.,0.,1.));
#672=DIRECTION('center_axis',(0.,0.,1.));
#673=DIRECTION('ref_axis',(0.,1.,0.));
#674=DIRECTION('',(0.,1.,0.));
#675=DIRECTION('',(-1.,0.,0.));
#676=DIRECTION('',(0.,1.,0.));
#677=DIRECTION('',(-1.,0.,0.));
#678=DIRECTION('center_axis',(0.,-1.,0.));
#679=DIRECTION('ref_axis',(0.,0.,1.));
#680=DIRECTION('',(0.,0.,1.));
#681=DIRECTION('',(-1.,0.,0.));
#682=DIRECTION('',(0.,0.,1.));
#683=DIRECTION('center_axis',(0.,0.,-1.));
#684=DIRECTION('ref_axis',(0.,-1.,0.));
#685=DIRECTION('',(0.,-1.,0.));
#686=DIRECTION('',(1.,0.,0.));
#687=DIRECTION('',(0.,-1.,0.));
#688=DIRECTION('center_axis',(-1.,0.,0.));
#689=DIRECTION('ref_axis',(0.,0.,1.));
#690=DIRECTION('',(0.,0.,-1.));
#691=DIRECTION('center_axis',(0.,1.,0.));
#692=DIRECTION('ref_axis',(-1.,0.,0.));
#693=DIRECTION('',(0.,0.,1.));
#694=DIRECTION('',(-1.,0.,0.));
#695=DIRECTION('',(0.,0.,1.));
#696=DIRECTION('',(0.,0.,1.));
#697=DIRECTION('center_axis',(1.,0.,0.));
#698=DIRECTION('ref_axis',(0.,1.,0.));
#699=DIRECTION('',(0.,0.,1.));
#700=DIRECTION('',(0.,1.,0.));
#701=DIRECTION('center_axis',(0.,-1.,0.));
#702=DIRECTION('ref_axis',(1.,0.,0.));
#703=DIRECTION('',(1.,0.,0.));
#704=DIRECTION('',(0.,0.,1.));
#705=DIRECTION('center_axis',(-1.,0.,0.));
#706=DIRECTION('ref_axis',(0.,-1.,0.));
#707=DIRECTION('',(0.,-1.,0.));
#708=DIRECTION('center_axis',(0.,0.,1.));
#709=DIRECTION('ref_axis',(1.,0.,0.));
#710=CARTESIAN_POINT('',(0.,0.,0.));
#711=CARTESIAN_POINT('Origin',(0.21,0.21,0.));
#712=CARTESIAN_POINT('',(0.21,0.79,0.));
#713=CARTESIAN_POINT('',(0.21,0.21,0.));
#714=CARTESIAN_POINT('',(0.21,0.605,0.));
#715=CARTESIAN_POINT('',(0.21,0.79,-0.2));
#716=CARTESIAN_POINT('',(0.21,0.79,0.));
#717=CARTESIAN_POINT('',(0.21,0.21,-0.2));
#718=CARTESIAN_POINT('',(0.21,0.79,-0.2));
#719=CARTESIAN_POINT('',(0.21,0.21,0.));
#720=CARTESIAN_POINT('Origin',(0.79,0.21,0.));
#721=CARTESIAN_POINT('',(0.79,0.21,0.));
#722=CARTESIAN_POINT('',(0.895,0.21,0.));
#723=CARTESIAN_POINT('',(0.79,0.21,-0.2));
#724=CARTESIAN_POINT('',(0.21,0.21,-0.2));
#725=CARTESIAN_POINT('',(0.79,0.21,0.));
#726=CARTESIAN_POINT('Origin',(0.79,0.79,0.));
#727=CARTESIAN_POINT('',(0.79,0.79,0.));
#728=CARTESIAN_POINT('',(0.79,0.895,0.));
#729=CARTESIAN_POINT('',(0.79,0.79,-0.2));
#730=CARTESIAN_POINT('',(0.79,0.21,-0.2));
#731=CARTESIAN_POINT('',(0.79,0.79,0.));
#732=CARTESIAN_POINT('Origin',(0.21,0.79,0.));
#733=CARTESIAN_POINT('',(0.605,0.79,0.));
#734=CARTESIAN_POINT('',(0.79,0.79,-0.2));
#735=CARTESIAN_POINT('Origin',(0.5,0.5,-0.2));
#736=CARTESIAN_POINT('Origin',(0.85,0.65,7.2));
#737=CARTESIAN_POINT('',(0.85,0.15,7.25));
#738=CARTESIAN_POINT('',(0.85,0.85,7.25));
#739=CARTESIAN_POINT('',(0.85,0.65,7.25));
#740=CARTESIAN_POINT('',(0.8,0.8,7.2));
#741=CARTESIAN_POINT('Origin',(0.85,0.85,7.2));
#742=CARTESIAN_POINT('',(0.8,0.2,7.2));
#743=CARTESIAN_POINT('',(0.8,0.65,7.2));
#744=CARTESIAN_POINT('Origin',(0.85,0.15,7.2));
#745=CARTESIAN_POINT('Origin',(0.35,0.85,7.2));
#746=CARTESIAN_POINT('',(0.15,0.85,7.25));
#747=CARTESIAN_POINT('',(0.35,0.85,7.25));
#748=CARTESIAN_POINT('',(0.2,0.8,7.2));
#749=CARTESIAN_POINT('Origin',(0.15,0.85,7.2));
#750=CARTESIAN_POINT('',(0.35,0.8,7.2));
#751=CARTESIAN_POINT('Origin',(0.15,0.35,7.2));
#752=CARTESIAN_POINT('',(0.15,0.15,7.25));
#753=CARTESIAN_POINT('',(0.15,0.35,7.25));
#754=CARTESIAN_POINT('',(0.2,0.2,7.2));
#755=CARTESIAN_POINT('Origin',(0.15,0.15,7.2));
#756=CARTESIAN_POINT('',(0.2,0.35,7.2));
#757=CARTESIAN_POINT('Origin',(0.65,0.15,7.2));
#758=CARTESIAN_POINT('',(0.65,0.2,7.2));
#759=CARTESIAN_POINT('',(0.65,0.15,7.25));
#760=CARTESIAN_POINT('Origin',(0.8,0.2,7.25));
#761=CARTESIAN_POINT('',(0.8,0.2,7.05));
#762=CARTESIAN_POINT('',(0.8,0.2,7.25));
#763=CARTESIAN_POINT('',(0.2,0.2,7.05));
#764=CARTESIAN_POINT('',(0.8,0.2,7.05));
#765=CARTESIAN_POINT('',(0.2,0.2,7.25));
#766=CARTESIAN_POINT('Origin',(0.8,0.8,7.25));
#767=CARTESIAN_POINT('',(0.8,0.8,7.05));
#768=CARTESIAN_POINT('',(0.8,0.8,7.25));
#769=CARTESIAN_POINT('',(0.8,0.8,7.05));
#770=CARTESIAN_POINT('Origin',(0.5,0.5,7.25));
#771=CARTESIAN_POINT('',(0.,1.,7.25));
#772=CARTESIAN_POINT('',(0.,0.,7.25));
#773=CARTESIAN_POINT('',(0.,1.,7.25));
#774=CARTESIAN_POINT('',(1.,0.,7.25));
#775=CARTESIAN_POINT('',(0.,0.,7.25));
#776=CARTESIAN_POINT('',(1.,1.,7.25));
#777=CARTESIAN_POINT('',(1.,0.,7.25));
#778=CARTESIAN_POINT('',(1.,1.,7.25));
#779=CARTESIAN_POINT('Origin',(0.2,0.8,7.25));
#780=CARTESIAN_POINT('',(0.2,0.8,7.05));
#781=CARTESIAN_POINT('',(0.2,0.8,7.25));
#782=CARTESIAN_POINT('',(0.2,0.8,7.05));
#783=CARTESIAN_POINT('Origin',(0.2,0.2,7.25));
#784=CARTESIAN_POINT('',(0.2,0.2,7.05));
#785=CARTESIAN_POINT('Origin',(0.5,0.5,7.05));
#786=CARTESIAN_POINT('Origin',(1.,1.1,1.35));
#787=CARTESIAN_POINT('',(1.1,1.1,1.25));
#788=CARTESIAN_POINT('',(0.,1.1,1.25));
#789=CARTESIAN_POINT('',(1.,1.1,1.25));
#790=CARTESIAN_POINT('',(0.,1.,1.35));
#791=CARTESIAN_POINT('Origin',(0.,1.1,1.35));
#792=CARTESIAN_POINT('',(1.,1.,1.35));
#793=CARTESIAN_POINT('',(1.,1.,1.35));
#794=CARTESIAN_POINT('Origin',(1.1,1.1,1.35));
#795=CARTESIAN_POINT('Origin',(1.1,0.5,1.35));
#796=CARTESIAN_POINT('',(1.,0.,1.35));
#797=CARTESIAN_POINT('',(1.,0.5,1.35));
#798=CARTESIAN_POINT('',(1.1,0.,1.25));
#799=CARTESIAN_POINT('Origin',(1.1,0.,1.35));
#800=CARTESIAN_POINT('',(1.1,0.5,1.25));
#801=CARTESIAN_POINT('Origin',(1.,1.,1.25));
#802=CARTESIAN_POINT('',(2.,0.,1.25));
#803=CARTESIAN_POINT('',(0.,0.,1.25));
#804=CARTESIAN_POINT('',(2.,2.,1.25));
#805=CARTESIAN_POINT('',(2.,0.,1.25));
#806=CARTESIAN_POINT('',(0.,2.,1.25));
#807=CARTESIAN_POINT('',(2.,2.,1.25));
#808=CARTESIAN_POINT('',(0.,2.,1.25));
#809=CARTESIAN_POINT('Origin',(1.,1.,1.25));
#810=CARTESIAN_POINT('',(0.,1.,1.25));
#811=CARTESIAN_POINT('',(1.,1.,1.25));
#812=CARTESIAN_POINT('Origin',(1.,0.,1.25));
#813=CARTESIAN_POINT('',(1.,0.,1.25));
#814=CARTESIAN_POINT('Origin',(2.,0.4,0.92));
#815=CARTESIAN_POINT('',(2.,0.4,0.92));
#816=CARTESIAN_POINT('',(2.,2.,0.92));
#817=CARTESIAN_POINT('',(2.,0.2,0.92));
#818=CARTESIAN_POINT('',(0.4,0.4,0.92));
#819=CARTESIAN_POINT('',(2.,0.4,0.92));
#820=CARTESIAN_POINT('',(0.4,2.,0.92));
#821=CARTESIAN_POINT('',(0.4,2.,0.92));
#822=CARTESIAN_POINT('',(2.,2.,0.92));
#823=CARTESIAN_POINT('Origin',(2.,0.4,0.15));
#824=CARTESIAN_POINT('',(2.,0.4,0.15));
#825=CARTESIAN_POINT('',(2.,0.4,0.075));
#826=CARTESIAN_POINT('',(0.4,0.4,0.15));
#827=CARTESIAN_POINT('',(2.,0.4,0.15));
#828=CARTESIAN_POINT('',(0.4,0.4,0.92));
#829=CARTESIAN_POINT('Origin',(2.,2.,0.15));
#830=CARTESIAN_POINT('',(2.,2.,0.15));
#831=CARTESIAN_POINT('',(2.,1.,0.15));
#832=CARTESIAN_POINT('',(0.4,2.,0.15));
#833=CARTESIAN_POINT('',(2.,2.,0.15));
#834=CARTESIAN_POINT('',(0.4,0.4,0.15));
#835=CARTESIAN_POINT('Origin',(0.4,1.2,0.535));
#836=CARTESIAN_POINT('',(0.4,2.,0.2675));
#837=CARTESIAN_POINT('Origin',(2.,2.,0.));
#838=CARTESIAN_POINT('',(2.,2.,0.));
#839=CARTESIAN_POINT('',(2.,2.,0.));
#840=CARTESIAN_POINT('',(0.,2.,0.));
#841=CARTESIAN_POINT('',(2.,2.,0.));
#842=CARTESIAN_POINT('',(0.,2.,0.));
#843=CARTESIAN_POINT('',(2.,2.,0.));
#844=CARTESIAN_POINT('Origin',(2.,0.,0.));
#845=CARTESIAN_POINT('',(2.,0.,0.));
#846=CARTESIAN_POINT('',(2.,0.,0.));
#847=CARTESIAN_POINT('',(2.,0.,0.));
#848=CARTESIAN_POINT('Origin',(0.,0.,0.));
#849=CARTESIAN_POINT('',(0.,0.,0.));
#850=CARTESIAN_POINT('',(0.,0.,0.));
#851=CARTESIAN_POINT('',(0.,0.,0.));
#852=CARTESIAN_POINT('Origin',(0.,2.,0.));
#853=CARTESIAN_POINT('',(0.,2.,0.));
#854=CARTESIAN_POINT('Origin',(1.,1.,0.));
#855=UNCERTAINTY_MEASURE_WITH_UNIT(LENGTH_MEASURE(0.000393700787401575),
#860,'DISTANCE_ACCURACY_VALUE',
'Maximum model space distance between geometric entities at asserted c
onnectivities');
#856=UNCERTAINTY_MEASURE_WITH_UNIT(LENGTH_MEASURE(0.000393700787401575),
#860,'DISTANCE_ACCURACY_VALUE',
'Maximum model space distance between geometric entities at asserted c
onnectivities');
#857=(
GEOMETRIC_REPRESENTATION_CONTEXT(3)
GLOBAL_UNCERTAINTY_ASSIGNED_CONTEXT((#855))
GLOBAL_UNIT_ASSIGNED_CONTEXT((#860,#864,#865))
REPRESENTATION_CONTEXT('','3D')
);
#858=(
GEOMETRIC_REPRESENTATION_CONTEXT(3)
GLOBAL_UNCERTAINTY_ASSIGNED_CONTEXT((#856))
GLOBAL_UNIT_ASSIGNED_CONTEXT((#860,#864,#865))
REPRESENTATION_CONTEXT('','3D')
);
#859=DIMENSIONAL_EXPONENTS(1.,0.,0.,0.,0.,0.,0.);
#860=(
CONVERSION_BASED_UNIT('inch',#863)
LENGTH_UNIT()
NAMED_UNIT(#859)
);
#861=(
LENGTH_UNIT()
NAMED_UNIT(*)
SI_UNIT(.MILLI.,.METRE.)
);
#862=(
LENGTH_UNIT()
NAMED_UNIT(*)
SI_UNIT($,.METRE.)
);
#863=LENGTH_MEASURE_WITH_UNIT(LENGTH_MEASURE(25.4),#861);
#864=(
NAMED_UNIT(*)
PLANE_ANGLE_UNIT()
SI_UNIT($,.RADIAN.)
);
#865=(
NAMED_UNIT(*)
SI_UNIT($,.STERADIAN.)
SOLID_ANGLE_UNIT()
);
#866=SHAPE_DEFINITION_REPRESENTATION(#867,#868);
#867=PRODUCT_DEFINITION_SHAPE('',$,#870);
#868=SHAPE_REPRESENTATION('',(#536),#857);
#869=PRODUCT_DEFINITION_CONTEXT('part definition',#874,'design');
#870=PRODUCT_DEFINITION('2026-02-13-20-43-58-642',
'Shoe Rack Bracket v2.2',#871,#869);
#871=PRODUCT_DEFINITION_FORMATION('',$,#876);
#872=PRODUCT_RELATED_PRODUCT_CATEGORY('Shoe Rack Bracket v2.2',
'Shoe Rack Bracket v2.2',(#876));
#873=APPLICATION_PROTOCOL_DEFINITION('international standard',
'automotive_design',2009,#874);
#874=APPLICATION_CONTEXT(
'Core Data for Automotive Mechanical Design Process');
#875=PRODUCT_CONTEXT('part definition',#874,'mechanical');
#876=PRODUCT('2026-02-13-20-43-58-642','Shoe Rack Bracket v2.2',$,(#875));
#877=PRESENTATION_STYLE_ASSIGNMENT((#878));
#878=SURFACE_STYLE_USAGE(.BOTH.,#879);
#879=SURFACE_SIDE_STYLE('',(#880));
#880=SURFACE_STYLE_FILL_AREA(#881);
#881=FILL_AREA_STYLE('Steel - Satin',(#882));
#882=FILL_AREA_STYLE_COLOUR('Steel - Satin',#883);
#883=COLOUR_RGB('Steel - Satin',0.627450980392157,0.627450980392157,0.627450980392157);
ENDSEC;
END-ISO-10303-21;
