ISO-10303-21;
HEADER;
/* Generated by software containing ST-Developer
 * from STEP Tools, Inc. (www.steptools.com) 
 */

FILE_DESCRIPTION(
/* description */ (''),
/* implementation_level */ '2;1');

FILE_NAME(
/* name */ 'Shoe Rack Bracket v2 (transition).step',
/* time_stamp */ '2026-02-15T16:03:08-06:00',
/* author */ (''),
/* organization */ (''),
/* preprocessor_version */ 'ST-DEVELOPER v20.1',
/* originating_system */ 'Autodesk Translation Framework v14.24.0.0',
/* authorisation */ '');

FILE_SCHEMA (('AUTOMOTIVE_DESIGN { 1 0 10303 214 3 1 1 }'));
ENDSEC;

DATA;
#10=MECHANICAL_DESIGN_GEOMETRIC_PRESENTATION_REPRESENTATION('',(#13),#758);
#11=SHAPE_REPRESENTATION_RELATIONSHIP('SRR','None',#768,#12);
#12=ADVANCED_BREP_SHAPE_REPRESENTATION('',(#14),#757);
#13=STYLED_ITEM('',(#777),#14);
#14=MANIFOLD_SOLID_BREP('Body1',#467);
#15=FACE_BOUND('',#63,.T.);
#16=FACE_BOUND('',#73,.T.);
#17=ELLIPSE('',#493,0.14142135623731,0.1);
#18=CIRCLE('',#492,0.1);
#19=CIRCLE('',#495,0.1);
#20=CYLINDRICAL_SURFACE('',#491,0.1);
#21=CYLINDRICAL_SURFACE('',#494,0.1);
#22=FACE_OUTER_BOUND('',#47,.T.);
#23=FACE_OUTER_BOUND('',#48,.T.);
#24=FACE_OUTER_BOUND('',#49,.T.);
#25=FACE_OUTER_BOUND('',#50,.T.);
#26=FACE_OUTER_BOUND('',#51,.T.);
#27=FACE_OUTER_BOUND('',#52,.T.);
#28=FACE_OUTER_BOUND('',#53,.T.);
#29=FACE_OUTER_BOUND('',#54,.T.);
#30=FACE_OUTER_BOUND('',#55,.T.);
#31=FACE_OUTER_BOUND('',#56,.T.);
#32=FACE_OUTER_BOUND('',#57,.T.);
#33=FACE_OUTER_BOUND('',#58,.T.);
#34=FACE_OUTER_BOUND('',#59,.T.);
#35=FACE_OUTER_BOUND('',#60,.T.);
#36=FACE_OUTER_BOUND('',#61,.T.);
#37=FACE_OUTER_BOUND('',#62,.T.);
#38=FACE_OUTER_BOUND('',#64,.T.);
#39=FACE_OUTER_BOUND('',#65,.T.);
#40=FACE_OUTER_BOUND('',#66,.T.);
#41=FACE_OUTER_BOUND('',#67,.T.);
#42=FACE_OUTER_BOUND('',#68,.T.);
#43=FACE_OUTER_BOUND('',#69,.T.);
#44=FACE_OUTER_BOUND('',#70,.T.);
#45=FACE_OUTER_BOUND('',#71,.T.);
#46=FACE_OUTER_BOUND('',#72,.T.);
#47=EDGE_LOOP('',(#295,#296,#297,#298));
#48=EDGE_LOOP('',(#299,#300,#301,#302));
#49=EDGE_LOOP('',(#303,#304,#305,#306));
#50=EDGE_LOOP('',(#307,#308,#309,#310));
#51=EDGE_LOOP('',(#311,#312,#313,#314));
#52=EDGE_LOOP('',(#315,#316,#317,#318));
#53=EDGE_LOOP('',(#319,#320,#321,#322));
#54=EDGE_LOOP('',(#323,#324,#325,#326));
#55=EDGE_LOOP('',(#327,#328,#329,#330));
#56=EDGE_LOOP('',(#331,#332,#333,#334));
#57=EDGE_LOOP('',(#335,#336,#337,#338));
#58=EDGE_LOOP('',(#339,#340,#341,#342));
#59=EDGE_LOOP('',(#343,#344,#345,#346,#347,#348));
#60=EDGE_LOOP('',(#349,#350,#351,#352));
#61=EDGE_LOOP('',(#353,#354,#355,#356));
#62=EDGE_LOOP('',(#357,#358,#359,#360));
#63=EDGE_LOOP('',(#361,#362,#363,#364));
#64=EDGE_LOOP('',(#365,#366,#367,#368));
#65=EDGE_LOOP('',(#369,#370,#371,#372));
#66=EDGE_LOOP('',(#373,#374,#375,#376));
#67=EDGE_LOOP('',(#377,#378,#379,#380));
#68=EDGE_LOOP('',(#381,#382,#383,#384,#385,#386,#387,#388));
#69=EDGE_LOOP('',(#389,#390,#391,#392,#393,#394,#395,#396));
#70=EDGE_LOOP('',(#397,#398,#399,#400,#401,#402,#403));
#71=EDGE_LOOP('',(#404,#405,#406,#407,#408,#409,#410));
#72=EDGE_LOOP('',(#411,#412,#413,#414));
#73=EDGE_LOOP('',(#415,#416,#417,#418));
#74=LINE('',#630,#133);
#75=LINE('',#632,#134);
#76=LINE('',#634,#135);
#77=LINE('',#635,#136);
#78=LINE('',#638,#137);
#79=LINE('',#640,#138);
#80=LINE('',#641,#139);
#81=LINE('',#644,#140);
#82=LINE('',#646,#141);
#83=LINE('',#647,#142);
#84=LINE('',#649,#143);
#85=LINE('',#650,#144);
#86=LINE('',#655,#145);
#87=LINE('',#657,#146);
#88=LINE('',#659,#147);
#89=LINE('',#660,#148);
#90=LINE('',#663,#149);
#91=LINE('',#665,#150);
#92=LINE('',#666,#151);
#93=LINE('',#669,#152);
#94=LINE('',#671,#153);
#95=LINE('',#672,#154);
#96=LINE('',#674,#155);
#97=LINE('',#675,#156);
#98=LINE('',#680,#157);
#99=LINE('',#684,#158);
#100=LINE('',#688,#159);
#101=LINE('',#691,#160);
#102=LINE('',#694,#161);
#103=LINE('',#696,#162);
#104=LINE('',#698,#163);
#105=LINE('',#699,#164);
#106=LINE('',#702,#165);
#107=LINE('',#704,#166);
#108=LINE('',#705,#167);
#109=LINE('',#708,#168);
#110=LINE('',#709,#169);
#111=LINE('',#712,#170);
#112=LINE('',#713,#171);
#113=LINE('',#717,#172);
#114=LINE('',#719,#173);
#115=LINE('',#721,#174);
#116=LINE('',#722,#175);
#117=LINE('',#725,#176);
#118=LINE('',#727,#177);
#119=LINE('',#728,#178);
#120=LINE('',#731,#179);
#121=LINE('',#733,#180);
#122=LINE('',#734,#181);
#123=LINE('',#736,#182);
#124=LINE('',#739,#183);
#125=LINE('',#741,#184);
#126=LINE('',#742,#185);
#127=LINE('',#743,#186);
#128=LINE('',#746,#187);
#129=LINE('',#747,#188);
#130=LINE('',#750,#189);
#131=LINE('',#751,#190);
#132=LINE('',#753,#191);
#133=VECTOR('',#513,0.393700787401575);
#134=VECTOR('',#514,0.393700787401575);
#135=VECTOR('',#515,0.393700787401575);
#136=VECTOR('',#516,0.393700787401575);
#137=VECTOR('',#519,0.393700787401575);
#138=VECTOR('',#520,0.393700787401575);
#139=VECTOR('',#521,0.393700787401575);
#140=VECTOR('',#524,0.393700787401575);
#141=VECTOR('',#525,0.393700787401575);
#142=VECTOR('',#526,0.393700787401575);
#143=VECTOR('',#529,0.393700787401575);
#144=VECTOR('',#530,0.393700787401575);
#145=VECTOR('',#535,0.393700787401575);
#146=VECTOR('',#536,0.393700787401575);
#147=VECTOR('',#537,0.393700787401575);
#148=VECTOR('',#538,0.393700787401575);
#149=VECTOR('',#541,0.393700787401575);
#150=VECTOR('',#542,0.393700787401575);
#151=VECTOR('',#543,0.393700787401575);
#152=VECTOR('',#546,0.393700787401575);
#153=VECTOR('',#547,0.393700787401575);
#154=VECTOR('',#548,0.393700787401575);
#155=VECTOR('',#551,0.393700787401575);
#156=VECTOR('',#552,0.393700787401575);
#157=VECTOR('',#557,0.393700787401575);
#158=VECTOR('',#560,0.393700787401575);
#159=VECTOR('',#565,0.393700787401575);
#160=VECTOR('',#568,0.393700787401575);
#161=VECTOR('',#571,0.393700787401575);
#162=VECTOR('',#572,0.393700787401575);
#163=VECTOR('',#573,0.393700787401575);
#164=VECTOR('',#574,0.393700787401575);
#165=VECTOR('',#577,0.393700787401575);
#166=VECTOR('',#578,0.393700787401575);
#167=VECTOR('',#579,0.393700787401575);
#168=VECTOR('',#582,0.393700787401575);
#169=VECTOR('',#583,0.393700787401575);
#170=VECTOR('',#586,0.393700787401575);
#171=VECTOR('',#587,0.393700787401575);
#172=VECTOR('',#590,0.393700787401575);
#173=VECTOR('',#591,0.393700787401575);
#174=VECTOR('',#592,0.393700787401575);
#175=VECTOR('',#593,0.393700787401575);
#176=VECTOR('',#596,0.393700787401575);
#177=VECTOR('',#597,0.393700787401575);
#178=VECTOR('',#598,0.393700787401575);
#179=VECTOR('',#601,0.393700787401575);
#180=VECTOR('',#602,0.393700787401575);
#181=VECTOR('',#603,0.393700787401575);
#182=VECTOR('',#606,0.393700787401575);
#183=VECTOR('',#609,0.393700787401575);
#184=VECTOR('',#610,0.393700787401575);
#185=VECTOR('',#611,0.393700787401575);
#186=VECTOR('',#612,0.393700787401575);
#187=VECTOR('',#615,0.393700787401575);
#188=VECTOR('',#616,0.393700787401575);
#189=VECTOR('',#619,0.393700787401575);
#190=VECTOR('',#620,0.393700787401575);
#191=VECTOR('',#623,0.393700787401575);
#192=VERTEX_POINT('',#628);
#193=VERTEX_POINT('',#629);
#194=VERTEX_POINT('',#631);
#195=VERTEX_POINT('',#633);
#196=VERTEX_POINT('',#637);
#197=VERTEX_POINT('',#639);
#198=VERTEX_POINT('',#643);
#199=VERTEX_POINT('',#645);
#200=VERTEX_POINT('',#653);
#201=VERTEX_POINT('',#654);
#202=VERTEX_POINT('',#656);
#203=VERTEX_POINT('',#658);
#204=VERTEX_POINT('',#662);
#205=VERTEX_POINT('',#664);
#206=VERTEX_POINT('',#668);
#207=VERTEX_POINT('',#670);
#208=VERTEX_POINT('',#678);
#209=VERTEX_POINT('',#679);
#210=VERTEX_POINT('',#681);
#211=VERTEX_POINT('',#683);
#212=VERTEX_POINT('',#687);
#213=VERTEX_POINT('',#689);
#214=VERTEX_POINT('',#693);
#215=VERTEX_POINT('',#695);
#216=VERTEX_POINT('',#697);
#217=VERTEX_POINT('',#701);
#218=VERTEX_POINT('',#703);
#219=VERTEX_POINT('',#707);
#220=VERTEX_POINT('',#711);
#221=VERTEX_POINT('',#715);
#222=VERTEX_POINT('',#716);
#223=VERTEX_POINT('',#718);
#224=VERTEX_POINT('',#720);
#225=VERTEX_POINT('',#724);
#226=VERTEX_POINT('',#726);
#227=VERTEX_POINT('',#730);
#228=VERTEX_POINT('',#732);
#229=VERTEX_POINT('',#738);
#230=VERTEX_POINT('',#740);
#231=VERTEX_POINT('',#745);
#232=VERTEX_POINT('',#749);
#233=EDGE_CURVE('',#192,#193,#74,.T.);
#234=EDGE_CURVE('',#192,#194,#75,.T.);
#235=EDGE_CURVE('',#195,#194,#76,.T.);
#236=EDGE_CURVE('',#193,#195,#77,.T.);
#237=EDGE_CURVE('',#193,#196,#78,.T.);
#238=EDGE_CURVE('',#197,#195,#79,.T.);
#239=EDGE_CURVE('',#196,#197,#80,.T.);
#240=EDGE_CURVE('',#196,#198,#81,.T.);
#241=EDGE_CURVE('',#199,#197,#82,.T.);
#242=EDGE_CURVE('',#198,#199,#83,.T.);
#243=EDGE_CURVE('',#198,#192,#84,.T.);
#244=EDGE_CURVE('',#194,#199,#85,.T.);
#245=EDGE_CURVE('',#200,#201,#86,.T.);
#246=EDGE_CURVE('',#200,#202,#87,.T.);
#247=EDGE_CURVE('',#202,#203,#88,.T.);
#248=EDGE_CURVE('',#201,#203,#89,.T.);
#249=EDGE_CURVE('',#201,#204,#90,.T.);
#250=EDGE_CURVE('',#203,#205,#91,.T.);
#251=EDGE_CURVE('',#204,#205,#92,.T.);
#252=EDGE_CURVE('',#204,#206,#93,.T.);
#253=EDGE_CURVE('',#205,#207,#94,.T.);
#254=EDGE_CURVE('',#206,#207,#95,.T.);
#255=EDGE_CURVE('',#206,#200,#96,.T.);
#256=EDGE_CURVE('',#207,#202,#97,.T.);
#257=EDGE_CURVE('',#208,#209,#98,.T.);
#258=EDGE_CURVE('',#209,#210,#18,.T.);
#259=EDGE_CURVE('',#210,#211,#99,.T.);
#260=EDGE_CURVE('',#211,#208,#17,.T.);
#261=EDGE_CURVE('',#211,#212,#100,.T.);
#262=EDGE_CURVE('',#212,#213,#19,.T.);
#263=EDGE_CURVE('',#213,#208,#101,.T.);
#264=EDGE_CURVE('',#213,#214,#102,.T.);
#265=EDGE_CURVE('',#214,#215,#103,.T.);
#266=EDGE_CURVE('',#215,#216,#104,.T.);
#267=EDGE_CURVE('',#216,#209,#105,.T.);
#268=EDGE_CURVE('',#210,#217,#106,.T.);
#269=EDGE_CURVE('',#218,#217,#107,.T.);
#270=EDGE_CURVE('',#211,#218,#108,.T.);
#271=EDGE_CURVE('',#219,#218,#109,.T.);
#272=EDGE_CURVE('',#212,#219,#110,.T.);
#273=EDGE_CURVE('',#217,#220,#111,.T.);
#274=EDGE_CURVE('',#220,#219,#112,.T.);
#275=EDGE_CURVE('',#221,#222,#113,.T.);
#276=EDGE_CURVE('',#221,#223,#114,.T.);
#277=EDGE_CURVE('',#223,#224,#115,.T.);
#278=EDGE_CURVE('',#222,#224,#116,.T.);
#279=EDGE_CURVE('',#225,#221,#117,.T.);
#280=EDGE_CURVE('',#225,#226,#118,.T.);
#281=EDGE_CURVE('',#226,#223,#119,.T.);
#282=EDGE_CURVE('',#227,#225,#120,.T.);
#283=EDGE_CURVE('',#228,#227,#121,.T.);
#284=EDGE_CURVE('',#228,#226,#122,.T.);
#285=EDGE_CURVE('',#224,#228,#123,.T.);
#286=EDGE_CURVE('',#229,#227,#124,.T.);
#287=EDGE_CURVE('',#229,#230,#125,.T.);
#288=EDGE_CURVE('',#230,#216,#126,.T.);
#289=EDGE_CURVE('',#222,#215,#127,.T.);
#290=EDGE_CURVE('',#231,#214,#128,.T.);
#291=EDGE_CURVE('',#231,#229,#129,.T.);
#292=EDGE_CURVE('',#232,#231,#130,.T.);
#293=EDGE_CURVE('',#232,#220,#131,.T.);
#294=EDGE_CURVE('',#230,#232,#132,.T.);
#295=ORIENTED_EDGE('',*,*,#233,.F.);
#296=ORIENTED_EDGE('',*,*,#234,.T.);
#297=ORIENTED_EDGE('',*,*,#235,.F.);
#298=ORIENTED_EDGE('',*,*,#236,.F.);
#299=ORIENTED_EDGE('',*,*,#237,.F.);
#300=ORIENTED_EDGE('',*,*,#236,.T.);
#301=ORIENTED_EDGE('',*,*,#238,.F.);
#302=ORIENTED_EDGE('',*,*,#239,.F.);
#303=ORIENTED_EDGE('',*,*,#240,.F.);
#304=ORIENTED_EDGE('',*,*,#239,.T.);
#305=ORIENTED_EDGE('',*,*,#241,.F.);
#306=ORIENTED_EDGE('',*,*,#242,.F.);
#307=ORIENTED_EDGE('',*,*,#243,.F.);
#308=ORIENTED_EDGE('',*,*,#242,.T.);
#309=ORIENTED_EDGE('',*,*,#244,.F.);
#310=ORIENTED_EDGE('',*,*,#234,.F.);
#311=ORIENTED_EDGE('',*,*,#244,.T.);
#312=ORIENTED_EDGE('',*,*,#241,.T.);
#313=ORIENTED_EDGE('',*,*,#238,.T.);
#314=ORIENTED_EDGE('',*,*,#235,.T.);
#315=ORIENTED_EDGE('',*,*,#245,.F.);
#316=ORIENTED_EDGE('',*,*,#246,.T.);
#317=ORIENTED_EDGE('',*,*,#247,.T.);
#318=ORIENTED_EDGE('',*,*,#248,.F.);
#319=ORIENTED_EDGE('',*,*,#249,.F.);
#320=ORIENTED_EDGE('',*,*,#248,.T.);
#321=ORIENTED_EDGE('',*,*,#250,.T.);
#322=ORIENTED_EDGE('',*,*,#251,.F.);
#323=ORIENTED_EDGE('',*,*,#252,.F.);
#324=ORIENTED_EDGE('',*,*,#251,.T.);
#325=ORIENTED_EDGE('',*,*,#253,.T.);
#326=ORIENTED_EDGE('',*,*,#254,.F.);
#327=ORIENTED_EDGE('',*,*,#255,.F.);
#328=ORIENTED_EDGE('',*,*,#254,.T.);
#329=ORIENTED_EDGE('',*,*,#256,.T.);
#330=ORIENTED_EDGE('',*,*,#246,.F.);
#331=ORIENTED_EDGE('',*,*,#247,.F.);
#332=ORIENTED_EDGE('',*,*,#256,.F.);
#333=ORIENTED_EDGE('',*,*,#253,.F.);
#334=ORIENTED_EDGE('',*,*,#250,.F.);
#335=ORIENTED_EDGE('',*,*,#257,.T.);
#336=ORIENTED_EDGE('',*,*,#258,.T.);
#337=ORIENTED_EDGE('',*,*,#259,.T.);
#338=ORIENTED_EDGE('',*,*,#260,.T.);
#339=ORIENTED_EDGE('',*,*,#261,.T.);
#340=ORIENTED_EDGE('',*,*,#262,.T.);
#341=ORIENTED_EDGE('',*,*,#263,.T.);
#342=ORIENTED_EDGE('',*,*,#260,.F.);
#343=ORIENTED_EDGE('',*,*,#257,.F.);
#344=ORIENTED_EDGE('',*,*,#263,.F.);
#345=ORIENTED_EDGE('',*,*,#264,.T.);
#346=ORIENTED_EDGE('',*,*,#265,.T.);
#347=ORIENTED_EDGE('',*,*,#266,.T.);
#348=ORIENTED_EDGE('',*,*,#267,.T.);
#349=ORIENTED_EDGE('',*,*,#259,.F.);
#350=ORIENTED_EDGE('',*,*,#268,.T.);
#351=ORIENTED_EDGE('',*,*,#269,.F.);
#352=ORIENTED_EDGE('',*,*,#270,.F.);
#353=ORIENTED_EDGE('',*,*,#261,.F.);
#354=ORIENTED_EDGE('',*,*,#270,.T.);
#355=ORIENTED_EDGE('',*,*,#271,.F.);
#356=ORIENTED_EDGE('',*,*,#272,.F.);
#357=ORIENTED_EDGE('',*,*,#273,.T.);
#358=ORIENTED_EDGE('',*,*,#274,.T.);
#359=ORIENTED_EDGE('',*,*,#271,.T.);
#360=ORIENTED_EDGE('',*,*,#269,.T.);
#361=ORIENTED_EDGE('',*,*,#245,.T.);
#362=ORIENTED_EDGE('',*,*,#249,.T.);
#363=ORIENTED_EDGE('',*,*,#252,.T.);
#364=ORIENTED_EDGE('',*,*,#255,.T.);
#365=ORIENTED_EDGE('',*,*,#275,.F.);
#366=ORIENTED_EDGE('',*,*,#276,.T.);
#367=ORIENTED_EDGE('',*,*,#277,.T.);
#368=ORIENTED_EDGE('',*,*,#278,.F.);
#369=ORIENTED_EDGE('',*,*,#279,.F.);
#370=ORIENTED_EDGE('',*,*,#280,.T.);
#371=ORIENTED_EDGE('',*,*,#281,.T.);
#372=ORIENTED_EDGE('',*,*,#276,.F.);
#373=ORIENTED_EDGE('',*,*,#282,.F.);
#374=ORIENTED_EDGE('',*,*,#283,.F.);
#375=ORIENTED_EDGE('',*,*,#284,.T.);
#376=ORIENTED_EDGE('',*,*,#280,.F.);
#377=ORIENTED_EDGE('',*,*,#285,.F.);
#378=ORIENTED_EDGE('',*,*,#277,.F.);
#379=ORIENTED_EDGE('',*,*,#281,.F.);
#380=ORIENTED_EDGE('',*,*,#284,.F.);
#381=ORIENTED_EDGE('',*,*,#278,.T.);
#382=ORIENTED_EDGE('',*,*,#285,.T.);
#383=ORIENTED_EDGE('',*,*,#283,.T.);
#384=ORIENTED_EDGE('',*,*,#286,.F.);
#385=ORIENTED_EDGE('',*,*,#287,.T.);
#386=ORIENTED_EDGE('',*,*,#288,.T.);
#387=ORIENTED_EDGE('',*,*,#266,.F.);
#388=ORIENTED_EDGE('',*,*,#289,.F.);
#389=ORIENTED_EDGE('',*,*,#275,.T.);
#390=ORIENTED_EDGE('',*,*,#289,.T.);
#391=ORIENTED_EDGE('',*,*,#265,.F.);
#392=ORIENTED_EDGE('',*,*,#290,.F.);
#393=ORIENTED_EDGE('',*,*,#291,.T.);
#394=ORIENTED_EDGE('',*,*,#286,.T.);
#395=ORIENTED_EDGE('',*,*,#282,.T.);
#396=ORIENTED_EDGE('',*,*,#279,.T.);
#397=ORIENTED_EDGE('',*,*,#292,.T.);
#398=ORIENTED_EDGE('',*,*,#290,.T.);
#399=ORIENTED_EDGE('',*,*,#264,.F.);
#400=ORIENTED_EDGE('',*,*,#262,.F.);
#401=ORIENTED_EDGE('',*,*,#272,.T.);
#402=ORIENTED_EDGE('',*,*,#274,.F.);
#403=ORIENTED_EDGE('',*,*,#293,.F.);
#404=ORIENTED_EDGE('',*,*,#294,.T.);
#405=ORIENTED_EDGE('',*,*,#293,.T.);
#406=ORIENTED_EDGE('',*,*,#273,.F.);
#407=ORIENTED_EDGE('',*,*,#268,.F.);
#408=ORIENTED_EDGE('',*,*,#258,.F.);
#409=ORIENTED_EDGE('',*,*,#267,.F.);
#410=ORIENTED_EDGE('',*,*,#288,.F.);
#411=ORIENTED_EDGE('',*,*,#294,.F.);
#412=ORIENTED_EDGE('',*,*,#287,.F.);
#413=ORIENTED_EDGE('',*,*,#291,.F.);
#414=ORIENTED_EDGE('',*,*,#292,.F.);
#415=ORIENTED_EDGE('',*,*,#233,.T.);
#416=ORIENTED_EDGE('',*,*,#237,.T.);
#417=ORIENTED_EDGE('',*,*,#240,.T.);
#418=ORIENTED_EDGE('',*,*,#243,.T.);
#419=PLANE('',#481);
#420=PLANE('',#482);
#421=PLANE('',#483);
#422=PLANE('',#484);
#423=PLANE('',#485);
#424=PLANE('',#486);
#425=PLANE('',#487);
#426=PLANE('',#488);
#427=PLANE('',#489);
#428=PLANE('',#490);
#429=PLANE('',#496);
#430=PLANE('',#497);
#431=PLANE('',#498);
#432=PLANE('',#499);
#433=PLANE('',#500);
#434=PLANE('',#501);
#435=PLANE('',#502);
#436=PLANE('',#503);
#437=PLANE('',#504);
#438=PLANE('',#505);
#439=PLANE('',#506);
#440=PLANE('',#507);
#441=PLANE('',#508);
#442=ADVANCED_FACE('',(#22),#419,.T.);
#443=ADVANCED_FACE('',(#23),#420,.T.);
#444=ADVANCED_FACE('',(#24),#421,.T.);
#445=ADVANCED_FACE('',(#25),#422,.T.);
#446=ADVANCED_FACE('',(#26),#423,.T.);
#447=ADVANCED_FACE('',(#27),#424,.F.);
#448=ADVANCED_FACE('',(#28),#425,.F.);
#449=ADVANCED_FACE('',(#29),#426,.F.);
#450=ADVANCED_FACE('',(#30),#427,.F.);
#451=ADVANCED_FACE('',(#31),#428,.F.);
#452=ADVANCED_FACE('',(#32),#20,.F.);
#453=ADVANCED_FACE('',(#33),#21,.F.);
#454=ADVANCED_FACE('',(#34),#429,.T.);
#455=ADVANCED_FACE('',(#35),#430,.T.);
#456=ADVANCED_FACE('',(#36),#431,.T.);
#457=ADVANCED_FACE('',(#37,#15),#432,.T.);
#458=ADVANCED_FACE('',(#38),#433,.F.);
#459=ADVANCED_FACE('',(#39),#434,.F.);
#460=ADVANCED_FACE('',(#40),#435,.F.);
#461=ADVANCED_FACE('',(#41),#436,.F.);
#462=ADVANCED_FACE('',(#42),#437,.T.);
#463=ADVANCED_FACE('',(#43),#438,.T.);
#464=ADVANCED_FACE('',(#44),#439,.T.);
#465=ADVANCED_FACE('',(#45),#440,.T.);
#466=ADVANCED_FACE('',(#46,#16),#441,.F.);
#467=CLOSED_SHELL('',(#442,#443,#444,#445,#446,#447,#448,#449,#450,#451,
#452,#453,#454,#455,#456,#457,#458,#459,#460,#461,#462,#463,#464,#465,#466));
#468=DERIVED_UNIT_ELEMENT(#470,1.);
#469=DERIVED_UNIT_ELEMENT(#762,-3.);
#470=(
MASS_UNIT()
NAMED_UNIT(*)
SI_UNIT(.KILO.,.GRAM.)
);
#471=DERIVED_UNIT((#468,#469));
#472=MEASURE_REPRESENTATION_ITEM('density measure',
POSITIVE_RATIO_MEASURE(7850.),#471);
#473=PROPERTY_DEFINITION_REPRESENTATION(#478,#475);
#474=PROPERTY_DEFINITION_REPRESENTATION(#479,#476);
#475=REPRESENTATION('material name',(#477),#757);
#476=REPRESENTATION('density',(#472),#757);
#477=DESCRIPTIVE_REPRESENTATION_ITEM('Steel','Steel');
#478=PROPERTY_DEFINITION('material property','material name',#770);
#479=PROPERTY_DEFINITION('material property','density of part',#770);
#480=AXIS2_PLACEMENT_3D('',#626,#509,#510);
#481=AXIS2_PLACEMENT_3D('',#627,#511,#512);
#482=AXIS2_PLACEMENT_3D('',#636,#517,#518);
#483=AXIS2_PLACEMENT_3D('',#642,#522,#523);
#484=AXIS2_PLACEMENT_3D('',#648,#527,#528);
#485=AXIS2_PLACEMENT_3D('',#651,#531,#532);
#486=AXIS2_PLACEMENT_3D('',#652,#533,#534);
#487=AXIS2_PLACEMENT_3D('',#661,#539,#540);
#488=AXIS2_PLACEMENT_3D('',#667,#544,#545);
#489=AXIS2_PLACEMENT_3D('',#673,#549,#550);
#490=AXIS2_PLACEMENT_3D('',#676,#553,#554);
#491=AXIS2_PLACEMENT_3D('',#677,#555,#556);
#492=AXIS2_PLACEMENT_3D('',#682,#558,#559);
#493=AXIS2_PLACEMENT_3D('',#685,#561,#562);
#494=AXIS2_PLACEMENT_3D('',#686,#563,#564);
#495=AXIS2_PLACEMENT_3D('',#690,#566,#567);
#496=AXIS2_PLACEMENT_3D('',#692,#569,#570);
#497=AXIS2_PLACEMENT_3D('',#700,#575,#576);
#498=AXIS2_PLACEMENT_3D('',#706,#580,#581);
#499=AXIS2_PLACEMENT_3D('',#710,#584,#585);
#500=AXIS2_PLACEMENT_3D('',#714,#588,#589);
#501=AXIS2_PLACEMENT_3D('',#723,#594,#595);
#502=AXIS2_PLACEMENT_3D('',#729,#599,#600);
#503=AXIS2_PLACEMENT_3D('',#735,#604,#605);
#504=AXIS2_PLACEMENT_3D('',#737,#607,#608);
#505=AXIS2_PLACEMENT_3D('',#744,#613,#614);
#506=AXIS2_PLACEMENT_3D('',#748,#617,#618);
#507=AXIS2_PLACEMENT_3D('',#752,#621,#622);
#508=AXIS2_PLACEMENT_3D('',#754,#624,#625);
#509=DIRECTION('axis',(0.,0.,1.));
#510=DIRECTION('refdir',(1.,0.,0.));
#511=DIRECTION('center_axis',(-1.,0.,0.));
#512=DIRECTION('ref_axis',(0.,1.,0.));
#513=DIRECTION('',(0.,-1.,0.));
#514=DIRECTION('',(0.,0.,-1.));
#515=DIRECTION('',(0.,1.,0.));
#516=DIRECTION('',(0.,0.,-1.));
#517=DIRECTION('center_axis',(0.,-1.,0.));
#518=DIRECTION('ref_axis',(-1.,0.,0.));
#519=DIRECTION('',(1.,0.,0.));
#520=DIRECTION('',(-1.,0.,0.));
#521=DIRECTION('',(0.,0.,-1.));
#522=DIRECTION('center_axis',(1.,0.,0.));
#523=DIRECTION('ref_axis',(0.,-1.,0.));
#524=DIRECTION('',(0.,1.,0.));
#525=DIRECTION('',(0.,-1.,0.));
#526=DIRECTION('',(0.,0.,-1.));
#527=DIRECTION('center_axis',(0.,1.,0.));
#528=DIRECTION('ref_axis',(1.,0.,0.));
#529=DIRECTION('',(-1.,0.,0.));
#530=DIRECTION('',(1.,0.,0.));
#531=DIRECTION('center_axis',(0.,0.,-1.));
#532=DIRECTION('ref_axis',(-1.,0.,0.));
#533=DIRECTION('center_axis',(0.,-0.707106769903142,-0.707106792469953));
#534=DIRECTION('ref_axis',(-1.,0.,0.));
#535=DIRECTION('',(-1.,0.,0.));
#536=DIRECTION('',(-0.577350275331534,0.577350275331534,-0.577350256905809));
#537=DIRECTION('',(-1.,0.,0.));
#538=DIRECTION('',(0.577350275331534,0.577350275331534,-0.577350256905809));
#539=DIRECTION('center_axis',(-0.707106769903142,0.,-0.707106792469953));
#540=DIRECTION('ref_axis',(-0.707106792469953,0.,0.707106769903142));
#541=DIRECTION('',(0.,1.,0.));
#542=DIRECTION('',(0.,1.,0.));
#543=DIRECTION('',(0.577350275331534,-0.577350275331534,-0.577350256905809));
#544=DIRECTION('center_axis',(0.,0.707106769903142,-0.707106792469953));
#545=DIRECTION('ref_axis',(-1.,0.,0.));
#546=DIRECTION('',(1.,0.,0.));
#547=DIRECTION('',(1.,0.,0.));
#548=DIRECTION('',(-0.577350275331534,-0.577350275331534,-0.577350256905809));
#549=DIRECTION('center_axis',(0.707106769903142,0.,-0.707106792469953));
#550=DIRECTION('ref_axis',(-0.707106792469953,0.,-0.707106769903142));
#551=DIRECTION('',(0.,-1.,0.));
#552=DIRECTION('',(0.,-1.,0.));
#553=DIRECTION('center_axis',(0.,0.,-1.));
#554=DIRECTION('ref_axis',(-1.,0.,0.));
#555=DIRECTION('center_axis',(1.,0.,0.));
#556=DIRECTION('ref_axis',(0.,-0.707106781186549,-0.707106781186546));
#557=DIRECTION('',(-1.,0.,0.));
#558=DIRECTION('center_axis',(-1.,0.,0.));
#559=DIRECTION('ref_axis',(0.,-0.707106781186549,-0.707106781186546));
#560=DIRECTION('',(1.,0.,0.));
#561=DIRECTION('center_axis',(0.707106781186548,-0.707106781186548,0.));
#562=DIRECTION('ref_axis',(-0.707106781186548,-0.707106781186548,0.));
#563=DIRECTION('center_axis',(0.,-1.,0.));
#564=DIRECTION('ref_axis',(-0.707106781186549,0.,-0.707106781186546));
#565=DIRECTION('',(0.,-1.,0.));
#566=DIRECTION('center_axis',(0.,-1.,0.));
#567=DIRECTION('ref_axis',(-0.707106781186549,0.,-0.707106781186546));
#568=DIRECTION('',(0.,1.,0.));
#569=DIRECTION('center_axis',(0.,0.,1.));
#570=DIRECTION('ref_axis',(1.,0.,0.));
#571=DIRECTION('',(1.,0.,0.));
#572=DIRECTION('',(0.,1.,0.));
#573=DIRECTION('',(-1.,0.,0.));
#574=DIRECTION('',(0.,-1.,0.));
#575=DIRECTION('center_axis',(0.,1.,0.));
#576=DIRECTION('ref_axis',(-1.,0.,0.));
#577=DIRECTION('',(0.,0.,1.));
#578=DIRECTION('',(-1.,0.,0.));
#579=DIRECTION('',(0.,0.,1.));
#580=DIRECTION('center_axis',(1.,0.,0.));
#581=DIRECTION('ref_axis',(0.,1.,0.));
#582=DIRECTION('',(0.,1.,0.));
#583=DIRECTION('',(0.,0.,1.));
#584=DIRECTION('center_axis',(0.,0.,1.));
#585=DIRECTION('ref_axis',(1.,0.,0.));
#586=DIRECTION('',(0.,-1.,0.));
#587=DIRECTION('',(1.,0.,0.));
#588=DIRECTION('center_axis',(0.,0.,1.));
#589=DIRECTION('ref_axis',(0.,1.,0.));
#590=DIRECTION('',(0.,1.,0.));
#591=DIRECTION('',(-1.,0.,0.));
#592=DIRECTION('',(0.,1.,0.));
#593=DIRECTION('',(-1.,0.,0.));
#594=DIRECTION('center_axis',(0.,-1.,0.));
#595=DIRECTION('ref_axis',(0.,0.,1.));
#596=DIRECTION('',(0.,0.,1.));
#597=DIRECTION('',(-1.,0.,0.));
#598=DIRECTION('',(0.,0.,1.));
#599=DIRECTION('center_axis',(0.,0.,-1.));
#600=DIRECTION('ref_axis',(0.,-1.,0.));
#601=DIRECTION('',(0.,-1.,0.));
#602=DIRECTION('',(1.,0.,0.));
#603=DIRECTION('',(0.,-1.,0.));
#604=DIRECTION('center_axis',(-1.,0.,0.));
#605=DIRECTION('ref_axis',(0.,0.,1.));
#606=DIRECTION('',(0.,0.,-1.));
#607=DIRECTION('center_axis',(0.,1.,0.));
#608=DIRECTION('ref_axis',(-1.,0.,0.));
#609=DIRECTION('',(0.,0.,1.));
#610=DIRECTION('',(-1.,0.,0.));
#611=DIRECTION('',(0.,0.,1.));
#612=DIRECTION('',(0.,0.,1.));
#613=DIRECTION('center_axis',(1.,0.,0.));
#614=DIRECTION('ref_axis',(0.,1.,0.));
#615=DIRECTION('',(0.,0.,1.));
#616=DIRECTION('',(0.,1.,0.));
#617=DIRECTION('center_axis',(0.,-1.,0.));
#618=DIRECTION('ref_axis',(1.,0.,0.));
#619=DIRECTION('',(1.,0.,0.));
#620=DIRECTION('',(0.,0.,1.));
#621=DIRECTION('center_axis',(-1.,0.,0.));
#622=DIRECTION('ref_axis',(0.,-1.,0.));
#623=DIRECTION('',(0.,-1.,0.));
#624=DIRECTION('center_axis',(0.,0.,1.));
#625=DIRECTION('ref_axis',(1.,0.,0.));
#626=CARTESIAN_POINT('',(0.,0.,0.));
#627=CARTESIAN_POINT('Origin',(0.21,0.21,0.));
#628=CARTESIAN_POINT('',(0.21,0.79,0.));
#629=CARTESIAN_POINT('',(0.21,0.21,0.));
#630=CARTESIAN_POINT('',(0.21,0.605,0.));
#631=CARTESIAN_POINT('',(0.21,0.79,-0.2));
#632=CARTESIAN_POINT('',(0.21,0.79,0.));
#633=CARTESIAN_POINT('',(0.21,0.21,-0.2));
#634=CARTESIAN_POINT('',(0.21,0.79,-0.2));
#635=CARTESIAN_POINT('',(0.21,0.21,0.));
#636=CARTESIAN_POINT('Origin',(0.79,0.21,0.));
#637=CARTESIAN_POINT('',(0.79,0.21,0.));
#638=CARTESIAN_POINT('',(0.895,0.21,0.));
#639=CARTESIAN_POINT('',(0.79,0.21,-0.2));
#640=CARTESIAN_POINT('',(0.21,0.21,-0.2));
#641=CARTESIAN_POINT('',(0.79,0.21,0.));
#642=CARTESIAN_POINT('Origin',(0.79,0.79,0.));
#643=CARTESIAN_POINT('',(0.79,0.79,0.));
#644=CARTESIAN_POINT('',(0.79,0.895,0.));
#645=CARTESIAN_POINT('',(0.79,0.79,-0.2));
#646=CARTESIAN_POINT('',(0.79,0.21,-0.2));
#647=CARTESIAN_POINT('',(0.79,0.79,0.));
#648=CARTESIAN_POINT('Origin',(0.21,0.79,0.));
#649=CARTESIAN_POINT('',(0.605,0.79,0.));
#650=CARTESIAN_POINT('',(0.79,0.79,-0.2));
#651=CARTESIAN_POINT('Origin',(0.5,0.5,-0.2));
#652=CARTESIAN_POINT('Origin',(0.900000028722868,0.10000000319143,7.25));
#653=CARTESIAN_POINT('',(0.900000028722868,0.10000000319143,7.25));
#654=CARTESIAN_POINT('',(0.10000000319143,0.10000000319143,7.25));
#655=CARTESIAN_POINT('',(0.700000014361434,0.10000000319143,7.25));
#656=CARTESIAN_POINT('',(0.800000025531438,0.20000000638286,7.15));
#657=CARTESIAN_POINT('',(0.900000028722868,0.10000000319143,7.25));
#658=CARTESIAN_POINT('',(0.20000000638286,0.20000000638286,7.15));
#659=CARTESIAN_POINT('',(0.800000025531438,0.20000000638286,7.15));
#660=CARTESIAN_POINT('',(0.10000000319143,0.10000000319143,7.25));
#661=CARTESIAN_POINT('Origin',(0.10000000319143,0.10000000319143,7.25));
#662=CARTESIAN_POINT('',(0.10000000319143,0.900000028722868,7.25));
#663=CARTESIAN_POINT('',(0.10000000319143,0.300000001595715,7.25));
#664=CARTESIAN_POINT('',(0.20000000638286,0.800000025531438,7.15));
#665=CARTESIAN_POINT('',(0.20000000638286,0.20000000638286,7.15));
#666=CARTESIAN_POINT('',(0.10000000319143,0.900000028722868,7.25));
#667=CARTESIAN_POINT('Origin',(0.10000000319143,0.900000028722868,7.25));
#668=CARTESIAN_POINT('',(0.900000028722868,0.900000028722868,7.25));
#669=CARTESIAN_POINT('',(0.300000001595715,0.900000028722869,7.25));
#670=CARTESIAN_POINT('',(0.800000025531438,0.800000025531438,7.15));
#671=CARTESIAN_POINT('',(0.20000000638286,0.800000025531438,7.15));
#672=CARTESIAN_POINT('',(0.900000028722868,0.900000028722868,7.25));
#673=CARTESIAN_POINT('Origin',(0.900000028722868,0.900000028722868,7.25));
#674=CARTESIAN_POINT('',(0.900000028722869,0.700000014361434,7.25));
#675=CARTESIAN_POINT('',(0.800000025531438,0.800000025531438,7.15));
#676=CARTESIAN_POINT('Origin',(0.500000015957149,0.500000015957149,7.15));
#677=CARTESIAN_POINT('Origin',(1.,1.1,1.35));
#678=CARTESIAN_POINT('',(1.1,1.1,1.25));
#679=CARTESIAN_POINT('',(0.,1.1,1.25));
#680=CARTESIAN_POINT('',(1.,1.1,1.25));
#681=CARTESIAN_POINT('',(0.,1.,1.35));
#682=CARTESIAN_POINT('Origin',(0.,1.1,1.35));
#683=CARTESIAN_POINT('',(1.,1.,1.35));
#684=CARTESIAN_POINT('',(1.,1.,1.35));
#685=CARTESIAN_POINT('Origin',(1.1,1.1,1.35));
#686=CARTESIAN_POINT('Origin',(1.1,0.5,1.35));
#687=CARTESIAN_POINT('',(1.,0.,1.35));
#688=CARTESIAN_POINT('',(1.,0.5,1.35));
#689=CARTESIAN_POINT('',(1.1,0.,1.25));
#690=CARTESIAN_POINT('Origin',(1.1,0.,1.35));
#691=CARTESIAN_POINT('',(1.1,0.5,1.25));
#692=CARTESIAN_POINT('Origin',(1.,1.,1.25));
#693=CARTESIAN_POINT('',(2.,0.,1.25));
#694=CARTESIAN_POINT('',(0.,0.,1.25));
#695=CARTESIAN_POINT('',(2.,2.,1.25));
#696=CARTESIAN_POINT('',(2.,0.,1.25));
#697=CARTESIAN_POINT('',(0.,2.,1.25));
#698=CARTESIAN_POINT('',(2.,2.,1.25));
#699=CARTESIAN_POINT('',(0.,2.,1.25));
#700=CARTESIAN_POINT('Origin',(1.,1.,1.25));
#701=CARTESIAN_POINT('',(0.,1.,7.25));
#702=CARTESIAN_POINT('',(0.,1.,1.25));
#703=CARTESIAN_POINT('',(1.,1.,7.25));
#704=CARTESIAN_POINT('',(1.,1.,7.25));
#705=CARTESIAN_POINT('',(1.,1.,1.25));
#706=CARTESIAN_POINT('Origin',(1.,0.,1.25));
#707=CARTESIAN_POINT('',(1.,0.,7.25));
#708=CARTESIAN_POINT('',(1.,0.,7.25));
#709=CARTESIAN_POINT('',(1.,0.,1.25));
#710=CARTESIAN_POINT('Origin',(0.5,0.5,7.25));
#711=CARTESIAN_POINT('',(0.,0.,7.25));
#712=CARTESIAN_POINT('',(0.,1.,7.25));
#713=CARTESIAN_POINT('',(0.,0.,7.25));
#714=CARTESIAN_POINT('Origin',(2.,0.4,0.92));
#715=CARTESIAN_POINT('',(2.,0.4,0.92));
#716=CARTESIAN_POINT('',(2.,2.,0.92));
#717=CARTESIAN_POINT('',(2.,0.2,0.92));
#718=CARTESIAN_POINT('',(0.4,0.4,0.92));
#719=CARTESIAN_POINT('',(2.,0.4,0.92));
#720=CARTESIAN_POINT('',(0.4,2.,0.92));
#721=CARTESIAN_POINT('',(0.4,2.,0.92));
#722=CARTESIAN_POINT('',(2.,2.,0.92));
#723=CARTESIAN_POINT('Origin',(2.,0.4,0.15));
#724=CARTESIAN_POINT('',(2.,0.4,0.15));
#725=CARTESIAN_POINT('',(2.,0.4,0.075));
#726=CARTESIAN_POINT('',(0.4,0.4,0.15));
#727=CARTESIAN_POINT('',(2.,0.4,0.15));
#728=CARTESIAN_POINT('',(0.4,0.4,0.92));
#729=CARTESIAN_POINT('Origin',(2.,2.,0.15));
#730=CARTESIAN_POINT('',(2.,2.,0.15));
#731=CARTESIAN_POINT('',(2.,1.,0.15));
#732=CARTESIAN_POINT('',(0.4,2.,0.15));
#733=CARTESIAN_POINT('',(2.,2.,0.15));
#734=CARTESIAN_POINT('',(0.4,0.4,0.15));
#735=CARTESIAN_POINT('Origin',(0.4,1.2,0.535));
#736=CARTESIAN_POINT('',(0.4,2.,0.2675));
#737=CARTESIAN_POINT('Origin',(2.,2.,0.));
#738=CARTESIAN_POINT('',(2.,2.,0.));
#739=CARTESIAN_POINT('',(2.,2.,0.));
#740=CARTESIAN_POINT('',(0.,2.,0.));
#741=CARTESIAN_POINT('',(2.,2.,0.));
#742=CARTESIAN_POINT('',(0.,2.,0.));
#743=CARTESIAN_POINT('',(2.,2.,0.));
#744=CARTESIAN_POINT('Origin',(2.,0.,0.));
#745=CARTESIAN_POINT('',(2.,0.,0.));
#746=CARTESIAN_POINT('',(2.,0.,0.));
#747=CARTESIAN_POINT('',(2.,0.,0.));
#748=CARTESIAN_POINT('Origin',(0.,0.,0.));
#749=CARTESIAN_POINT('',(0.,0.,0.));
#750=CARTESIAN_POINT('',(0.,0.,0.));
#751=CARTESIAN_POINT('',(0.,0.,0.));
#752=CARTESIAN_POINT('Origin',(0.,2.,0.));
#753=CARTESIAN_POINT('',(0.,2.,0.));
#754=CARTESIAN_POINT('Origin',(1.,1.,0.));
#755=UNCERTAINTY_MEASURE_WITH_UNIT(LENGTH_MEASURE(0.000393700787401575),
#760,'DISTANCE_ACCURACY_VALUE',
'Maximum model space distance between geometric entities at asserted c
onnectivities');
#756=UNCERTAINTY_MEASURE_WITH_UNIT(LENGTH_MEASURE(0.000393700787401575),
#760,'DISTANCE_ACCURACY_VALUE',
'Maximum model space distance between geometric entities at asserted c
onnectivities');
#757=(
GEOMETRIC_REPRESENTATION_CONTEXT(3)
GLOBAL_UNCERTAINTY_ASSIGNED_CONTEXT((#755))
GLOBAL_UNIT_ASSIGNED_CONTEXT((#760,#764,#765))
REPRESENTATION_CONTEXT('','3D')
);
#758=(
GEOMETRIC_REPRESENTATION_CONTEXT(3)
GLOBAL_UNCERTAINTY_ASSIGNED_CONTEXT((#756))
GLOBAL_UNIT_ASSIGNED_CONTEXT((#760,#764,#765))
REPRESENTATION_CONTEXT('','3D')
);
#759=DIMENSIONAL_EXPONENTS(1.,0.,0.,0.,0.,0.,0.);
#760=(
CONVERSION_BASED_UNIT('inch',#763)
LENGTH_UNIT()
NAMED_UNIT(#759)
);
#761=(
LENGTH_UNIT()
NAMED_UNIT(*)
SI_UNIT(.MILLI.,.METRE.)
);
#762=(
LENGTH_UNIT()
NAMED_UNIT(*)
SI_UNIT($,.METRE.)
);
#763=LENGTH_MEASURE_WITH_UNIT(LENGTH_MEASURE(25.4),#761);
#764=(
NAMED_UNIT(*)
PLANE_ANGLE_UNIT()
SI_UNIT($,.RADIAN.)
);
#765=(
NAMED_UNIT(*)
SI_UNIT($,.STERADIAN.)
SOLID_ANGLE_UNIT()
);
#766=SHAPE_DEFINITION_REPRESENTATION(#767,#768);
#767=PRODUCT_DEFINITION_SHAPE('',$,#770);
#768=SHAPE_REPRESENTATION('',(#480),#757);
#769=PRODUCT_DEFINITION_CONTEXT('part definition',#774,'design');
#770=PRODUCT_DEFINITION('2026-02-13-20-43-58-642',
'Shoe Rack Bracket v2',#771,#769);
#771=PRODUCT_DEFINITION_FORMATION('',$,#776);
#772=PRODUCT_RELATED_PRODUCT_CATEGORY('Shoe Rack Bracket v2',
'Shoe Rack Bracket v2',(#776));
#773=APPLICATION_PROTOCOL_DEFINITION('international standard',
'automotive_design',2009,#774);
#774=APPLICATION_CONTEXT(
'Core Data for Automotive Mechanical Design Process');
#775=PRODUCT_CONTEXT('part definition',#774,'mechanical');
#776=PRODUCT('2026-02-13-20-43-58-642','Shoe Rack Bracket v2',$,(#775));
#777=PRESENTATION_STYLE_ASSIGNMENT((#778));
#778=SURFACE_STYLE_USAGE(.BOTH.,#779);
#779=SURFACE_SIDE_STYLE('',(#780));
#780=SURFACE_STYLE_FILL_AREA(#781);
#781=FILL_AREA_STYLE('Steel - Satin',(#782));
#782=FILL_AREA_STYLE_COLOUR('Steel - Satin',#783);
#783=COLOUR_RGB('Steel - Satin',0.627450980392157,0.627450980392157,0.627450980392157);
ENDSEC;
END-ISO-10303-21;
