ISO-10303-21;
HEADER;
/* Generated by software containing ST-Developer
 * from STEP Tools, Inc. (www.steptools.com) 
 */

FILE_DESCRIPTION(
/* description */ (''),
/* implementation_level */ '2;1');

FILE_NAME(
/* name */ 'bearing rotor v3.step',
/* time_stamp */ '2026-05-21T22:24:36-05:00',
/* author */ (''),
/* organization */ (''),
/* preprocessor_version */ 'ST-DEVELOPER v20.1',
/* originating_system */ 'Autodesk Translation Framework v15.8.0.0',
/* authorisation */ '');

FILE_SCHEMA (('AUTOMOTIVE_DESIGN { 1 0 10303 214 3 1 1 }'));
ENDSEC;

DATA;
#10=MECHANICAL_DESIGN_GEOMETRIC_PRESENTATION_REPRESENTATION('',(#13),#551);
#11=SHAPE_REPRESENTATION_RELATIONSHIP('SRR','None',#561,#12);
#12=ADVANCED_BREP_SHAPE_REPRESENTATION('',(#14),#550);
#13=STYLED_ITEM('',(#570),#14);
#14=MANIFOLD_SOLID_BREP('Body1',#311);
#15=CYLINDRICAL_SURFACE('',#343,0.0807086614173228);
#16=CYLINDRICAL_SURFACE('',#347,0.0984251968503937);
#17=CYLINDRICAL_SURFACE('',#350,0.0984251968503937);
#18=CYLINDRICAL_SURFACE('',#352,0.20000000638286);
#19=CYLINDRICAL_SURFACE('',#355,0.0807086614173228);
#20=CYLINDRICAL_SURFACE('',#358,0.0807086614173228);
#21=FACE_BOUND('',#42,.T.);
#22=FACE_BOUND('',#56,.T.);
#23=FACE_OUTER_BOUND('',#41,.T.);
#24=FACE_OUTER_BOUND('',#43,.T.);
#25=FACE_OUTER_BOUND('',#44,.T.);
#26=FACE_OUTER_BOUND('',#45,.T.);
#27=FACE_OUTER_BOUND('',#46,.T.);
#28=FACE_OUTER_BOUND('',#47,.T.);
#29=FACE_OUTER_BOUND('',#48,.T.);
#30=FACE_OUTER_BOUND('',#49,.T.);
#31=FACE_OUTER_BOUND('',#50,.T.);
#32=FACE_OUTER_BOUND('',#51,.T.);
#33=FACE_OUTER_BOUND('',#52,.T.);
#34=FACE_OUTER_BOUND('',#53,.T.);
#35=FACE_OUTER_BOUND('',#54,.T.);
#36=FACE_OUTER_BOUND('',#55,.T.);
#37=FACE_OUTER_BOUND('',#57,.T.);
#38=FACE_OUTER_BOUND('',#58,.T.);
#39=FACE_OUTER_BOUND('',#59,.T.);
#40=FACE_OUTER_BOUND('',#60,.T.);
#41=EDGE_LOOP('',(#197,#198,#199,#200,#201,#202,#203,#204,#205));
#42=EDGE_LOOP('',(#206));
#43=EDGE_LOOP('',(#207,#208,#209,#210));
#44=EDGE_LOOP('',(#211,#212,#213,#214));
#45=EDGE_LOOP('',(#215,#216,#217,#218));
#46=EDGE_LOOP('',(#219,#220,#221,#222));
#47=EDGE_LOOP('',(#223,#224,#225,#226,#227,#228));
#48=EDGE_LOOP('',(#229,#230,#231,#232,#233,#234,#235,#236));
#49=EDGE_LOOP('',(#237));
#50=EDGE_LOOP('',(#238,#239,#240,#241));
#51=EDGE_LOOP('',(#242,#243,#244,#245));
#52=EDGE_LOOP('',(#246,#247,#248,#249));
#53=EDGE_LOOP('',(#250,#251,#252,#253));
#54=EDGE_LOOP('',(#254,#255,#256,#257));
#55=EDGE_LOOP('',(#258));
#56=EDGE_LOOP('',(#259,#260,#261,#262));
#57=EDGE_LOOP('',(#263,#264,#265,#266,#267,#268,#269,#270));
#58=EDGE_LOOP('',(#271));
#59=EDGE_LOOP('',(#272,#273,#274,#275,#276,#277,#278,#279));
#60=EDGE_LOOP('',(#280));
#61=LINE('',#467,#85);
#62=LINE('',#473,#86);
#63=LINE('',#478,#87);
#64=LINE('',#484,#88);
#65=LINE('',#488,#89);
#66=LINE('',#492,#90);
#67=LINE('',#494,#91);
#68=LINE('',#495,#92);
#69=LINE('',#498,#93);
#70=LINE('',#500,#94);
#71=LINE('',#501,#95);
#72=LINE('',#504,#96);
#73=LINE('',#506,#97);
#74=LINE('',#507,#98);
#75=LINE('',#514,#99);
#76=LINE('',#520,#100);
#77=LINE('',#521,#101);
#78=LINE('',#522,#102);
#79=LINE('',#526,#103);
#80=LINE('',#529,#104);
#81=LINE('',#530,#105);
#82=LINE('',#535,#106);
#83=LINE('',#540,#107);
#84=LINE('',#545,#108);
#85=VECTOR('',#369,0.393700787401575);
#86=VECTOR('',#374,0.393700787401575);
#87=VECTOR('',#379,0.393700787401575);
#88=VECTOR('',#384,0.393700787401575);
#89=VECTOR('',#387,0.393700787401575);
#90=VECTOR('',#392,0.393700787401575);
#91=VECTOR('',#393,0.393700787401575);
#92=VECTOR('',#394,0.393700787401575);
#93=VECTOR('',#397,0.393700787401575);
#94=VECTOR('',#398,0.393700787401575);
#95=VECTOR('',#399,0.393700787401575);
#96=VECTOR('',#402,0.393700787401575);
#97=VECTOR('',#403,0.393700787401575);
#98=VECTOR('',#404,0.393700787401575);
#99=VECTOR('',#415,0.0807086614173228);
#100=VECTOR('',#422,0.393700787401575);
#101=VECTOR('',#423,0.393700787401575);
#102=VECTOR('',#424,0.393700787401575);
#103=VECTOR('',#429,0.393700787401575);
#104=VECTOR('',#432,0.393700787401575);
#105=VECTOR('',#433,0.393700787401575);
#106=VECTOR('',#440,0.20000000638286);
#107=VECTOR('',#447,0.0807086614173228);
#108=VECTOR('',#454,0.0807086614173228);
#109=CIRCLE('',#326,0.0807086614173228);
#110=CIRCLE('',#327,0.0807086614173228);
#111=CIRCLE('',#328,0.0807086614173228);
#112=CIRCLE('',#329,0.0807086614173228);
#113=CIRCLE('',#330,0.0807086614173228);
#114=CIRCLE('',#331,0.0807086614173228);
#115=CIRCLE('',#332,0.20000000638286);
#116=CIRCLE('',#334,0.0984251968503937);
#117=CIRCLE('',#335,0.0984251968503937);
#118=CIRCLE('',#340,0.0807086614173228);
#119=CIRCLE('',#341,0.0807086614173228);
#120=CIRCLE('',#342,0.0807086614173228);
#121=CIRCLE('',#344,0.0807086614173228);
#122=CIRCLE('',#348,0.0984251968503937);
#123=CIRCLE('',#351,0.0984251968503937);
#124=CIRCLE('',#353,0.20000000638286);
#125=CIRCLE('',#356,0.0807086614173228);
#126=CIRCLE('',#359,0.0807086614173228);
#127=VERTEX_POINT('',#461);
#128=VERTEX_POINT('',#462);
#129=VERTEX_POINT('',#464);
#130=VERTEX_POINT('',#466);
#131=VERTEX_POINT('',#468);
#132=VERTEX_POINT('',#470);
#133=VERTEX_POINT('',#472);
#134=VERTEX_POINT('',#474);
#135=VERTEX_POINT('',#476);
#136=VERTEX_POINT('',#479);
#137=VERTEX_POINT('',#482);
#138=VERTEX_POINT('',#483);
#139=VERTEX_POINT('',#485);
#140=VERTEX_POINT('',#487);
#141=VERTEX_POINT('',#491);
#142=VERTEX_POINT('',#493);
#143=VERTEX_POINT('',#497);
#144=VERTEX_POINT('',#499);
#145=VERTEX_POINT('',#503);
#146=VERTEX_POINT('',#505);
#147=VERTEX_POINT('',#513);
#148=VERTEX_POINT('',#518);
#149=VERTEX_POINT('',#519);
#150=VERTEX_POINT('',#524);
#151=VERTEX_POINT('',#528);
#152=VERTEX_POINT('',#534);
#153=VERTEX_POINT('',#539);
#154=VERTEX_POINT('',#544);
#155=EDGE_CURVE('',#127,#128,#109,.T.);
#156=EDGE_CURVE('',#128,#129,#110,.T.);
#157=EDGE_CURVE('',#129,#130,#61,.T.);
#158=EDGE_CURVE('',#130,#131,#111,.T.);
#159=EDGE_CURVE('',#131,#132,#112,.T.);
#160=EDGE_CURVE('',#132,#133,#62,.T.);
#161=EDGE_CURVE('',#133,#134,#113,.T.);
#162=EDGE_CURVE('',#134,#135,#114,.T.);
#163=EDGE_CURVE('',#127,#135,#63,.T.);
#164=EDGE_CURVE('',#136,#136,#115,.T.);
#165=EDGE_CURVE('',#137,#138,#64,.T.);
#166=EDGE_CURVE('',#138,#139,#116,.T.);
#167=EDGE_CURVE('',#139,#140,#65,.T.);
#168=EDGE_CURVE('',#140,#137,#117,.T.);
#169=EDGE_CURVE('',#129,#141,#66,.T.);
#170=EDGE_CURVE('',#142,#141,#67,.T.);
#171=EDGE_CURVE('',#130,#142,#68,.T.);
#172=EDGE_CURVE('',#132,#143,#69,.T.);
#173=EDGE_CURVE('',#144,#143,#70,.T.);
#174=EDGE_CURVE('',#133,#144,#71,.T.);
#175=EDGE_CURVE('',#135,#145,#72,.T.);
#176=EDGE_CURVE('',#146,#145,#73,.T.);
#177=EDGE_CURVE('',#127,#146,#74,.T.);
#178=EDGE_CURVE('',#141,#146,#118,.T.);
#179=EDGE_CURVE('',#145,#144,#119,.T.);
#180=EDGE_CURVE('',#143,#142,#120,.T.);
#181=EDGE_CURVE('',#134,#147,#75,.T.);
#182=EDGE_CURVE('',#147,#147,#121,.T.);
#183=EDGE_CURVE('',#148,#149,#76,.T.);
#184=EDGE_CURVE('',#149,#138,#77,.T.);
#185=EDGE_CURVE('',#148,#137,#78,.T.);
#186=EDGE_CURVE('',#150,#148,#122,.T.);
#187=EDGE_CURVE('',#150,#140,#79,.T.);
#188=EDGE_CURVE('',#151,#150,#80,.T.);
#189=EDGE_CURVE('',#151,#139,#81,.T.);
#190=EDGE_CURVE('',#149,#151,#123,.T.);
#191=EDGE_CURVE('',#136,#152,#82,.T.);
#192=EDGE_CURVE('',#152,#152,#124,.T.);
#193=EDGE_CURVE('',#131,#153,#83,.T.);
#194=EDGE_CURVE('',#153,#153,#125,.T.);
#195=EDGE_CURVE('',#128,#154,#84,.T.);
#196=EDGE_CURVE('',#154,#154,#126,.T.);
#197=ORIENTED_EDGE('',*,*,#155,.T.);
#198=ORIENTED_EDGE('',*,*,#156,.T.);
#199=ORIENTED_EDGE('',*,*,#157,.T.);
#200=ORIENTED_EDGE('',*,*,#158,.T.);
#201=ORIENTED_EDGE('',*,*,#159,.T.);
#202=ORIENTED_EDGE('',*,*,#160,.T.);
#203=ORIENTED_EDGE('',*,*,#161,.T.);
#204=ORIENTED_EDGE('',*,*,#162,.T.);
#205=ORIENTED_EDGE('',*,*,#163,.F.);
#206=ORIENTED_EDGE('',*,*,#164,.T.);
#207=ORIENTED_EDGE('',*,*,#165,.T.);
#208=ORIENTED_EDGE('',*,*,#166,.T.);
#209=ORIENTED_EDGE('',*,*,#167,.T.);
#210=ORIENTED_EDGE('',*,*,#168,.T.);
#211=ORIENTED_EDGE('',*,*,#157,.F.);
#212=ORIENTED_EDGE('',*,*,#169,.T.);
#213=ORIENTED_EDGE('',*,*,#170,.F.);
#214=ORIENTED_EDGE('',*,*,#171,.F.);
#215=ORIENTED_EDGE('',*,*,#160,.F.);
#216=ORIENTED_EDGE('',*,*,#172,.T.);
#217=ORIENTED_EDGE('',*,*,#173,.F.);
#218=ORIENTED_EDGE('',*,*,#174,.F.);
#219=ORIENTED_EDGE('',*,*,#163,.T.);
#220=ORIENTED_EDGE('',*,*,#175,.T.);
#221=ORIENTED_EDGE('',*,*,#176,.F.);
#222=ORIENTED_EDGE('',*,*,#177,.F.);
#223=ORIENTED_EDGE('',*,*,#178,.T.);
#224=ORIENTED_EDGE('',*,*,#176,.T.);
#225=ORIENTED_EDGE('',*,*,#179,.T.);
#226=ORIENTED_EDGE('',*,*,#173,.T.);
#227=ORIENTED_EDGE('',*,*,#180,.T.);
#228=ORIENTED_EDGE('',*,*,#170,.T.);
#229=ORIENTED_EDGE('',*,*,#161,.F.);
#230=ORIENTED_EDGE('',*,*,#174,.T.);
#231=ORIENTED_EDGE('',*,*,#179,.F.);
#232=ORIENTED_EDGE('',*,*,#175,.F.);
#233=ORIENTED_EDGE('',*,*,#162,.F.);
#234=ORIENTED_EDGE('',*,*,#181,.T.);
#235=ORIENTED_EDGE('',*,*,#182,.T.);
#236=ORIENTED_EDGE('',*,*,#181,.F.);
#237=ORIENTED_EDGE('',*,*,#182,.F.);
#238=ORIENTED_EDGE('',*,*,#183,.T.);
#239=ORIENTED_EDGE('',*,*,#184,.T.);
#240=ORIENTED_EDGE('',*,*,#165,.F.);
#241=ORIENTED_EDGE('',*,*,#185,.F.);
#242=ORIENTED_EDGE('',*,*,#186,.T.);
#243=ORIENTED_EDGE('',*,*,#185,.T.);
#244=ORIENTED_EDGE('',*,*,#168,.F.);
#245=ORIENTED_EDGE('',*,*,#187,.F.);
#246=ORIENTED_EDGE('',*,*,#188,.T.);
#247=ORIENTED_EDGE('',*,*,#187,.T.);
#248=ORIENTED_EDGE('',*,*,#167,.F.);
#249=ORIENTED_EDGE('',*,*,#189,.F.);
#250=ORIENTED_EDGE('',*,*,#190,.T.);
#251=ORIENTED_EDGE('',*,*,#189,.T.);
#252=ORIENTED_EDGE('',*,*,#166,.F.);
#253=ORIENTED_EDGE('',*,*,#184,.F.);
#254=ORIENTED_EDGE('',*,*,#164,.F.);
#255=ORIENTED_EDGE('',*,*,#191,.T.);
#256=ORIENTED_EDGE('',*,*,#192,.T.);
#257=ORIENTED_EDGE('',*,*,#191,.F.);
#258=ORIENTED_EDGE('',*,*,#192,.F.);
#259=ORIENTED_EDGE('',*,*,#190,.F.);
#260=ORIENTED_EDGE('',*,*,#183,.F.);
#261=ORIENTED_EDGE('',*,*,#186,.F.);
#262=ORIENTED_EDGE('',*,*,#188,.F.);
#263=ORIENTED_EDGE('',*,*,#158,.F.);
#264=ORIENTED_EDGE('',*,*,#171,.T.);
#265=ORIENTED_EDGE('',*,*,#180,.F.);
#266=ORIENTED_EDGE('',*,*,#172,.F.);
#267=ORIENTED_EDGE('',*,*,#159,.F.);
#268=ORIENTED_EDGE('',*,*,#193,.T.);
#269=ORIENTED_EDGE('',*,*,#194,.T.);
#270=ORIENTED_EDGE('',*,*,#193,.F.);
#271=ORIENTED_EDGE('',*,*,#194,.F.);
#272=ORIENTED_EDGE('',*,*,#155,.F.);
#273=ORIENTED_EDGE('',*,*,#177,.T.);
#274=ORIENTED_EDGE('',*,*,#178,.F.);
#275=ORIENTED_EDGE('',*,*,#169,.F.);
#276=ORIENTED_EDGE('',*,*,#156,.F.);
#277=ORIENTED_EDGE('',*,*,#195,.T.);
#278=ORIENTED_EDGE('',*,*,#196,.T.);
#279=ORIENTED_EDGE('',*,*,#195,.F.);
#280=ORIENTED_EDGE('',*,*,#196,.F.);
#281=PLANE('',#325);
#282=PLANE('',#333);
#283=PLANE('',#336);
#284=PLANE('',#337);
#285=PLANE('',#338);
#286=PLANE('',#339);
#287=PLANE('',#345);
#288=PLANE('',#346);
#289=PLANE('',#349);
#290=PLANE('',#354);
#291=PLANE('',#357);
#292=PLANE('',#360);
#293=ADVANCED_FACE('',(#23,#21),#281,.F.);
#294=ADVANCED_FACE('',(#24),#282,.F.);
#295=ADVANCED_FACE('',(#25),#283,.T.);
#296=ADVANCED_FACE('',(#26),#284,.T.);
#297=ADVANCED_FACE('',(#27),#285,.T.);
#298=ADVANCED_FACE('',(#28),#286,.T.);
#299=ADVANCED_FACE('',(#29),#15,.T.);
#300=ADVANCED_FACE('',(#30),#287,.F.);
#301=ADVANCED_FACE('',(#31),#288,.T.);
#302=ADVANCED_FACE('',(#32),#16,.F.);
#303=ADVANCED_FACE('',(#33),#289,.T.);
#304=ADVANCED_FACE('',(#34),#17,.F.);
#305=ADVANCED_FACE('',(#35),#18,.T.);
#306=ADVANCED_FACE('',(#36,#22),#290,.F.);
#307=ADVANCED_FACE('',(#37),#19,.T.);
#308=ADVANCED_FACE('',(#38),#291,.F.);
#309=ADVANCED_FACE('',(#39),#20,.T.);
#310=ADVANCED_FACE('',(#40),#292,.F.);
#311=CLOSED_SHELL('',(#293,#294,#295,#296,#297,#298,#299,#300,#301,#302,
#303,#304,#305,#306,#307,#308,#309,#310));
#312=DERIVED_UNIT_ELEMENT(#314,1.);
#313=DERIVED_UNIT_ELEMENT(#555,-3.);
#314=(
MASS_UNIT()
NAMED_UNIT(*)
SI_UNIT(.KILO.,.GRAM.)
);
#315=DERIVED_UNIT((#312,#313));
#316=MEASURE_REPRESENTATION_ITEM('density measure',
POSITIVE_RATIO_MEASURE(7850.),#315);
#317=PROPERTY_DEFINITION_REPRESENTATION(#322,#319);
#318=PROPERTY_DEFINITION_REPRESENTATION(#323,#320);
#319=REPRESENTATION('material name',(#321),#550);
#320=REPRESENTATION('density',(#316),#550);
#321=DESCRIPTIVE_REPRESENTATION_ITEM('Steel','Steel');
#322=PROPERTY_DEFINITION('material property','material name',#563);
#323=PROPERTY_DEFINITION('material property','density of part',#563);
#324=AXIS2_PLACEMENT_3D('',#459,#361,#362);
#325=AXIS2_PLACEMENT_3D('',#460,#363,#364);
#326=AXIS2_PLACEMENT_3D('',#463,#365,#366);
#327=AXIS2_PLACEMENT_3D('',#465,#367,#368);
#328=AXIS2_PLACEMENT_3D('',#469,#370,#371);
#329=AXIS2_PLACEMENT_3D('',#471,#372,#373);
#330=AXIS2_PLACEMENT_3D('',#475,#375,#376);
#331=AXIS2_PLACEMENT_3D('',#477,#377,#378);
#332=AXIS2_PLACEMENT_3D('',#480,#380,#381);
#333=AXIS2_PLACEMENT_3D('',#481,#382,#383);
#334=AXIS2_PLACEMENT_3D('',#486,#385,#386);
#335=AXIS2_PLACEMENT_3D('',#489,#388,#389);
#336=AXIS2_PLACEMENT_3D('',#490,#390,#391);
#337=AXIS2_PLACEMENT_3D('',#496,#395,#396);
#338=AXIS2_PLACEMENT_3D('',#502,#400,#401);
#339=AXIS2_PLACEMENT_3D('',#508,#405,#406);
#340=AXIS2_PLACEMENT_3D('',#509,#407,#408);
#341=AXIS2_PLACEMENT_3D('',#510,#409,#410);
#342=AXIS2_PLACEMENT_3D('',#511,#411,#412);
#343=AXIS2_PLACEMENT_3D('',#512,#413,#414);
#344=AXIS2_PLACEMENT_3D('',#515,#416,#417);
#345=AXIS2_PLACEMENT_3D('',#516,#418,#419);
#346=AXIS2_PLACEMENT_3D('',#517,#420,#421);
#347=AXIS2_PLACEMENT_3D('',#523,#425,#426);
#348=AXIS2_PLACEMENT_3D('',#525,#427,#428);
#349=AXIS2_PLACEMENT_3D('',#527,#430,#431);
#350=AXIS2_PLACEMENT_3D('',#531,#434,#435);
#351=AXIS2_PLACEMENT_3D('',#532,#436,#437);
#352=AXIS2_PLACEMENT_3D('',#533,#438,#439);
#353=AXIS2_PLACEMENT_3D('',#536,#441,#442);
#354=AXIS2_PLACEMENT_3D('',#537,#443,#444);
#355=AXIS2_PLACEMENT_3D('',#538,#445,#446);
#356=AXIS2_PLACEMENT_3D('',#541,#448,#449);
#357=AXIS2_PLACEMENT_3D('',#542,#450,#451);
#358=AXIS2_PLACEMENT_3D('',#543,#452,#453);
#359=AXIS2_PLACEMENT_3D('',#546,#455,#456);
#360=AXIS2_PLACEMENT_3D('',#547,#457,#458);
#361=DIRECTION('axis',(0.,0.,1.));
#362=DIRECTION('refdir',(1.,0.,0.));
#363=DIRECTION('center_axis',(0.,0.,1.));
#364=DIRECTION('ref_axis',(-1.,0.,0.));
#365=DIRECTION('center_axis',(0.,0.,1.));
#366=DIRECTION('ref_axis',(-0.5,0.866025403784439,0.));
#367=DIRECTION('center_axis',(0.,0.,1.));
#368=DIRECTION('ref_axis',(-0.5,0.866025403784439,0.));
#369=DIRECTION('',(0.5,0.866025403784439,0.));
#370=DIRECTION('center_axis',(0.,0.,1.));
#371=DIRECTION('ref_axis',(1.,0.,0.));
#372=DIRECTION('center_axis',(0.,0.,1.));
#373=DIRECTION('ref_axis',(1.,0.,0.));
#374=DIRECTION('',(0.5,-0.866025403784439,0.));
#375=DIRECTION('center_axis',(0.,0.,1.));
#376=DIRECTION('ref_axis',(-0.5,-0.866025403784438,0.));
#377=DIRECTION('center_axis',(0.,0.,1.));
#378=DIRECTION('ref_axis',(-0.5,-0.866025403784438,0.));
#379=DIRECTION('',(1.,-1.41748686892493E-16,0.));
#380=DIRECTION('center_axis',(0.,0.,1.));
#381=DIRECTION('ref_axis',(1.,0.,0.));
#382=DIRECTION('center_axis',(0.,0.,1.));
#383=DIRECTION('ref_axis',(-1.,0.,0.));
#384=DIRECTION('',(-1.,0.,0.));
#385=DIRECTION('center_axis',(0.,0.,-1.));
#386=DIRECTION('ref_axis',(-0.8,0.6,0.));
#387=DIRECTION('',(1.,0.,0.));
#388=DIRECTION('center_axis',(0.,0.,-1.));
#389=DIRECTION('ref_axis',(0.8,-0.6,0.));
#390=DIRECTION('center_axis',(-0.866025403784439,0.5,0.));
#391=DIRECTION('ref_axis',(-0.5,-0.866025403784439,0.));
#392=DIRECTION('',(0.,0.,1.));
#393=DIRECTION('',(-0.5,-0.866025403784439,0.));
#394=DIRECTION('',(0.,0.,1.));
#395=DIRECTION('center_axis',(0.866025403784439,0.5,0.));
#396=DIRECTION('ref_axis',(-0.5,0.866025403784439,0.));
#397=DIRECTION('',(0.,0.,1.));
#398=DIRECTION('',(-0.5,0.866025403784439,0.));
#399=DIRECTION('',(0.,0.,1.));
#400=DIRECTION('center_axis',(-1.41748686892493E-16,-1.,0.));
#401=DIRECTION('ref_axis',(1.,-1.41748686892493E-16,0.));
#402=DIRECTION('',(0.,0.,1.));
#403=DIRECTION('',(1.,-1.41748686892493E-16,0.));
#404=DIRECTION('',(0.,0.,1.));
#405=DIRECTION('center_axis',(0.,0.,1.));
#406=DIRECTION('ref_axis',(-1.,0.,0.));
#407=DIRECTION('center_axis',(0.,0.,1.));
#408=DIRECTION('ref_axis',(-1.,0.,0.));
#409=DIRECTION('center_axis',(0.,0.,1.));
#410=DIRECTION('ref_axis',(-1.,0.,0.));
#411=DIRECTION('center_axis',(0.,0.,1.));
#412=DIRECTION('ref_axis',(-1.,0.,0.));
#413=DIRECTION('center_axis',(0.,0.,1.));
#414=DIRECTION('ref_axis',(-0.5,-0.866025403784438,0.));
#415=DIRECTION('',(0.,0.,-1.));
#416=DIRECTION('center_axis',(0.,0.,1.));
#417=DIRECTION('ref_axis',(-0.5,-0.866025403784438,0.));
#418=DIRECTION('center_axis',(0.,0.,1.));
#419=DIRECTION('ref_axis',(-0.5,-0.866025403784438,0.));
#420=DIRECTION('center_axis',(0.,1.,0.));
#421=DIRECTION('ref_axis',(-1.,0.,0.));
#422=DIRECTION('',(-1.,0.,0.));
#423=DIRECTION('',(0.,0.,1.));
#424=DIRECTION('',(0.,0.,1.));
#425=DIRECTION('center_axis',(0.,0.,1.));
#426=DIRECTION('ref_axis',(0.8,-0.6,0.));
#427=DIRECTION('center_axis',(0.,0.,-1.));
#428=DIRECTION('ref_axis',(0.8,-0.6,0.));
#429=DIRECTION('',(0.,0.,1.));
#430=DIRECTION('center_axis',(0.,-1.,0.));
#431=DIRECTION('ref_axis',(1.,0.,0.));
#432=DIRECTION('',(1.,0.,0.));
#433=DIRECTION('',(0.,0.,1.));
#434=DIRECTION('center_axis',(0.,0.,1.));
#435=DIRECTION('ref_axis',(-0.8,0.6,0.));
#436=DIRECTION('center_axis',(0.,0.,-1.));
#437=DIRECTION('ref_axis',(-0.8,0.6,0.));
#438=DIRECTION('center_axis',(0.,0.,1.));
#439=DIRECTION('ref_axis',(1.,0.,0.));
#440=DIRECTION('',(0.,0.,-1.));
#441=DIRECTION('center_axis',(0.,0.,1.));
#442=DIRECTION('ref_axis',(1.,0.,0.));
#443=DIRECTION('center_axis',(0.,0.,1.));
#444=DIRECTION('ref_axis',(1.,0.,0.));
#445=DIRECTION('center_axis',(0.,0.,1.));
#446=DIRECTION('ref_axis',(1.,0.,0.));
#447=DIRECTION('',(0.,0.,-1.));
#448=DIRECTION('center_axis',(0.,0.,1.));
#449=DIRECTION('ref_axis',(1.,0.,0.));
#450=DIRECTION('center_axis',(0.,0.,1.));
#451=DIRECTION('ref_axis',(1.,0.,0.));
#452=DIRECTION('center_axis',(0.,0.,1.));
#453=DIRECTION('ref_axis',(-0.5,0.866025403784439,0.));
#454=DIRECTION('',(0.,0.,-1.));
#455=DIRECTION('center_axis',(0.,0.,1.));
#456=DIRECTION('ref_axis',(-0.5,0.866025403784439,0.));
#457=DIRECTION('center_axis',(0.,0.,1.));
#458=DIRECTION('ref_axis',(-0.5,0.866025403784439,0.));
#459=CARTESIAN_POINT('',(0.,0.,0.));
#460=CARTESIAN_POINT('Origin',(-8.74191357972564E-17,0.133523622047244,
0.2));
#461=CARTESIAN_POINT('',(-0.462539394792901,-0.347755905511811,0.2));
#462=CARTESIAN_POINT('',(-0.42218506408424,-0.336942995187327,0.2));
#463=CARTESIAN_POINT('Origin',(-0.462539394792901,-0.267047244094488,0.2));
#464=CARTESIAN_POINT('',(-0.53243514588574,-0.226692913385827,0.2));
#465=CARTESIAN_POINT('Origin',(-0.462539394792901,-0.267047244094488,0.2));
#466=CARTESIAN_POINT('',(-0.0698957510928385,0.574448818897638,0.2));
#467=CARTESIAN_POINT('',(-0.53243514588574,-0.226692913385827,0.2));
#468=CARTESIAN_POINT('',(-0.0807086614173228,0.534094488188976,0.2));
#469=CARTESIAN_POINT('Origin',(0.,0.534094488188976,0.2));
#470=CARTESIAN_POINT('',(0.0698957510928385,0.574448818897638,0.2));
#471=CARTESIAN_POINT('Origin',(0.,0.534094488188976,0.2));
#472=CARTESIAN_POINT('',(0.53243514588574,-0.226692913385827,0.2));
#473=CARTESIAN_POINT('',(0.0698957510928385,0.574448818897638,0.2));
#474=CARTESIAN_POINT('',(0.502893725501563,-0.19715149300165,0.2));
#475=CARTESIAN_POINT('Origin',(0.462539394792901,-0.267047244094488,0.2));
#476=CARTESIAN_POINT('',(0.462539394792901,-0.347755905511811,0.2));
#477=CARTESIAN_POINT('Origin',(0.462539394792901,-0.267047244094488,0.2));
#478=CARTESIAN_POINT('',(-0.462539394792901,-0.347755905511811,0.2));
#479=CARTESIAN_POINT('',(-0.20000000638286,-2.18547839493141E-17,0.2));
#480=CARTESIAN_POINT('Origin',(0.,0.,0.2));
#481=CARTESIAN_POINT('Origin',(-8.74191357972564E-17,0.133523622047244,
0.2));
#482=CARTESIAN_POINT('',(0.078740157480315,-0.0590551181102362,0.2));
#483=CARTESIAN_POINT('',(-0.078740157480315,-0.0590551181102362,0.2));
#484=CARTESIAN_POINT('',(-0.0787401574803149,-0.0590551181102362,0.2));
#485=CARTESIAN_POINT('',(-0.0787401574803149,0.0590551181102362,0.2));
#486=CARTESIAN_POINT('Origin',(0.,0.,0.2));
#487=CARTESIAN_POINT('',(0.078740157480315,0.0590551181102362,0.2));
#488=CARTESIAN_POINT('',(-0.0787401574803149,0.0590551181102362,0.2));
#489=CARTESIAN_POINT('Origin',(0.,0.,0.2));
#490=CARTESIAN_POINT('Origin',(-0.0698957510928385,0.574448818897638,0.2));
#491=CARTESIAN_POINT('',(-0.53243514588574,-0.226692913385827,0.3));
#492=CARTESIAN_POINT('',(-0.53243514588574,-0.226692913385827,0.2));
#493=CARTESIAN_POINT('',(-0.0698957510928385,0.574448818897638,0.3));
#494=CARTESIAN_POINT('',(-0.53243514588574,-0.226692913385827,0.3));
#495=CARTESIAN_POINT('',(-0.0698957510928385,0.574448818897638,0.2));
#496=CARTESIAN_POINT('Origin',(0.53243514588574,-0.226692913385827,0.2));
#497=CARTESIAN_POINT('',(0.0698957510928385,0.574448818897638,0.3));
#498=CARTESIAN_POINT('',(0.0698957510928385,0.574448818897638,0.2));
#499=CARTESIAN_POINT('',(0.53243514588574,-0.226692913385827,0.3));
#500=CARTESIAN_POINT('',(0.0698957510928385,0.574448818897638,0.3));
#501=CARTESIAN_POINT('',(0.53243514588574,-0.226692913385827,0.2));
#502=CARTESIAN_POINT('Origin',(-0.462539394792901,-0.347755905511811,0.2));
#503=CARTESIAN_POINT('',(0.462539394792901,-0.347755905511811,0.3));
#504=CARTESIAN_POINT('',(0.462539394792901,-0.347755905511811,0.2));
#505=CARTESIAN_POINT('',(-0.462539394792901,-0.347755905511811,0.3));
#506=CARTESIAN_POINT('',(-0.462539394792901,-0.347755905511811,0.3));
#507=CARTESIAN_POINT('',(-0.462539394792901,-0.347755905511811,0.2));
#508=CARTESIAN_POINT('Origin',(-8.74191357972564E-17,0.133523622047244,
0.3));
#509=CARTESIAN_POINT('Origin',(-0.462539394792901,-0.267047244094488,0.3));
#510=CARTESIAN_POINT('Origin',(0.462539394792901,-0.267047244094488,0.3));
#511=CARTESIAN_POINT('Origin',(0.,0.534094488188976,0.3));
#512=CARTESIAN_POINT('Origin',(0.462539394792901,-0.267047244094488,0.));
#513=CARTESIAN_POINT('',(0.502893725501563,-0.19715149300165,0.));
#514=CARTESIAN_POINT('',(0.502893725501563,-0.19715149300165,0.));
#515=CARTESIAN_POINT('Origin',(0.462539394792901,-0.267047244094488,0.));
#516=CARTESIAN_POINT('Origin',(0.462539394792901,-0.267047244094488,0.));
#517=CARTESIAN_POINT('Origin',(0.0787401574803149,-0.0590551181102362,0.));
#518=CARTESIAN_POINT('',(0.0787401574803149,-0.0590551181102362,0.));
#519=CARTESIAN_POINT('',(-0.078740157480315,-0.0590551181102362,0.));
#520=CARTESIAN_POINT('',(-0.0787401574803149,-0.0590551181102362,0.));
#521=CARTESIAN_POINT('',(-0.078740157480315,-0.0590551181102362,0.));
#522=CARTESIAN_POINT('',(0.0787401574803149,-0.0590551181102362,0.));
#523=CARTESIAN_POINT('Origin',(0.,0.,0.));
#524=CARTESIAN_POINT('',(0.078740157480315,0.0590551181102362,0.));
#525=CARTESIAN_POINT('Origin',(0.,0.,0.));
#526=CARTESIAN_POINT('',(0.078740157480315,0.0590551181102362,0.));
#527=CARTESIAN_POINT('Origin',(-0.0787401574803149,0.0590551181102362,0.));
#528=CARTESIAN_POINT('',(-0.0787401574803149,0.0590551181102362,0.));
#529=CARTESIAN_POINT('',(-0.0787401574803149,0.0590551181102362,0.));
#530=CARTESIAN_POINT('',(-0.0787401574803149,0.0590551181102362,0.));
#531=CARTESIAN_POINT('Origin',(0.,0.,0.));
#532=CARTESIAN_POINT('Origin',(0.,0.,0.));
#533=CARTESIAN_POINT('Origin',(0.,0.,0.));
#534=CARTESIAN_POINT('',(-0.20000000638286,-2.44929367646219E-17,0.));
#535=CARTESIAN_POINT('',(-0.20000000638286,-2.44929367646219E-17,0.));
#536=CARTESIAN_POINT('Origin',(0.,0.,0.));
#537=CARTESIAN_POINT('Origin',(0.,0.,0.));
#538=CARTESIAN_POINT('Origin',(0.,0.534094488188976,0.));
#539=CARTESIAN_POINT('',(-0.0807086614173228,0.534094488188976,0.));
#540=CARTESIAN_POINT('',(-0.0807086614173228,0.534094488188976,0.));
#541=CARTESIAN_POINT('Origin',(0.,0.534094488188976,0.));
#542=CARTESIAN_POINT('Origin',(0.,0.534094488188976,0.));
#543=CARTESIAN_POINT('Origin',(-0.462539394792901,-0.267047244094488,0.));
#544=CARTESIAN_POINT('',(-0.42218506408424,-0.336942995187327,0.));
#545=CARTESIAN_POINT('',(-0.42218506408424,-0.336942995187327,0.));
#546=CARTESIAN_POINT('Origin',(-0.462539394792901,-0.267047244094488,0.));
#547=CARTESIAN_POINT('Origin',(-0.462539394792901,-0.267047244094488,0.));
#548=UNCERTAINTY_MEASURE_WITH_UNIT(LENGTH_MEASURE(0.000393700787401575),
#553,'DISTANCE_ACCURACY_VALUE',
'Maximum model space distance between geometric entities at asserted c
onnectivities');
#549=UNCERTAINTY_MEASURE_WITH_UNIT(LENGTH_MEASURE(0.000393700787401575),
#553,'DISTANCE_ACCURACY_VALUE',
'Maximum model space distance between geometric entities at asserted c
onnectivities');
#550=(
GEOMETRIC_REPRESENTATION_CONTEXT(3)
GLOBAL_UNCERTAINTY_ASSIGNED_CONTEXT((#548))
GLOBAL_UNIT_ASSIGNED_CONTEXT((#553,#557,#558))
REPRESENTATION_CONTEXT('','3D')
);
#551=(
GEOMETRIC_REPRESENTATION_CONTEXT(3)
GLOBAL_UNCERTAINTY_ASSIGNED_CONTEXT((#549))
GLOBAL_UNIT_ASSIGNED_CONTEXT((#553,#557,#558))
REPRESENTATION_CONTEXT('','3D')
);
#552=DIMENSIONAL_EXPONENTS(1.,0.,0.,0.,0.,0.,0.);
#553=(
CONVERSION_BASED_UNIT('inch',#556)
LENGTH_UNIT()
NAMED_UNIT(#552)
);
#554=(
LENGTH_UNIT()
NAMED_UNIT(*)
SI_UNIT(.MILLI.,.METRE.)
);
#555=(
LENGTH_UNIT()
NAMED_UNIT(*)
SI_UNIT($,.METRE.)
);
#556=LENGTH_MEASURE_WITH_UNIT(LENGTH_MEASURE(25.4),#554);
#557=(
NAMED_UNIT(*)
PLANE_ANGLE_UNIT()
SI_UNIT($,.RADIAN.)
);
#558=(
NAMED_UNIT(*)
SI_UNIT($,.STERADIAN.)
SOLID_ANGLE_UNIT()
);
#559=SHAPE_DEFINITION_REPRESENTATION(#560,#561);
#560=PRODUCT_DEFINITION_SHAPE('',$,#563);
#561=SHAPE_REPRESENTATION('',(#324),#550);
#562=PRODUCT_DEFINITION_CONTEXT('part definition',#567,'design');
#563=PRODUCT_DEFINITION('2026-04-22-23-42-39-207','bearing rotor v1',#564,
#562);
#564=PRODUCT_DEFINITION_FORMATION('',$,#569);
#565=PRODUCT_RELATED_PRODUCT_CATEGORY('bearing rotor v1',
'bearing rotor v1',(#569));
#566=APPLICATION_PROTOCOL_DEFINITION('international standard',
'automotive_design',2009,#567);
#567=APPLICATION_CONTEXT(
'Core Data for Automotive Mechanical Design Process');
#568=PRODUCT_CONTEXT('part definition',#567,'mechanical');
#569=PRODUCT('2026-04-22-23-42-39-207','bearing rotor v1',$,(#568));
#570=PRESENTATION_STYLE_ASSIGNMENT((#571));
#571=SURFACE_STYLE_USAGE(.BOTH.,#572);
#572=SURFACE_SIDE_STYLE('',(#573));
#573=SURFACE_STYLE_FILL_AREA(#574);
#574=FILL_AREA_STYLE('Steel - Satin',(#575));
#575=FILL_AREA_STYLE_COLOUR('Steel - Satin',#576);
#576=COLOUR_RGB('Steel - Satin',0.627450980392157,0.627450980392157,0.627450980392157);
ENDSEC;
END-ISO-10303-21;
