ISO-10303-21;
HEADER;
/* Generated by software containing ST-Developer
 * from STEP Tools, Inc. (www.steptools.com) 
 */

FILE_DESCRIPTION(
/* description */ (''),
/* implementation_level */ '2;1');

FILE_NAME(
/* name */ 'bearing rotor v2.step',
/* time_stamp */ '2026-04-28T17:09:57-05:00',
/* author */ (''),
/* organization */ (''),
/* preprocessor_version */ 'ST-DEVELOPER v20.1',
/* originating_system */ 'Autodesk Translation Framework v15.8.0.0',
/* authorisation */ '');

FILE_SCHEMA (('AUTOMOTIVE_DESIGN { 1 0 10303 214 3 1 1 }'));
ENDSEC;

DATA;
#10=MECHANICAL_DESIGN_GEOMETRIC_PRESENTATION_REPRESENTATION('',(#15,#16,
#17,#18,#19,#20,#21),#1150);
#11=SHAPE_REPRESENTATION_RELATIONSHIP('SRR','None',#1160,#12);
#12=ADVANCED_BREP_SHAPE_REPRESENTATION('',(#22,#23,#24,#25,#26,#27,#28),
#1149);
#13=FACE_BOUND('',#112,.T.);
#14=FACE_BOUND('',#114,.T.);
#15=STYLED_ITEM('',(#1169),#22);
#16=STYLED_ITEM('',(#1169),#23);
#17=STYLED_ITEM('',(#1169),#24);
#18=STYLED_ITEM('',(#1169),#25);
#19=STYLED_ITEM('',(#1169),#26);
#20=STYLED_ITEM('',(#1169),#27);
#21=STYLED_ITEM('',(#1169),#28);
#22=MANIFOLD_SOLID_BREP('Body1',#672);
#23=MANIFOLD_SOLID_BREP('Body2',#673);
#24=MANIFOLD_SOLID_BREP('Body3',#674);
#25=MANIFOLD_SOLID_BREP('Body4',#675);
#26=MANIFOLD_SOLID_BREP('Body5',#676);
#27=MANIFOLD_SOLID_BREP('Body6',#677);
#28=MANIFOLD_SOLID_BREP('Body7',#678);
#29=PLANE('',#695);
#30=PLANE('',#696);
#31=PLANE('',#697);
#32=PLANE('',#701);
#33=PLANE('',#708);
#34=PLANE('',#709);
#35=PLANE('',#710);
#36=PLANE('',#711);
#37=PLANE('',#712);
#38=PLANE('',#713);
#39=PLANE('',#717);
#40=PLANE('',#718);
#41=PLANE('',#722);
#42=PLANE('',#726);
#43=PLANE('',#727);
#44=PLANE('',#731);
#45=PLANE('',#732);
#46=PLANE('',#733);
#47=PLANE('',#734);
#48=PLANE('',#735);
#49=PLANE('',#736);
#50=PLANE('',#740);
#51=PLANE('',#741);
#52=PLANE('',#745);
#53=PLANE('',#746);
#54=PLANE('',#747);
#55=PLANE('',#748);
#56=PLANE('',#749);
#57=PLANE('',#753);
#58=PLANE('',#754);
#59=PLANE('',#758);
#60=FACE_OUTER_BOUND('',#103,.T.);
#61=FACE_OUTER_BOUND('',#104,.T.);
#62=FACE_OUTER_BOUND('',#105,.T.);
#63=FACE_OUTER_BOUND('',#106,.T.);
#64=FACE_OUTER_BOUND('',#107,.T.);
#65=FACE_OUTER_BOUND('',#108,.T.);
#66=FACE_OUTER_BOUND('',#109,.T.);
#67=FACE_OUTER_BOUND('',#110,.T.);
#68=FACE_OUTER_BOUND('',#111,.T.);
#69=FACE_OUTER_BOUND('',#113,.T.);
#70=FACE_OUTER_BOUND('',#115,.T.);
#71=FACE_OUTER_BOUND('',#116,.T.);
#72=FACE_OUTER_BOUND('',#117,.T.);
#73=FACE_OUTER_BOUND('',#118,.T.);
#74=FACE_OUTER_BOUND('',#119,.T.);
#75=FACE_OUTER_BOUND('',#120,.T.);
#76=FACE_OUTER_BOUND('',#121,.T.);
#77=FACE_OUTER_BOUND('',#122,.T.);
#78=FACE_OUTER_BOUND('',#123,.T.);
#79=FACE_OUTER_BOUND('',#124,.T.);
#80=FACE_OUTER_BOUND('',#125,.T.);
#81=FACE_OUTER_BOUND('',#126,.T.);
#82=FACE_OUTER_BOUND('',#127,.T.);
#83=FACE_OUTER_BOUND('',#128,.T.);
#84=FACE_OUTER_BOUND('',#129,.T.);
#85=FACE_OUTER_BOUND('',#130,.T.);
#86=FACE_OUTER_BOUND('',#131,.T.);
#87=FACE_OUTER_BOUND('',#132,.T.);
#88=FACE_OUTER_BOUND('',#133,.T.);
#89=FACE_OUTER_BOUND('',#134,.T.);
#90=FACE_OUTER_BOUND('',#135,.T.);
#91=FACE_OUTER_BOUND('',#136,.T.);
#92=FACE_OUTER_BOUND('',#137,.T.);
#93=FACE_OUTER_BOUND('',#138,.T.);
#94=FACE_OUTER_BOUND('',#139,.T.);
#95=FACE_OUTER_BOUND('',#140,.T.);
#96=FACE_OUTER_BOUND('',#141,.T.);
#97=FACE_OUTER_BOUND('',#142,.T.);
#98=FACE_OUTER_BOUND('',#143,.T.);
#99=FACE_OUTER_BOUND('',#144,.T.);
#100=FACE_OUTER_BOUND('',#145,.T.);
#101=FACE_OUTER_BOUND('',#146,.T.);
#102=FACE_OUTER_BOUND('',#147,.T.);
#103=EDGE_LOOP('',(#443,#444,#445,#446));
#104=EDGE_LOOP('',(#447));
#105=EDGE_LOOP('',(#448));
#106=EDGE_LOOP('',(#449,#450,#451,#452));
#107=EDGE_LOOP('',(#453,#454,#455,#456));
#108=EDGE_LOOP('',(#457,#458,#459,#460));
#109=EDGE_LOOP('',(#461,#462,#463,#464));
#110=EDGE_LOOP('',(#465,#466,#467,#468));
#111=EDGE_LOOP('',(#469));
#112=EDGE_LOOP('',(#470,#471,#472,#473));
#113=EDGE_LOOP('',(#474));
#114=EDGE_LOOP('',(#475,#476,#477,#478));
#115=EDGE_LOOP('',(#479,#480,#481,#482));
#116=EDGE_LOOP('',(#483,#484,#485,#486));
#117=EDGE_LOOP('',(#487,#488,#489,#490));
#118=EDGE_LOOP('',(#491,#492,#493,#494));
#119=EDGE_LOOP('',(#495,#496,#497,#498));
#120=EDGE_LOOP('',(#499,#500,#501,#502));
#121=EDGE_LOOP('',(#503,#504,#505,#506,#507,#508,#509));
#122=EDGE_LOOP('',(#510,#511,#512,#513));
#123=EDGE_LOOP('',(#514,#515,#516,#517,#518,#519,#520));
#124=EDGE_LOOP('',(#521,#522,#523,#524));
#125=EDGE_LOOP('',(#525));
#126=EDGE_LOOP('',(#526));
#127=EDGE_LOOP('',(#527,#528,#529,#530));
#128=EDGE_LOOP('',(#531));
#129=EDGE_LOOP('',(#532));
#130=EDGE_LOOP('',(#533,#534,#535,#536));
#131=EDGE_LOOP('',(#537,#538,#539,#540));
#132=EDGE_LOOP('',(#541,#542,#543,#544));
#133=EDGE_LOOP('',(#545,#546,#547,#548));
#134=EDGE_LOOP('',(#549,#550,#551,#552));
#135=EDGE_LOOP('',(#553,#554,#555,#556));
#136=EDGE_LOOP('',(#557,#558,#559,#560,#561,#562,#563));
#137=EDGE_LOOP('',(#564,#565,#566,#567));
#138=EDGE_LOOP('',(#568,#569,#570,#571,#572,#573,#574));
#139=EDGE_LOOP('',(#575,#576,#577,#578));
#140=EDGE_LOOP('',(#579,#580,#581,#582));
#141=EDGE_LOOP('',(#583,#584,#585,#586));
#142=EDGE_LOOP('',(#587,#588,#589,#590));
#143=EDGE_LOOP('',(#591,#592,#593,#594));
#144=EDGE_LOOP('',(#595,#596,#597,#598));
#145=EDGE_LOOP('',(#599,#600,#601,#602,#603,#604,#605));
#146=EDGE_LOOP('',(#606,#607,#608,#609));
#147=EDGE_LOOP('',(#610,#611,#612,#613,#614,#615,#616));
#148=LINE('',#963,#211);
#149=LINE('',#970,#212);
#150=LINE('',#972,#213);
#151=LINE('',#974,#214);
#152=LINE('',#975,#215);
#153=LINE('',#981,#216);
#154=LINE('',#984,#217);
#155=LINE('',#986,#218);
#156=LINE('',#987,#219);
#157=LINE('',#995,#220);
#158=LINE('',#1002,#221);
#159=LINE('',#1004,#222);
#160=LINE('',#1006,#223);
#161=LINE('',#1007,#224);
#162=LINE('',#1011,#225);
#163=LINE('',#1013,#226);
#164=LINE('',#1015,#227);
#165=LINE('',#1016,#228);
#166=LINE('',#1020,#229);
#167=LINE('',#1021,#230);
#168=LINE('',#1022,#231);
#169=LINE('',#1025,#232);
#170=LINE('',#1027,#233);
#171=LINE('',#1028,#234);
#172=LINE('',#1034,#235);
#173=LINE('',#1036,#236);
#174=LINE('',#1037,#237);
#175=LINE('',#1047,#238);
#176=LINE('',#1055,#239);
#177=LINE('',#1062,#240);
#178=LINE('',#1064,#241);
#179=LINE('',#1066,#242);
#180=LINE('',#1067,#243);
#181=LINE('',#1071,#244);
#182=LINE('',#1073,#245);
#183=LINE('',#1075,#246);
#184=LINE('',#1076,#247);
#185=LINE('',#1080,#248);
#186=LINE('',#1081,#249);
#187=LINE('',#1082,#250);
#188=LINE('',#1085,#251);
#189=LINE('',#1087,#252);
#190=LINE('',#1088,#253);
#191=LINE('',#1094,#254);
#192=LINE('',#1096,#255);
#193=LINE('',#1097,#256);
#194=LINE('',#1106,#257);
#195=LINE('',#1108,#258);
#196=LINE('',#1110,#259);
#197=LINE('',#1111,#260);
#198=LINE('',#1115,#261);
#199=LINE('',#1117,#262);
#200=LINE('',#1119,#263);
#201=LINE('',#1120,#264);
#202=LINE('',#1124,#265);
#203=LINE('',#1125,#266);
#204=LINE('',#1126,#267);
#205=LINE('',#1129,#268);
#206=LINE('',#1131,#269);
#207=LINE('',#1132,#270);
#208=LINE('',#1138,#271);
#209=LINE('',#1140,#272);
#210=LINE('',#1141,#273);
#211=VECTOR('',#765,0.0807086614173228);
#212=VECTOR('',#774,0.393700787401575);
#213=VECTOR('',#775,0.393700787401575);
#214=VECTOR('',#776,0.393700787401575);
#215=VECTOR('',#777,0.393700787401575);
#216=VECTOR('',#784,0.393700787401575);
#217=VECTOR('',#787,0.393700787401575);
#218=VECTOR('',#788,0.393700787401575);
#219=VECTOR('',#789,0.393700787401575);
#220=VECTOR('',#800,0.20000000638286);
#221=VECTOR('',#809,0.393700787401575);
#222=VECTOR('',#810,0.393700787401575);
#223=VECTOR('',#811,0.393700787401575);
#224=VECTOR('',#812,0.393700787401575);
#225=VECTOR('',#815,0.393700787401575);
#226=VECTOR('',#816,0.393700787401575);
#227=VECTOR('',#817,0.393700787401575);
#228=VECTOR('',#818,0.393700787401575);
#229=VECTOR('',#821,0.393700787401575);
#230=VECTOR('',#822,0.393700787401575);
#231=VECTOR('',#823,0.393700787401575);
#232=VECTOR('',#826,0.393700787401575);
#233=VECTOR('',#827,0.393700787401575);
#234=VECTOR('',#828,0.393700787401575);
#235=VECTOR('',#835,0.393700787401575);
#236=VECTOR('',#838,0.393700787401575);
#237=VECTOR('',#839,0.393700787401575);
#238=VECTOR('',#854,0.0807086614173228);
#239=VECTOR('',#865,0.0807086614173228);
#240=VECTOR('',#874,0.393700787401575);
#241=VECTOR('',#875,0.393700787401575);
#242=VECTOR('',#876,0.393700787401575);
#243=VECTOR('',#877,0.393700787401575);
#244=VECTOR('',#880,0.393700787401575);
#245=VECTOR('',#881,0.393700787401575);
#246=VECTOR('',#882,0.393700787401575);
#247=VECTOR('',#883,0.393700787401575);
#248=VECTOR('',#886,0.393700787401575);
#249=VECTOR('',#887,0.393700787401575);
#250=VECTOR('',#888,0.393700787401575);
#251=VECTOR('',#891,0.393700787401575);
#252=VECTOR('',#892,0.393700787401575);
#253=VECTOR('',#893,0.393700787401575);
#254=VECTOR('',#900,0.393700787401575);
#255=VECTOR('',#903,0.393700787401575);
#256=VECTOR('',#904,0.393700787401575);
#257=VECTOR('',#917,0.393700787401575);
#258=VECTOR('',#918,0.393700787401575);
#259=VECTOR('',#919,0.393700787401575);
#260=VECTOR('',#920,0.393700787401575);
#261=VECTOR('',#923,0.393700787401575);
#262=VECTOR('',#924,0.393700787401575);
#263=VECTOR('',#925,0.393700787401575);
#264=VECTOR('',#926,0.393700787401575);
#265=VECTOR('',#929,0.393700787401575);
#266=VECTOR('',#930,0.393700787401575);
#267=VECTOR('',#931,0.393700787401575);
#268=VECTOR('',#934,0.393700787401575);
#269=VECTOR('',#935,0.393700787401575);
#270=VECTOR('',#936,0.393700787401575);
#271=VECTOR('',#943,0.393700787401575);
#272=VECTOR('',#946,0.393700787401575);
#273=VECTOR('',#947,0.393700787401575);
#274=CIRCLE('',#693,0.0807086614173228);
#275=CIRCLE('',#694,0.0807086614173228);
#276=CIRCLE('',#699,0.0984251968503937);
#277=CIRCLE('',#700,0.0984251968503937);
#278=CIRCLE('',#703,0.0984251968503937);
#279=CIRCLE('',#704,0.0984251968503937);
#280=CIRCLE('',#706,0.20000000638286);
#281=CIRCLE('',#707,0.20000000638286);
#282=CIRCLE('',#715,0.20000000638286);
#283=CIRCLE('',#716,0.20000000638286);
#284=CIRCLE('',#719,0.0807086614173228);
#285=CIRCLE('',#721,0.0807086614173228);
#286=CIRCLE('',#724,0.0807086614173228);
#287=CIRCLE('',#725,0.0807086614173228);
#288=CIRCLE('',#729,0.0807086614173228);
#289=CIRCLE('',#730,0.0807086614173228);
#290=CIRCLE('',#738,0.20000000638286);
#291=CIRCLE('',#739,0.20000000638286);
#292=CIRCLE('',#742,0.0807086614173228);
#293=CIRCLE('',#744,0.0807086614173228);
#294=CIRCLE('',#751,0.20000000638286);
#295=CIRCLE('',#752,0.20000000638286);
#296=CIRCLE('',#755,0.0807086614173228);
#297=CIRCLE('',#757,0.0807086614173228);
#298=VERTEX_POINT('',#960);
#299=VERTEX_POINT('',#962);
#300=VERTEX_POINT('',#968);
#301=VERTEX_POINT('',#969);
#302=VERTEX_POINT('',#971);
#303=VERTEX_POINT('',#973);
#304=VERTEX_POINT('',#977);
#305=VERTEX_POINT('',#979);
#306=VERTEX_POINT('',#983);
#307=VERTEX_POINT('',#985);
#308=VERTEX_POINT('',#992);
#309=VERTEX_POINT('',#994);
#310=VERTEX_POINT('',#1000);
#311=VERTEX_POINT('',#1001);
#312=VERTEX_POINT('',#1003);
#313=VERTEX_POINT('',#1005);
#314=VERTEX_POINT('',#1009);
#315=VERTEX_POINT('',#1010);
#316=VERTEX_POINT('',#1012);
#317=VERTEX_POINT('',#1014);
#318=VERTEX_POINT('',#1018);
#319=VERTEX_POINT('',#1019);
#320=VERTEX_POINT('',#1024);
#321=VERTEX_POINT('',#1026);
#322=VERTEX_POINT('',#1030);
#323=VERTEX_POINT('',#1032);
#324=VERTEX_POINT('',#1044);
#325=VERTEX_POINT('',#1046);
#326=VERTEX_POINT('',#1052);
#327=VERTEX_POINT('',#1054);
#328=VERTEX_POINT('',#1060);
#329=VERTEX_POINT('',#1061);
#330=VERTEX_POINT('',#1063);
#331=VERTEX_POINT('',#1065);
#332=VERTEX_POINT('',#1069);
#333=VERTEX_POINT('',#1070);
#334=VERTEX_POINT('',#1072);
#335=VERTEX_POINT('',#1074);
#336=VERTEX_POINT('',#1078);
#337=VERTEX_POINT('',#1079);
#338=VERTEX_POINT('',#1084);
#339=VERTEX_POINT('',#1086);
#340=VERTEX_POINT('',#1090);
#341=VERTEX_POINT('',#1092);
#342=VERTEX_POINT('',#1104);
#343=VERTEX_POINT('',#1105);
#344=VERTEX_POINT('',#1107);
#345=VERTEX_POINT('',#1109);
#346=VERTEX_POINT('',#1113);
#347=VERTEX_POINT('',#1114);
#348=VERTEX_POINT('',#1116);
#349=VERTEX_POINT('',#1118);
#350=VERTEX_POINT('',#1122);
#351=VERTEX_POINT('',#1123);
#352=VERTEX_POINT('',#1128);
#353=VERTEX_POINT('',#1130);
#354=VERTEX_POINT('',#1134);
#355=VERTEX_POINT('',#1136);
#356=EDGE_CURVE('',#298,#298,#274,.T.);
#357=EDGE_CURVE('',#298,#299,#148,.T.);
#358=EDGE_CURVE('',#299,#299,#275,.T.);
#359=EDGE_CURVE('',#300,#301,#149,.T.);
#360=EDGE_CURVE('',#301,#302,#150,.T.);
#361=EDGE_CURVE('',#303,#302,#151,.T.);
#362=EDGE_CURVE('',#300,#303,#152,.T.);
#363=EDGE_CURVE('',#304,#300,#276,.T.);
#364=EDGE_CURVE('',#305,#303,#277,.T.);
#365=EDGE_CURVE('',#304,#305,#153,.T.);
#366=EDGE_CURVE('',#306,#304,#154,.T.);
#367=EDGE_CURVE('',#307,#305,#155,.T.);
#368=EDGE_CURVE('',#306,#307,#156,.T.);
#369=EDGE_CURVE('',#301,#306,#278,.T.);
#370=EDGE_CURVE('',#302,#307,#279,.T.);
#371=EDGE_CURVE('',#308,#308,#280,.T.);
#372=EDGE_CURVE('',#308,#309,#157,.T.);
#373=EDGE_CURVE('',#309,#309,#281,.T.);
#374=EDGE_CURVE('',#310,#311,#158,.T.);
#375=EDGE_CURVE('',#312,#310,#159,.T.);
#376=EDGE_CURVE('',#313,#312,#160,.T.);
#377=EDGE_CURVE('',#311,#313,#161,.T.);
#378=EDGE_CURVE('',#314,#315,#162,.T.);
#379=EDGE_CURVE('',#315,#316,#163,.T.);
#380=EDGE_CURVE('',#317,#316,#164,.T.);
#381=EDGE_CURVE('',#314,#317,#165,.T.);
#382=EDGE_CURVE('',#318,#319,#166,.T.);
#383=EDGE_CURVE('',#314,#318,#167,.T.);
#384=EDGE_CURVE('',#319,#317,#168,.T.);
#385=EDGE_CURVE('',#313,#320,#169,.T.);
#386=EDGE_CURVE('',#321,#312,#170,.T.);
#387=EDGE_CURVE('',#320,#321,#171,.T.);
#388=EDGE_CURVE('',#322,#320,#282,.T.);
#389=EDGE_CURVE('',#323,#321,#283,.T.);
#390=EDGE_CURVE('',#322,#323,#172,.T.);
#391=EDGE_CURVE('',#315,#322,#173,.T.);
#392=EDGE_CURVE('',#316,#323,#174,.T.);
#393=EDGE_CURVE('',#310,#319,#284,.T.);
#394=EDGE_CURVE('',#311,#318,#285,.T.);
#395=EDGE_CURVE('',#324,#324,#286,.T.);
#396=EDGE_CURVE('',#324,#325,#175,.T.);
#397=EDGE_CURVE('',#325,#325,#287,.T.);
#398=EDGE_CURVE('',#326,#326,#288,.T.);
#399=EDGE_CURVE('',#326,#327,#176,.T.);
#400=EDGE_CURVE('',#327,#327,#289,.T.);
#401=EDGE_CURVE('',#328,#329,#177,.T.);
#402=EDGE_CURVE('',#330,#328,#178,.T.);
#403=EDGE_CURVE('',#331,#330,#179,.T.);
#404=EDGE_CURVE('',#329,#331,#180,.T.);
#405=EDGE_CURVE('',#332,#333,#181,.T.);
#406=EDGE_CURVE('',#333,#334,#182,.T.);
#407=EDGE_CURVE('',#335,#334,#183,.T.);
#408=EDGE_CURVE('',#332,#335,#184,.T.);
#409=EDGE_CURVE('',#336,#337,#185,.T.);
#410=EDGE_CURVE('',#332,#336,#186,.T.);
#411=EDGE_CURVE('',#337,#335,#187,.T.);
#412=EDGE_CURVE('',#331,#338,#188,.T.);
#413=EDGE_CURVE('',#339,#330,#189,.T.);
#414=EDGE_CURVE('',#338,#339,#190,.T.);
#415=EDGE_CURVE('',#340,#338,#290,.T.);
#416=EDGE_CURVE('',#341,#339,#291,.T.);
#417=EDGE_CURVE('',#340,#341,#191,.T.);
#418=EDGE_CURVE('',#333,#340,#192,.T.);
#419=EDGE_CURVE('',#334,#341,#193,.T.);
#420=EDGE_CURVE('',#328,#337,#292,.T.);
#421=EDGE_CURVE('',#329,#336,#293,.T.);
#422=EDGE_CURVE('',#342,#343,#194,.T.);
#423=EDGE_CURVE('',#344,#342,#195,.T.);
#424=EDGE_CURVE('',#345,#344,#196,.T.);
#425=EDGE_CURVE('',#343,#345,#197,.T.);
#426=EDGE_CURVE('',#346,#347,#198,.T.);
#427=EDGE_CURVE('',#347,#348,#199,.T.);
#428=EDGE_CURVE('',#349,#348,#200,.T.);
#429=EDGE_CURVE('',#346,#349,#201,.T.);
#430=EDGE_CURVE('',#350,#351,#202,.T.);
#431=EDGE_CURVE('',#346,#350,#203,.T.);
#432=EDGE_CURVE('',#351,#349,#204,.T.);
#433=EDGE_CURVE('',#345,#352,#205,.T.);
#434=EDGE_CURVE('',#353,#344,#206,.T.);
#435=EDGE_CURVE('',#352,#353,#207,.T.);
#436=EDGE_CURVE('',#354,#352,#294,.T.);
#437=EDGE_CURVE('',#355,#353,#295,.T.);
#438=EDGE_CURVE('',#354,#355,#208,.T.);
#439=EDGE_CURVE('',#347,#354,#209,.T.);
#440=EDGE_CURVE('',#348,#355,#210,.T.);
#441=EDGE_CURVE('',#342,#351,#296,.T.);
#442=EDGE_CURVE('',#343,#350,#297,.T.);
#443=ORIENTED_EDGE('',*,*,#356,.F.);
#444=ORIENTED_EDGE('',*,*,#357,.T.);
#445=ORIENTED_EDGE('',*,*,#358,.T.);
#446=ORIENTED_EDGE('',*,*,#357,.F.);
#447=ORIENTED_EDGE('',*,*,#356,.T.);
#448=ORIENTED_EDGE('',*,*,#358,.F.);
#449=ORIENTED_EDGE('',*,*,#359,.T.);
#450=ORIENTED_EDGE('',*,*,#360,.T.);
#451=ORIENTED_EDGE('',*,*,#361,.F.);
#452=ORIENTED_EDGE('',*,*,#362,.F.);
#453=ORIENTED_EDGE('',*,*,#363,.T.);
#454=ORIENTED_EDGE('',*,*,#362,.T.);
#455=ORIENTED_EDGE('',*,*,#364,.F.);
#456=ORIENTED_EDGE('',*,*,#365,.F.);
#457=ORIENTED_EDGE('',*,*,#366,.T.);
#458=ORIENTED_EDGE('',*,*,#365,.T.);
#459=ORIENTED_EDGE('',*,*,#367,.F.);
#460=ORIENTED_EDGE('',*,*,#368,.F.);
#461=ORIENTED_EDGE('',*,*,#369,.T.);
#462=ORIENTED_EDGE('',*,*,#368,.T.);
#463=ORIENTED_EDGE('',*,*,#370,.F.);
#464=ORIENTED_EDGE('',*,*,#360,.F.);
#465=ORIENTED_EDGE('',*,*,#371,.F.);
#466=ORIENTED_EDGE('',*,*,#372,.T.);
#467=ORIENTED_EDGE('',*,*,#373,.T.);
#468=ORIENTED_EDGE('',*,*,#372,.F.);
#469=ORIENTED_EDGE('',*,*,#371,.T.);
#470=ORIENTED_EDGE('',*,*,#370,.T.);
#471=ORIENTED_EDGE('',*,*,#367,.T.);
#472=ORIENTED_EDGE('',*,*,#364,.T.);
#473=ORIENTED_EDGE('',*,*,#361,.T.);
#474=ORIENTED_EDGE('',*,*,#373,.F.);
#475=ORIENTED_EDGE('',*,*,#369,.F.);
#476=ORIENTED_EDGE('',*,*,#359,.F.);
#477=ORIENTED_EDGE('',*,*,#363,.F.);
#478=ORIENTED_EDGE('',*,*,#366,.F.);
#479=ORIENTED_EDGE('',*,*,#374,.F.);
#480=ORIENTED_EDGE('',*,*,#375,.F.);
#481=ORIENTED_EDGE('',*,*,#376,.F.);
#482=ORIENTED_EDGE('',*,*,#377,.F.);
#483=ORIENTED_EDGE('',*,*,#378,.T.);
#484=ORIENTED_EDGE('',*,*,#379,.T.);
#485=ORIENTED_EDGE('',*,*,#380,.F.);
#486=ORIENTED_EDGE('',*,*,#381,.F.);
#487=ORIENTED_EDGE('',*,*,#382,.F.);
#488=ORIENTED_EDGE('',*,*,#383,.F.);
#489=ORIENTED_EDGE('',*,*,#381,.T.);
#490=ORIENTED_EDGE('',*,*,#384,.F.);
#491=ORIENTED_EDGE('',*,*,#385,.F.);
#492=ORIENTED_EDGE('',*,*,#376,.T.);
#493=ORIENTED_EDGE('',*,*,#386,.F.);
#494=ORIENTED_EDGE('',*,*,#387,.F.);
#495=ORIENTED_EDGE('',*,*,#388,.T.);
#496=ORIENTED_EDGE('',*,*,#387,.T.);
#497=ORIENTED_EDGE('',*,*,#389,.F.);
#498=ORIENTED_EDGE('',*,*,#390,.F.);
#499=ORIENTED_EDGE('',*,*,#391,.T.);
#500=ORIENTED_EDGE('',*,*,#390,.T.);
#501=ORIENTED_EDGE('',*,*,#392,.F.);
#502=ORIENTED_EDGE('',*,*,#379,.F.);
#503=ORIENTED_EDGE('',*,*,#384,.T.);
#504=ORIENTED_EDGE('',*,*,#380,.T.);
#505=ORIENTED_EDGE('',*,*,#392,.T.);
#506=ORIENTED_EDGE('',*,*,#389,.T.);
#507=ORIENTED_EDGE('',*,*,#386,.T.);
#508=ORIENTED_EDGE('',*,*,#375,.T.);
#509=ORIENTED_EDGE('',*,*,#393,.T.);
#510=ORIENTED_EDGE('',*,*,#382,.T.);
#511=ORIENTED_EDGE('',*,*,#393,.F.);
#512=ORIENTED_EDGE('',*,*,#374,.T.);
#513=ORIENTED_EDGE('',*,*,#394,.T.);
#514=ORIENTED_EDGE('',*,*,#394,.F.);
#515=ORIENTED_EDGE('',*,*,#377,.T.);
#516=ORIENTED_EDGE('',*,*,#385,.T.);
#517=ORIENTED_EDGE('',*,*,#388,.F.);
#518=ORIENTED_EDGE('',*,*,#391,.F.);
#519=ORIENTED_EDGE('',*,*,#378,.F.);
#520=ORIENTED_EDGE('',*,*,#383,.T.);
#521=ORIENTED_EDGE('',*,*,#395,.F.);
#522=ORIENTED_EDGE('',*,*,#396,.T.);
#523=ORIENTED_EDGE('',*,*,#397,.T.);
#524=ORIENTED_EDGE('',*,*,#396,.F.);
#525=ORIENTED_EDGE('',*,*,#395,.T.);
#526=ORIENTED_EDGE('',*,*,#397,.F.);
#527=ORIENTED_EDGE('',*,*,#398,.F.);
#528=ORIENTED_EDGE('',*,*,#399,.T.);
#529=ORIENTED_EDGE('',*,*,#400,.T.);
#530=ORIENTED_EDGE('',*,*,#399,.F.);
#531=ORIENTED_EDGE('',*,*,#398,.T.);
#532=ORIENTED_EDGE('',*,*,#400,.F.);
#533=ORIENTED_EDGE('',*,*,#401,.F.);
#534=ORIENTED_EDGE('',*,*,#402,.F.);
#535=ORIENTED_EDGE('',*,*,#403,.F.);
#536=ORIENTED_EDGE('',*,*,#404,.F.);
#537=ORIENTED_EDGE('',*,*,#405,.T.);
#538=ORIENTED_EDGE('',*,*,#406,.T.);
#539=ORIENTED_EDGE('',*,*,#407,.F.);
#540=ORIENTED_EDGE('',*,*,#408,.F.);
#541=ORIENTED_EDGE('',*,*,#409,.F.);
#542=ORIENTED_EDGE('',*,*,#410,.F.);
#543=ORIENTED_EDGE('',*,*,#408,.T.);
#544=ORIENTED_EDGE('',*,*,#411,.F.);
#545=ORIENTED_EDGE('',*,*,#412,.F.);
#546=ORIENTED_EDGE('',*,*,#403,.T.);
#547=ORIENTED_EDGE('',*,*,#413,.F.);
#548=ORIENTED_EDGE('',*,*,#414,.F.);
#549=ORIENTED_EDGE('',*,*,#415,.T.);
#550=ORIENTED_EDGE('',*,*,#414,.T.);
#551=ORIENTED_EDGE('',*,*,#416,.F.);
#552=ORIENTED_EDGE('',*,*,#417,.F.);
#553=ORIENTED_EDGE('',*,*,#418,.T.);
#554=ORIENTED_EDGE('',*,*,#417,.T.);
#555=ORIENTED_EDGE('',*,*,#419,.F.);
#556=ORIENTED_EDGE('',*,*,#406,.F.);
#557=ORIENTED_EDGE('',*,*,#411,.T.);
#558=ORIENTED_EDGE('',*,*,#407,.T.);
#559=ORIENTED_EDGE('',*,*,#419,.T.);
#560=ORIENTED_EDGE('',*,*,#416,.T.);
#561=ORIENTED_EDGE('',*,*,#413,.T.);
#562=ORIENTED_EDGE('',*,*,#402,.T.);
#563=ORIENTED_EDGE('',*,*,#420,.T.);
#564=ORIENTED_EDGE('',*,*,#409,.T.);
#565=ORIENTED_EDGE('',*,*,#420,.F.);
#566=ORIENTED_EDGE('',*,*,#401,.T.);
#567=ORIENTED_EDGE('',*,*,#421,.T.);
#568=ORIENTED_EDGE('',*,*,#421,.F.);
#569=ORIENTED_EDGE('',*,*,#404,.T.);
#570=ORIENTED_EDGE('',*,*,#412,.T.);
#571=ORIENTED_EDGE('',*,*,#415,.F.);
#572=ORIENTED_EDGE('',*,*,#418,.F.);
#573=ORIENTED_EDGE('',*,*,#405,.F.);
#574=ORIENTED_EDGE('',*,*,#410,.T.);
#575=ORIENTED_EDGE('',*,*,#422,.F.);
#576=ORIENTED_EDGE('',*,*,#423,.F.);
#577=ORIENTED_EDGE('',*,*,#424,.F.);
#578=ORIENTED_EDGE('',*,*,#425,.F.);
#579=ORIENTED_EDGE('',*,*,#426,.T.);
#580=ORIENTED_EDGE('',*,*,#427,.T.);
#581=ORIENTED_EDGE('',*,*,#428,.F.);
#582=ORIENTED_EDGE('',*,*,#429,.F.);
#583=ORIENTED_EDGE('',*,*,#430,.F.);
#584=ORIENTED_EDGE('',*,*,#431,.F.);
#585=ORIENTED_EDGE('',*,*,#429,.T.);
#586=ORIENTED_EDGE('',*,*,#432,.F.);
#587=ORIENTED_EDGE('',*,*,#433,.F.);
#588=ORIENTED_EDGE('',*,*,#424,.T.);
#589=ORIENTED_EDGE('',*,*,#434,.F.);
#590=ORIENTED_EDGE('',*,*,#435,.F.);
#591=ORIENTED_EDGE('',*,*,#436,.T.);
#592=ORIENTED_EDGE('',*,*,#435,.T.);
#593=ORIENTED_EDGE('',*,*,#437,.F.);
#594=ORIENTED_EDGE('',*,*,#438,.F.);
#595=ORIENTED_EDGE('',*,*,#439,.T.);
#596=ORIENTED_EDGE('',*,*,#438,.T.);
#597=ORIENTED_EDGE('',*,*,#440,.F.);
#598=ORIENTED_EDGE('',*,*,#427,.F.);
#599=ORIENTED_EDGE('',*,*,#432,.T.);
#600=ORIENTED_EDGE('',*,*,#428,.T.);
#601=ORIENTED_EDGE('',*,*,#440,.T.);
#602=ORIENTED_EDGE('',*,*,#437,.T.);
#603=ORIENTED_EDGE('',*,*,#434,.T.);
#604=ORIENTED_EDGE('',*,*,#423,.T.);
#605=ORIENTED_EDGE('',*,*,#441,.T.);
#606=ORIENTED_EDGE('',*,*,#430,.T.);
#607=ORIENTED_EDGE('',*,*,#441,.F.);
#608=ORIENTED_EDGE('',*,*,#422,.T.);
#609=ORIENTED_EDGE('',*,*,#442,.T.);
#610=ORIENTED_EDGE('',*,*,#442,.F.);
#611=ORIENTED_EDGE('',*,*,#425,.T.);
#612=ORIENTED_EDGE('',*,*,#433,.T.);
#613=ORIENTED_EDGE('',*,*,#436,.F.);
#614=ORIENTED_EDGE('',*,*,#439,.F.);
#615=ORIENTED_EDGE('',*,*,#426,.F.);
#616=ORIENTED_EDGE('',*,*,#431,.T.);
#617=CYLINDRICAL_SURFACE('',#692,0.0807086614173228);
#618=CYLINDRICAL_SURFACE('',#698,0.0984251968503937);
#619=CYLINDRICAL_SURFACE('',#702,0.0984251968503937);
#620=CYLINDRICAL_SURFACE('',#705,0.20000000638286);
#621=CYLINDRICAL_SURFACE('',#714,0.20000000638286);
#622=CYLINDRICAL_SURFACE('',#720,0.0807086614173228);
#623=CYLINDRICAL_SURFACE('',#723,0.0807086614173228);
#624=CYLINDRICAL_SURFACE('',#728,0.0807086614173228);
#625=CYLINDRICAL_SURFACE('',#737,0.20000000638286);
#626=CYLINDRICAL_SURFACE('',#743,0.0807086614173228);
#627=CYLINDRICAL_SURFACE('',#750,0.20000000638286);
#628=CYLINDRICAL_SURFACE('',#756,0.0807086614173228);
#629=ADVANCED_FACE('',(#60),#617,.T.);
#630=ADVANCED_FACE('',(#61),#29,.T.);
#631=ADVANCED_FACE('',(#62),#30,.F.);
#632=ADVANCED_FACE('',(#63),#31,.T.);
#633=ADVANCED_FACE('',(#64),#618,.F.);
#634=ADVANCED_FACE('',(#65),#32,.T.);
#635=ADVANCED_FACE('',(#66),#619,.F.);
#636=ADVANCED_FACE('',(#67),#620,.T.);
#637=ADVANCED_FACE('',(#68,#13),#33,.T.);
#638=ADVANCED_FACE('',(#69,#14),#34,.F.);
#639=ADVANCED_FACE('',(#70),#35,.T.);
#640=ADVANCED_FACE('',(#71),#36,.T.);
#641=ADVANCED_FACE('',(#72),#37,.T.);
#642=ADVANCED_FACE('',(#73),#38,.T.);
#643=ADVANCED_FACE('',(#74),#621,.T.);
#644=ADVANCED_FACE('',(#75),#39,.T.);
#645=ADVANCED_FACE('',(#76),#40,.T.);
#646=ADVANCED_FACE('',(#77),#622,.T.);
#647=ADVANCED_FACE('',(#78),#41,.F.);
#648=ADVANCED_FACE('',(#79),#623,.T.);
#649=ADVANCED_FACE('',(#80),#42,.T.);
#650=ADVANCED_FACE('',(#81),#43,.F.);
#651=ADVANCED_FACE('',(#82),#624,.T.);
#652=ADVANCED_FACE('',(#83),#44,.T.);
#653=ADVANCED_FACE('',(#84),#45,.F.);
#654=ADVANCED_FACE('',(#85),#46,.T.);
#655=ADVANCED_FACE('',(#86),#47,.T.);
#656=ADVANCED_FACE('',(#87),#48,.T.);
#657=ADVANCED_FACE('',(#88),#49,.T.);
#658=ADVANCED_FACE('',(#89),#625,.T.);
#659=ADVANCED_FACE('',(#90),#50,.T.);
#660=ADVANCED_FACE('',(#91),#51,.T.);
#661=ADVANCED_FACE('',(#92),#626,.T.);
#662=ADVANCED_FACE('',(#93),#52,.F.);
#663=ADVANCED_FACE('',(#94),#53,.T.);
#664=ADVANCED_FACE('',(#95),#54,.T.);
#665=ADVANCED_FACE('',(#96),#55,.T.);
#666=ADVANCED_FACE('',(#97),#56,.T.);
#667=ADVANCED_FACE('',(#98),#627,.T.);
#668=ADVANCED_FACE('',(#99),#57,.T.);
#669=ADVANCED_FACE('',(#100),#58,.T.);
#670=ADVANCED_FACE('',(#101),#628,.T.);
#671=ADVANCED_FACE('',(#102),#59,.F.);
#672=CLOSED_SHELL('',(#629,#630,#631));
#673=CLOSED_SHELL('',(#632,#633,#634,#635,#636,#637,#638));
#674=CLOSED_SHELL('',(#639,#640,#641,#642,#643,#644,#645,#646,#647));
#675=CLOSED_SHELL('',(#648,#649,#650));
#676=CLOSED_SHELL('',(#651,#652,#653));
#677=CLOSED_SHELL('',(#654,#655,#656,#657,#658,#659,#660,#661,#662));
#678=CLOSED_SHELL('',(#663,#664,#665,#666,#667,#668,#669,#670,#671));
#679=DERIVED_UNIT_ELEMENT(#681,1.);
#680=DERIVED_UNIT_ELEMENT(#1154,-3.);
#681=(
MASS_UNIT()
NAMED_UNIT(*)
SI_UNIT(.KILO.,.GRAM.)
);
#682=DERIVED_UNIT((#679,#680));
#683=MEASURE_REPRESENTATION_ITEM('density measure',
POSITIVE_RATIO_MEASURE(7850.),#682);
#684=PROPERTY_DEFINITION_REPRESENTATION(#689,#686);
#685=PROPERTY_DEFINITION_REPRESENTATION(#690,#687);
#686=REPRESENTATION('material name',(#688),#1149);
#687=REPRESENTATION('density',(#683),#1149);
#688=DESCRIPTIVE_REPRESENTATION_ITEM('Steel','Steel');
#689=PROPERTY_DEFINITION('material property','material name',#1162);
#690=PROPERTY_DEFINITION('material property','density of part',#1162);
#691=AXIS2_PLACEMENT_3D('',#958,#759,#760);
#692=AXIS2_PLACEMENT_3D('',#959,#761,#762);
#693=AXIS2_PLACEMENT_3D('',#961,#763,#764);
#694=AXIS2_PLACEMENT_3D('',#964,#766,#767);
#695=AXIS2_PLACEMENT_3D('',#965,#768,#769);
#696=AXIS2_PLACEMENT_3D('',#966,#770,#771);
#697=AXIS2_PLACEMENT_3D('',#967,#772,#773);
#698=AXIS2_PLACEMENT_3D('',#976,#778,#779);
#699=AXIS2_PLACEMENT_3D('',#978,#780,#781);
#700=AXIS2_PLACEMENT_3D('',#980,#782,#783);
#701=AXIS2_PLACEMENT_3D('',#982,#785,#786);
#702=AXIS2_PLACEMENT_3D('',#988,#790,#791);
#703=AXIS2_PLACEMENT_3D('',#989,#792,#793);
#704=AXIS2_PLACEMENT_3D('',#990,#794,#795);
#705=AXIS2_PLACEMENT_3D('',#991,#796,#797);
#706=AXIS2_PLACEMENT_3D('',#993,#798,#799);
#707=AXIS2_PLACEMENT_3D('',#996,#801,#802);
#708=AXIS2_PLACEMENT_3D('',#997,#803,#804);
#709=AXIS2_PLACEMENT_3D('',#998,#805,#806);
#710=AXIS2_PLACEMENT_3D('',#999,#807,#808);
#711=AXIS2_PLACEMENT_3D('',#1008,#813,#814);
#712=AXIS2_PLACEMENT_3D('',#1017,#819,#820);
#713=AXIS2_PLACEMENT_3D('',#1023,#824,#825);
#714=AXIS2_PLACEMENT_3D('',#1029,#829,#830);
#715=AXIS2_PLACEMENT_3D('',#1031,#831,#832);
#716=AXIS2_PLACEMENT_3D('',#1033,#833,#834);
#717=AXIS2_PLACEMENT_3D('',#1035,#836,#837);
#718=AXIS2_PLACEMENT_3D('',#1038,#840,#841);
#719=AXIS2_PLACEMENT_3D('',#1039,#842,#843);
#720=AXIS2_PLACEMENT_3D('',#1040,#844,#845);
#721=AXIS2_PLACEMENT_3D('',#1041,#846,#847);
#722=AXIS2_PLACEMENT_3D('',#1042,#848,#849);
#723=AXIS2_PLACEMENT_3D('',#1043,#850,#851);
#724=AXIS2_PLACEMENT_3D('',#1045,#852,#853);
#725=AXIS2_PLACEMENT_3D('',#1048,#855,#856);
#726=AXIS2_PLACEMENT_3D('',#1049,#857,#858);
#727=AXIS2_PLACEMENT_3D('',#1050,#859,#860);
#728=AXIS2_PLACEMENT_3D('',#1051,#861,#862);
#729=AXIS2_PLACEMENT_3D('',#1053,#863,#864);
#730=AXIS2_PLACEMENT_3D('',#1056,#866,#867);
#731=AXIS2_PLACEMENT_3D('',#1057,#868,#869);
#732=AXIS2_PLACEMENT_3D('',#1058,#870,#871);
#733=AXIS2_PLACEMENT_3D('',#1059,#872,#873);
#734=AXIS2_PLACEMENT_3D('',#1068,#878,#879);
#735=AXIS2_PLACEMENT_3D('',#1077,#884,#885);
#736=AXIS2_PLACEMENT_3D('',#1083,#889,#890);
#737=AXIS2_PLACEMENT_3D('',#1089,#894,#895);
#738=AXIS2_PLACEMENT_3D('',#1091,#896,#897);
#739=AXIS2_PLACEMENT_3D('',#1093,#898,#899);
#740=AXIS2_PLACEMENT_3D('',#1095,#901,#902);
#741=AXIS2_PLACEMENT_3D('',#1098,#905,#906);
#742=AXIS2_PLACEMENT_3D('',#1099,#907,#908);
#743=AXIS2_PLACEMENT_3D('',#1100,#909,#910);
#744=AXIS2_PLACEMENT_3D('',#1101,#911,#912);
#745=AXIS2_PLACEMENT_3D('',#1102,#913,#914);
#746=AXIS2_PLACEMENT_3D('',#1103,#915,#916);
#747=AXIS2_PLACEMENT_3D('',#1112,#921,#922);
#748=AXIS2_PLACEMENT_3D('',#1121,#927,#928);
#749=AXIS2_PLACEMENT_3D('',#1127,#932,#933);
#750=AXIS2_PLACEMENT_3D('',#1133,#937,#938);
#751=AXIS2_PLACEMENT_3D('',#1135,#939,#940);
#752=AXIS2_PLACEMENT_3D('',#1137,#941,#942);
#753=AXIS2_PLACEMENT_3D('',#1139,#944,#945);
#754=AXIS2_PLACEMENT_3D('',#1142,#948,#949);
#755=AXIS2_PLACEMENT_3D('',#1143,#950,#951);
#756=AXIS2_PLACEMENT_3D('',#1144,#952,#953);
#757=AXIS2_PLACEMENT_3D('',#1145,#954,#955);
#758=AXIS2_PLACEMENT_3D('',#1146,#956,#957);
#759=DIRECTION('axis',(0.,0.,1.));
#760=DIRECTION('refdir',(1.,0.,0.));
#761=DIRECTION('center_axis',(0.,0.,1.));
#762=DIRECTION('ref_axis',(1.,0.,0.));
#763=DIRECTION('center_axis',(0.,0.,1.));
#764=DIRECTION('ref_axis',(1.,0.,0.));
#765=DIRECTION('',(0.,0.,-1.));
#766=DIRECTION('center_axis',(0.,0.,1.));
#767=DIRECTION('ref_axis',(1.,0.,0.));
#768=DIRECTION('center_axis',(0.,0.,1.));
#769=DIRECTION('ref_axis',(1.,0.,0.));
#770=DIRECTION('center_axis',(0.,0.,1.));
#771=DIRECTION('ref_axis',(1.,0.,0.));
#772=DIRECTION('center_axis',(0.,1.,0.));
#773=DIRECTION('ref_axis',(-1.,0.,0.));
#774=DIRECTION('',(-1.,0.,0.));
#775=DIRECTION('',(0.,0.,1.));
#776=DIRECTION('',(-1.,0.,0.));
#777=DIRECTION('',(0.,0.,1.));
#778=DIRECTION('center_axis',(0.,0.,1.));
#779=DIRECTION('ref_axis',(0.8,-0.6,0.));
#780=DIRECTION('center_axis',(0.,0.,-1.));
#781=DIRECTION('ref_axis',(0.8,-0.6,0.));
#782=DIRECTION('center_axis',(0.,0.,-1.));
#783=DIRECTION('ref_axis',(0.8,-0.6,0.));
#784=DIRECTION('',(0.,0.,1.));
#785=DIRECTION('center_axis',(0.,-1.,0.));
#786=DIRECTION('ref_axis',(1.,0.,0.));
#787=DIRECTION('',(1.,0.,0.));
#788=DIRECTION('',(1.,0.,0.));
#789=DIRECTION('',(0.,0.,1.));
#790=DIRECTION('center_axis',(0.,0.,1.));
#791=DIRECTION('ref_axis',(-0.8,0.6,0.));
#792=DIRECTION('center_axis',(0.,0.,-1.));
#793=DIRECTION('ref_axis',(-0.8,0.6,0.));
#794=DIRECTION('center_axis',(0.,0.,-1.));
#795=DIRECTION('ref_axis',(-0.8,0.6,0.));
#796=DIRECTION('center_axis',(0.,0.,1.));
#797=DIRECTION('ref_axis',(1.,0.,0.));
#798=DIRECTION('center_axis',(0.,0.,1.));
#799=DIRECTION('ref_axis',(1.,0.,0.));
#800=DIRECTION('',(0.,0.,-1.));
#801=DIRECTION('center_axis',(0.,0.,1.));
#802=DIRECTION('ref_axis',(1.,0.,0.));
#803=DIRECTION('center_axis',(0.,0.,1.));
#804=DIRECTION('ref_axis',(1.,0.,0.));
#805=DIRECTION('center_axis',(0.,0.,1.));
#806=DIRECTION('ref_axis',(1.,0.,0.));
#807=DIRECTION('center_axis',(0.25318059294683,-0.967419034004961,0.));
#808=DIRECTION('ref_axis',(0.967419034004961,0.25318059294683,0.));
#809=DIRECTION('',(0.,0.,-1.));
#810=DIRECTION('',(0.967419034004961,0.25318059294683,0.));
#811=DIRECTION('',(0.,0.,1.));
#812=DIRECTION('',(-0.967419034004961,-0.25318059294683,0.));
#813=DIRECTION('center_axis',(-0.25318059294683,0.967419034004961,0.));
#814=DIRECTION('ref_axis',(-0.967419034004961,-0.25318059294683,0.));
#815=DIRECTION('',(-0.967419034004961,-0.25318059294683,0.));
#816=DIRECTION('',(0.,0.,1.));
#817=DIRECTION('',(-0.967419034004961,-0.25318059294683,0.));
#818=DIRECTION('',(0.,0.,1.));
#819=DIRECTION('center_axis',(0.967419034004961,0.253180592946831,0.));
#820=DIRECTION('ref_axis',(-0.253180592946831,0.967419034004961,0.));
#821=DIRECTION('',(0.,0.,1.));
#822=DIRECTION('',(0.253180592946831,-0.967419034004961,0.));
#823=DIRECTION('',(-0.253180592946831,0.967419034004961,0.));
#824=DIRECTION('center_axis',(0.900584920592791,0.434680113187705,0.));
#825=DIRECTION('ref_axis',(-0.434680113187705,0.900584920592791,0.));
#826=DIRECTION('',(0.434680113187705,-0.900584920592791,0.));
#827=DIRECTION('',(-0.434680113187705,0.900584920592791,0.));
#828=DIRECTION('',(0.,0.,1.));
#829=DIRECTION('center_axis',(0.,0.,1.));
#830=DIRECTION('ref_axis',(0.51082078647132,-0.859687224581604,0.));
#831=DIRECTION('center_axis',(0.,0.,1.));
#832=DIRECTION('ref_axis',(-1.,0.,0.));
#833=DIRECTION('center_axis',(0.,0.,1.));
#834=DIRECTION('ref_axis',(-1.,0.,0.));
#835=DIRECTION('',(0.,0.,1.));
#836=DIRECTION('center_axis',(-0.900584920592791,-0.434680113187705,0.));
#837=DIRECTION('ref_axis',(0.434680113187705,-0.900584920592791,0.));
#838=DIRECTION('',(0.434680113187705,-0.900584920592791,0.));
#839=DIRECTION('',(0.434680113187705,-0.900584920592791,0.));
#840=DIRECTION('center_axis',(0.,0.,1.));
#841=DIRECTION('ref_axis',(1.,0.,0.));
#842=DIRECTION('center_axis',(0.,0.,1.));
#843=DIRECTION('ref_axis',(1.,0.,0.));
#844=DIRECTION('center_axis',(0.,0.,1.));
#845=DIRECTION('ref_axis',(1.,0.,0.));
#846=DIRECTION('center_axis',(0.,0.,1.));
#847=DIRECTION('ref_axis',(1.,0.,0.));
#848=DIRECTION('center_axis',(0.,0.,1.));
#849=DIRECTION('ref_axis',(1.,0.,0.));
#850=DIRECTION('center_axis',(0.,0.,1.));
#851=DIRECTION('ref_axis',(-0.5,0.866025403784439,0.));
#852=DIRECTION('center_axis',(0.,0.,1.));
#853=DIRECTION('ref_axis',(-0.5,0.866025403784439,0.));
#854=DIRECTION('',(0.,0.,-1.));
#855=DIRECTION('center_axis',(0.,0.,1.));
#856=DIRECTION('ref_axis',(-0.5,0.866025403784439,0.));
#857=DIRECTION('center_axis',(0.,0.,1.));
#858=DIRECTION('ref_axis',(-0.5,0.866025403784439,0.));
#859=DIRECTION('center_axis',(0.,0.,1.));
#860=DIRECTION('ref_axis',(-0.5,0.866025403784439,0.));
#861=DIRECTION('center_axis',(0.,0.,1.));
#862=DIRECTION('ref_axis',(-0.5,-0.866025403784438,0.));
#863=DIRECTION('center_axis',(0.,0.,1.));
#864=DIRECTION('ref_axis',(-0.5,-0.866025403784438,0.));
#865=DIRECTION('',(0.,0.,-1.));
#866=DIRECTION('center_axis',(0.,0.,1.));
#867=DIRECTION('ref_axis',(-0.5,-0.866025403784438,0.));
#868=DIRECTION('center_axis',(0.,0.,1.));
#869=DIRECTION('ref_axis',(-0.5,-0.866025403784438,0.));
#870=DIRECTION('center_axis',(0.,0.,1.));
#871=DIRECTION('ref_axis',(-0.5,-0.866025403784438,0.));
#872=DIRECTION('center_axis',(0.711219163079483,0.702970342239643,0.));
#873=DIRECTION('ref_axis',(-0.702970342239643,0.711219163079483,0.));
#874=DIRECTION('',(0.,0.,-1.));
#875=DIRECTION('',(-0.702970342239643,0.711219163079483,0.));
#876=DIRECTION('',(0.,0.,1.));
#877=DIRECTION('',(0.702970342239643,-0.711219163079483,0.));
#878=DIRECTION('center_axis',(-0.711219163079483,-0.702970342239642,0.));
#879=DIRECTION('ref_axis',(0.702970342239642,-0.711219163079483,0.));
#880=DIRECTION('',(0.702970342239642,-0.711219163079483,0.));
#881=DIRECTION('',(0.,0.,1.));
#882=DIRECTION('',(0.702970342239642,-0.711219163079483,0.));
#883=DIRECTION('',(0.,0.,1.));
#884=DIRECTION('center_axis',(-0.702970342239643,0.711219163079483,0.));
#885=DIRECTION('ref_axis',(-0.711219163079483,-0.702970342239643,0.));
#886=DIRECTION('',(0.,0.,1.));
#887=DIRECTION('',(0.711219163079483,0.702970342239643,0.));
#888=DIRECTION('',(-0.711219163079483,-0.702970342239643,0.));
#889=DIRECTION('center_axis',(-0.826736480836843,0.562589362904697,0.));
#890=DIRECTION('ref_axis',(-0.562589362904697,-0.826736480836843,0.));
#891=DIRECTION('',(0.562589362904697,0.826736480836843,0.));
#892=DIRECTION('',(-0.562589362904697,-0.826736480836843,0.));
#893=DIRECTION('',(0.,0.,1.));
#894=DIRECTION('center_axis',(0.,0.,1.));
#895=DIRECTION('ref_axis',(0.489100582560947,0.872227390156112,0.));
#896=DIRECTION('center_axis',(0.,0.,1.));
#897=DIRECTION('ref_axis',(0.5,-0.866025403784439,0.));
#898=DIRECTION('center_axis',(0.,0.,1.));
#899=DIRECTION('ref_axis',(0.5,-0.866025403784439,0.));
#900=DIRECTION('',(0.,0.,1.));
#901=DIRECTION('center_axis',(0.826736480836843,-0.562589362904697,0.));
#902=DIRECTION('ref_axis',(0.562589362904697,0.826736480836843,0.));
#903=DIRECTION('',(0.562589362904696,0.826736480836843,0.));
#904=DIRECTION('',(0.562589362904696,0.826736480836843,0.));
#905=DIRECTION('center_axis',(0.,0.,1.));
#906=DIRECTION('ref_axis',(-0.5,0.866025403784439,0.));
#907=DIRECTION('center_axis',(0.,0.,1.));
#908=DIRECTION('ref_axis',(-0.5,0.866025403784439,0.));
#909=DIRECTION('center_axis',(0.,0.,1.));
#910=DIRECTION('ref_axis',(-0.5,0.866025403784439,0.));
#911=DIRECTION('center_axis',(0.,0.,1.));
#912=DIRECTION('ref_axis',(-0.5,0.866025403784439,0.));
#913=DIRECTION('center_axis',(0.,0.,1.));
#914=DIRECTION('ref_axis',(-0.5,0.866025403784439,0.));
#915=DIRECTION('center_axis',(-0.964399756026313,0.264448691765318,0.));
#916=DIRECTION('ref_axis',(-0.264448691765318,-0.964399756026313,0.));
#917=DIRECTION('',(0.,0.,-1.));
#918=DIRECTION('',(-0.264448691765318,-0.964399756026313,0.));
#919=DIRECTION('',(0.,0.,1.));
#920=DIRECTION('',(0.264448691765318,0.964399756026313,0.));
#921=DIRECTION('center_axis',(0.964399756026313,-0.264448691765319,0.));
#922=DIRECTION('ref_axis',(0.264448691765319,0.964399756026313,0.));
#923=DIRECTION('',(0.264448691765319,0.964399756026313,0.));
#924=DIRECTION('',(0.,0.,1.));
#925=DIRECTION('',(0.264448691765319,0.964399756026313,0.));
#926=DIRECTION('',(0.,0.,1.));
#927=DIRECTION('center_axis',(-0.264448691765318,-0.964399756026313,0.));
#928=DIRECTION('ref_axis',(0.964399756026313,-0.264448691765318,0.));
#929=DIRECTION('',(0.,0.,1.));
#930=DIRECTION('',(-0.964399756026313,0.264448691765318,0.));
#931=DIRECTION('',(0.964399756026313,-0.264448691765318,0.));
#932=DIRECTION('center_axis',(-0.0738484397559488,-0.997269476092401,0.));
#933=DIRECTION('ref_axis',(0.997269476092401,-0.0738484397559488,0.));
#934=DIRECTION('',(-0.997269476092401,0.0738484397559488,0.));
#935=DIRECTION('',(0.997269476092401,-0.0738484397559488,0.));
#936=DIRECTION('',(0.,0.,1.));
#937=DIRECTION('center_axis',(0.,0.,1.));
#938=DIRECTION('ref_axis',(-0.999921369032267,-0.0125401655745069,0.));
#939=DIRECTION('center_axis',(0.,0.,1.));
#940=DIRECTION('ref_axis',(0.5,0.866025403784438,0.));
#941=DIRECTION('center_axis',(0.,0.,1.));
#942=DIRECTION('ref_axis',(0.5,0.866025403784438,0.));
#943=DIRECTION('',(0.,0.,1.));
#944=DIRECTION('center_axis',(0.0738484397559485,0.997269476092401,0.));
#945=DIRECTION('ref_axis',(-0.997269476092401,0.0738484397559485,0.));
#946=DIRECTION('',(-0.997269476092401,0.0738484397559485,0.));
#947=DIRECTION('',(-0.997269476092401,0.0738484397559485,0.));
#948=DIRECTION('center_axis',(0.,0.,1.));
#949=DIRECTION('ref_axis',(-0.5,-0.866025403784438,0.));
#950=DIRECTION('center_axis',(0.,0.,1.));
#951=DIRECTION('ref_axis',(-0.5,-0.866025403784438,0.));
#952=DIRECTION('center_axis',(0.,0.,1.));
#953=DIRECTION('ref_axis',(-0.5,-0.866025403784438,0.));
#954=DIRECTION('center_axis',(0.,0.,1.));
#955=DIRECTION('ref_axis',(-0.5,-0.866025403784438,0.));
#956=DIRECTION('center_axis',(0.,0.,1.));
#957=DIRECTION('ref_axis',(-0.5,-0.866025403784438,0.));
#958=CARTESIAN_POINT('',(0.,0.,0.));
#959=CARTESIAN_POINT('Origin',(0.,0.934094488188976,0.));
#960=CARTESIAN_POINT('',(-0.0807086614173228,0.934094488188976,0.2));
#961=CARTESIAN_POINT('Origin',(0.,0.934094488188976,0.2));
#962=CARTESIAN_POINT('',(-0.0807086614173228,0.934094488188976,0.));
#963=CARTESIAN_POINT('',(-0.0807086614173228,0.934094488188976,0.));
#964=CARTESIAN_POINT('Origin',(0.,0.934094488188976,0.));
#965=CARTESIAN_POINT('Origin',(0.,0.934094488188976,0.2));
#966=CARTESIAN_POINT('Origin',(0.,0.934094488188976,0.));
#967=CARTESIAN_POINT('Origin',(0.0787401574803149,-0.0590551181102362,0.));
#968=CARTESIAN_POINT('',(0.0787401574803149,-0.0590551181102362,0.));
#969=CARTESIAN_POINT('',(-0.078740157480315,-0.0590551181102362,0.));
#970=CARTESIAN_POINT('',(-0.0787401574803149,-0.0590551181102362,0.));
#971=CARTESIAN_POINT('',(-0.078740157480315,-0.0590551181102362,0.2));
#972=CARTESIAN_POINT('',(-0.078740157480315,-0.0590551181102362,0.));
#973=CARTESIAN_POINT('',(0.078740157480315,-0.0590551181102362,0.2));
#974=CARTESIAN_POINT('',(-0.0787401574803149,-0.0590551181102362,0.2));
#975=CARTESIAN_POINT('',(0.0787401574803149,-0.0590551181102362,0.));
#976=CARTESIAN_POINT('Origin',(0.,0.,0.));
#977=CARTESIAN_POINT('',(0.078740157480315,0.0590551181102362,0.));
#978=CARTESIAN_POINT('Origin',(0.,0.,0.));
#979=CARTESIAN_POINT('',(0.078740157480315,0.0590551181102362,0.2));
#980=CARTESIAN_POINT('Origin',(0.,0.,0.2));
#981=CARTESIAN_POINT('',(0.078740157480315,0.0590551181102362,0.));
#982=CARTESIAN_POINT('Origin',(-0.0787401574803149,0.0590551181102362,0.));
#983=CARTESIAN_POINT('',(-0.0787401574803149,0.0590551181102362,0.));
#984=CARTESIAN_POINT('',(-0.0787401574803149,0.0590551181102362,0.));
#985=CARTESIAN_POINT('',(-0.0787401574803149,0.0590551181102362,0.2));
#986=CARTESIAN_POINT('',(-0.0787401574803149,0.0590551181102362,0.2));
#987=CARTESIAN_POINT('',(-0.0787401574803149,0.0590551181102362,0.));
#988=CARTESIAN_POINT('Origin',(0.,0.,0.));
#989=CARTESIAN_POINT('Origin',(0.,0.,0.));
#990=CARTESIAN_POINT('Origin',(0.,0.,0.2));
#991=CARTESIAN_POINT('Origin',(0.,0.,0.));
#992=CARTESIAN_POINT('',(-0.20000000638286,-2.18547839493141E-17,0.2));
#993=CARTESIAN_POINT('Origin',(0.,0.,0.2));
#994=CARTESIAN_POINT('',(-0.20000000638286,-2.44929367646219E-17,0.));
#995=CARTESIAN_POINT('',(-0.20000000638286,-2.44929367646219E-17,0.));
#996=CARTESIAN_POINT('Origin',(0.,0.,0.));
#997=CARTESIAN_POINT('Origin',(0.,0.,0.2));
#998=CARTESIAN_POINT('Origin',(0.,0.,0.));
#999=CARTESIAN_POINT('Origin',(-0.358932978470308,0.820218081970369,0.2));
#1000=CARTESIAN_POINT('',(-0.0709316680010049,0.895590118276312,0.3));
#1001=CARTESIAN_POINT('',(-0.0709316680010049,0.895590118276312,0.2));
#1002=CARTESIAN_POINT('',(-0.0709316680010048,0.895590118276312,0.2));
#1003=CARTESIAN_POINT('',(-0.358932978470308,0.820218081970369,0.3));
#1004=CARTESIAN_POINT('',(0.00242935887374929,0.914789232238797,0.3));
#1005=CARTESIAN_POINT('',(-0.358932978470308,0.820218081970369,0.2));
#1006=CARTESIAN_POINT('',(-0.358932978470308,0.820218081970369,0.2));
#1007=CARTESIAN_POINT('',(0.00242935887374929,0.914789232238797,0.2));
#1008=CARTESIAN_POINT('Origin',(-0.0228887004209337,1.01153113563929,0.2));
#1009=CARTESIAN_POINT('',(-0.0228887004209337,1.01153113563929,0.2));
#1010=CARTESIAN_POINT('',(-0.501815429024613,0.886192529653851,0.2));
#1011=CARTESIAN_POINT('',(-0.0228887004209337,1.01153113563929,0.2));
#1012=CARTESIAN_POINT('',(-0.501815429024613,0.886192529653851,0.3));
#1013=CARTESIAN_POINT('',(-0.501815429024613,0.886192529653851,0.2));
#1014=CARTESIAN_POINT('',(-0.0228887004209338,1.01153113563929,0.3));
#1015=CARTESIAN_POINT('',(-0.0228887004209337,1.01153113563929,0.3));
#1016=CARTESIAN_POINT('',(-0.0228887004209337,1.01153113563929,0.2));
#1017=CARTESIAN_POINT('Origin',(0.00242935887374928,0.914789232238797,0.2));
#1018=CARTESIAN_POINT('',(-0.0228785985335464,1.01149253568965,0.2));
#1019=CARTESIAN_POINT('',(-0.0228785985335464,1.01149253568965,0.3));
#1020=CARTESIAN_POINT('',(-0.0228785985335464,1.01149253568965,0.2));
#1021=CARTESIAN_POINT('',(-0.0228887004209337,1.01153113563929,0.2));
#1022=CARTESIAN_POINT('',(-0.0228887004209337,1.01153113563929,0.3));
#1023=CARTESIAN_POINT('Origin',(-0.0557497401409758,0.192072822198659,0.2));
#1024=CARTESIAN_POINT('',(-0.0557497401409758,0.192072822198659,0.2));
#1025=CARTESIAN_POINT('',(-0.358932978470308,0.820218081970369,0.2));
#1026=CARTESIAN_POINT('',(-0.0557497401409758,0.192072822198659,0.3));
#1027=CARTESIAN_POINT('',(-0.358932978470308,0.820218081970369,0.3));
#1028=CARTESIAN_POINT('',(-0.0557497401409758,0.192072822198659,0.2));
#1029=CARTESIAN_POINT('Origin',(1.09273919746571E-17,0.,0.2));
#1030=CARTESIAN_POINT('',(-0.142040760581611,0.140799236100702,0.2));
#1031=CARTESIAN_POINT('Origin',(1.09273919746571E-17,0.,0.2));
#1032=CARTESIAN_POINT('',(-0.142040760581611,0.140799236100702,0.3));
#1033=CARTESIAN_POINT('Origin',(1.09273919746571E-17,0.,0.3));
#1034=CARTESIAN_POINT('',(-0.142040760581611,0.140799236100702,0.2));
#1035=CARTESIAN_POINT('Origin',(-0.501815429024613,0.886192529653851,0.2));
#1036=CARTESIAN_POINT('',(-0.501815429024613,0.886192529653851,0.2));
#1037=CARTESIAN_POINT('',(-0.501815429024613,0.886192529653851,0.3));
#1038=CARTESIAN_POINT('Origin',(0.,0.934094488188976,0.3));
#1039=CARTESIAN_POINT('Origin',(0.,0.934094488188976,0.3));
#1040=CARTESIAN_POINT('Origin',(0.,0.934094488188976,0.2));
#1041=CARTESIAN_POINT('Origin',(0.,0.934094488188976,0.2));
#1042=CARTESIAN_POINT('Origin',(0.,0.934094488188976,0.2));
#1043=CARTESIAN_POINT('Origin',(-0.808949556306677,-0.467047244094488,0.));
#1044=CARTESIAN_POINT('',(-0.768595225598015,-0.536942995187326,0.2));
#1045=CARTESIAN_POINT('Origin',(-0.808949556306677,-0.467047244094488,0.2));
#1046=CARTESIAN_POINT('',(-0.768595225598015,-0.536942995187326,0.));
#1047=CARTESIAN_POINT('',(-0.768595225598015,-0.536942995187326,0.));
#1048=CARTESIAN_POINT('Origin',(-0.808949556306677,-0.467047244094488,0.));
#1049=CARTESIAN_POINT('Origin',(-0.808949556306677,-0.467047244094488,0.2));
#1050=CARTESIAN_POINT('Origin',(-0.808949556306677,-0.467047244094488,0.));
#1051=CARTESIAN_POINT('Origin',(0.808949556306676,-0.467047244094489,0.));
#1052=CARTESIAN_POINT('',(0.849303887015338,-0.39715149300165,0.2));
#1053=CARTESIAN_POINT('Origin',(0.808949556306676,-0.467047244094489,0.2));
#1054=CARTESIAN_POINT('',(0.849303887015338,-0.39715149300165,0.));
#1055=CARTESIAN_POINT('',(0.849303887015338,-0.39715149300165,0.));
#1056=CARTESIAN_POINT('Origin',(0.808949556306676,-0.467047244094489,0.));
#1057=CARTESIAN_POINT('Origin',(0.808949556306676,-0.467047244094489,0.2));
#1058=CARTESIAN_POINT('Origin',(0.808949556306676,-0.467047244094489,0.));
#1059=CARTESIAN_POINT('Origin',(-0.530863206394533,-0.720954118596484,0.2));
#1060=CARTESIAN_POINT('',(-0.740137959805094,-0.50922368555983,0.3));
#1061=CARTESIAN_POINT('',(-0.740137959805094,-0.50922368555983,0.2));
#1062=CARTESIAN_POINT('',(-0.740137959805094,-0.50922368555983,0.2));
#1063=CARTESIAN_POINT('',(-0.530863206394533,-0.720954118596484,0.3));
#1064=CARTESIAN_POINT('',(-0.793445393664136,-0.455290729619822,0.3));
#1065=CARTESIAN_POINT('',(-0.530863206394533,-0.720954118596484,0.2));
#1066=CARTESIAN_POINT('',(-0.530863206394533,-0.720954118596484,0.2));
#1067=CARTESIAN_POINT('',(-0.793445393664136,-0.455290729619822,0.2));
#1068=CARTESIAN_POINT('Origin',(-0.864567309972084,-0.525587763843787,0.2));
#1069=CARTESIAN_POINT('',(-0.864567309972084,-0.525587763843787,0.2));
#1070=CARTESIAN_POINT('',(-0.516557528811923,-0.877681174373227,0.2));
#1071=CARTESIAN_POINT('',(-0.864567309972084,-0.525587763843787,0.2));
#1072=CARTESIAN_POINT('',(-0.516557528811923,-0.877681174373227,0.3));
#1073=CARTESIAN_POINT('',(-0.516557528811923,-0.877681174373227,0.2));
#1074=CARTESIAN_POINT('',(-0.864567309972084,-0.525587763843787,0.3));
#1075=CARTESIAN_POINT('',(-0.864567309972084,-0.525587763843787,0.3));
#1076=CARTESIAN_POINT('',(-0.864567309972084,-0.525587763843787,0.2));
#1077=CARTESIAN_POINT('Origin',(-0.793445393664136,-0.455290729619822,0.2));
#1078=CARTESIAN_POINT('',(-0.864538932378804,-0.525559715377862,0.2));
#1079=CARTESIAN_POINT('',(-0.864538932378804,-0.525559715377862,0.3));
#1080=CARTESIAN_POINT('',(-0.864538932378804,-0.525559715377862,0.2));
#1081=CARTESIAN_POINT('',(-0.864567309972084,-0.525587763843787,0.2));
#1082=CARTESIAN_POINT('',(-0.864567309972084,-0.525587763843787,0.3));
#1083=CARTESIAN_POINT('Origin',(-0.138465073330122,-0.144317102315795,0.2));
#1084=CARTESIAN_POINT('',(-0.138465073330122,-0.144317102315795,0.2));
#1085=CARTESIAN_POINT('',(-0.530863206394533,-0.720954118596484,0.2));
#1086=CARTESIAN_POINT('',(-0.138465073330122,-0.144317102315795,0.3));
#1087=CARTESIAN_POINT('',(-0.530863206394533,-0.720954118596484,0.3));
#1088=CARTESIAN_POINT('',(-0.138465073330122,-0.144317102315795,0.2));
#1089=CARTESIAN_POINT('Origin',(-5.46369598732852E-18,9.46339904716321E-18,
0.2));
#1090=CARTESIAN_POINT('',(-0.0509153350058456,-0.19341052508689,0.2));
#1091=CARTESIAN_POINT('Origin',(-5.46369598732852E-18,9.46339904716321E-18,
0.2));
#1092=CARTESIAN_POINT('',(-0.0509153350058456,-0.19341052508689,0.3));
#1093=CARTESIAN_POINT('Origin',(-5.46369598732852E-18,9.46339904716321E-18,
0.3));
#1094=CARTESIAN_POINT('',(-0.0509153350058456,-0.19341052508689,0.2));
#1095=CARTESIAN_POINT('Origin',(-0.516557528811923,-0.877681174373227,0.2));
#1096=CARTESIAN_POINT('',(-0.516557528811923,-0.877681174373227,0.2));
#1097=CARTESIAN_POINT('',(-0.516557528811923,-0.877681174373227,0.3));
#1098=CARTESIAN_POINT('Origin',(-0.808949556306677,-0.467047244094488,0.3));
#1099=CARTESIAN_POINT('Origin',(-0.808949556306677,-0.467047244094488,0.3));
#1100=CARTESIAN_POINT('Origin',(-0.808949556306677,-0.467047244094488,0.2));
#1101=CARTESIAN_POINT('Origin',(-0.808949556306677,-0.467047244094488,0.2));
#1102=CARTESIAN_POINT('Origin',(-0.808949556306677,-0.467047244094488,0.2));
#1103=CARTESIAN_POINT('Origin',(0.88979618486484,-0.0992639633738849,0.2));
#1104=CARTESIAN_POINT('',(0.811069627806099,-0.386366432716483,0.3));
#1105=CARTESIAN_POINT('',(0.811069627806099,-0.386366432716483,0.2));
#1106=CARTESIAN_POINT('',(0.811069627806098,-0.386366432716483,0.2));
#1107=CARTESIAN_POINT('',(0.88979618486484,-0.0992639633738849,0.3));
#1108=CARTESIAN_POINT('',(0.791016034790386,-0.459498502618975,0.3));
#1109=CARTESIAN_POINT('',(0.88979618486484,-0.0992639633738849,0.2));
#1110=CARTESIAN_POINT('',(0.88979618486484,-0.0992639633738849,0.2));
#1111=CARTESIAN_POINT('',(0.791016034790386,-0.459498502618975,0.2));
#1112=CARTESIAN_POINT('Origin',(0.887456010393017,-0.485943371795507,0.2));
#1113=CARTESIAN_POINT('',(0.887456010393017,-0.485943371795507,0.2));
#1114=CARTESIAN_POINT('',(1.01837295783654,-0.00851135528062384,0.2));
#1115=CARTESIAN_POINT('',(0.887456010393017,-0.485943371795507,0.2));
#1116=CARTESIAN_POINT('',(1.01837295783654,-0.00851135528062384,0.3));
#1117=CARTESIAN_POINT('',(1.01837295783654,-0.00851135528062384,0.2));
#1118=CARTESIAN_POINT('',(0.887456010393017,-0.485943371795507,0.3));
#1119=CARTESIAN_POINT('',(0.887456010393017,-0.485943371795507,0.3));
#1120=CARTESIAN_POINT('',(0.887456010393017,-0.485943371795507,0.2));
#1121=CARTESIAN_POINT('Origin',(0.791016034790386,-0.459498502618975,0.2));
#1122=CARTESIAN_POINT('',(0.88741753091235,-0.48593282031179,0.2));
#1123=CARTESIAN_POINT('',(0.88741753091235,-0.48593282031179,0.3));
#1124=CARTESIAN_POINT('',(0.88741753091235,-0.48593282031179,0.2));
#1125=CARTESIAN_POINT('',(0.887456010393017,-0.485943371795507,0.2));
#1126=CARTESIAN_POINT('',(0.887456010393017,-0.485943371795507,0.3));
#1127=CARTESIAN_POINT('Origin',(0.194214813471098,-0.0477557198828633,0.2));
#1128=CARTESIAN_POINT('',(0.194214813471098,-0.0477557198828633,0.2));
#1129=CARTESIAN_POINT('',(0.88979618486484,-0.0992639633738849,0.2));
#1130=CARTESIAN_POINT('',(0.194214813471098,-0.0477557198828633,0.3));
#1131=CARTESIAN_POINT('',(0.88979618486484,-0.0992639633738849,0.3));
#1132=CARTESIAN_POINT('',(0.194214813471098,-0.0477557198828633,0.2));
#1133=CARTESIAN_POINT('Origin',(-5.46369598732853E-18,-9.4633990471632E-18,
0.2));
#1134=CARTESIAN_POINT('',(0.192956095587457,0.0526112889861875,0.2));
#1135=CARTESIAN_POINT('Origin',(-5.46369598732853E-18,-9.4633990471632E-18,
0.2));
#1136=CARTESIAN_POINT('',(0.192956095587457,0.0526112889861875,0.3));
#1137=CARTESIAN_POINT('Origin',(-5.46369598732853E-18,-9.4633990471632E-18,
0.3));
#1138=CARTESIAN_POINT('',(0.192956095587457,0.0526112889861875,0.2));
#1139=CARTESIAN_POINT('Origin',(1.01837295783654,-0.00851135528062384,0.2));
#1140=CARTESIAN_POINT('',(1.01837295783654,-0.00851135528062384,0.2));
#1141=CARTESIAN_POINT('',(1.01837295783654,-0.00851135528062384,0.3));
#1142=CARTESIAN_POINT('Origin',(0.808949556306676,-0.467047244094489,0.3));
#1143=CARTESIAN_POINT('Origin',(0.808949556306676,-0.467047244094489,0.3));
#1144=CARTESIAN_POINT('Origin',(0.808949556306676,-0.467047244094489,0.2));
#1145=CARTESIAN_POINT('Origin',(0.808949556306676,-0.467047244094489,0.2));
#1146=CARTESIAN_POINT('Origin',(0.808949556306676,-0.467047244094489,0.2));
#1147=UNCERTAINTY_MEASURE_WITH_UNIT(LENGTH_MEASURE(0.000393700787401575),
#1152,'DISTANCE_ACCURACY_VALUE',
'Maximum model space distance between geometric entities at asserted c
onnectivities');
#1148=UNCERTAINTY_MEASURE_WITH_UNIT(LENGTH_MEASURE(0.000393700787401575),
#1152,'DISTANCE_ACCURACY_VALUE',
'Maximum model space distance between geometric entities at asserted c
onnectivities');
#1149=(
GEOMETRIC_REPRESENTATION_CONTEXT(3)
GLOBAL_UNCERTAINTY_ASSIGNED_CONTEXT((#1147))
GLOBAL_UNIT_ASSIGNED_CONTEXT((#1152,#1156,#1157))
REPRESENTATION_CONTEXT('','3D')
);
#1150=(
GEOMETRIC_REPRESENTATION_CONTEXT(3)
GLOBAL_UNCERTAINTY_ASSIGNED_CONTEXT((#1148))
GLOBAL_UNIT_ASSIGNED_CONTEXT((#1152,#1156,#1157))
REPRESENTATION_CONTEXT('','3D')
);
#1151=DIMENSIONAL_EXPONENTS(1.,0.,0.,0.,0.,0.,0.);
#1152=(
CONVERSION_BASED_UNIT('inch',#1155)
LENGTH_UNIT()
NAMED_UNIT(#1151)
);
#1153=(
LENGTH_UNIT()
NAMED_UNIT(*)
SI_UNIT(.MILLI.,.METRE.)
);
#1154=(
LENGTH_UNIT()
NAMED_UNIT(*)
SI_UNIT($,.METRE.)
);
#1155=LENGTH_MEASURE_WITH_UNIT(LENGTH_MEASURE(25.4),#1153);
#1156=(
NAMED_UNIT(*)
PLANE_ANGLE_UNIT()
SI_UNIT($,.RADIAN.)
);
#1157=(
NAMED_UNIT(*)
SI_UNIT($,.STERADIAN.)
SOLID_ANGLE_UNIT()
);
#1158=SHAPE_DEFINITION_REPRESENTATION(#1159,#1160);
#1159=PRODUCT_DEFINITION_SHAPE('',$,#1162);
#1160=SHAPE_REPRESENTATION('',(#691),#1149);
#1161=PRODUCT_DEFINITION_CONTEXT('part definition',#1166,'design');
#1162=PRODUCT_DEFINITION('2026-04-22-23-42-39-207','bearing rotor v1',#1163,
#1161);
#1163=PRODUCT_DEFINITION_FORMATION('',$,#1168);
#1164=PRODUCT_RELATED_PRODUCT_CATEGORY('bearing rotor v1',
'bearing rotor v1',(#1168));
#1165=APPLICATION_PROTOCOL_DEFINITION('international standard',
'automotive_design',2009,#1166);
#1166=APPLICATION_CONTEXT(
'Core Data for Automotive Mechanical Design Process');
#1167=PRODUCT_CONTEXT('part definition',#1166,'mechanical');
#1168=PRODUCT('2026-04-22-23-42-39-207','bearing rotor v1',$,(#1167));
#1169=PRESENTATION_STYLE_ASSIGNMENT((#1170));
#1170=SURFACE_STYLE_USAGE(.BOTH.,#1171);
#1171=SURFACE_SIDE_STYLE('',(#1172));
#1172=SURFACE_STYLE_FILL_AREA(#1173);
#1173=FILL_AREA_STYLE('Steel - Satin',(#1174));
#1174=FILL_AREA_STYLE_COLOUR('Steel - Satin',#1175);
#1175=COLOUR_RGB('Steel - Satin',0.627450980392157,0.627450980392157,0.627450980392157);
ENDSEC;
END-ISO-10303-21;
