ISO-10303-21;
HEADER;
/* Generated by software containing ST-Developer
 * from STEP Tools, Inc. (www.steptools.com) 
 */

FILE_DESCRIPTION(
/* description */ (''),
/* implementation_level */ '2;1');

FILE_NAME(
/* name */ 'bearing rotor.step',
/* time_stamp */ '2026-04-23T00:10:10-05:00',
/* author */ (''),
/* organization */ (''),
/* preprocessor_version */ 'ST-DEVELOPER v20.1',
/* originating_system */ 'Autodesk Translation Framework v15.8.0.0',
/* authorisation */ '');

FILE_SCHEMA (('AUTOMOTIVE_DESIGN { 1 0 10303 214 3 1 1 }'));
ENDSEC;

DATA;
#10=MECHANICAL_DESIGN_GEOMETRIC_PRESENTATION_REPRESENTATION('',(#13),#948);
#11=SHAPE_REPRESENTATION_RELATIONSHIP('SRR','None',#958,#12);
#12=ADVANCED_BREP_SHAPE_REPRESENTATION('',(#14),#947);
#13=STYLED_ITEM('',(#967),#14);
#14=MANIFOLD_SOLID_BREP('Body1',#556);
#15=FACE_BOUND('',#85,.T.);
#16=FACE_BOUND('',#87,.T.);
#17=FACE_BOUND('',#89,.T.);
#18=FACE_BOUND('',#102,.T.);
#19=FACE_BOUND('',#111,.T.);
#20=PLANE('',#573);
#21=PLANE('',#574);
#22=PLANE('',#582);
#23=PLANE('',#586);
#24=PLANE('',#587);
#25=PLANE('',#589);
#26=PLANE('',#592);
#27=PLANE('',#594);
#28=PLANE('',#595);
#29=PLANE('',#596);
#30=PLANE('',#597);
#31=PLANE('',#598);
#32=PLANE('',#599);
#33=PLANE('',#600);
#34=PLANE('',#601);
#35=PLANE('',#602);
#36=PLANE('',#606);
#37=PLANE('',#609);
#38=PLANE('',#611);
#39=PLANE('',#612);
#40=PLANE('',#613);
#41=PLANE('',#614);
#42=PLANE('',#617);
#43=PLANE('',#620);
#44=PLANE('',#623);
#45=FACE_OUTER_BOUND('',#77,.T.);
#46=FACE_OUTER_BOUND('',#78,.T.);
#47=FACE_OUTER_BOUND('',#79,.T.);
#48=FACE_OUTER_BOUND('',#80,.T.);
#49=FACE_OUTER_BOUND('',#81,.T.);
#50=FACE_OUTER_BOUND('',#82,.T.);
#51=FACE_OUTER_BOUND('',#83,.T.);
#52=FACE_OUTER_BOUND('',#84,.T.);
#53=FACE_OUTER_BOUND('',#86,.T.);
#54=FACE_OUTER_BOUND('',#88,.T.);
#55=FACE_OUTER_BOUND('',#90,.T.);
#56=FACE_OUTER_BOUND('',#91,.T.);
#57=FACE_OUTER_BOUND('',#92,.T.);
#58=FACE_OUTER_BOUND('',#93,.T.);
#59=FACE_OUTER_BOUND('',#94,.T.);
#60=FACE_OUTER_BOUND('',#95,.T.);
#61=FACE_OUTER_BOUND('',#96,.T.);
#62=FACE_OUTER_BOUND('',#97,.T.);
#63=FACE_OUTER_BOUND('',#98,.T.);
#64=FACE_OUTER_BOUND('',#99,.T.);
#65=FACE_OUTER_BOUND('',#100,.T.);
#66=FACE_OUTER_BOUND('',#101,.T.);
#67=FACE_OUTER_BOUND('',#103,.T.);
#68=FACE_OUTER_BOUND('',#104,.T.);
#69=FACE_OUTER_BOUND('',#105,.T.);
#70=FACE_OUTER_BOUND('',#106,.T.);
#71=FACE_OUTER_BOUND('',#107,.T.);
#72=FACE_OUTER_BOUND('',#108,.T.);
#73=FACE_OUTER_BOUND('',#109,.T.);
#74=FACE_OUTER_BOUND('',#110,.T.);
#75=FACE_OUTER_BOUND('',#112,.T.);
#76=FACE_OUTER_BOUND('',#113,.T.);
#77=EDGE_LOOP('',(#367,#368,#369,#370));
#78=EDGE_LOOP('',(#371));
#79=EDGE_LOOP('',(#372,#373,#374,#375,#376,#377,#378,#379,#380,#381,#382,
#383,#384,#385,#386,#387));
#80=EDGE_LOOP('',(#388,#389,#390,#391));
#81=EDGE_LOOP('',(#392));
#82=EDGE_LOOP('',(#393,#394,#395,#396));
#83=EDGE_LOOP('',(#397));
#84=EDGE_LOOP('',(#398,#399,#400,#401));
#85=EDGE_LOOP('',(#402));
#86=EDGE_LOOP('',(#403,#404,#405,#406,#407));
#87=EDGE_LOOP('',(#408));
#88=EDGE_LOOP('',(#409,#410,#411,#412));
#89=EDGE_LOOP('',(#413));
#90=EDGE_LOOP('',(#414,#415,#416,#417));
#91=EDGE_LOOP('',(#418,#419,#420,#421));
#92=EDGE_LOOP('',(#422,#423,#424,#425));
#93=EDGE_LOOP('',(#426,#427,#428,#429));
#94=EDGE_LOOP('',(#430,#431,#432,#433));
#95=EDGE_LOOP('',(#434,#435,#436,#437));
#96=EDGE_LOOP('',(#438,#439,#440,#441));
#97=EDGE_LOOP('',(#442,#443,#444,#445));
#98=EDGE_LOOP('',(#446,#447,#448,#449));
#99=EDGE_LOOP('',(#450,#451,#452,#453,#454,#455,#456,#457,#458,#459,#460,
#461,#462,#463,#464,#465,#466,#467,#468,#469));
#100=EDGE_LOOP('',(#470,#471,#472,#473));
#101=EDGE_LOOP('',(#474,#475,#476,#477));
#102=EDGE_LOOP('',(#478));
#103=EDGE_LOOP('',(#479,#480,#481,#482));
#104=EDGE_LOOP('',(#483,#484,#485,#486));
#105=EDGE_LOOP('',(#487,#488,#489,#490));
#106=EDGE_LOOP('',(#491,#492,#493,#494));
#107=EDGE_LOOP('',(#495,#496,#497,#498));
#108=EDGE_LOOP('',(#499,#500,#501,#502));
#109=EDGE_LOOP('',(#503,#504,#505,#506));
#110=EDGE_LOOP('',(#507));
#111=EDGE_LOOP('',(#508,#509,#510,#511));
#112=EDGE_LOOP('',(#512,#513,#514,#515));
#113=EDGE_LOOP('',(#516));
#114=LINE('',#792,#167);
#115=LINE('',#798,#168);
#116=LINE('',#800,#169);
#117=LINE('',#802,#170);
#118=LINE('',#806,#171);
#119=LINE('',#808,#172);
#120=LINE('',#810,#173);
#121=LINE('',#814,#174);
#122=LINE('',#816,#175);
#123=LINE('',#818,#176);
#124=LINE('',#822,#177);
#125=LINE('',#824,#178);
#126=LINE('',#826,#179);
#127=LINE('',#832,#180);
#128=LINE('',#839,#181);
#129=LINE('',#847,#182);
#130=LINE('',#849,#183);
#131=LINE('',#850,#184);
#132=LINE('',#856,#185);
#133=LINE('',#858,#186);
#134=LINE('',#860,#187);
#135=LINE('',#867,#188);
#136=LINE('',#869,#189);
#137=LINE('',#870,#190);
#138=LINE('',#872,#191);
#139=LINE('',#873,#192);
#140=LINE('',#875,#193);
#141=LINE('',#877,#194);
#142=LINE('',#879,#195);
#143=LINE('',#880,#196);
#144=LINE('',#882,#197);
#145=LINE('',#884,#198);
#146=LINE('',#886,#199);
#147=LINE('',#887,#200);
#148=LINE('',#889,#201);
#149=LINE('',#891,#202);
#150=LINE('',#896,#203);
#151=LINE('',#898,#204);
#152=LINE('',#900,#205);
#153=LINE('',#904,#206);
#154=LINE('',#908,#207);
#155=LINE('',#912,#208);
#156=LINE('',#914,#209);
#157=LINE('',#915,#210);
#158=LINE('',#919,#211);
#159=LINE('',#921,#212);
#160=LINE('',#926,#213);
#161=LINE('',#927,#214);
#162=LINE('',#928,#215);
#163=LINE('',#932,#216);
#164=LINE('',#935,#217);
#165=LINE('',#936,#218);
#166=LINE('',#942,#219);
#167=VECTOR('',#630,0.078740157480315);
#168=VECTOR('',#637,0.393700787401575);
#169=VECTOR('',#638,0.393700787401575);
#170=VECTOR('',#639,0.393700787401575);
#171=VECTOR('',#642,0.393700787401575);
#172=VECTOR('',#643,0.393700787401575);
#173=VECTOR('',#644,0.393700787401575);
#174=VECTOR('',#647,0.393700787401575);
#175=VECTOR('',#648,0.393700787401575);
#176=VECTOR('',#649,0.393700787401575);
#177=VECTOR('',#652,0.393700787401575);
#178=VECTOR('',#653,0.393700787401575);
#179=VECTOR('',#654,0.393700787401575);
#180=VECTOR('',#661,0.078740157480315);
#181=VECTOR('',#670,0.078740157480315);
#182=VECTOR('',#679,0.393700787401575);
#183=VECTOR('',#680,0.393700787401575);
#184=VECTOR('',#681,0.393700787401575);
#185=VECTOR('',#686,0.393700787401575);
#186=VECTOR('',#687,0.393700787401575);
#187=VECTOR('',#688,0.393700787401575);
#188=VECTOR('',#695,0.393700787401575);
#189=VECTOR('',#696,0.393700787401575);
#190=VECTOR('',#697,0.393700787401575);
#191=VECTOR('',#700,0.393700787401575);
#192=VECTOR('',#701,0.393700787401575);
#193=VECTOR('',#704,0.393700787401575);
#194=VECTOR('',#707,0.393700787401575);
#195=VECTOR('',#710,0.393700787401575);
#196=VECTOR('',#711,0.393700787401575);
#197=VECTOR('',#714,0.393700787401575);
#198=VECTOR('',#717,0.393700787401575);
#199=VECTOR('',#720,0.393700787401575);
#200=VECTOR('',#721,0.393700787401575);
#201=VECTOR('',#724,0.393700787401575);
#202=VECTOR('',#727,0.393700787401575);
#203=VECTOR('',#732,0.393700787401575);
#204=VECTOR('',#733,0.20000000638286);
#205=VECTOR('',#736,0.393700787401575);
#206=VECTOR('',#739,0.393700787401575);
#207=VECTOR('',#742,0.393700787401575);
#208=VECTOR('',#747,0.393700787401575);
#209=VECTOR('',#748,0.393700787401575);
#210=VECTOR('',#749,0.393700787401575);
#211=VECTOR('',#754,0.393700787401575);
#212=VECTOR('',#757,0.393700787401575);
#213=VECTOR('',#762,0.393700787401575);
#214=VECTOR('',#763,0.393700787401575);
#215=VECTOR('',#764,0.393700787401575);
#216=VECTOR('',#769,0.393700787401575);
#217=VECTOR('',#772,0.393700787401575);
#218=VECTOR('',#773,0.393700787401575);
#219=VECTOR('',#782,0.078740157480315);
#220=CIRCLE('',#571,0.078740157480315);
#221=CIRCLE('',#572,0.078740157480315);
#222=CIRCLE('',#575,0.20000000638286);
#223=CIRCLE('',#576,0.20000000638286);
#224=CIRCLE('',#577,0.20000000638286);
#225=CIRCLE('',#578,0.20000000638286);
#226=CIRCLE('',#580,0.078740157480315);
#227=CIRCLE('',#581,0.078740157480315);
#228=CIRCLE('',#584,0.078740157480315);
#229=CIRCLE('',#585,0.078740157480315);
#230=CIRCLE('',#588,0.20000000638286);
#231=CIRCLE('',#590,0.20000000638286);
#232=CIRCLE('',#591,0.20000000638286);
#233=CIRCLE('',#593,0.20000000638286);
#234=CIRCLE('',#604,0.20000000638286);
#235=CIRCLE('',#605,0.20000000638286);
#236=CIRCLE('',#607,0.0984251968503937);
#237=CIRCLE('',#608,0.0984251968503937);
#238=CIRCLE('',#610,0.078740157480315);
#239=CIRCLE('',#616,0.0984251968503937);
#240=CIRCLE('',#619,0.0984251968503937);
#241=CIRCLE('',#622,0.078740157480315);
#242=VERTEX_POINT('',#789);
#243=VERTEX_POINT('',#791);
#244=VERTEX_POINT('',#796);
#245=VERTEX_POINT('',#797);
#246=VERTEX_POINT('',#799);
#247=VERTEX_POINT('',#801);
#248=VERTEX_POINT('',#803);
#249=VERTEX_POINT('',#805);
#250=VERTEX_POINT('',#807);
#251=VERTEX_POINT('',#809);
#252=VERTEX_POINT('',#811);
#253=VERTEX_POINT('',#813);
#254=VERTEX_POINT('',#815);
#255=VERTEX_POINT('',#817);
#256=VERTEX_POINT('',#819);
#257=VERTEX_POINT('',#821);
#258=VERTEX_POINT('',#823);
#259=VERTEX_POINT('',#825);
#260=VERTEX_POINT('',#829);
#261=VERTEX_POINT('',#831);
#262=VERTEX_POINT('',#836);
#263=VERTEX_POINT('',#838);
#264=VERTEX_POINT('',#843);
#265=VERTEX_POINT('',#844);
#266=VERTEX_POINT('',#846);
#267=VERTEX_POINT('',#848);
#268=VERTEX_POINT('',#852);
#269=VERTEX_POINT('',#853);
#270=VERTEX_POINT('',#855);
#271=VERTEX_POINT('',#857);
#272=VERTEX_POINT('',#859);
#273=VERTEX_POINT('',#863);
#274=VERTEX_POINT('',#864);
#275=VERTEX_POINT('',#866);
#276=VERTEX_POINT('',#868);
#277=VERTEX_POINT('',#893);
#278=VERTEX_POINT('',#894);
#279=VERTEX_POINT('',#897);
#280=VERTEX_POINT('',#902);
#281=VERTEX_POINT('',#903);
#282=VERTEX_POINT('',#905);
#283=VERTEX_POINT('',#907);
#284=VERTEX_POINT('',#911);
#285=VERTEX_POINT('',#913);
#286=VERTEX_POINT('',#916);
#287=VERTEX_POINT('',#924);
#288=VERTEX_POINT('',#925);
#289=VERTEX_POINT('',#930);
#290=VERTEX_POINT('',#934);
#291=VERTEX_POINT('',#941);
#292=EDGE_CURVE('',#242,#242,#220,.T.);
#293=EDGE_CURVE('',#242,#243,#114,.T.);
#294=EDGE_CURVE('',#243,#243,#221,.T.);
#295=EDGE_CURVE('',#244,#245,#115,.T.);
#296=EDGE_CURVE('',#245,#246,#116,.T.);
#297=EDGE_CURVE('',#246,#247,#117,.T.);
#298=EDGE_CURVE('',#247,#248,#222,.T.);
#299=EDGE_CURVE('',#248,#249,#118,.T.);
#300=EDGE_CURVE('',#249,#250,#119,.T.);
#301=EDGE_CURVE('',#250,#251,#120,.T.);
#302=EDGE_CURVE('',#251,#252,#223,.T.);
#303=EDGE_CURVE('',#252,#253,#121,.T.);
#304=EDGE_CURVE('',#253,#254,#122,.T.);
#305=EDGE_CURVE('',#254,#255,#123,.T.);
#306=EDGE_CURVE('',#255,#256,#224,.T.);
#307=EDGE_CURVE('',#256,#257,#124,.T.);
#308=EDGE_CURVE('',#257,#258,#125,.T.);
#309=EDGE_CURVE('',#258,#259,#126,.T.);
#310=EDGE_CURVE('',#259,#244,#225,.T.);
#311=EDGE_CURVE('',#260,#260,#226,.T.);
#312=EDGE_CURVE('',#260,#261,#127,.T.);
#313=EDGE_CURVE('',#261,#261,#227,.T.);
#314=EDGE_CURVE('',#262,#262,#228,.T.);
#315=EDGE_CURVE('',#262,#263,#128,.T.);
#316=EDGE_CURVE('',#263,#263,#229,.T.);
#317=EDGE_CURVE('',#264,#265,#230,.T.);
#318=EDGE_CURVE('',#264,#266,#129,.T.);
#319=EDGE_CURVE('',#266,#267,#130,.T.);
#320=EDGE_CURVE('',#267,#265,#131,.T.);
#321=EDGE_CURVE('',#268,#269,#231,.T.);
#322=EDGE_CURVE('',#268,#270,#132,.T.);
#323=EDGE_CURVE('',#270,#271,#133,.T.);
#324=EDGE_CURVE('',#271,#272,#134,.T.);
#325=EDGE_CURVE('',#269,#272,#232,.T.);
#326=EDGE_CURVE('',#273,#274,#233,.T.);
#327=EDGE_CURVE('',#273,#275,#135,.T.);
#328=EDGE_CURVE('',#275,#276,#136,.T.);
#329=EDGE_CURVE('',#276,#274,#137,.T.);
#330=EDGE_CURVE('',#259,#264,#138,.T.);
#331=EDGE_CURVE('',#266,#258,#139,.T.);
#332=EDGE_CURVE('',#267,#257,#140,.T.);
#333=EDGE_CURVE('',#265,#256,#141,.T.);
#334=EDGE_CURVE('',#255,#273,#142,.T.);
#335=EDGE_CURVE('',#275,#254,#143,.T.);
#336=EDGE_CURVE('',#276,#253,#144,.T.);
#337=EDGE_CURVE('',#274,#252,#145,.T.);
#338=EDGE_CURVE('',#251,#268,#146,.T.);
#339=EDGE_CURVE('',#270,#250,#147,.T.);
#340=EDGE_CURVE('',#271,#249,#148,.T.);
#341=EDGE_CURVE('',#272,#248,#149,.T.);
#342=EDGE_CURVE('',#277,#278,#234,.T.);
#343=EDGE_CURVE('',#277,#244,#150,.T.);
#344=EDGE_CURVE('',#269,#279,#151,.T.);
#345=EDGE_CURVE('',#279,#279,#235,.T.);
#346=EDGE_CURVE('',#278,#247,#152,.T.);
#347=EDGE_CURVE('',#280,#281,#153,.T.);
#348=EDGE_CURVE('',#281,#282,#236,.T.);
#349=EDGE_CURVE('',#282,#283,#154,.T.);
#350=EDGE_CURVE('',#283,#280,#237,.T.);
#351=EDGE_CURVE('',#278,#284,#155,.T.);
#352=EDGE_CURVE('',#284,#285,#156,.T.);
#353=EDGE_CURVE('',#285,#277,#157,.T.);
#354=EDGE_CURVE('',#286,#286,#238,.T.);
#355=EDGE_CURVE('',#284,#246,#158,.T.);
#356=EDGE_CURVE('',#285,#245,#159,.T.);
#357=EDGE_CURVE('',#287,#288,#160,.T.);
#358=EDGE_CURVE('',#288,#281,#161,.T.);
#359=EDGE_CURVE('',#287,#280,#162,.T.);
#360=EDGE_CURVE('',#289,#287,#239,.T.);
#361=EDGE_CURVE('',#289,#283,#163,.T.);
#362=EDGE_CURVE('',#290,#289,#164,.T.);
#363=EDGE_CURVE('',#290,#282,#165,.T.);
#364=EDGE_CURVE('',#288,#290,#240,.T.);
#365=EDGE_CURVE('',#286,#291,#166,.T.);
#366=EDGE_CURVE('',#291,#291,#241,.T.);
#367=ORIENTED_EDGE('',*,*,#292,.F.);
#368=ORIENTED_EDGE('',*,*,#293,.T.);
#369=ORIENTED_EDGE('',*,*,#294,.T.);
#370=ORIENTED_EDGE('',*,*,#293,.F.);
#371=ORIENTED_EDGE('',*,*,#294,.F.);
#372=ORIENTED_EDGE('',*,*,#295,.T.);
#373=ORIENTED_EDGE('',*,*,#296,.T.);
#374=ORIENTED_EDGE('',*,*,#297,.T.);
#375=ORIENTED_EDGE('',*,*,#298,.T.);
#376=ORIENTED_EDGE('',*,*,#299,.T.);
#377=ORIENTED_EDGE('',*,*,#300,.T.);
#378=ORIENTED_EDGE('',*,*,#301,.T.);
#379=ORIENTED_EDGE('',*,*,#302,.T.);
#380=ORIENTED_EDGE('',*,*,#303,.T.);
#381=ORIENTED_EDGE('',*,*,#304,.T.);
#382=ORIENTED_EDGE('',*,*,#305,.T.);
#383=ORIENTED_EDGE('',*,*,#306,.T.);
#384=ORIENTED_EDGE('',*,*,#307,.T.);
#385=ORIENTED_EDGE('',*,*,#308,.T.);
#386=ORIENTED_EDGE('',*,*,#309,.T.);
#387=ORIENTED_EDGE('',*,*,#310,.T.);
#388=ORIENTED_EDGE('',*,*,#311,.F.);
#389=ORIENTED_EDGE('',*,*,#312,.T.);
#390=ORIENTED_EDGE('',*,*,#313,.T.);
#391=ORIENTED_EDGE('',*,*,#312,.F.);
#392=ORIENTED_EDGE('',*,*,#313,.F.);
#393=ORIENTED_EDGE('',*,*,#314,.F.);
#394=ORIENTED_EDGE('',*,*,#315,.T.);
#395=ORIENTED_EDGE('',*,*,#316,.T.);
#396=ORIENTED_EDGE('',*,*,#315,.F.);
#397=ORIENTED_EDGE('',*,*,#316,.F.);
#398=ORIENTED_EDGE('',*,*,#317,.F.);
#399=ORIENTED_EDGE('',*,*,#318,.T.);
#400=ORIENTED_EDGE('',*,*,#319,.T.);
#401=ORIENTED_EDGE('',*,*,#320,.T.);
#402=ORIENTED_EDGE('',*,*,#292,.T.);
#403=ORIENTED_EDGE('',*,*,#321,.F.);
#404=ORIENTED_EDGE('',*,*,#322,.T.);
#405=ORIENTED_EDGE('',*,*,#323,.T.);
#406=ORIENTED_EDGE('',*,*,#324,.T.);
#407=ORIENTED_EDGE('',*,*,#325,.F.);
#408=ORIENTED_EDGE('',*,*,#314,.T.);
#409=ORIENTED_EDGE('',*,*,#326,.F.);
#410=ORIENTED_EDGE('',*,*,#327,.T.);
#411=ORIENTED_EDGE('',*,*,#328,.T.);
#412=ORIENTED_EDGE('',*,*,#329,.T.);
#413=ORIENTED_EDGE('',*,*,#311,.T.);
#414=ORIENTED_EDGE('',*,*,#318,.F.);
#415=ORIENTED_EDGE('',*,*,#330,.F.);
#416=ORIENTED_EDGE('',*,*,#309,.F.);
#417=ORIENTED_EDGE('',*,*,#331,.F.);
#418=ORIENTED_EDGE('',*,*,#319,.F.);
#419=ORIENTED_EDGE('',*,*,#331,.T.);
#420=ORIENTED_EDGE('',*,*,#308,.F.);
#421=ORIENTED_EDGE('',*,*,#332,.F.);
#422=ORIENTED_EDGE('',*,*,#320,.F.);
#423=ORIENTED_EDGE('',*,*,#332,.T.);
#424=ORIENTED_EDGE('',*,*,#307,.F.);
#425=ORIENTED_EDGE('',*,*,#333,.F.);
#426=ORIENTED_EDGE('',*,*,#327,.F.);
#427=ORIENTED_EDGE('',*,*,#334,.F.);
#428=ORIENTED_EDGE('',*,*,#305,.F.);
#429=ORIENTED_EDGE('',*,*,#335,.F.);
#430=ORIENTED_EDGE('',*,*,#328,.F.);
#431=ORIENTED_EDGE('',*,*,#335,.T.);
#432=ORIENTED_EDGE('',*,*,#304,.F.);
#433=ORIENTED_EDGE('',*,*,#336,.F.);
#434=ORIENTED_EDGE('',*,*,#329,.F.);
#435=ORIENTED_EDGE('',*,*,#336,.T.);
#436=ORIENTED_EDGE('',*,*,#303,.F.);
#437=ORIENTED_EDGE('',*,*,#337,.F.);
#438=ORIENTED_EDGE('',*,*,#322,.F.);
#439=ORIENTED_EDGE('',*,*,#338,.F.);
#440=ORIENTED_EDGE('',*,*,#301,.F.);
#441=ORIENTED_EDGE('',*,*,#339,.F.);
#442=ORIENTED_EDGE('',*,*,#323,.F.);
#443=ORIENTED_EDGE('',*,*,#339,.T.);
#444=ORIENTED_EDGE('',*,*,#300,.F.);
#445=ORIENTED_EDGE('',*,*,#340,.F.);
#446=ORIENTED_EDGE('',*,*,#324,.F.);
#447=ORIENTED_EDGE('',*,*,#340,.T.);
#448=ORIENTED_EDGE('',*,*,#299,.F.);
#449=ORIENTED_EDGE('',*,*,#341,.F.);
#450=ORIENTED_EDGE('',*,*,#342,.F.);
#451=ORIENTED_EDGE('',*,*,#343,.T.);
#452=ORIENTED_EDGE('',*,*,#310,.F.);
#453=ORIENTED_EDGE('',*,*,#330,.T.);
#454=ORIENTED_EDGE('',*,*,#317,.T.);
#455=ORIENTED_EDGE('',*,*,#333,.T.);
#456=ORIENTED_EDGE('',*,*,#306,.F.);
#457=ORIENTED_EDGE('',*,*,#334,.T.);
#458=ORIENTED_EDGE('',*,*,#326,.T.);
#459=ORIENTED_EDGE('',*,*,#337,.T.);
#460=ORIENTED_EDGE('',*,*,#302,.F.);
#461=ORIENTED_EDGE('',*,*,#338,.T.);
#462=ORIENTED_EDGE('',*,*,#321,.T.);
#463=ORIENTED_EDGE('',*,*,#344,.T.);
#464=ORIENTED_EDGE('',*,*,#345,.T.);
#465=ORIENTED_EDGE('',*,*,#344,.F.);
#466=ORIENTED_EDGE('',*,*,#325,.T.);
#467=ORIENTED_EDGE('',*,*,#341,.T.);
#468=ORIENTED_EDGE('',*,*,#298,.F.);
#469=ORIENTED_EDGE('',*,*,#346,.F.);
#470=ORIENTED_EDGE('',*,*,#347,.T.);
#471=ORIENTED_EDGE('',*,*,#348,.T.);
#472=ORIENTED_EDGE('',*,*,#349,.T.);
#473=ORIENTED_EDGE('',*,*,#350,.T.);
#474=ORIENTED_EDGE('',*,*,#342,.T.);
#475=ORIENTED_EDGE('',*,*,#351,.T.);
#476=ORIENTED_EDGE('',*,*,#352,.T.);
#477=ORIENTED_EDGE('',*,*,#353,.T.);
#478=ORIENTED_EDGE('',*,*,#354,.T.);
#479=ORIENTED_EDGE('',*,*,#351,.F.);
#480=ORIENTED_EDGE('',*,*,#346,.T.);
#481=ORIENTED_EDGE('',*,*,#297,.F.);
#482=ORIENTED_EDGE('',*,*,#355,.F.);
#483=ORIENTED_EDGE('',*,*,#352,.F.);
#484=ORIENTED_EDGE('',*,*,#355,.T.);
#485=ORIENTED_EDGE('',*,*,#296,.F.);
#486=ORIENTED_EDGE('',*,*,#356,.F.);
#487=ORIENTED_EDGE('',*,*,#353,.F.);
#488=ORIENTED_EDGE('',*,*,#356,.T.);
#489=ORIENTED_EDGE('',*,*,#295,.F.);
#490=ORIENTED_EDGE('',*,*,#343,.F.);
#491=ORIENTED_EDGE('',*,*,#357,.T.);
#492=ORIENTED_EDGE('',*,*,#358,.T.);
#493=ORIENTED_EDGE('',*,*,#347,.F.);
#494=ORIENTED_EDGE('',*,*,#359,.F.);
#495=ORIENTED_EDGE('',*,*,#360,.T.);
#496=ORIENTED_EDGE('',*,*,#359,.T.);
#497=ORIENTED_EDGE('',*,*,#350,.F.);
#498=ORIENTED_EDGE('',*,*,#361,.F.);
#499=ORIENTED_EDGE('',*,*,#362,.T.);
#500=ORIENTED_EDGE('',*,*,#361,.T.);
#501=ORIENTED_EDGE('',*,*,#349,.F.);
#502=ORIENTED_EDGE('',*,*,#363,.F.);
#503=ORIENTED_EDGE('',*,*,#364,.T.);
#504=ORIENTED_EDGE('',*,*,#363,.T.);
#505=ORIENTED_EDGE('',*,*,#348,.F.);
#506=ORIENTED_EDGE('',*,*,#358,.F.);
#507=ORIENTED_EDGE('',*,*,#345,.F.);
#508=ORIENTED_EDGE('',*,*,#364,.F.);
#509=ORIENTED_EDGE('',*,*,#357,.F.);
#510=ORIENTED_EDGE('',*,*,#360,.F.);
#511=ORIENTED_EDGE('',*,*,#362,.F.);
#512=ORIENTED_EDGE('',*,*,#354,.F.);
#513=ORIENTED_EDGE('',*,*,#365,.T.);
#514=ORIENTED_EDGE('',*,*,#366,.T.);
#515=ORIENTED_EDGE('',*,*,#365,.F.);
#516=ORIENTED_EDGE('',*,*,#366,.F.);
#517=CYLINDRICAL_SURFACE('',#570,0.078740157480315);
#518=CYLINDRICAL_SURFACE('',#579,0.078740157480315);
#519=CYLINDRICAL_SURFACE('',#583,0.078740157480315);
#520=CYLINDRICAL_SURFACE('',#603,0.20000000638286);
#521=CYLINDRICAL_SURFACE('',#615,0.0984251968503937);
#522=CYLINDRICAL_SURFACE('',#618,0.0984251968503937);
#523=CYLINDRICAL_SURFACE('',#621,0.078740157480315);
#524=ADVANCED_FACE('',(#45),#517,.T.);
#525=ADVANCED_FACE('',(#46),#20,.F.);
#526=ADVANCED_FACE('',(#47),#21,.T.);
#527=ADVANCED_FACE('',(#48),#518,.T.);
#528=ADVANCED_FACE('',(#49),#22,.F.);
#529=ADVANCED_FACE('',(#50),#519,.T.);
#530=ADVANCED_FACE('',(#51),#23,.F.);
#531=ADVANCED_FACE('',(#52,#15),#24,.F.);
#532=ADVANCED_FACE('',(#53,#16),#25,.F.);
#533=ADVANCED_FACE('',(#54,#17),#26,.F.);
#534=ADVANCED_FACE('',(#55),#27,.T.);
#535=ADVANCED_FACE('',(#56),#28,.T.);
#536=ADVANCED_FACE('',(#57),#29,.T.);
#537=ADVANCED_FACE('',(#58),#30,.T.);
#538=ADVANCED_FACE('',(#59),#31,.T.);
#539=ADVANCED_FACE('',(#60),#32,.T.);
#540=ADVANCED_FACE('',(#61),#33,.T.);
#541=ADVANCED_FACE('',(#62),#34,.T.);
#542=ADVANCED_FACE('',(#63),#35,.T.);
#543=ADVANCED_FACE('',(#64),#520,.T.);
#544=ADVANCED_FACE('',(#65),#36,.F.);
#545=ADVANCED_FACE('',(#66,#18),#37,.F.);
#546=ADVANCED_FACE('',(#67),#38,.T.);
#547=ADVANCED_FACE('',(#68),#39,.T.);
#548=ADVANCED_FACE('',(#69),#40,.T.);
#549=ADVANCED_FACE('',(#70),#41,.T.);
#550=ADVANCED_FACE('',(#71),#521,.F.);
#551=ADVANCED_FACE('',(#72),#42,.T.);
#552=ADVANCED_FACE('',(#73),#522,.F.);
#553=ADVANCED_FACE('',(#74,#19),#43,.F.);
#554=ADVANCED_FACE('',(#75),#523,.T.);
#555=ADVANCED_FACE('',(#76),#44,.F.);
#556=CLOSED_SHELL('',(#524,#525,#526,#527,#528,#529,#530,#531,#532,#533,
#534,#535,#536,#537,#538,#539,#540,#541,#542,#543,#544,#545,#546,#547,#548,
#549,#550,#551,#552,#553,#554,#555));
#557=DERIVED_UNIT_ELEMENT(#559,1.);
#558=DERIVED_UNIT_ELEMENT(#952,-3.);
#559=(
MASS_UNIT()
NAMED_UNIT(*)
SI_UNIT(.KILO.,.GRAM.)
);
#560=DERIVED_UNIT((#557,#558));
#561=MEASURE_REPRESENTATION_ITEM('density measure',
POSITIVE_RATIO_MEASURE(7850.),#560);
#562=PROPERTY_DEFINITION_REPRESENTATION(#567,#564);
#563=PROPERTY_DEFINITION_REPRESENTATION(#568,#565);
#564=REPRESENTATION('material name',(#566),#947);
#565=REPRESENTATION('density',(#561),#947);
#566=DESCRIPTIVE_REPRESENTATION_ITEM('Steel','Steel');
#567=PROPERTY_DEFINITION('material property','material name',#960);
#568=PROPERTY_DEFINITION('material property','density of part',#960);
#569=AXIS2_PLACEMENT_3D('',#787,#624,#625);
#570=AXIS2_PLACEMENT_3D('',#788,#626,#627);
#571=AXIS2_PLACEMENT_3D('',#790,#628,#629);
#572=AXIS2_PLACEMENT_3D('',#793,#631,#632);
#573=AXIS2_PLACEMENT_3D('',#794,#633,#634);
#574=AXIS2_PLACEMENT_3D('',#795,#635,#636);
#575=AXIS2_PLACEMENT_3D('',#804,#640,#641);
#576=AXIS2_PLACEMENT_3D('',#812,#645,#646);
#577=AXIS2_PLACEMENT_3D('',#820,#650,#651);
#578=AXIS2_PLACEMENT_3D('',#827,#655,#656);
#579=AXIS2_PLACEMENT_3D('',#828,#657,#658);
#580=AXIS2_PLACEMENT_3D('',#830,#659,#660);
#581=AXIS2_PLACEMENT_3D('',#833,#662,#663);
#582=AXIS2_PLACEMENT_3D('',#834,#664,#665);
#583=AXIS2_PLACEMENT_3D('',#835,#666,#667);
#584=AXIS2_PLACEMENT_3D('',#837,#668,#669);
#585=AXIS2_PLACEMENT_3D('',#840,#671,#672);
#586=AXIS2_PLACEMENT_3D('',#841,#673,#674);
#587=AXIS2_PLACEMENT_3D('',#842,#675,#676);
#588=AXIS2_PLACEMENT_3D('',#845,#677,#678);
#589=AXIS2_PLACEMENT_3D('',#851,#682,#683);
#590=AXIS2_PLACEMENT_3D('',#854,#684,#685);
#591=AXIS2_PLACEMENT_3D('',#861,#689,#690);
#592=AXIS2_PLACEMENT_3D('',#862,#691,#692);
#593=AXIS2_PLACEMENT_3D('',#865,#693,#694);
#594=AXIS2_PLACEMENT_3D('',#871,#698,#699);
#595=AXIS2_PLACEMENT_3D('',#874,#702,#703);
#596=AXIS2_PLACEMENT_3D('',#876,#705,#706);
#597=AXIS2_PLACEMENT_3D('',#878,#708,#709);
#598=AXIS2_PLACEMENT_3D('',#881,#712,#713);
#599=AXIS2_PLACEMENT_3D('',#883,#715,#716);
#600=AXIS2_PLACEMENT_3D('',#885,#718,#719);
#601=AXIS2_PLACEMENT_3D('',#888,#722,#723);
#602=AXIS2_PLACEMENT_3D('',#890,#725,#726);
#603=AXIS2_PLACEMENT_3D('',#892,#728,#729);
#604=AXIS2_PLACEMENT_3D('',#895,#730,#731);
#605=AXIS2_PLACEMENT_3D('',#899,#734,#735);
#606=AXIS2_PLACEMENT_3D('',#901,#737,#738);
#607=AXIS2_PLACEMENT_3D('',#906,#740,#741);
#608=AXIS2_PLACEMENT_3D('',#909,#743,#744);
#609=AXIS2_PLACEMENT_3D('',#910,#745,#746);
#610=AXIS2_PLACEMENT_3D('',#917,#750,#751);
#611=AXIS2_PLACEMENT_3D('',#918,#752,#753);
#612=AXIS2_PLACEMENT_3D('',#920,#755,#756);
#613=AXIS2_PLACEMENT_3D('',#922,#758,#759);
#614=AXIS2_PLACEMENT_3D('',#923,#760,#761);
#615=AXIS2_PLACEMENT_3D('',#929,#765,#766);
#616=AXIS2_PLACEMENT_3D('',#931,#767,#768);
#617=AXIS2_PLACEMENT_3D('',#933,#770,#771);
#618=AXIS2_PLACEMENT_3D('',#937,#774,#775);
#619=AXIS2_PLACEMENT_3D('',#938,#776,#777);
#620=AXIS2_PLACEMENT_3D('',#939,#778,#779);
#621=AXIS2_PLACEMENT_3D('',#940,#780,#781);
#622=AXIS2_PLACEMENT_3D('',#943,#783,#784);
#623=AXIS2_PLACEMENT_3D('',#944,#785,#786);
#624=DIRECTION('axis',(0.,0.,1.));
#625=DIRECTION('refdir',(1.,0.,0.));
#626=DIRECTION('center_axis',(0.,0.,1.));
#627=DIRECTION('ref_axis',(-1.83697019872103E-16,-1.,0.));
#628=DIRECTION('center_axis',(0.,0.,1.));
#629=DIRECTION('ref_axis',(-1.83697019872103E-16,-1.,0.));
#630=DIRECTION('',(0.,0.,-1.));
#631=DIRECTION('center_axis',(0.,0.,1.));
#632=DIRECTION('ref_axis',(-1.83697019872103E-16,-1.,0.));
#633=DIRECTION('center_axis',(0.,0.,1.));
#634=DIRECTION('ref_axis',(-1.83697019872103E-16,-1.,0.));
#635=DIRECTION('center_axis',(0.,0.,1.));
#636=DIRECTION('ref_axis',(-1.,0.,0.));
#637=DIRECTION('',(0.,1.,0.));
#638=DIRECTION('',(-1.,0.,0.));
#639=DIRECTION('',(0.,-1.,0.));
#640=DIRECTION('center_axis',(0.,0.,1.));
#641=DIRECTION('ref_axis',(-1.,0.,0.));
#642=DIRECTION('',(-1.,6.12323399573677E-17,0.));
#643=DIRECTION('',(-6.12323399573677E-17,-1.,0.));
#644=DIRECTION('',(1.,-6.12323399573677E-17,0.));
#645=DIRECTION('center_axis',(0.,0.,1.));
#646=DIRECTION('ref_axis',(-1.,0.,0.));
#647=DIRECTION('',(-1.22464679914735E-16,-1.,0.));
#648=DIRECTION('',(1.,-1.22464679914735E-16,0.));
#649=DIRECTION('',(1.22464679914735E-16,1.,0.));
#650=DIRECTION('center_axis',(0.,0.,1.));
#651=DIRECTION('ref_axis',(-1.,0.,0.));
#652=DIRECTION('',(1.,-1.83697019872103E-16,0.));
#653=DIRECTION('',(1.83697019872103E-16,1.,0.));
#654=DIRECTION('',(-1.,1.83697019872103E-16,0.));
#655=DIRECTION('center_axis',(0.,0.,1.));
#656=DIRECTION('ref_axis',(-1.,0.,0.));
#657=DIRECTION('center_axis',(0.,0.,1.));
#658=DIRECTION('ref_axis',(-1.,1.22464679914735E-16,0.));
#659=DIRECTION('center_axis',(0.,0.,1.));
#660=DIRECTION('ref_axis',(-1.,1.22464679914735E-16,0.));
#661=DIRECTION('',(0.,0.,-1.));
#662=DIRECTION('center_axis',(0.,0.,1.));
#663=DIRECTION('ref_axis',(-1.,1.22464679914735E-16,0.));
#664=DIRECTION('center_axis',(0.,0.,1.));
#665=DIRECTION('ref_axis',(-1.,1.22464679914735E-16,0.));
#666=DIRECTION('center_axis',(0.,0.,1.));
#667=DIRECTION('ref_axis',(6.12323399573677E-17,1.,0.));
#668=DIRECTION('center_axis',(0.,0.,1.));
#669=DIRECTION('ref_axis',(6.12323399573677E-17,1.,0.));
#670=DIRECTION('',(0.,0.,-1.));
#671=DIRECTION('center_axis',(0.,0.,1.));
#672=DIRECTION('ref_axis',(6.12323399573677E-17,1.,0.));
#673=DIRECTION('center_axis',(0.,0.,1.));
#674=DIRECTION('ref_axis',(6.12323399573677E-17,1.,0.));
#675=DIRECTION('center_axis',(0.,0.,1.));
#676=DIRECTION('ref_axis',(-6.12323399573677E-17,-1.,0.));
#677=DIRECTION('center_axis',(0.,0.,-1.));
#678=DIRECTION('ref_axis',(1.,0.,0.));
#679=DIRECTION('',(1.,-1.83697019872103E-16,0.));
#680=DIRECTION('',(-1.83697019872103E-16,-1.,0.));
#681=DIRECTION('',(-1.,1.83697019872103E-16,0.));
#682=DIRECTION('center_axis',(0.,0.,1.));
#683=DIRECTION('ref_axis',(-6.12323399573677E-17,-1.,0.));
#684=DIRECTION('center_axis',(0.,0.,-1.));
#685=DIRECTION('ref_axis',(1.,0.,0.));
#686=DIRECTION('',(-1.,6.12323399573677E-17,0.));
#687=DIRECTION('',(6.12323399573677E-17,1.,0.));
#688=DIRECTION('',(1.,-6.12323399573677E-17,0.));
#689=DIRECTION('center_axis',(0.,0.,-1.));
#690=DIRECTION('ref_axis',(1.,0.,0.));
#691=DIRECTION('center_axis',(0.,0.,1.));
#692=DIRECTION('ref_axis',(-6.12323399573677E-17,-1.,0.));
#693=DIRECTION('center_axis',(0.,0.,-1.));
#694=DIRECTION('ref_axis',(1.,0.,0.));
#695=DIRECTION('',(-1.22464679914735E-16,-1.,0.));
#696=DIRECTION('',(-1.,1.22464679914735E-16,0.));
#697=DIRECTION('',(1.22464679914735E-16,1.,0.));
#698=DIRECTION('center_axis',(1.83697019872103E-16,1.,0.));
#699=DIRECTION('ref_axis',(-1.,1.83697019872103E-16,0.));
#700=DIRECTION('',(0.,0.,-1.));
#701=DIRECTION('',(0.,0.,1.));
#702=DIRECTION('center_axis',(1.,-1.83697019872103E-16,0.));
#703=DIRECTION('ref_axis',(1.83697019872103E-16,1.,0.));
#704=DIRECTION('',(0.,0.,1.));
#705=DIRECTION('center_axis',(-1.83697019872103E-16,-1.,0.));
#706=DIRECTION('ref_axis',(1.,-1.83697019872103E-16,0.));
#707=DIRECTION('',(0.,0.,1.));
#708=DIRECTION('center_axis',(1.,-1.22464679914735E-16,0.));
#709=DIRECTION('ref_axis',(1.22464679914735E-16,1.,0.));
#710=DIRECTION('',(0.,0.,-1.));
#711=DIRECTION('',(0.,0.,1.));
#712=DIRECTION('center_axis',(-1.22464679914735E-16,-1.,0.));
#713=DIRECTION('ref_axis',(1.,-1.22464679914735E-16,0.));
#714=DIRECTION('',(0.,0.,1.));
#715=DIRECTION('center_axis',(-1.,1.22464679914735E-16,0.));
#716=DIRECTION('ref_axis',(-1.22464679914735E-16,-1.,0.));
#717=DIRECTION('',(0.,0.,1.));
#718=DIRECTION('center_axis',(-6.12323399573677E-17,-1.,0.));
#719=DIRECTION('ref_axis',(1.,-6.12323399573677E-17,0.));
#720=DIRECTION('',(0.,0.,-1.));
#721=DIRECTION('',(0.,0.,1.));
#722=DIRECTION('center_axis',(-1.,6.12323399573677E-17,0.));
#723=DIRECTION('ref_axis',(-6.12323399573677E-17,-1.,0.));
#724=DIRECTION('',(0.,0.,1.));
#725=DIRECTION('center_axis',(6.12323399573677E-17,1.,0.));
#726=DIRECTION('ref_axis',(-1.,6.12323399573677E-17,0.));
#727=DIRECTION('',(0.,0.,1.));
#728=DIRECTION('center_axis',(0.,0.,1.));
#729=DIRECTION('ref_axis',(1.,0.,0.));
#730=DIRECTION('center_axis',(0.,0.,1.));
#731=DIRECTION('ref_axis',(1.,0.,0.));
#732=DIRECTION('',(0.,0.,1.));
#733=DIRECTION('',(0.,0.,-1.));
#734=DIRECTION('center_axis',(0.,0.,1.));
#735=DIRECTION('ref_axis',(1.,0.,0.));
#736=DIRECTION('',(0.,0.,1.));
#737=DIRECTION('center_axis',(0.,0.,1.));
#738=DIRECTION('ref_axis',(-1.,0.,0.));
#739=DIRECTION('',(-1.,0.,0.));
#740=DIRECTION('center_axis',(0.,0.,-1.));
#741=DIRECTION('ref_axis',(-0.8,0.6,0.));
#742=DIRECTION('',(1.,0.,0.));
#743=DIRECTION('center_axis',(0.,0.,-1.));
#744=DIRECTION('ref_axis',(0.8,-0.6,0.));
#745=DIRECTION('center_axis',(0.,0.,1.));
#746=DIRECTION('ref_axis',(-1.,0.,0.));
#747=DIRECTION('',(0.,1.,0.));
#748=DIRECTION('',(1.,0.,0.));
#749=DIRECTION('',(0.,-1.,0.));
#750=DIRECTION('center_axis',(0.,0.,1.));
#751=DIRECTION('ref_axis',(1.,0.,0.));
#752=DIRECTION('center_axis',(-1.,0.,0.));
#753=DIRECTION('ref_axis',(0.,-1.,0.));
#754=DIRECTION('',(0.,0.,1.));
#755=DIRECTION('center_axis',(0.,1.,0.));
#756=DIRECTION('ref_axis',(-1.,0.,0.));
#757=DIRECTION('',(0.,0.,1.));
#758=DIRECTION('center_axis',(1.,0.,0.));
#759=DIRECTION('ref_axis',(0.,1.,0.));
#760=DIRECTION('center_axis',(0.,1.,0.));
#761=DIRECTION('ref_axis',(-1.,0.,0.));
#762=DIRECTION('',(-1.,0.,0.));
#763=DIRECTION('',(0.,0.,1.));
#764=DIRECTION('',(0.,0.,1.));
#765=DIRECTION('center_axis',(0.,0.,1.));
#766=DIRECTION('ref_axis',(0.8,-0.6,0.));
#767=DIRECTION('center_axis',(0.,0.,-1.));
#768=DIRECTION('ref_axis',(0.8,-0.6,0.));
#769=DIRECTION('',(0.,0.,1.));
#770=DIRECTION('center_axis',(0.,-1.,0.));
#771=DIRECTION('ref_axis',(1.,0.,0.));
#772=DIRECTION('',(1.,0.,0.));
#773=DIRECTION('',(0.,0.,1.));
#774=DIRECTION('center_axis',(0.,0.,1.));
#775=DIRECTION('ref_axis',(-0.8,0.6,0.));
#776=DIRECTION('center_axis',(0.,0.,-1.));
#777=DIRECTION('ref_axis',(-0.8,0.6,0.));
#778=DIRECTION('center_axis',(0.,0.,1.));
#779=DIRECTION('ref_axis',(1.,0.,0.));
#780=DIRECTION('center_axis',(0.,0.,1.));
#781=DIRECTION('ref_axis',(1.,0.,0.));
#782=DIRECTION('',(0.,0.,-1.));
#783=DIRECTION('center_axis',(0.,0.,1.));
#784=DIRECTION('ref_axis',(1.,0.,0.));
#785=DIRECTION('center_axis',(0.,0.,1.));
#786=DIRECTION('ref_axis',(1.,0.,0.));
#787=CARTESIAN_POINT('',(0.,0.,0.));
#788=CARTESIAN_POINT('Origin',(0.994094488188976,-1.82612194951598E-16,
0.));
#789=CARTESIAN_POINT('',(0.994094488188976,0.0787401574803148,0.2));
#790=CARTESIAN_POINT('Origin',(0.994094488188976,-1.82612194951598E-16,
0.2));
#791=CARTESIAN_POINT('',(0.994094488188976,0.0787401574803148,0.));
#792=CARTESIAN_POINT('',(0.994094488188976,0.0787401574803148,0.));
#793=CARTESIAN_POINT('Origin',(0.994094488188976,-1.82612194951598E-16,
0.));
#794=CARTESIAN_POINT('Origin',(0.994094488188976,-1.82612194951598E-16,
0.));
#795=CARTESIAN_POINT('Origin',(0.,0.448576951474606,0.3));
#796=CARTESIAN_POINT('',(0.0938638686669763,0.176605709737858,0.3));
#797=CARTESIAN_POINT('',(0.0938638686669763,1.09715390933207,0.3));
#798=CARTESIAN_POINT('',(0.0938638686669763,1.09715390933207,0.3));
#799=CARTESIAN_POINT('',(-0.0938638686669762,1.09715390933207,0.3));
#800=CARTESIAN_POINT('',(-0.0938638686669762,1.09715390933207,0.3));
#801=CARTESIAN_POINT('',(-0.0938638686669762,0.176605709737858,0.3));
#802=CARTESIAN_POINT('',(-0.0938638686669762,0.176605709737858,0.3));
#803=CARTESIAN_POINT('',(-0.176605709737858,0.0938638686669763,0.3));
#804=CARTESIAN_POINT('Origin',(1.09273919746571E-17,0.,0.3));
#805=CARTESIAN_POINT('',(-1.09715390933207,0.0938638686669763,0.3));
#806=CARTESIAN_POINT('',(-1.09715390933207,0.0938638686669763,0.3));
#807=CARTESIAN_POINT('',(-1.09715390933207,-0.0938638686669761,0.3));
#808=CARTESIAN_POINT('',(-1.09715390933207,-0.0938638686669761,0.3));
#809=CARTESIAN_POINT('',(-0.176605709737858,-0.0938638686669761,0.3));
#810=CARTESIAN_POINT('',(-0.176605709737858,-0.0938638686669761,0.3));
#811=CARTESIAN_POINT('',(-0.0938638686669763,-0.176605709737858,0.3));
#812=CARTESIAN_POINT('Origin',(1.09273919746571E-17,0.,0.3));
#813=CARTESIAN_POINT('',(-0.0938638686669764,-1.09715390933207,0.3));
#814=CARTESIAN_POINT('',(-0.0938638686669764,-1.09715390933207,0.3));
#815=CARTESIAN_POINT('',(0.093863868666976,-1.09715390933207,0.3));
#816=CARTESIAN_POINT('',(0.093863868666976,-1.09715390933207,0.3));
#817=CARTESIAN_POINT('',(0.0938638686669761,-0.176605709737858,0.3));
#818=CARTESIAN_POINT('',(0.0938638686669761,-0.176605709737858,0.3));
#819=CARTESIAN_POINT('',(0.176605709737858,-0.0938638686669763,0.3));
#820=CARTESIAN_POINT('Origin',(1.09273919746571E-17,0.,0.3));
#821=CARTESIAN_POINT('',(1.09715390933207,-0.0938638686669765,0.3));
#822=CARTESIAN_POINT('',(1.09715390933207,-0.0938638686669765,0.3));
#823=CARTESIAN_POINT('',(1.09715390933207,0.093863868666976,0.3));
#824=CARTESIAN_POINT('',(1.09715390933207,0.093863868666976,0.3));
#825=CARTESIAN_POINT('',(0.176605709737858,0.0938638686669761,0.3));
#826=CARTESIAN_POINT('',(0.176605709737858,0.0938638686669761,0.3));
#827=CARTESIAN_POINT('Origin',(1.09273919746571E-17,0.,0.3));
#828=CARTESIAN_POINT('Origin',(-1.21741463301066E-16,-0.994094488188976,
0.));
#829=CARTESIAN_POINT('',(0.0787401574803148,-0.994094488188976,0.2));
#830=CARTESIAN_POINT('Origin',(-1.21741463301066E-16,-0.994094488188976,
0.2));
#831=CARTESIAN_POINT('',(0.0787401574803148,-0.994094488188976,0.));
#832=CARTESIAN_POINT('',(0.0787401574803148,-0.994094488188976,0.));
#833=CARTESIAN_POINT('Origin',(-1.21741463301066E-16,-0.994094488188976,
0.));
#834=CARTESIAN_POINT('Origin',(-1.21741463301066E-16,-0.994094488188976,
0.));
#835=CARTESIAN_POINT('Origin',(-0.994094488188976,6.08707316505328E-17,
0.));
#836=CARTESIAN_POINT('',(-0.994094488188976,-0.0787401574803149,0.2));
#837=CARTESIAN_POINT('Origin',(-0.994094488188976,6.08707316505328E-17,
0.2));
#838=CARTESIAN_POINT('',(-0.994094488188976,-0.0787401574803149,0.));
#839=CARTESIAN_POINT('',(-0.994094488188976,-0.0787401574803149,0.));
#840=CARTESIAN_POINT('Origin',(-0.994094488188976,6.08707316505328E-17,
0.));
#841=CARTESIAN_POINT('Origin',(-0.994094488188976,6.08707316505328E-17,
0.));
#842=CARTESIAN_POINT('Origin',(-0.448576951474606,2.74674163897327E-17,
0.2));
#843=CARTESIAN_POINT('',(0.176605709737858,0.0938638686669761,0.2));
#844=CARTESIAN_POINT('',(0.176605709737858,-0.0938638686669763,0.2));
#845=CARTESIAN_POINT('Origin',(0.,0.,0.2));
#846=CARTESIAN_POINT('',(1.09715390933207,0.093863868666976,0.2));
#847=CARTESIAN_POINT('',(0.176605709737858,0.0938638686669761,0.2));
#848=CARTESIAN_POINT('',(1.09715390933207,-0.0938638686669765,0.2));
#849=CARTESIAN_POINT('',(1.09715390933207,0.093863868666976,0.2));
#850=CARTESIAN_POINT('',(1.09715390933207,-0.0938638686669765,0.2));
#851=CARTESIAN_POINT('Origin',(-0.448576951474606,2.74674163897327E-17,
0.2));
#852=CARTESIAN_POINT('',(-0.176605709737858,-0.0938638686669761,0.2));
#853=CARTESIAN_POINT('',(-0.20000000638286,-2.44929367646219E-17,0.2));
#854=CARTESIAN_POINT('Origin',(0.,0.,0.2));
#855=CARTESIAN_POINT('',(-1.09715390933207,-0.0938638686669761,0.2));
#856=CARTESIAN_POINT('',(-0.176605709737858,-0.0938638686669761,0.2));
#857=CARTESIAN_POINT('',(-1.09715390933207,0.0938638686669763,0.2));
#858=CARTESIAN_POINT('',(-1.09715390933207,-0.0938638686669761,0.2));
#859=CARTESIAN_POINT('',(-0.176605709737858,0.0938638686669763,0.2));
#860=CARTESIAN_POINT('',(-1.09715390933207,0.0938638686669763,0.2));
#861=CARTESIAN_POINT('Origin',(0.,0.,0.2));
#862=CARTESIAN_POINT('Origin',(-0.448576951474606,2.74674163897327E-17,
0.2));
#863=CARTESIAN_POINT('',(0.0938638686669761,-0.176605709737858,0.2));
#864=CARTESIAN_POINT('',(-0.0938638686669763,-0.176605709737858,0.2));
#865=CARTESIAN_POINT('Origin',(0.,0.,0.2));
#866=CARTESIAN_POINT('',(0.093863868666976,-1.09715390933207,0.2));
#867=CARTESIAN_POINT('',(0.0938638686669761,-0.176605709737858,0.2));
#868=CARTESIAN_POINT('',(-0.0938638686669764,-1.09715390933207,0.2));
#869=CARTESIAN_POINT('',(0.093863868666976,-1.09715390933207,0.2));
#870=CARTESIAN_POINT('',(-0.0938638686669764,-1.09715390933207,0.2));
#871=CARTESIAN_POINT('Origin',(1.09715390933207,0.093863868666976,0.2));
#872=CARTESIAN_POINT('',(0.176605709737858,0.0938638686669761,0.));
#873=CARTESIAN_POINT('',(1.09715390933207,0.093863868666976,0.2));
#874=CARTESIAN_POINT('Origin',(1.09715390933207,-0.0938638686669765,0.2));
#875=CARTESIAN_POINT('',(1.09715390933207,-0.0938638686669765,0.2));
#876=CARTESIAN_POINT('Origin',(0.176605709737858,-0.0938638686669763,0.2));
#877=CARTESIAN_POINT('',(0.176605709737858,-0.0938638686669763,0.));
#878=CARTESIAN_POINT('Origin',(0.093863868666976,-1.09715390933207,0.2));
#879=CARTESIAN_POINT('',(0.0938638686669761,-0.176605709737858,0.));
#880=CARTESIAN_POINT('',(0.093863868666976,-1.09715390933207,0.2));
#881=CARTESIAN_POINT('Origin',(-0.0938638686669764,-1.09715390933207,0.2));
#882=CARTESIAN_POINT('',(-0.0938638686669764,-1.09715390933207,0.2));
#883=CARTESIAN_POINT('Origin',(-0.0938638686669763,-0.176605709737858,0.2));
#884=CARTESIAN_POINT('',(-0.0938638686669763,-0.176605709737858,0.));
#885=CARTESIAN_POINT('Origin',(-1.09715390933207,-0.0938638686669761,0.2));
#886=CARTESIAN_POINT('',(-0.176605709737858,-0.0938638686669761,0.));
#887=CARTESIAN_POINT('',(-1.09715390933207,-0.0938638686669761,0.2));
#888=CARTESIAN_POINT('Origin',(-1.09715390933207,0.0938638686669763,0.2));
#889=CARTESIAN_POINT('',(-1.09715390933207,0.0938638686669763,0.2));
#890=CARTESIAN_POINT('Origin',(-0.176605709737858,0.0938638686669763,0.2));
#891=CARTESIAN_POINT('',(-0.176605709737858,0.0938638686669763,0.));
#892=CARTESIAN_POINT('Origin',(0.,0.,0.));
#893=CARTESIAN_POINT('',(0.0938638686669763,0.176605709737858,0.2));
#894=CARTESIAN_POINT('',(-0.0938638686669762,0.176605709737858,0.2));
#895=CARTESIAN_POINT('Origin',(0.,0.,0.2));
#896=CARTESIAN_POINT('',(0.0938638686669763,0.176605709737858,0.2));
#897=CARTESIAN_POINT('',(-0.20000000638286,-2.44929367646219E-17,0.));
#898=CARTESIAN_POINT('',(-0.20000000638286,-2.44929367646219E-17,0.));
#899=CARTESIAN_POINT('Origin',(0.,0.,0.));
#900=CARTESIAN_POINT('',(-0.0938638686669762,0.176605709737858,0.2));
#901=CARTESIAN_POINT('Origin',(0.,0.448576951474606,0.2));
#902=CARTESIAN_POINT('',(0.078740157480315,-0.0590551181102362,0.2));
#903=CARTESIAN_POINT('',(-0.078740157480315,-0.0590551181102362,0.2));
#904=CARTESIAN_POINT('',(-0.0787401574803149,-0.0590551181102362,0.2));
#905=CARTESIAN_POINT('',(-0.0787401574803149,0.0590551181102362,0.2));
#906=CARTESIAN_POINT('Origin',(0.,0.,0.2));
#907=CARTESIAN_POINT('',(0.078740157480315,0.0590551181102362,0.2));
#908=CARTESIAN_POINT('',(-0.0787401574803149,0.0590551181102362,0.2));
#909=CARTESIAN_POINT('Origin',(0.,0.,0.2));
#910=CARTESIAN_POINT('Origin',(0.,0.448576951474606,0.2));
#911=CARTESIAN_POINT('',(-0.0938638686669762,1.09715390933207,0.2));
#912=CARTESIAN_POINT('',(-0.0938638686669762,0.176605709737858,0.2));
#913=CARTESIAN_POINT('',(0.0938638686669763,1.09715390933207,0.2));
#914=CARTESIAN_POINT('',(-0.0938638686669762,1.09715390933207,0.2));
#915=CARTESIAN_POINT('',(0.0938638686669763,1.09715390933207,0.2));
#916=CARTESIAN_POINT('',(-0.078740157480315,0.994094488188976,0.2));
#917=CARTESIAN_POINT('Origin',(0.,0.994094488188976,0.2));
#918=CARTESIAN_POINT('Origin',(-0.0938638686669762,1.09715390933207,0.2));
#919=CARTESIAN_POINT('',(-0.0938638686669762,1.09715390933207,0.2));
#920=CARTESIAN_POINT('Origin',(0.0938638686669763,1.09715390933207,0.2));
#921=CARTESIAN_POINT('',(0.0938638686669763,1.09715390933207,0.2));
#922=CARTESIAN_POINT('Origin',(0.0938638686669763,0.176605709737858,0.2));
#923=CARTESIAN_POINT('Origin',(0.0787401574803149,-0.0590551181102362,0.));
#924=CARTESIAN_POINT('',(0.0787401574803149,-0.0590551181102362,0.));
#925=CARTESIAN_POINT('',(-0.078740157480315,-0.0590551181102362,0.));
#926=CARTESIAN_POINT('',(-0.0787401574803149,-0.0590551181102362,0.));
#927=CARTESIAN_POINT('',(-0.078740157480315,-0.0590551181102362,0.));
#928=CARTESIAN_POINT('',(0.0787401574803149,-0.0590551181102362,0.));
#929=CARTESIAN_POINT('Origin',(0.,0.,0.));
#930=CARTESIAN_POINT('',(0.078740157480315,0.0590551181102362,0.));
#931=CARTESIAN_POINT('Origin',(0.,0.,0.));
#932=CARTESIAN_POINT('',(0.078740157480315,0.0590551181102362,0.));
#933=CARTESIAN_POINT('Origin',(-0.0787401574803149,0.0590551181102362,0.));
#934=CARTESIAN_POINT('',(-0.0787401574803149,0.0590551181102362,0.));
#935=CARTESIAN_POINT('',(-0.0787401574803149,0.0590551181102362,0.));
#936=CARTESIAN_POINT('',(-0.0787401574803149,0.0590551181102362,0.));
#937=CARTESIAN_POINT('Origin',(0.,0.,0.));
#938=CARTESIAN_POINT('Origin',(0.,0.,0.));
#939=CARTESIAN_POINT('Origin',(0.,0.,0.));
#940=CARTESIAN_POINT('Origin',(0.,0.994094488188976,0.));
#941=CARTESIAN_POINT('',(-0.078740157480315,0.994094488188976,0.));
#942=CARTESIAN_POINT('',(-0.078740157480315,0.994094488188976,0.));
#943=CARTESIAN_POINT('Origin',(0.,0.994094488188976,0.));
#944=CARTESIAN_POINT('Origin',(0.,0.994094488188976,0.));
#945=UNCERTAINTY_MEASURE_WITH_UNIT(LENGTH_MEASURE(0.000393700787401575),
#950,'DISTANCE_ACCURACY_VALUE',
'Maximum model space distance between geometric entities at asserted c
onnectivities');
#946=UNCERTAINTY_MEASURE_WITH_UNIT(LENGTH_MEASURE(0.000393700787401575),
#950,'DISTANCE_ACCURACY_VALUE',
'Maximum model space distance between geometric entities at asserted c
onnectivities');
#947=(
GEOMETRIC_REPRESENTATION_CONTEXT(3)
GLOBAL_UNCERTAINTY_ASSIGNED_CONTEXT((#945))
GLOBAL_UNIT_ASSIGNED_CONTEXT((#950,#954,#955))
REPRESENTATION_CONTEXT('','3D')
);
#948=(
GEOMETRIC_REPRESENTATION_CONTEXT(3)
GLOBAL_UNCERTAINTY_ASSIGNED_CONTEXT((#946))
GLOBAL_UNIT_ASSIGNED_CONTEXT((#950,#954,#955))
REPRESENTATION_CONTEXT('','3D')
);
#949=DIMENSIONAL_EXPONENTS(1.,0.,0.,0.,0.,0.,0.);
#950=(
CONVERSION_BASED_UNIT('inch',#953)
LENGTH_UNIT()
NAMED_UNIT(#949)
);
#951=(
LENGTH_UNIT()
NAMED_UNIT(*)
SI_UNIT(.MILLI.,.METRE.)
);
#952=(
LENGTH_UNIT()
NAMED_UNIT(*)
SI_UNIT($,.METRE.)
);
#953=LENGTH_MEASURE_WITH_UNIT(LENGTH_MEASURE(25.4),#951);
#954=(
NAMED_UNIT(*)
PLANE_ANGLE_UNIT()
SI_UNIT($,.RADIAN.)
);
#955=(
NAMED_UNIT(*)
SI_UNIT($,.STERADIAN.)
SOLID_ANGLE_UNIT()
);
#956=SHAPE_DEFINITION_REPRESENTATION(#957,#958);
#957=PRODUCT_DEFINITION_SHAPE('',$,#960);
#958=SHAPE_REPRESENTATION('',(#569),#947);
#959=PRODUCT_DEFINITION_CONTEXT('part definition',#964,'design');
#960=PRODUCT_DEFINITION('2026-04-22-23-42-39-207','stepper bearing',#961,
#959);
#961=PRODUCT_DEFINITION_FORMATION('',$,#966);
#962=PRODUCT_RELATED_PRODUCT_CATEGORY('stepper bearing',
'stepper bearing',(#966));
#963=APPLICATION_PROTOCOL_DEFINITION('international standard',
'automotive_design',2009,#964);
#964=APPLICATION_CONTEXT(
'Core Data for Automotive Mechanical Design Process');
#965=PRODUCT_CONTEXT('part definition',#964,'mechanical');
#966=PRODUCT('2026-04-22-23-42-39-207','stepper bearing',$,(#965));
#967=PRESENTATION_STYLE_ASSIGNMENT((#968));
#968=SURFACE_STYLE_USAGE(.BOTH.,#969);
#969=SURFACE_SIDE_STYLE('',(#970));
#970=SURFACE_STYLE_FILL_AREA(#971);
#971=FILL_AREA_STYLE('Steel - Satin',(#972));
#972=FILL_AREA_STYLE_COLOUR('Steel - Satin',#973);
#973=COLOUR_RGB('Steel - Satin',0.627450980392157,0.627450980392157,0.627450980392157);
ENDSEC;
END-ISO-10303-21;
