ISO-10303-21;
HEADER;
/* Generated by software containing ST-Developer
 * from STEP Tools, Inc. (www.steptools.com) 
 */

FILE_DESCRIPTION(
/* description */ (''),
/* implementation_level */ '2;1');

FILE_NAME(
/* name */ 'Rotor Housing v1.step',
/* time_stamp */ '2026-05-21T22:26:57-05:00',
/* author */ (''),
/* organization */ (''),
/* preprocessor_version */ 'ST-DEVELOPER v20.1',
/* originating_system */ 'Autodesk Translation Framework v15.8.0.0',
/* authorisation */ '');

FILE_SCHEMA (('AUTOMOTIVE_DESIGN { 1 0 10303 214 3 1 1 }'));
ENDSEC;

DATA;
#10=MECHANICAL_DESIGN_GEOMETRIC_PRESENTATION_REPRESENTATION('',(#13),#1168);
#11=SHAPE_REPRESENTATION_RELATIONSHIP('SRR','None',#1178,#12);
#12=ADVANCED_BREP_SHAPE_REPRESENTATION('',(#14),#1167);
#13=STYLED_ITEM('',(#1187),#14);
#14=MANIFOLD_SOLID_BREP('Body1',#698);
#15=FACE_BOUND('',#89,.T.);
#16=FACE_BOUND('',#96,.T.);
#17=FACE_BOUND('',#102,.T.);
#18=FACE_BOUND('',#109,.T.);
#19=FACE_BOUND('',#115,.T.);
#20=FACE_BOUND('',#118,.T.);
#21=FACE_BOUND('',#125,.T.);
#22=FACE_BOUND('',#126,.T.);
#23=FACE_BOUND('',#127,.T.);
#24=FACE_BOUND('',#128,.T.);
#25=PLANE('',#715);
#26=PLANE('',#716);
#27=PLANE('',#720);
#28=PLANE('',#721);
#29=PLANE('',#725);
#30=PLANE('',#726);
#31=PLANE('',#730);
#32=PLANE('',#737);
#33=PLANE('',#738);
#34=PLANE('',#739);
#35=PLANE('',#753);
#36=PLANE('',#754);
#37=PLANE('',#755);
#38=PLANE('',#756);
#39=PLANE('',#757);
#40=PLANE('',#758);
#41=PLANE('',#759);
#42=PLANE('',#760);
#43=PLANE('',#765);
#44=PLANE('',#766);
#45=PLANE('',#769);
#46=PLANE('',#770);
#47=PLANE('',#771);
#48=PLANE('',#772);
#49=FACE_OUTER_BOUND('',#84,.T.);
#50=FACE_OUTER_BOUND('',#85,.T.);
#51=FACE_OUTER_BOUND('',#86,.T.);
#52=FACE_OUTER_BOUND('',#87,.T.);
#53=FACE_OUTER_BOUND('',#88,.T.);
#54=FACE_OUTER_BOUND('',#90,.T.);
#55=FACE_OUTER_BOUND('',#91,.T.);
#56=FACE_OUTER_BOUND('',#92,.T.);
#57=FACE_OUTER_BOUND('',#93,.T.);
#58=FACE_OUTER_BOUND('',#94,.T.);
#59=FACE_OUTER_BOUND('',#95,.T.);
#60=FACE_OUTER_BOUND('',#97,.T.);
#61=FACE_OUTER_BOUND('',#98,.T.);
#62=FACE_OUTER_BOUND('',#99,.T.);
#63=FACE_OUTER_BOUND('',#100,.T.);
#64=FACE_OUTER_BOUND('',#101,.T.);
#65=FACE_OUTER_BOUND('',#103,.T.);
#66=FACE_OUTER_BOUND('',#104,.T.);
#67=FACE_OUTER_BOUND('',#105,.T.);
#68=FACE_OUTER_BOUND('',#106,.T.);
#69=FACE_OUTER_BOUND('',#107,.T.);
#70=FACE_OUTER_BOUND('',#108,.T.);
#71=FACE_OUTER_BOUND('',#110,.T.);
#72=FACE_OUTER_BOUND('',#111,.T.);
#73=FACE_OUTER_BOUND('',#112,.T.);
#74=FACE_OUTER_BOUND('',#113,.T.);
#75=FACE_OUTER_BOUND('',#114,.T.);
#76=FACE_OUTER_BOUND('',#116,.T.);
#77=FACE_OUTER_BOUND('',#117,.T.);
#78=FACE_OUTER_BOUND('',#119,.T.);
#79=FACE_OUTER_BOUND('',#120,.T.);
#80=FACE_OUTER_BOUND('',#121,.T.);
#81=FACE_OUTER_BOUND('',#122,.T.);
#82=FACE_OUTER_BOUND('',#123,.T.);
#83=FACE_OUTER_BOUND('',#124,.T.);
#84=EDGE_LOOP('',(#458,#459,#460,#461));
#85=EDGE_LOOP('',(#462,#463,#464,#465));
#86=EDGE_LOOP('',(#466,#467,#468,#469));
#87=EDGE_LOOP('',(#470,#471,#472,#473));
#88=EDGE_LOOP('',(#474,#475,#476,#477));
#89=EDGE_LOOP('',(#478));
#90=EDGE_LOOP('',(#479,#480,#481,#482,#483,#484));
#91=EDGE_LOOP('',(#485,#486,#487,#488));
#92=EDGE_LOOP('',(#489,#490,#491,#492));
#93=EDGE_LOOP('',(#493,#494,#495,#496));
#94=EDGE_LOOP('',(#497,#498,#499,#500));
#95=EDGE_LOOP('',(#501,#502,#503,#504));
#96=EDGE_LOOP('',(#505));
#97=EDGE_LOOP('',(#506,#507,#508,#509));
#98=EDGE_LOOP('',(#510,#511,#512,#513));
#99=EDGE_LOOP('',(#514,#515,#516,#517));
#100=EDGE_LOOP('',(#518,#519,#520,#521));
#101=EDGE_LOOP('',(#522,#523,#524,#525));
#102=EDGE_LOOP('',(#526));
#103=EDGE_LOOP('',(#527,#528,#529,#530,#531,#532,#533,#534,#535,#536,#537,
#538));
#104=EDGE_LOOP('',(#539,#540,#541,#542));
#105=EDGE_LOOP('',(#543,#544,#545,#546));
#106=EDGE_LOOP('',(#547,#548,#549,#550));
#107=EDGE_LOOP('',(#551,#552,#553,#554));
#108=EDGE_LOOP('',(#555,#556,#557,#558));
#109=EDGE_LOOP('',(#559));
#110=EDGE_LOOP('',(#560,#561,#562,#563));
#111=EDGE_LOOP('',(#564,#565,#566,#567));
#112=EDGE_LOOP('',(#568,#569,#570,#571));
#113=EDGE_LOOP('',(#572,#573,#574,#575));
#114=EDGE_LOOP('',(#576,#577,#578,#579,#580,#581,#582,#583));
#115=EDGE_LOOP('',(#584));
#116=EDGE_LOOP('',(#585,#586,#587,#588));
#117=EDGE_LOOP('',(#589,#590,#591,#592));
#118=EDGE_LOOP('',(#593));
#119=EDGE_LOOP('',(#594,#595,#596,#597));
#120=EDGE_LOOP('',(#598,#599,#600,#601));
#121=EDGE_LOOP('',(#602,#603,#604,#605));
#122=EDGE_LOOP('',(#606,#607,#608,#609,#610,#611));
#123=EDGE_LOOP('',(#612,#613,#614,#615,#616,#617,#618,#619,#620,#621,#622,
#623,#624,#625));
#124=EDGE_LOOP('',(#626,#627,#628,#629,#630,#631,#632,#633,#634,#635,#636,
#637,#638,#639,#640,#641,#642,#643,#644,#645,#646,#647));
#125=EDGE_LOOP('',(#648));
#126=EDGE_LOOP('',(#649));
#127=EDGE_LOOP('',(#650));
#128=EDGE_LOOP('',(#651));
#129=LINE('',#973,#200);
#130=LINE('',#978,#201);
#131=LINE('',#980,#202);
#132=LINE('',#982,#203);
#133=LINE('',#983,#204);
#134=LINE('',#987,#205);
#135=LINE('',#989,#206);
#136=LINE('',#991,#207);
#137=LINE('',#992,#208);
#138=LINE('',#997,#209);
#139=LINE('',#1000,#210);
#140=LINE('',#1002,#211);
#141=LINE('',#1004,#212);
#142=LINE('',#1005,#213);
#143=LINE('',#1010,#214);
#144=LINE('',#1015,#215);
#145=LINE('',#1017,#216);
#146=LINE('',#1019,#217);
#147=LINE('',#1020,#218);
#148=LINE('',#1024,#219);
#149=LINE('',#1026,#220);
#150=LINE('',#1028,#221);
#151=LINE('',#1029,#222);
#152=LINE('',#1034,#223);
#153=LINE('',#1039,#224);
#154=LINE('',#1046,#225);
#155=LINE('',#1049,#226);
#156=LINE('',#1052,#227);
#157=LINE('',#1054,#228);
#158=LINE('',#1055,#229);
#159=LINE('',#1058,#230);
#160=LINE('',#1060,#231);
#161=LINE('',#1061,#232);
#162=LINE('',#1068,#233);
#163=LINE('',#1072,#234);
#164=LINE('',#1077,#235);
#165=LINE('',#1083,#236);
#166=LINE('',#1090,#237);
#167=LINE('',#1093,#238);
#168=LINE('',#1095,#239);
#169=LINE('',#1096,#240);
#170=LINE('',#1098,#241);
#171=LINE('',#1099,#242);
#172=LINE('',#1104,#243);
#173=LINE('',#1106,#244);
#174=LINE('',#1108,#245);
#175=LINE('',#1109,#246);
#176=LINE('',#1112,#247);
#177=LINE('',#1114,#248);
#178=LINE('',#1115,#249);
#179=LINE('',#1118,#250);
#180=LINE('',#1120,#251);
#181=LINE('',#1121,#252);
#182=LINE('',#1123,#253);
#183=LINE('',#1126,#254);
#184=LINE('',#1128,#255);
#185=LINE('',#1132,#256);
#186=LINE('',#1133,#257);
#187=LINE('',#1139,#258);
#188=LINE('',#1142,#259);
#189=LINE('',#1143,#260);
#190=LINE('',#1147,#261);
#191=LINE('',#1148,#262);
#192=LINE('',#1149,#263);
#193=LINE('',#1153,#264);
#194=LINE('',#1156,#265);
#195=LINE('',#1157,#266);
#196=LINE('',#1159,#267);
#197=LINE('',#1160,#268);
#198=LINE('',#1162,#269);
#199=LINE('',#1163,#270);
#200=VECTOR('',#779,0.0551181102362205);
#201=VECTOR('',#784,0.393700787401575);
#202=VECTOR('',#785,0.393700787401575);
#203=VECTOR('',#786,0.393700787401575);
#204=VECTOR('',#787,0.393700787401575);
#205=VECTOR('',#790,0.393700787401575);
#206=VECTOR('',#791,0.393700787401575);
#207=VECTOR('',#792,0.393700787401575);
#208=VECTOR('',#793,0.393700787401575);
#209=VECTOR('',#802,0.393700787401575);
#210=VECTOR('',#805,0.393700787401575);
#211=VECTOR('',#806,0.393700787401575);
#212=VECTOR('',#807,0.393700787401575);
#213=VECTOR('',#808,0.393700787401575);
#214=VECTOR('',#813,0.0551181102362205);
#215=VECTOR('',#818,0.393700787401575);
#216=VECTOR('',#819,0.393700787401575);
#217=VECTOR('',#820,0.393700787401575);
#218=VECTOR('',#821,0.393700787401575);
#219=VECTOR('',#824,0.393700787401575);
#220=VECTOR('',#825,0.393700787401575);
#221=VECTOR('',#826,0.393700787401575);
#222=VECTOR('',#827,0.393700787401575);
#223=VECTOR('',#836,0.393700787401575);
#224=VECTOR('',#841,0.0551181102362205);
#225=VECTOR('',#848,0.393700787401575);
#226=VECTOR('',#851,0.393700787401575);
#227=VECTOR('',#854,0.393700787401575);
#228=VECTOR('',#855,0.393700787401575);
#229=VECTOR('',#856,0.393700787401575);
#230=VECTOR('',#859,0.393700787401575);
#231=VECTOR('',#860,0.393700787401575);
#232=VECTOR('',#861,0.393700787401575);
#233=VECTOR('',#870,0.393700787401575);
#234=VECTOR('',#873,0.393700787401575);
#235=VECTOR('',#878,0.393700787401575);
#236=VECTOR('',#885,0.0551181102362205);
#237=VECTOR('',#892,0.393700787401575);
#238=VECTOR('',#895,0.393700787401575);
#239=VECTOR('',#898,0.393700787401575);
#240=VECTOR('',#899,0.393700787401575);
#241=VECTOR('',#902,0.393700787401575);
#242=VECTOR('',#903,0.393700787401575);
#243=VECTOR('',#908,0.393700787401575);
#244=VECTOR('',#909,0.393700787401575);
#245=VECTOR('',#910,0.393700787401575);
#246=VECTOR('',#911,0.393700787401575);
#247=VECTOR('',#914,0.393700787401575);
#248=VECTOR('',#915,0.393700787401575);
#249=VECTOR('',#916,0.393700787401575);
#250=VECTOR('',#919,0.393700787401575);
#251=VECTOR('',#920,0.393700787401575);
#252=VECTOR('',#921,0.393700787401575);
#253=VECTOR('',#924,0.393700787401575);
#254=VECTOR('',#927,0.393700787401575);
#255=VECTOR('',#928,0.393700787401575);
#256=VECTOR('',#931,0.393700787401575);
#257=VECTOR('',#932,0.393700787401575);
#258=VECTOR('',#939,0.65);
#259=VECTOR('',#942,0.393700787401575);
#260=VECTOR('',#943,0.393700787401575);
#261=VECTOR('',#946,0.393700787401575);
#262=VECTOR('',#947,0.393700787401575);
#263=VECTOR('',#948,0.393700787401575);
#264=VECTOR('',#953,0.393700787401575);
#265=VECTOR('',#956,0.393700787401575);
#266=VECTOR('',#957,0.393700787401575);
#267=VECTOR('',#960,0.393700787401575);
#268=VECTOR('',#961,0.393700787401575);
#269=VECTOR('',#964,0.393700787401575);
#270=VECTOR('',#965,0.393700787401575);
#271=CIRCLE('',#713,0.0551181102362205);
#272=CIRCLE('',#714,0.0551181102362205);
#273=CIRCLE('',#718,0.125);
#274=CIRCLE('',#719,0.125);
#275=CIRCLE('',#723,0.0551181102362205);
#276=CIRCLE('',#724,0.0551181102362205);
#277=CIRCLE('',#728,0.125);
#278=CIRCLE('',#729,0.125);
#279=CIRCLE('',#732,0.0551181102362205);
#280=CIRCLE('',#733,0.0551181102362205);
#281=CIRCLE('',#735,0.125);
#282=CIRCLE('',#736,0.125);
#283=CIRCLE('',#740,1.05);
#284=CIRCLE('',#742,1.05);
#285=CIRCLE('',#743,1.05);
#286=CIRCLE('',#744,1.05);
#287=CIRCLE('',#745,1.05);
#288=CIRCLE('',#746,1.05);
#289=CIRCLE('',#748,0.0551181102362205);
#290=CIRCLE('',#749,0.0551181102362205);
#291=CIRCLE('',#751,0.125);
#292=CIRCLE('',#752,0.125);
#293=CIRCLE('',#761,0.955);
#294=CIRCLE('',#762,0.65);
#295=CIRCLE('',#764,0.65);
#296=CIRCLE('',#768,0.955);
#297=VERTEX_POINT('',#970);
#298=VERTEX_POINT('',#972);
#299=VERTEX_POINT('',#976);
#300=VERTEX_POINT('',#977);
#301=VERTEX_POINT('',#979);
#302=VERTEX_POINT('',#981);
#303=VERTEX_POINT('',#985);
#304=VERTEX_POINT('',#986);
#305=VERTEX_POINT('',#988);
#306=VERTEX_POINT('',#990);
#307=VERTEX_POINT('',#999);
#308=VERTEX_POINT('',#1001);
#309=VERTEX_POINT('',#1003);
#310=VERTEX_POINT('',#1007);
#311=VERTEX_POINT('',#1009);
#312=VERTEX_POINT('',#1013);
#313=VERTEX_POINT('',#1014);
#314=VERTEX_POINT('',#1016);
#315=VERTEX_POINT('',#1018);
#316=VERTEX_POINT('',#1022);
#317=VERTEX_POINT('',#1023);
#318=VERTEX_POINT('',#1025);
#319=VERTEX_POINT('',#1027);
#320=VERTEX_POINT('',#1036);
#321=VERTEX_POINT('',#1038);
#322=VERTEX_POINT('',#1042);
#323=VERTEX_POINT('',#1043);
#324=VERTEX_POINT('',#1045);
#325=VERTEX_POINT('',#1047);
#326=VERTEX_POINT('',#1051);
#327=VERTEX_POINT('',#1053);
#328=VERTEX_POINT('',#1057);
#329=VERTEX_POINT('',#1059);
#330=VERTEX_POINT('',#1065);
#331=VERTEX_POINT('',#1067);
#332=VERTEX_POINT('',#1069);
#333=VERTEX_POINT('',#1071);
#334=VERTEX_POINT('',#1074);
#335=VERTEX_POINT('',#1076);
#336=VERTEX_POINT('',#1080);
#337=VERTEX_POINT('',#1082);
#338=VERTEX_POINT('',#1086);
#339=VERTEX_POINT('',#1087);
#340=VERTEX_POINT('',#1089);
#341=VERTEX_POINT('',#1091);
#342=VERTEX_POINT('',#1102);
#343=VERTEX_POINT('',#1103);
#344=VERTEX_POINT('',#1105);
#345=VERTEX_POINT('',#1107);
#346=VERTEX_POINT('',#1111);
#347=VERTEX_POINT('',#1113);
#348=VERTEX_POINT('',#1117);
#349=VERTEX_POINT('',#1119);
#350=VERTEX_POINT('',#1125);
#351=VERTEX_POINT('',#1127);
#352=VERTEX_POINT('',#1129);
#353=VERTEX_POINT('',#1131);
#354=VERTEX_POINT('',#1134);
#355=VERTEX_POINT('',#1137);
#356=VERTEX_POINT('',#1141);
#357=VERTEX_POINT('',#1145);
#358=VERTEX_POINT('',#1146);
#359=VERTEX_POINT('',#1151);
#360=VERTEX_POINT('',#1155);
#361=EDGE_CURVE('',#297,#297,#271,.T.);
#362=EDGE_CURVE('',#297,#298,#129,.T.);
#363=EDGE_CURVE('',#298,#298,#272,.T.);
#364=EDGE_CURVE('',#299,#300,#130,.T.);
#365=EDGE_CURVE('',#300,#301,#131,.T.);
#366=EDGE_CURVE('',#301,#302,#132,.T.);
#367=EDGE_CURVE('',#299,#302,#133,.T.);
#368=EDGE_CURVE('',#303,#304,#134,.T.);
#369=EDGE_CURVE('',#303,#305,#135,.T.);
#370=EDGE_CURVE('',#305,#306,#136,.T.);
#371=EDGE_CURVE('',#304,#306,#137,.T.);
#372=EDGE_CURVE('',#299,#303,#273,.T.);
#373=EDGE_CURVE('',#302,#305,#274,.T.);
#374=EDGE_CURVE('',#306,#301,#138,.T.);
#375=EDGE_CURVE('',#301,#307,#139,.T.);
#376=EDGE_CURVE('',#308,#307,#140,.T.);
#377=EDGE_CURVE('',#309,#308,#141,.T.);
#378=EDGE_CURVE('',#309,#304,#142,.T.);
#379=EDGE_CURVE('',#310,#310,#275,.T.);
#380=EDGE_CURVE('',#310,#311,#143,.T.);
#381=EDGE_CURVE('',#311,#311,#276,.T.);
#382=EDGE_CURVE('',#312,#313,#144,.T.);
#383=EDGE_CURVE('',#312,#314,#145,.T.);
#384=EDGE_CURVE('',#315,#314,#146,.T.);
#385=EDGE_CURVE('',#313,#315,#147,.T.);
#386=EDGE_CURVE('',#316,#317,#148,.T.);
#387=EDGE_CURVE('',#318,#317,#149,.T.);
#388=EDGE_CURVE('',#319,#318,#150,.T.);
#389=EDGE_CURVE('',#316,#319,#151,.T.);
#390=EDGE_CURVE('',#312,#316,#277,.T.);
#391=EDGE_CURVE('',#314,#319,#278,.T.);
#392=EDGE_CURVE('',#315,#318,#152,.T.);
#393=EDGE_CURVE('',#320,#320,#279,.T.);
#394=EDGE_CURVE('',#320,#321,#153,.T.);
#395=EDGE_CURVE('',#321,#321,#280,.T.);
#396=EDGE_CURVE('',#322,#323,#281,.T.);
#397=EDGE_CURVE('',#322,#324,#154,.T.);
#398=EDGE_CURVE('',#324,#325,#282,.T.);
#399=EDGE_CURVE('',#323,#325,#155,.T.);
#400=EDGE_CURVE('',#322,#326,#156,.T.);
#401=EDGE_CURVE('',#327,#326,#157,.T.);
#402=EDGE_CURVE('',#327,#324,#158,.T.);
#403=EDGE_CURVE('',#323,#328,#159,.T.);
#404=EDGE_CURVE('',#325,#329,#160,.T.);
#405=EDGE_CURVE('',#328,#329,#161,.T.);
#406=EDGE_CURVE('',#329,#327,#283,.T.);
#407=EDGE_CURVE('',#326,#330,#284,.T.);
#408=EDGE_CURVE('',#330,#331,#162,.T.);
#409=EDGE_CURVE('',#331,#332,#285,.T.);
#410=EDGE_CURVE('',#332,#333,#163,.T.);
#411=EDGE_CURVE('',#333,#309,#286,.T.);
#412=EDGE_CURVE('',#334,#308,#287,.T.);
#413=EDGE_CURVE('',#335,#334,#164,.T.);
#414=EDGE_CURVE('',#335,#328,#288,.T.);
#415=EDGE_CURVE('',#336,#336,#289,.T.);
#416=EDGE_CURVE('',#336,#337,#165,.T.);
#417=EDGE_CURVE('',#337,#337,#290,.T.);
#418=EDGE_CURVE('',#338,#339,#291,.T.);
#419=EDGE_CURVE('',#339,#340,#166,.T.);
#420=EDGE_CURVE('',#341,#340,#292,.T.);
#421=EDGE_CURVE('',#338,#341,#167,.T.);
#422=EDGE_CURVE('',#338,#330,#168,.T.);
#423=EDGE_CURVE('',#331,#341,#169,.T.);
#424=EDGE_CURVE('',#339,#333,#170,.T.);
#425=EDGE_CURVE('',#340,#332,#171,.T.);
#426=EDGE_CURVE('',#342,#343,#172,.T.);
#427=EDGE_CURVE('',#342,#344,#173,.T.);
#428=EDGE_CURVE('',#345,#344,#174,.T.);
#429=EDGE_CURVE('',#343,#345,#175,.T.);
#430=EDGE_CURVE('',#343,#346,#176,.T.);
#431=EDGE_CURVE('',#347,#345,#177,.T.);
#432=EDGE_CURVE('',#346,#347,#178,.T.);
#433=EDGE_CURVE('',#346,#348,#179,.T.);
#434=EDGE_CURVE('',#349,#347,#180,.T.);
#435=EDGE_CURVE('',#348,#349,#181,.T.);
#436=EDGE_CURVE('',#344,#349,#182,.T.);
#437=EDGE_CURVE('',#350,#348,#183,.T.);
#438=EDGE_CURVE('',#350,#351,#184,.T.);
#439=EDGE_CURVE('',#351,#352,#293,.T.);
#440=EDGE_CURVE('',#352,#353,#185,.T.);
#441=EDGE_CURVE('',#342,#353,#186,.T.);
#442=EDGE_CURVE('',#354,#354,#294,.T.);
#443=EDGE_CURVE('',#355,#355,#295,.T.);
#444=EDGE_CURVE('',#355,#354,#187,.T.);
#445=EDGE_CURVE('',#307,#356,#188,.T.);
#446=EDGE_CURVE('',#356,#334,#189,.T.);
#447=EDGE_CURVE('',#357,#358,#190,.T.);
#448=EDGE_CURVE('',#357,#353,#191,.T.);
#449=EDGE_CURVE('',#358,#352,#192,.T.);
#450=EDGE_CURVE('',#358,#359,#296,.T.);
#451=EDGE_CURVE('',#359,#351,#193,.T.);
#452=EDGE_CURVE('',#360,#359,#194,.T.);
#453=EDGE_CURVE('',#360,#350,#195,.T.);
#454=EDGE_CURVE('',#335,#317,#196,.T.);
#455=EDGE_CURVE('',#315,#356,#197,.T.);
#456=EDGE_CURVE('',#357,#313,#198,.T.);
#457=EDGE_CURVE('',#300,#360,#199,.T.);
#458=ORIENTED_EDGE('',*,*,#361,.T.);
#459=ORIENTED_EDGE('',*,*,#362,.T.);
#460=ORIENTED_EDGE('',*,*,#363,.F.);
#461=ORIENTED_EDGE('',*,*,#362,.F.);
#462=ORIENTED_EDGE('',*,*,#364,.T.);
#463=ORIENTED_EDGE('',*,*,#365,.T.);
#464=ORIENTED_EDGE('',*,*,#366,.T.);
#465=ORIENTED_EDGE('',*,*,#367,.F.);
#466=ORIENTED_EDGE('',*,*,#368,.F.);
#467=ORIENTED_EDGE('',*,*,#369,.T.);
#468=ORIENTED_EDGE('',*,*,#370,.T.);
#469=ORIENTED_EDGE('',*,*,#371,.F.);
#470=ORIENTED_EDGE('',*,*,#372,.F.);
#471=ORIENTED_EDGE('',*,*,#367,.T.);
#472=ORIENTED_EDGE('',*,*,#373,.T.);
#473=ORIENTED_EDGE('',*,*,#369,.F.);
#474=ORIENTED_EDGE('',*,*,#373,.F.);
#475=ORIENTED_EDGE('',*,*,#366,.F.);
#476=ORIENTED_EDGE('',*,*,#374,.F.);
#477=ORIENTED_EDGE('',*,*,#370,.F.);
#478=ORIENTED_EDGE('',*,*,#361,.F.);
#479=ORIENTED_EDGE('',*,*,#371,.T.);
#480=ORIENTED_EDGE('',*,*,#374,.T.);
#481=ORIENTED_EDGE('',*,*,#375,.T.);
#482=ORIENTED_EDGE('',*,*,#376,.F.);
#483=ORIENTED_EDGE('',*,*,#377,.F.);
#484=ORIENTED_EDGE('',*,*,#378,.T.);
#485=ORIENTED_EDGE('',*,*,#379,.F.);
#486=ORIENTED_EDGE('',*,*,#380,.T.);
#487=ORIENTED_EDGE('',*,*,#381,.T.);
#488=ORIENTED_EDGE('',*,*,#380,.F.);
#489=ORIENTED_EDGE('',*,*,#382,.F.);
#490=ORIENTED_EDGE('',*,*,#383,.T.);
#491=ORIENTED_EDGE('',*,*,#384,.F.);
#492=ORIENTED_EDGE('',*,*,#385,.F.);
#493=ORIENTED_EDGE('',*,*,#386,.T.);
#494=ORIENTED_EDGE('',*,*,#387,.F.);
#495=ORIENTED_EDGE('',*,*,#388,.F.);
#496=ORIENTED_EDGE('',*,*,#389,.F.);
#497=ORIENTED_EDGE('',*,*,#390,.T.);
#498=ORIENTED_EDGE('',*,*,#389,.T.);
#499=ORIENTED_EDGE('',*,*,#391,.F.);
#500=ORIENTED_EDGE('',*,*,#383,.F.);
#501=ORIENTED_EDGE('',*,*,#391,.T.);
#502=ORIENTED_EDGE('',*,*,#388,.T.);
#503=ORIENTED_EDGE('',*,*,#392,.F.);
#504=ORIENTED_EDGE('',*,*,#384,.T.);
#505=ORIENTED_EDGE('',*,*,#379,.T.);
#506=ORIENTED_EDGE('',*,*,#393,.T.);
#507=ORIENTED_EDGE('',*,*,#394,.T.);
#508=ORIENTED_EDGE('',*,*,#395,.F.);
#509=ORIENTED_EDGE('',*,*,#394,.F.);
#510=ORIENTED_EDGE('',*,*,#396,.F.);
#511=ORIENTED_EDGE('',*,*,#397,.T.);
#512=ORIENTED_EDGE('',*,*,#398,.T.);
#513=ORIENTED_EDGE('',*,*,#399,.F.);
#514=ORIENTED_EDGE('',*,*,#400,.T.);
#515=ORIENTED_EDGE('',*,*,#401,.F.);
#516=ORIENTED_EDGE('',*,*,#402,.T.);
#517=ORIENTED_EDGE('',*,*,#397,.F.);
#518=ORIENTED_EDGE('',*,*,#403,.F.);
#519=ORIENTED_EDGE('',*,*,#399,.T.);
#520=ORIENTED_EDGE('',*,*,#404,.T.);
#521=ORIENTED_EDGE('',*,*,#405,.F.);
#522=ORIENTED_EDGE('',*,*,#404,.F.);
#523=ORIENTED_EDGE('',*,*,#398,.F.);
#524=ORIENTED_EDGE('',*,*,#402,.F.);
#525=ORIENTED_EDGE('',*,*,#406,.F.);
#526=ORIENTED_EDGE('',*,*,#393,.F.);
#527=ORIENTED_EDGE('',*,*,#405,.T.);
#528=ORIENTED_EDGE('',*,*,#406,.T.);
#529=ORIENTED_EDGE('',*,*,#401,.T.);
#530=ORIENTED_EDGE('',*,*,#407,.T.);
#531=ORIENTED_EDGE('',*,*,#408,.T.);
#532=ORIENTED_EDGE('',*,*,#409,.T.);
#533=ORIENTED_EDGE('',*,*,#410,.T.);
#534=ORIENTED_EDGE('',*,*,#411,.T.);
#535=ORIENTED_EDGE('',*,*,#377,.T.);
#536=ORIENTED_EDGE('',*,*,#412,.F.);
#537=ORIENTED_EDGE('',*,*,#413,.F.);
#538=ORIENTED_EDGE('',*,*,#414,.T.);
#539=ORIENTED_EDGE('',*,*,#415,.F.);
#540=ORIENTED_EDGE('',*,*,#416,.T.);
#541=ORIENTED_EDGE('',*,*,#417,.T.);
#542=ORIENTED_EDGE('',*,*,#416,.F.);
#543=ORIENTED_EDGE('',*,*,#418,.T.);
#544=ORIENTED_EDGE('',*,*,#419,.T.);
#545=ORIENTED_EDGE('',*,*,#420,.F.);
#546=ORIENTED_EDGE('',*,*,#421,.F.);
#547=ORIENTED_EDGE('',*,*,#422,.F.);
#548=ORIENTED_EDGE('',*,*,#421,.T.);
#549=ORIENTED_EDGE('',*,*,#423,.F.);
#550=ORIENTED_EDGE('',*,*,#408,.F.);
#551=ORIENTED_EDGE('',*,*,#424,.T.);
#552=ORIENTED_EDGE('',*,*,#410,.F.);
#553=ORIENTED_EDGE('',*,*,#425,.F.);
#554=ORIENTED_EDGE('',*,*,#419,.F.);
#555=ORIENTED_EDGE('',*,*,#425,.T.);
#556=ORIENTED_EDGE('',*,*,#409,.F.);
#557=ORIENTED_EDGE('',*,*,#423,.T.);
#558=ORIENTED_EDGE('',*,*,#420,.T.);
#559=ORIENTED_EDGE('',*,*,#415,.T.);
#560=ORIENTED_EDGE('',*,*,#426,.F.);
#561=ORIENTED_EDGE('',*,*,#427,.T.);
#562=ORIENTED_EDGE('',*,*,#428,.F.);
#563=ORIENTED_EDGE('',*,*,#429,.F.);
#564=ORIENTED_EDGE('',*,*,#430,.F.);
#565=ORIENTED_EDGE('',*,*,#429,.T.);
#566=ORIENTED_EDGE('',*,*,#431,.F.);
#567=ORIENTED_EDGE('',*,*,#432,.F.);
#568=ORIENTED_EDGE('',*,*,#433,.F.);
#569=ORIENTED_EDGE('',*,*,#432,.T.);
#570=ORIENTED_EDGE('',*,*,#434,.F.);
#571=ORIENTED_EDGE('',*,*,#435,.F.);
#572=ORIENTED_EDGE('',*,*,#434,.T.);
#573=ORIENTED_EDGE('',*,*,#431,.T.);
#574=ORIENTED_EDGE('',*,*,#428,.T.);
#575=ORIENTED_EDGE('',*,*,#436,.T.);
#576=ORIENTED_EDGE('',*,*,#426,.T.);
#577=ORIENTED_EDGE('',*,*,#430,.T.);
#578=ORIENTED_EDGE('',*,*,#433,.T.);
#579=ORIENTED_EDGE('',*,*,#437,.F.);
#580=ORIENTED_EDGE('',*,*,#438,.T.);
#581=ORIENTED_EDGE('',*,*,#439,.T.);
#582=ORIENTED_EDGE('',*,*,#440,.T.);
#583=ORIENTED_EDGE('',*,*,#441,.F.);
#584=ORIENTED_EDGE('',*,*,#442,.T.);
#585=ORIENTED_EDGE('',*,*,#443,.F.);
#586=ORIENTED_EDGE('',*,*,#444,.T.);
#587=ORIENTED_EDGE('',*,*,#442,.F.);
#588=ORIENTED_EDGE('',*,*,#444,.F.);
#589=ORIENTED_EDGE('',*,*,#445,.T.);
#590=ORIENTED_EDGE('',*,*,#446,.T.);
#591=ORIENTED_EDGE('',*,*,#412,.T.);
#592=ORIENTED_EDGE('',*,*,#376,.T.);
#593=ORIENTED_EDGE('',*,*,#443,.T.);
#594=ORIENTED_EDGE('',*,*,#447,.F.);
#595=ORIENTED_EDGE('',*,*,#448,.T.);
#596=ORIENTED_EDGE('',*,*,#440,.F.);
#597=ORIENTED_EDGE('',*,*,#449,.F.);
#598=ORIENTED_EDGE('',*,*,#450,.F.);
#599=ORIENTED_EDGE('',*,*,#449,.T.);
#600=ORIENTED_EDGE('',*,*,#439,.F.);
#601=ORIENTED_EDGE('',*,*,#451,.F.);
#602=ORIENTED_EDGE('',*,*,#452,.T.);
#603=ORIENTED_EDGE('',*,*,#451,.T.);
#604=ORIENTED_EDGE('',*,*,#438,.F.);
#605=ORIENTED_EDGE('',*,*,#453,.F.);
#606=ORIENTED_EDGE('',*,*,#387,.T.);
#607=ORIENTED_EDGE('',*,*,#454,.F.);
#608=ORIENTED_EDGE('',*,*,#413,.T.);
#609=ORIENTED_EDGE('',*,*,#446,.F.);
#610=ORIENTED_EDGE('',*,*,#455,.F.);
#611=ORIENTED_EDGE('',*,*,#392,.T.);
#612=ORIENTED_EDGE('',*,*,#456,.T.);
#613=ORIENTED_EDGE('',*,*,#385,.T.);
#614=ORIENTED_EDGE('',*,*,#455,.T.);
#615=ORIENTED_EDGE('',*,*,#445,.F.);
#616=ORIENTED_EDGE('',*,*,#375,.F.);
#617=ORIENTED_EDGE('',*,*,#365,.F.);
#618=ORIENTED_EDGE('',*,*,#457,.T.);
#619=ORIENTED_EDGE('',*,*,#453,.T.);
#620=ORIENTED_EDGE('',*,*,#437,.T.);
#621=ORIENTED_EDGE('',*,*,#435,.T.);
#622=ORIENTED_EDGE('',*,*,#436,.F.);
#623=ORIENTED_EDGE('',*,*,#427,.F.);
#624=ORIENTED_EDGE('',*,*,#441,.T.);
#625=ORIENTED_EDGE('',*,*,#448,.F.);
#626=ORIENTED_EDGE('',*,*,#456,.F.);
#627=ORIENTED_EDGE('',*,*,#447,.T.);
#628=ORIENTED_EDGE('',*,*,#450,.T.);
#629=ORIENTED_EDGE('',*,*,#452,.F.);
#630=ORIENTED_EDGE('',*,*,#457,.F.);
#631=ORIENTED_EDGE('',*,*,#364,.F.);
#632=ORIENTED_EDGE('',*,*,#372,.T.);
#633=ORIENTED_EDGE('',*,*,#368,.T.);
#634=ORIENTED_EDGE('',*,*,#378,.F.);
#635=ORIENTED_EDGE('',*,*,#411,.F.);
#636=ORIENTED_EDGE('',*,*,#424,.F.);
#637=ORIENTED_EDGE('',*,*,#418,.F.);
#638=ORIENTED_EDGE('',*,*,#422,.T.);
#639=ORIENTED_EDGE('',*,*,#407,.F.);
#640=ORIENTED_EDGE('',*,*,#400,.F.);
#641=ORIENTED_EDGE('',*,*,#396,.T.);
#642=ORIENTED_EDGE('',*,*,#403,.T.);
#643=ORIENTED_EDGE('',*,*,#414,.F.);
#644=ORIENTED_EDGE('',*,*,#454,.T.);
#645=ORIENTED_EDGE('',*,*,#386,.F.);
#646=ORIENTED_EDGE('',*,*,#390,.F.);
#647=ORIENTED_EDGE('',*,*,#382,.T.);
#648=ORIENTED_EDGE('',*,*,#363,.T.);
#649=ORIENTED_EDGE('',*,*,#381,.F.);
#650=ORIENTED_EDGE('',*,*,#395,.T.);
#651=ORIENTED_EDGE('',*,*,#417,.F.);
#652=CYLINDRICAL_SURFACE('',#712,0.0551181102362205);
#653=CYLINDRICAL_SURFACE('',#717,0.125);
#654=CYLINDRICAL_SURFACE('',#722,0.0551181102362205);
#655=CYLINDRICAL_SURFACE('',#727,0.125);
#656=CYLINDRICAL_SURFACE('',#731,0.0551181102362205);
#657=CYLINDRICAL_SURFACE('',#734,0.125);
#658=CYLINDRICAL_SURFACE('',#741,1.05);
#659=CYLINDRICAL_SURFACE('',#747,0.0551181102362205);
#660=CYLINDRICAL_SURFACE('',#750,0.125);
#661=CYLINDRICAL_SURFACE('',#763,0.65);
#662=CYLINDRICAL_SURFACE('',#767,0.955);
#663=ADVANCED_FACE('',(#49),#652,.F.);
#664=ADVANCED_FACE('',(#50),#25,.F.);
#665=ADVANCED_FACE('',(#51),#26,.F.);
#666=ADVANCED_FACE('',(#52),#653,.T.);
#667=ADVANCED_FACE('',(#53,#15),#27,.F.);
#668=ADVANCED_FACE('',(#54),#28,.T.);
#669=ADVANCED_FACE('',(#55),#654,.F.);
#670=ADVANCED_FACE('',(#56),#29,.T.);
#671=ADVANCED_FACE('',(#57),#30,.T.);
#672=ADVANCED_FACE('',(#58),#655,.T.);
#673=ADVANCED_FACE('',(#59,#16),#31,.T.);
#674=ADVANCED_FACE('',(#60),#656,.F.);
#675=ADVANCED_FACE('',(#61),#657,.T.);
#676=ADVANCED_FACE('',(#62),#32,.F.);
#677=ADVANCED_FACE('',(#63),#33,.F.);
#678=ADVANCED_FACE('',(#64,#17),#34,.F.);
#679=ADVANCED_FACE('',(#65),#658,.T.);
#680=ADVANCED_FACE('',(#66),#659,.F.);
#681=ADVANCED_FACE('',(#67),#660,.T.);
#682=ADVANCED_FACE('',(#68),#35,.T.);
#683=ADVANCED_FACE('',(#69),#36,.T.);
#684=ADVANCED_FACE('',(#70,#18),#37,.T.);
#685=ADVANCED_FACE('',(#71),#38,.T.);
#686=ADVANCED_FACE('',(#72),#39,.T.);
#687=ADVANCED_FACE('',(#73),#40,.T.);
#688=ADVANCED_FACE('',(#74),#41,.T.);
#689=ADVANCED_FACE('',(#75,#19),#42,.F.);
#690=ADVANCED_FACE('',(#76),#661,.F.);
#691=ADVANCED_FACE('',(#77,#20),#43,.T.);
#692=ADVANCED_FACE('',(#78),#44,.T.);
#693=ADVANCED_FACE('',(#79),#662,.F.);
#694=ADVANCED_FACE('',(#80),#45,.T.);
#695=ADVANCED_FACE('',(#81),#46,.T.);
#696=ADVANCED_FACE('',(#82),#47,.T.);
#697=ADVANCED_FACE('',(#83,#21,#22,#23,#24),#48,.F.);
#698=CLOSED_SHELL('',(#663,#664,#665,#666,#667,#668,#669,#670,#671,#672,
#673,#674,#675,#676,#677,#678,#679,#680,#681,#682,#683,#684,#685,#686,#687,
#688,#689,#690,#691,#692,#693,#694,#695,#696,#697));
#699=DERIVED_UNIT_ELEMENT(#701,1.);
#700=DERIVED_UNIT_ELEMENT(#1172,-3.);
#701=(
MASS_UNIT()
NAMED_UNIT(*)
SI_UNIT(.KILO.,.GRAM.)
);
#702=DERIVED_UNIT((#699,#700));
#703=MEASURE_REPRESENTATION_ITEM('density measure',
POSITIVE_RATIO_MEASURE(7850.),#702);
#704=PROPERTY_DEFINITION_REPRESENTATION(#709,#706);
#705=PROPERTY_DEFINITION_REPRESENTATION(#710,#707);
#706=REPRESENTATION('material name',(#708),#1167);
#707=REPRESENTATION('density',(#703),#1167);
#708=DESCRIPTIVE_REPRESENTATION_ITEM('Steel','Steel');
#709=PROPERTY_DEFINITION('material property','material name',#1180);
#710=PROPERTY_DEFINITION('material property','density of part',#1180);
#711=AXIS2_PLACEMENT_3D('',#968,#773,#774);
#712=AXIS2_PLACEMENT_3D('',#969,#775,#776);
#713=AXIS2_PLACEMENT_3D('',#971,#777,#778);
#714=AXIS2_PLACEMENT_3D('',#974,#780,#781);
#715=AXIS2_PLACEMENT_3D('',#975,#782,#783);
#716=AXIS2_PLACEMENT_3D('',#984,#788,#789);
#717=AXIS2_PLACEMENT_3D('',#993,#794,#795);
#718=AXIS2_PLACEMENT_3D('',#994,#796,#797);
#719=AXIS2_PLACEMENT_3D('',#995,#798,#799);
#720=AXIS2_PLACEMENT_3D('',#996,#800,#801);
#721=AXIS2_PLACEMENT_3D('',#998,#803,#804);
#722=AXIS2_PLACEMENT_3D('',#1006,#809,#810);
#723=AXIS2_PLACEMENT_3D('',#1008,#811,#812);
#724=AXIS2_PLACEMENT_3D('',#1011,#814,#815);
#725=AXIS2_PLACEMENT_3D('',#1012,#816,#817);
#726=AXIS2_PLACEMENT_3D('',#1021,#822,#823);
#727=AXIS2_PLACEMENT_3D('',#1030,#828,#829);
#728=AXIS2_PLACEMENT_3D('',#1031,#830,#831);
#729=AXIS2_PLACEMENT_3D('',#1032,#832,#833);
#730=AXIS2_PLACEMENT_3D('',#1033,#834,#835);
#731=AXIS2_PLACEMENT_3D('',#1035,#837,#838);
#732=AXIS2_PLACEMENT_3D('',#1037,#839,#840);
#733=AXIS2_PLACEMENT_3D('',#1040,#842,#843);
#734=AXIS2_PLACEMENT_3D('',#1041,#844,#845);
#735=AXIS2_PLACEMENT_3D('',#1044,#846,#847);
#736=AXIS2_PLACEMENT_3D('',#1048,#849,#850);
#737=AXIS2_PLACEMENT_3D('',#1050,#852,#853);
#738=AXIS2_PLACEMENT_3D('',#1056,#857,#858);
#739=AXIS2_PLACEMENT_3D('',#1062,#862,#863);
#740=AXIS2_PLACEMENT_3D('',#1063,#864,#865);
#741=AXIS2_PLACEMENT_3D('',#1064,#866,#867);
#742=AXIS2_PLACEMENT_3D('',#1066,#868,#869);
#743=AXIS2_PLACEMENT_3D('',#1070,#871,#872);
#744=AXIS2_PLACEMENT_3D('',#1073,#874,#875);
#745=AXIS2_PLACEMENT_3D('',#1075,#876,#877);
#746=AXIS2_PLACEMENT_3D('',#1078,#879,#880);
#747=AXIS2_PLACEMENT_3D('',#1079,#881,#882);
#748=AXIS2_PLACEMENT_3D('',#1081,#883,#884);
#749=AXIS2_PLACEMENT_3D('',#1084,#886,#887);
#750=AXIS2_PLACEMENT_3D('',#1085,#888,#889);
#751=AXIS2_PLACEMENT_3D('',#1088,#890,#891);
#752=AXIS2_PLACEMENT_3D('',#1092,#893,#894);
#753=AXIS2_PLACEMENT_3D('',#1094,#896,#897);
#754=AXIS2_PLACEMENT_3D('',#1097,#900,#901);
#755=AXIS2_PLACEMENT_3D('',#1100,#904,#905);
#756=AXIS2_PLACEMENT_3D('',#1101,#906,#907);
#757=AXIS2_PLACEMENT_3D('',#1110,#912,#913);
#758=AXIS2_PLACEMENT_3D('',#1116,#917,#918);
#759=AXIS2_PLACEMENT_3D('',#1122,#922,#923);
#760=AXIS2_PLACEMENT_3D('',#1124,#925,#926);
#761=AXIS2_PLACEMENT_3D('',#1130,#929,#930);
#762=AXIS2_PLACEMENT_3D('',#1135,#933,#934);
#763=AXIS2_PLACEMENT_3D('',#1136,#935,#936);
#764=AXIS2_PLACEMENT_3D('',#1138,#937,#938);
#765=AXIS2_PLACEMENT_3D('',#1140,#940,#941);
#766=AXIS2_PLACEMENT_3D('',#1144,#944,#945);
#767=AXIS2_PLACEMENT_3D('',#1150,#949,#950);
#768=AXIS2_PLACEMENT_3D('',#1152,#951,#952);
#769=AXIS2_PLACEMENT_3D('',#1154,#954,#955);
#770=AXIS2_PLACEMENT_3D('',#1158,#958,#959);
#771=AXIS2_PLACEMENT_3D('',#1161,#962,#963);
#772=AXIS2_PLACEMENT_3D('',#1164,#966,#967);
#773=DIRECTION('axis',(0.,0.,1.));
#774=DIRECTION('refdir',(1.,0.,0.));
#775=DIRECTION('center_axis',(0.,0.,-1.));
#776=DIRECTION('ref_axis',(1.,0.,0.));
#777=DIRECTION('center_axis',(0.,0.,1.));
#778=DIRECTION('ref_axis',(1.,0.,0.));
#779=DIRECTION('',(0.,0.,-1.));
#780=DIRECTION('center_axis',(0.,0.,1.));
#781=DIRECTION('ref_axis',(1.,0.,0.));
#782=DIRECTION('center_axis',(0.975431499139137,-0.220302951607952,0.));
#783=DIRECTION('ref_axis',(0.220302951607952,0.975431499139137,0.));
#784=DIRECTION('',(-0.220302951607952,-0.975431499139137,0.));
#785=DIRECTION('',(0.,0.,1.));
#786=DIRECTION('',(0.220302951607952,0.975431499139137,0.));
#787=DIRECTION('',(0.,0.,1.));
#788=DIRECTION('center_axis',(-0.975431477809511,-0.220303046048741,0.));
#789=DIRECTION('ref_axis',(0.220303046048741,-0.975431477809511,0.));
#790=DIRECTION('',(0.220303046048741,-0.975431477809511,0.));
#791=DIRECTION('',(0.,0.,1.));
#792=DIRECTION('',(0.220303046048741,-0.975431477809511,0.));
#793=DIRECTION('',(0.,0.,1.));
#794=DIRECTION('center_axis',(0.,0.,-1.));
#795=DIRECTION('ref_axis',(1.,0.,0.));
#796=DIRECTION('center_axis',(0.,0.,-1.));
#797=DIRECTION('ref_axis',(1.,0.,0.));
#798=DIRECTION('center_axis',(0.,0.,-1.));
#799=DIRECTION('ref_axis',(1.,0.,0.));
#800=DIRECTION('center_axis',(0.,0.,-1.));
#801=DIRECTION('ref_axis',(1.,0.,0.));
#802=DIRECTION('',(-1.,0.,0.));
#803=DIRECTION('center_axis',(0.,1.,0.));
#804=DIRECTION('ref_axis',(-1.,0.,0.));
#805=DIRECTION('',(0.,0.,1.));
#806=DIRECTION('',(-1.,0.,0.));
#807=DIRECTION('',(0.,0.,1.));
#808=DIRECTION('',(-1.,0.,0.));
#809=DIRECTION('center_axis',(0.,0.,1.));
#810=DIRECTION('ref_axis',(1.,0.,0.));
#811=DIRECTION('center_axis',(0.,0.,-1.));
#812=DIRECTION('ref_axis',(1.,0.,0.));
#813=DIRECTION('',(0.,0.,-1.));
#814=DIRECTION('center_axis',(0.,0.,-1.));
#815=DIRECTION('ref_axis',(1.,0.,0.));
#816=DIRECTION('center_axis',(-0.975431499139137,-0.220302951607952,0.));
#817=DIRECTION('ref_axis',(0.220302951607952,-0.975431499139137,0.));
#818=DIRECTION('',(-0.220302951607952,0.975431499139137,0.));
#819=DIRECTION('',(0.,0.,1.));
#820=DIRECTION('',(0.220302951607952,-0.975431499139137,0.));
#821=DIRECTION('',(0.,0.,1.));
#822=DIRECTION('center_axis',(0.975431477809511,-0.220303046048741,0.));
#823=DIRECTION('ref_axis',(0.220303046048741,0.975431477809511,0.));
#824=DIRECTION('',(0.220303046048741,0.975431477809511,0.));
#825=DIRECTION('',(0.,0.,-1.));
#826=DIRECTION('',(0.220303046048741,0.975431477809511,0.));
#827=DIRECTION('',(0.,0.,1.));
#828=DIRECTION('center_axis',(0.,0.,1.));
#829=DIRECTION('ref_axis',(1.,0.,0.));
#830=DIRECTION('center_axis',(0.,0.,1.));
#831=DIRECTION('ref_axis',(1.,0.,0.));
#832=DIRECTION('center_axis',(0.,0.,1.));
#833=DIRECTION('ref_axis',(1.,0.,0.));
#834=DIRECTION('center_axis',(0.,0.,1.));
#835=DIRECTION('ref_axis',(1.,0.,0.));
#836=DIRECTION('',(1.,0.,0.));
#837=DIRECTION('center_axis',(0.,0.,-1.));
#838=DIRECTION('ref_axis',(1.,0.,0.));
#839=DIRECTION('center_axis',(0.,0.,1.));
#840=DIRECTION('ref_axis',(1.,0.,0.));
#841=DIRECTION('',(0.,0.,-1.));
#842=DIRECTION('center_axis',(0.,0.,1.));
#843=DIRECTION('ref_axis',(1.,0.,0.));
#844=DIRECTION('center_axis',(0.,0.,-1.));
#845=DIRECTION('ref_axis',(1.,0.,0.));
#846=DIRECTION('center_axis',(0.,0.,-1.));
#847=DIRECTION('ref_axis',(1.,0.,0.));
#848=DIRECTION('',(0.,0.,1.));
#849=DIRECTION('center_axis',(0.,0.,-1.));
#850=DIRECTION('ref_axis',(1.,0.,0.));
#851=DIRECTION('',(0.,0.,1.));
#852=DIRECTION('center_axis',(-0.916794281012848,-0.399359795550499,0.));
#853=DIRECTION('ref_axis',(0.399359795550499,-0.916794281012847,0.));
#854=DIRECTION('',(-0.399359795550499,0.916794281012847,0.));
#855=DIRECTION('',(0.,0.,-1.));
#856=DIRECTION('',(0.399359795550499,-0.916794281012847,0.));
#857=DIRECTION('center_axis',(0.399359795550497,0.916794281012848,0.));
#858=DIRECTION('ref_axis',(-0.916794281012848,0.399359795550497,0.));
#859=DIRECTION('',(-0.916794281012848,0.399359795550497,0.));
#860=DIRECTION('',(-0.916794281012848,0.399359795550497,0.));
#861=DIRECTION('',(0.,0.,1.));
#862=DIRECTION('center_axis',(0.,0.,-1.));
#863=DIRECTION('ref_axis',(1.,0.,0.));
#864=DIRECTION('center_axis',(0.,0.,1.));
#865=DIRECTION('ref_axis',(0.,-1.,0.));
#866=DIRECTION('center_axis',(0.,0.,1.));
#867=DIRECTION('ref_axis',(0.,-1.,0.));
#868=DIRECTION('center_axis',(0.,0.,1.));
#869=DIRECTION('ref_axis',(0.,-1.,0.));
#870=DIRECTION('',(0.,0.,1.));
#871=DIRECTION('center_axis',(0.,0.,1.));
#872=DIRECTION('ref_axis',(0.,-1.,0.));
#873=DIRECTION('',(0.,0.,-1.));
#874=DIRECTION('center_axis',(0.,0.,1.));
#875=DIRECTION('ref_axis',(0.,-1.,0.));
#876=DIRECTION('center_axis',(0.,0.,1.));
#877=DIRECTION('ref_axis',(0.,-1.,0.));
#878=DIRECTION('',(0.,0.,1.));
#879=DIRECTION('center_axis',(0.,0.,1.));
#880=DIRECTION('ref_axis',(0.,-1.,0.));
#881=DIRECTION('center_axis',(0.,0.,1.));
#882=DIRECTION('ref_axis',(1.,0.,0.));
#883=DIRECTION('center_axis',(0.,0.,-1.));
#884=DIRECTION('ref_axis',(1.,0.,0.));
#885=DIRECTION('',(0.,0.,-1.));
#886=DIRECTION('center_axis',(0.,0.,-1.));
#887=DIRECTION('ref_axis',(1.,0.,0.));
#888=DIRECTION('center_axis',(0.,0.,1.));
#889=DIRECTION('ref_axis',(1.,0.,0.));
#890=DIRECTION('center_axis',(0.,0.,1.));
#891=DIRECTION('ref_axis',(1.,0.,0.));
#892=DIRECTION('',(0.,0.,1.));
#893=DIRECTION('center_axis',(0.,0.,1.));
#894=DIRECTION('ref_axis',(1.,0.,0.));
#895=DIRECTION('',(0.,0.,1.));
#896=DIRECTION('center_axis',(0.916794281012848,-0.399359795550499,0.));
#897=DIRECTION('ref_axis',(0.399359795550499,0.916794281012847,0.));
#898=DIRECTION('',(-0.399359795550499,-0.916794281012847,0.));
#899=DIRECTION('',(0.399359795550499,0.916794281012847,0.));
#900=DIRECTION('center_axis',(-0.399359795550497,0.916794281012848,0.));
#901=DIRECTION('ref_axis',(-0.916794281012848,-0.399359795550497,0.));
#902=DIRECTION('',(-0.916794281012848,-0.399359795550497,0.));
#903=DIRECTION('',(-0.916794281012848,-0.399359795550497,0.));
#904=DIRECTION('center_axis',(0.,0.,1.));
#905=DIRECTION('ref_axis',(1.,0.,0.));
#906=DIRECTION('center_axis',(0.,-1.,0.));
#907=DIRECTION('ref_axis',(-1.,0.,0.));
#908=DIRECTION('',(1.,0.,0.));
#909=DIRECTION('',(0.,0.,-1.));
#910=DIRECTION('',(-1.,0.,0.));
#911=DIRECTION('',(0.,0.,-1.));
#912=DIRECTION('center_axis',(1.,0.,0.));
#913=DIRECTION('ref_axis',(0.,-1.,0.));
#914=DIRECTION('',(0.,1.,0.));
#915=DIRECTION('',(0.,-1.,0.));
#916=DIRECTION('',(0.,0.,-1.));
#917=DIRECTION('center_axis',(0.,1.,0.));
#918=DIRECTION('ref_axis',(1.,0.,0.));
#919=DIRECTION('',(-1.,0.,0.));
#920=DIRECTION('',(1.,0.,0.));
#921=DIRECTION('',(0.,0.,-1.));
#922=DIRECTION('center_axis',(0.,0.,-1.));
#923=DIRECTION('ref_axis',(-1.,0.,0.));
#924=DIRECTION('',(0.,1.,0.));
#925=DIRECTION('center_axis',(0.,0.,1.));
#926=DIRECTION('ref_axis',(-1.,0.,0.));
#927=DIRECTION('',(0.,-1.,0.));
#928=DIRECTION('',(1.,0.,0.));
#929=DIRECTION('center_axis',(0.,0.,-1.));
#930=DIRECTION('ref_axis',(0.,-1.,0.));
#931=DIRECTION('',(-1.,0.,0.));
#932=DIRECTION('',(0.,-1.,0.));
#933=DIRECTION('center_axis',(0.,0.,1.));
#934=DIRECTION('ref_axis',(-1.,0.,0.));
#935=DIRECTION('center_axis',(0.,0.,-1.));
#936=DIRECTION('ref_axis',(-1.,0.,0.));
#937=DIRECTION('center_axis',(0.,0.,-1.));
#938=DIRECTION('ref_axis',(-1.,0.,0.));
#939=DIRECTION('',(0.,0.,-1.));
#940=DIRECTION('center_axis',(0.,0.,1.));
#941=DIRECTION('ref_axis',(-1.,0.,0.));
#942=DIRECTION('',(0.,-1.,0.));
#943=DIRECTION('',(1.,0.,0.));
#944=DIRECTION('center_axis',(0.,1.,0.));
#945=DIRECTION('ref_axis',(-1.,0.,0.));
#946=DIRECTION('',(1.,0.,0.));
#947=DIRECTION('',(0.,0.,1.));
#948=DIRECTION('',(0.,0.,1.));
#949=DIRECTION('center_axis',(0.,0.,1.));
#950=DIRECTION('ref_axis',(0.,-1.,0.));
#951=DIRECTION('center_axis',(0.,0.,1.));
#952=DIRECTION('ref_axis',(0.,-1.,0.));
#953=DIRECTION('',(0.,0.,1.));
#954=DIRECTION('center_axis',(0.,-1.,0.));
#955=DIRECTION('ref_axis',(1.,0.,0.));
#956=DIRECTION('',(1.,0.,0.));
#957=DIRECTION('',(0.,0.,1.));
#958=DIRECTION('center_axis',(0.,-1.,0.));
#959=DIRECTION('ref_axis',(1.,0.,0.));
#960=DIRECTION('',(-1.,0.,0.));
#961=DIRECTION('',(0.,0.,1.));
#962=DIRECTION('center_axis',(-1.,0.,0.));
#963=DIRECTION('ref_axis',(0.,-1.,0.));
#964=DIRECTION('',(0.,-1.,0.));
#965=DIRECTION('',(0.,-1.,0.));
#966=DIRECTION('center_axis',(0.,0.,1.));
#967=DIRECTION('ref_axis',(1.,0.,0.));
#968=CARTESIAN_POINT('',(0.,0.,0.));
#969=CARTESIAN_POINT('Origin',(-1.35,1.15,0.));
#970=CARTESIAN_POINT('',(-1.40511811023622,1.15,0.118110236220472));
#971=CARTESIAN_POINT('Origin',(-1.35,1.15,0.118110236220472));
#972=CARTESIAN_POINT('',(-1.40511811023622,1.15,0.));
#973=CARTESIAN_POINT('',(-1.40511811023622,1.15,0.));
#974=CARTESIAN_POINT('Origin',(-1.35,1.15,0.));
#975=CARTESIAN_POINT('Origin',(-1.5,1.05,0.));
#976=CARTESIAN_POINT('',(-1.47417329563328,1.16435244409748,0.));
#977=CARTESIAN_POINT('',(-1.5,1.05,0.));
#978=CARTESIAN_POINT('',(-1.47417329563328,1.16435244409748,0.));
#979=CARTESIAN_POINT('',(-1.5,1.05,0.118110236220472));
#980=CARTESIAN_POINT('',(-1.5,1.05,0.));
#981=CARTESIAN_POINT('',(-1.47417329563328,1.16435244409748,0.118110236220472));
#982=CARTESIAN_POINT('',(-1.47417329563328,1.16435244409748,0.118110236220472));
#983=CARTESIAN_POINT('',(-1.47417329563328,1.16435244409748,0.));
#984=CARTESIAN_POINT('Origin',(-1.22582670436672,1.16435244409748,0.));
#985=CARTESIAN_POINT('',(-1.22582670436672,1.16435244409748,0.));
#986=CARTESIAN_POINT('',(-1.19999998549777,1.04999998731055,0.));
#987=CARTESIAN_POINT('',(-1.22582670436672,1.16435244409748,0.));
#988=CARTESIAN_POINT('',(-1.22582670436672,1.16435244409748,0.118110236220472));
#989=CARTESIAN_POINT('',(-1.22582670436672,1.16435244409748,0.));
#990=CARTESIAN_POINT('',(-1.19999998549777,1.04999998731055,0.118110236220472));
#991=CARTESIAN_POINT('',(-1.22582670436672,1.16435244409748,0.118110236220472));
#992=CARTESIAN_POINT('',(-1.1999999883637,1.05,0.));
#993=CARTESIAN_POINT('Origin',(-1.35,1.15,0.));
#994=CARTESIAN_POINT('Origin',(-1.35,1.15,0.));
#995=CARTESIAN_POINT('Origin',(-1.35,1.15,0.118110236220472));
#996=CARTESIAN_POINT('Origin',(-1.34999999274888,1.16249999365527,0.118110236220472));
#997=CARTESIAN_POINT('',(-0.674999996374442,1.05,0.118110236220472));
#998=CARTESIAN_POINT('Origin',(0.,1.05,0.));
#999=CARTESIAN_POINT('',(-1.5,1.05,0.296850393700787));
#1000=CARTESIAN_POINT('',(-1.5,1.05,0.));
#1001=CARTESIAN_POINT('',(0.,1.05,0.296850393700787));
#1002=CARTESIAN_POINT('',(6.4293956955236E-17,1.05,0.296850393700787));
#1003=CARTESIAN_POINT('',(1.28587913910472E-16,1.05,0.));
#1004=CARTESIAN_POINT('',(1.28587913910472E-16,1.05,0.));
#1005=CARTESIAN_POINT('',(0.,1.05,0.));
#1006=CARTESIAN_POINT('Origin',(-1.35,-1.15,0.));
#1007=CARTESIAN_POINT('',(-1.40511811023622,-1.15,0.118110236220472));
#1008=CARTESIAN_POINT('Origin',(-1.35,-1.15,0.118110236220472));
#1009=CARTESIAN_POINT('',(-1.40511811023622,-1.15,0.));
#1010=CARTESIAN_POINT('',(-1.40511811023622,-1.15,0.));
#1011=CARTESIAN_POINT('Origin',(-1.35,-1.15,0.));
#1012=CARTESIAN_POINT('Origin',(-1.5,-1.05,0.));
#1013=CARTESIAN_POINT('',(-1.47417329563328,-1.16435244409748,0.));
#1014=CARTESIAN_POINT('',(-1.5,-1.05,0.));
#1015=CARTESIAN_POINT('',(-1.47417329563328,-1.16435244409748,0.));
#1016=CARTESIAN_POINT('',(-1.47417329563328,-1.16435244409748,0.118110236220472));
#1017=CARTESIAN_POINT('',(-1.47417329563328,-1.16435244409748,0.));
#1018=CARTESIAN_POINT('',(-1.5,-1.05,0.118110236220472));
#1019=CARTESIAN_POINT('',(-1.47417329563328,-1.16435244409748,0.118110236220472));
#1020=CARTESIAN_POINT('',(-1.5,-1.05,0.));
#1021=CARTESIAN_POINT('Origin',(-1.22582670436672,-1.16435244409748,0.));
#1022=CARTESIAN_POINT('',(-1.22582670436672,-1.16435244409748,0.));
#1023=CARTESIAN_POINT('',(-1.19999998549777,-1.04999998731055,0.));
#1024=CARTESIAN_POINT('',(-1.22582670436672,-1.16435244409748,0.));
#1025=CARTESIAN_POINT('',(-1.19999998549777,-1.04999998731055,0.118110236220472));
#1026=CARTESIAN_POINT('',(-1.1999999883637,-1.05,0.));
#1027=CARTESIAN_POINT('',(-1.22582670436672,-1.16435244409748,0.118110236220472));
#1028=CARTESIAN_POINT('',(-1.22582670436672,-1.16435244409748,0.118110236220472));
#1029=CARTESIAN_POINT('',(-1.22582670436672,-1.16435244409748,0.));
#1030=CARTESIAN_POINT('Origin',(-1.35,-1.15,0.));
#1031=CARTESIAN_POINT('Origin',(-1.35,-1.15,0.));
#1032=CARTESIAN_POINT('Origin',(-1.35,-1.15,0.118110236220472));
#1033=CARTESIAN_POINT('Origin',(-1.34999999274888,-1.16249999365527,0.118110236220472));
#1034=CARTESIAN_POINT('',(-1.42499999637444,-1.05,0.118110236220472));
#1035=CARTESIAN_POINT('Origin',(0.813172798364529,-0.813172798364529,0.));
#1036=CARTESIAN_POINT('',(0.758054688128309,-0.813172798364529,0.118110236220472));
#1037=CARTESIAN_POINT('Origin',(0.813172798364529,-0.813172798364529,0.118110236220472));
#1038=CARTESIAN_POINT('',(0.758054688128309,-0.813172798364529,0.));
#1039=CARTESIAN_POINT('',(0.758054688128309,-0.813172798364529,0.));
#1040=CARTESIAN_POINT('Origin',(0.813172798364529,-0.813172798364529,0.));
#1041=CARTESIAN_POINT('Origin',(0.813172798364529,-0.813172798364529,0.));
#1042=CARTESIAN_POINT('',(0.926449348335116,-0.760319953344027,0.));
#1043=CARTESIAN_POINT('',(0.760319953344024,-0.926449348335115,0.));
#1044=CARTESIAN_POINT('Origin',(0.813172798364529,-0.813172798364529,0.));
#1045=CARTESIAN_POINT('',(0.926449348335116,-0.760319953344027,0.118110236220472));
#1046=CARTESIAN_POINT('',(0.926449348335116,-0.760319953344027,0.));
#1047=CARTESIAN_POINT('',(0.760319953344024,-0.926449348335115,0.118110236220472));
#1048=CARTESIAN_POINT('Origin',(0.813172798364529,-0.813172798364529,0.118110236220472));
#1049=CARTESIAN_POINT('',(0.760319953344024,-0.926449348335115,0.));
#1050=CARTESIAN_POINT('Origin',(0.85855818309153,-0.604464925571841,0.));
#1051=CARTESIAN_POINT('',(0.85855818309153,-0.604464925571841,0.));
#1052=CARTESIAN_POINT('',(0.926449348335116,-0.760319953344027,0.));
#1053=CARTESIAN_POINT('',(0.85855818309153,-0.604464925571841,0.118110236220472));
#1054=CARTESIAN_POINT('',(0.85855818309153,-0.604464925571841,0.));
#1055=CARTESIAN_POINT('',(0.926449348335116,-0.760319953344027,0.118110236220472));
#1056=CARTESIAN_POINT('Origin',(0.760319953344024,-0.926449348335115,0.));
#1057=CARTESIAN_POINT('',(0.60446492557184,-0.858558183091531,0.));
#1058=CARTESIAN_POINT('',(0.760319953344024,-0.926449348335115,0.));
#1059=CARTESIAN_POINT('',(0.60446492557184,-0.858558183091531,0.118110236220472));
#1060=CARTESIAN_POINT('',(0.760319953344024,-0.926449348335115,0.118110236220472));
#1061=CARTESIAN_POINT('',(0.604464925571841,-0.85855818309153,0.));
#1062=CARTESIAN_POINT('Origin',(0.771318861968185,-0.771318861968185,0.118110236220472));
#1063=CARTESIAN_POINT('Origin',(0.,0.,0.118110236220472));
#1064=CARTESIAN_POINT('Origin',(0.,0.,0.));
#1065=CARTESIAN_POINT('',(0.85855818309153,0.604464925571841,0.));
#1066=CARTESIAN_POINT('Origin',(0.,0.,0.));
#1067=CARTESIAN_POINT('',(0.85855818309153,0.604464925571841,0.118110236220472));
#1068=CARTESIAN_POINT('',(0.85855818309153,0.604464925571841,0.));
#1069=CARTESIAN_POINT('',(0.60446492557184,0.858558183091531,0.118110236220472));
#1070=CARTESIAN_POINT('Origin',(0.,0.,0.118110236220472));
#1071=CARTESIAN_POINT('',(0.60446492557184,0.858558183091531,0.));
#1072=CARTESIAN_POINT('',(0.604464925571841,0.85855818309153,0.));
#1073=CARTESIAN_POINT('Origin',(0.,0.,0.));
#1074=CARTESIAN_POINT('',(0.,-1.05,0.296850393700787));
#1075=CARTESIAN_POINT('Origin',(0.,0.,0.296850393700787));
#1076=CARTESIAN_POINT('',(0.,-1.05,0.));
#1077=CARTESIAN_POINT('',(0.,-1.05,0.));
#1078=CARTESIAN_POINT('Origin',(0.,0.,0.));
#1079=CARTESIAN_POINT('Origin',(0.813172798364529,0.813172798364529,0.));
#1080=CARTESIAN_POINT('',(0.758054688128309,0.813172798364529,0.118110236220472));
#1081=CARTESIAN_POINT('Origin',(0.813172798364529,0.813172798364529,0.118110236220472));
#1082=CARTESIAN_POINT('',(0.758054688128309,0.813172798364529,0.));
#1083=CARTESIAN_POINT('',(0.758054688128309,0.813172798364529,0.));
#1084=CARTESIAN_POINT('Origin',(0.813172798364529,0.813172798364529,0.));
#1085=CARTESIAN_POINT('Origin',(0.813172798364529,0.813172798364529,0.));
#1086=CARTESIAN_POINT('',(0.926449348335116,0.760319953344027,0.));
#1087=CARTESIAN_POINT('',(0.760319953344024,0.926449348335115,0.));
#1088=CARTESIAN_POINT('Origin',(0.813172798364529,0.813172798364529,0.));
#1089=CARTESIAN_POINT('',(0.760319953344024,0.926449348335115,0.118110236220472));
#1090=CARTESIAN_POINT('',(0.760319953344024,0.926449348335115,0.));
#1091=CARTESIAN_POINT('',(0.926449348335116,0.760319953344027,0.118110236220472));
#1092=CARTESIAN_POINT('Origin',(0.813172798364529,0.813172798364529,0.118110236220472));
#1093=CARTESIAN_POINT('',(0.926449348335116,0.760319953344027,0.));
#1094=CARTESIAN_POINT('Origin',(0.85855818309153,0.604464925571841,0.));
#1095=CARTESIAN_POINT('',(0.926449348335116,0.760319953344027,0.));
#1096=CARTESIAN_POINT('',(0.926449348335116,0.760319953344027,0.118110236220472));
#1097=CARTESIAN_POINT('Origin',(0.760319953344024,0.926449348335115,0.));
#1098=CARTESIAN_POINT('',(0.760319953344024,0.926449348335115,0.));
#1099=CARTESIAN_POINT('',(0.760319953344024,0.926449348335115,0.118110236220472));
#1100=CARTESIAN_POINT('Origin',(0.771318861968185,0.771318861968185,0.118110236220472));
#1101=CARTESIAN_POINT('Origin',(-1.39999999680857,-0.758149606299213,0.196850393700787));
#1102=CARTESIAN_POINT('',(-1.5,-0.758149606299213,0.196850393700787));
#1103=CARTESIAN_POINT('',(-1.39999999680857,-0.758149606299213,0.196850393700787));
#1104=CARTESIAN_POINT('',(-0.812499998404285,-0.758149606299213,0.196850393700787));
#1105=CARTESIAN_POINT('',(-1.5,-0.758149606299213,0.));
#1106=CARTESIAN_POINT('',(-1.5,-0.758149606299213,0.196850393700787));
#1107=CARTESIAN_POINT('',(-1.39999999680857,-0.758149606299213,0.));
#1108=CARTESIAN_POINT('',(-1.5,-0.758149606299213,0.));
#1109=CARTESIAN_POINT('',(-1.39999999680857,-0.758149606299213,0.196850393700787));
#1110=CARTESIAN_POINT('Origin',(-1.39999999680857,0.758149606299213,0.196850393700787));
#1111=CARTESIAN_POINT('',(-1.39999999680857,0.758149606299213,0.196850393700787));
#1112=CARTESIAN_POINT('',(-1.39999999680857,0.379074803149606,0.196850393700787));
#1113=CARTESIAN_POINT('',(-1.39999999680857,0.758149606299213,0.));
#1114=CARTESIAN_POINT('',(-1.39999999680857,-0.758149606299213,0.));
#1115=CARTESIAN_POINT('',(-1.39999999680857,0.758149606299213,0.196850393700787));
#1116=CARTESIAN_POINT('Origin',(-1.5,0.758149606299213,0.196850393700787));
#1117=CARTESIAN_POINT('',(-1.5,0.758149606299213,0.196850393700787));
#1118=CARTESIAN_POINT('',(-0.8625,0.758149606299213,0.196850393700787));
#1119=CARTESIAN_POINT('',(-1.5,0.758149606299213,0.));
#1120=CARTESIAN_POINT('',(-1.39999999680857,0.758149606299213,0.));
#1121=CARTESIAN_POINT('',(-1.5,0.758149606299213,0.196850393700787));
#1122=CARTESIAN_POINT('Origin',(-1.44999999840429,0.,0.));
#1123=CARTESIAN_POINT('',(-1.5,0.758149606299213,0.));
#1124=CARTESIAN_POINT('Origin',(-0.225,0.,0.196850393700787));
#1125=CARTESIAN_POINT('',(-1.5,0.955,0.196850393700787));
#1126=CARTESIAN_POINT('',(-1.5,1.05,0.196850393700787));
#1127=CARTESIAN_POINT('',(1.74838271594513E-16,0.955,0.196850393700787));
#1128=CARTESIAN_POINT('',(-1.5,0.955,0.196850393700787));
#1129=CARTESIAN_POINT('',(0.,-0.955,0.196850393700787));
#1130=CARTESIAN_POINT('Origin',(0.,0.,0.196850393700787));
#1131=CARTESIAN_POINT('',(-1.5,-0.955,0.196850393700787));
#1132=CARTESIAN_POINT('',(-1.5,-0.955,0.196850393700787));
#1133=CARTESIAN_POINT('',(-1.5,1.05,0.196850393700787));
#1134=CARTESIAN_POINT('',(0.65,7.9602041944578E-17,0.196850393700787));
#1135=CARTESIAN_POINT('Origin',(0.,0.,0.196850393700787));
#1136=CARTESIAN_POINT('Origin',(0.,0.,0.296850393700787));
#1137=CARTESIAN_POINT('',(0.65,7.9602041944578E-17,0.296850393700787));
#1138=CARTESIAN_POINT('Origin',(0.,0.,0.296850393700787));
#1139=CARTESIAN_POINT('',(0.65,-7.9602041944578E-17,0.296850393700787));
#1140=CARTESIAN_POINT('Origin',(-0.225,0.,0.296850393700787));
#1141=CARTESIAN_POINT('',(-1.5,-1.05,0.296850393700787));
#1142=CARTESIAN_POINT('',(-1.5,1.05,0.296850393700787));
#1143=CARTESIAN_POINT('',(-1.5,-1.05,0.296850393700787));
#1144=CARTESIAN_POINT('Origin',(0.,-0.955,0.));
#1145=CARTESIAN_POINT('',(-1.5,-0.955,0.));
#1146=CARTESIAN_POINT('',(0.,-0.955,0.));
#1147=CARTESIAN_POINT('',(-1.5,-0.955,0.));
#1148=CARTESIAN_POINT('',(-1.5,-0.955,0.));
#1149=CARTESIAN_POINT('',(0.,-0.955,0.));
#1150=CARTESIAN_POINT('Origin',(0.,0.,0.));
#1151=CARTESIAN_POINT('',(1.16953769318572E-16,0.955,0.));
#1152=CARTESIAN_POINT('Origin',(0.,0.,0.));
#1153=CARTESIAN_POINT('',(1.16953769318572E-16,0.955,0.));
#1154=CARTESIAN_POINT('Origin',(-1.5,0.955,0.));
#1155=CARTESIAN_POINT('',(-1.5,0.955,0.));
#1156=CARTESIAN_POINT('',(-1.5,0.955,0.));
#1157=CARTESIAN_POINT('',(-1.5,0.955,0.));
#1158=CARTESIAN_POINT('Origin',(-1.5,-1.05,0.));
#1159=CARTESIAN_POINT('',(0.,-1.05,0.));
#1160=CARTESIAN_POINT('',(-1.5,-1.05,0.));
#1161=CARTESIAN_POINT('Origin',(-1.5,-0.955,0.));
#1162=CARTESIAN_POINT('',(-1.5,-0.955,0.));
#1163=CARTESIAN_POINT('',(-1.5,1.05,0.));
#1164=CARTESIAN_POINT('Origin',(-0.225,0.,0.));
#1165=UNCERTAINTY_MEASURE_WITH_UNIT(LENGTH_MEASURE(0.000393700787401575),
#1170,'DISTANCE_ACCURACY_VALUE',
'Maximum model space distance between geometric entities at asserted c
onnectivities');
#1166=UNCERTAINTY_MEASURE_WITH_UNIT(LENGTH_MEASURE(0.000393700787401575),
#1170,'DISTANCE_ACCURACY_VALUE',
'Maximum model space distance between geometric entities at asserted c
onnectivities');
#1167=(
GEOMETRIC_REPRESENTATION_CONTEXT(3)
GLOBAL_UNCERTAINTY_ASSIGNED_CONTEXT((#1165))
GLOBAL_UNIT_ASSIGNED_CONTEXT((#1170,#1174,#1175))
REPRESENTATION_CONTEXT('','3D')
);
#1168=(
GEOMETRIC_REPRESENTATION_CONTEXT(3)
GLOBAL_UNCERTAINTY_ASSIGNED_CONTEXT((#1166))
GLOBAL_UNIT_ASSIGNED_CONTEXT((#1170,#1174,#1175))
REPRESENTATION_CONTEXT('','3D')
);
#1169=DIMENSIONAL_EXPONENTS(1.,0.,0.,0.,0.,0.,0.);
#1170=(
CONVERSION_BASED_UNIT('inch',#1173)
LENGTH_UNIT()
NAMED_UNIT(#1169)
);
#1171=(
LENGTH_UNIT()
NAMED_UNIT(*)
SI_UNIT(.MILLI.,.METRE.)
);
#1172=(
LENGTH_UNIT()
NAMED_UNIT(*)
SI_UNIT($,.METRE.)
);
#1173=LENGTH_MEASURE_WITH_UNIT(LENGTH_MEASURE(25.4),#1171);
#1174=(
NAMED_UNIT(*)
PLANE_ANGLE_UNIT()
SI_UNIT($,.RADIAN.)
);
#1175=(
NAMED_UNIT(*)
SI_UNIT($,.STERADIAN.)
SOLID_ANGLE_UNIT()
);
#1176=SHAPE_DEFINITION_REPRESENTATION(#1177,#1178);
#1177=PRODUCT_DEFINITION_SHAPE('',$,#1180);
#1178=SHAPE_REPRESENTATION('',(#711),#1167);
#1179=PRODUCT_DEFINITION_CONTEXT('part definition',#1184,'design');
#1180=PRODUCT_DEFINITION('2026-05-21-21-26-19-566','Rotor Housing',#1181,
#1179);
#1181=PRODUCT_DEFINITION_FORMATION('',$,#1186);
#1182=PRODUCT_RELATED_PRODUCT_CATEGORY('Rotor Housing','Rotor Housing',
(#1186));
#1183=APPLICATION_PROTOCOL_DEFINITION('international standard',
'automotive_design',2009,#1184);
#1184=APPLICATION_CONTEXT(
'Core Data for Automotive Mechanical Design Process');
#1185=PRODUCT_CONTEXT('part definition',#1184,'mechanical');
#1186=PRODUCT('2026-05-21-21-26-19-566','Rotor Housing',$,(#1185));
#1187=PRESENTATION_STYLE_ASSIGNMENT((#1188));
#1188=SURFACE_STYLE_USAGE(.BOTH.,#1189);
#1189=SURFACE_SIDE_STYLE('',(#1190));
#1190=SURFACE_STYLE_FILL_AREA(#1191);
#1191=FILL_AREA_STYLE('Steel - Satin',(#1192));
#1192=FILL_AREA_STYLE_COLOUR('Steel - Satin',#1193);
#1193=COLOUR_RGB('Steel - Satin',0.627450980392157,0.627450980392157,0.627450980392157);
ENDSEC;
END-ISO-10303-21;
