ISO-10303-21;
HEADER;
/* Generated by software containing ST-Developer
 * from STEP Tools, Inc. (www.steptools.com) 
 */

FILE_DESCRIPTION(
/* description */ (''),
/* implementation_level */ '2;1');

FILE_NAME(
/* name */ 'stepper motor base v3.step',
/* time_stamp */ '2026-05-21T22:23:11-05:00',
/* author */ (''),
/* organization */ (''),
/* preprocessor_version */ 'ST-DEVELOPER v20.1',
/* originating_system */ 'Autodesk Translation Framework v15.8.0.0',
/* authorisation */ '');

FILE_SCHEMA (('AUTOMOTIVE_DESIGN { 1 0 10303 214 3 1 1 }'));
ENDSEC;

DATA;
#10=MECHANICAL_DESIGN_GEOMETRIC_PRESENTATION_REPRESENTATION('',(#13),#734);
#11=SHAPE_REPRESENTATION_RELATIONSHIP('SRR','None',#744,#12);
#12=ADVANCED_BREP_SHAPE_REPRESENTATION('',(#14),#733);
#13=STYLED_ITEM('',(#753),#14);
#14=MANIFOLD_SOLID_BREP('Body1',#438);
#15=FACE_BOUND('',#86,.T.);
#16=FACE_BOUND('',#87,.T.);
#17=FACE_BOUND('',#88,.T.);
#18=FACE_BOUND('',#89,.T.);
#19=FACE_BOUND('',#90,.T.);
#20=FACE_BOUND('',#91,.T.);
#21=FACE_BOUND('',#92,.T.);
#22=FACE_BOUND('',#93,.T.);
#23=FACE_BOUND('',#95,.T.);
#24=FACE_BOUND('',#96,.T.);
#25=FACE_BOUND('',#97,.T.);
#26=FACE_BOUND('',#98,.T.);
#27=FACE_BOUND('',#99,.T.);
#28=FACE_BOUND('',#100,.T.);
#29=FACE_BOUND('',#101,.T.);
#30=PLANE('',#467);
#31=PLANE('',#468);
#32=PLANE('',#469);
#33=PLANE('',#473);
#34=PLANE('',#474);
#35=PLANE('',#475);
#36=PLANE('',#476);
#37=PLANE('',#486);
#38=PLANE('',#487);
#39=PLANE('',#488);
#40=PLANE('',#489);
#41=PLANE('',#490);
#42=PLANE('',#491);
#43=FACE_OUTER_BOUND('',#65,.T.);
#44=FACE_OUTER_BOUND('',#66,.T.);
#45=FACE_OUTER_BOUND('',#67,.T.);
#46=FACE_OUTER_BOUND('',#68,.T.);
#47=FACE_OUTER_BOUND('',#69,.T.);
#48=FACE_OUTER_BOUND('',#70,.T.);
#49=FACE_OUTER_BOUND('',#71,.T.);
#50=FACE_OUTER_BOUND('',#72,.T.);
#51=FACE_OUTER_BOUND('',#73,.T.);
#52=FACE_OUTER_BOUND('',#74,.T.);
#53=FACE_OUTER_BOUND('',#75,.T.);
#54=FACE_OUTER_BOUND('',#76,.T.);
#55=FACE_OUTER_BOUND('',#77,.T.);
#56=FACE_OUTER_BOUND('',#78,.T.);
#57=FACE_OUTER_BOUND('',#79,.T.);
#58=FACE_OUTER_BOUND('',#80,.T.);
#59=FACE_OUTER_BOUND('',#81,.T.);
#60=FACE_OUTER_BOUND('',#82,.T.);
#61=FACE_OUTER_BOUND('',#83,.T.);
#62=FACE_OUTER_BOUND('',#84,.T.);
#63=FACE_OUTER_BOUND('',#85,.T.);
#64=FACE_OUTER_BOUND('',#94,.T.);
#65=EDGE_LOOP('',(#293,#294,#295,#296));
#66=EDGE_LOOP('',(#297,#298,#299,#300));
#67=EDGE_LOOP('',(#301,#302,#303,#304));
#68=EDGE_LOOP('',(#305,#306,#307,#308));
#69=EDGE_LOOP('',(#309,#310,#311,#312));
#70=EDGE_LOOP('',(#313,#314,#315,#316));
#71=EDGE_LOOP('',(#317,#318,#319,#320));
#72=EDGE_LOOP('',(#321,#322,#323,#324));
#73=EDGE_LOOP('',(#325,#326,#327,#328));
#74=EDGE_LOOP('',(#329,#330,#331,#332));
#75=EDGE_LOOP('',(#333,#334,#335,#336));
#76=EDGE_LOOP('',(#337,#338,#339,#340));
#77=EDGE_LOOP('',(#341,#342,#343,#344,#345,#346,#347,#348));
#78=EDGE_LOOP('',(#349,#350,#351,#352));
#79=EDGE_LOOP('',(#353,#354,#355,#356));
#80=EDGE_LOOP('',(#357,#358,#359,#360));
#81=EDGE_LOOP('',(#361,#362,#363,#364));
#82=EDGE_LOOP('',(#365,#366,#367,#368));
#83=EDGE_LOOP('',(#369,#370,#371,#372));
#84=EDGE_LOOP('',(#373,#374,#375,#376));
#85=EDGE_LOOP('',(#377,#378,#379,#380));
#86=EDGE_LOOP('',(#381));
#87=EDGE_LOOP('',(#382));
#88=EDGE_LOOP('',(#383));
#89=EDGE_LOOP('',(#384,#385,#386,#387,#388,#389,#390,#391));
#90=EDGE_LOOP('',(#392));
#91=EDGE_LOOP('',(#393));
#92=EDGE_LOOP('',(#394));
#93=EDGE_LOOP('',(#395));
#94=EDGE_LOOP('',(#396,#397,#398,#399));
#95=EDGE_LOOP('',(#400));
#96=EDGE_LOOP('',(#401));
#97=EDGE_LOOP('',(#402));
#98=EDGE_LOOP('',(#403));
#99=EDGE_LOOP('',(#404));
#100=EDGE_LOOP('',(#405));
#101=EDGE_LOOP('',(#406));
#102=LINE('',#618,#141);
#103=LINE('',#624,#142);
#104=LINE('',#630,#143);
#105=LINE('',#636,#144);
#106=LINE('',#643,#145);
#107=LINE('',#646,#146);
#108=LINE('',#649,#147);
#109=LINE('',#651,#148);
#110=LINE('',#652,#149);
#111=LINE('',#655,#150);
#112=LINE('',#657,#151);
#113=LINE('',#658,#152);
#114=LINE('',#661,#153);
#115=LINE('',#663,#154);
#116=LINE('',#664,#155);
#117=LINE('',#670,#156);
#118=LINE('',#673,#157);
#119=LINE('',#675,#158);
#120=LINE('',#676,#159);
#121=LINE('',#679,#160);
#122=LINE('',#681,#161);
#123=LINE('',#682,#162);
#124=LINE('',#684,#163);
#125=LINE('',#685,#164);
#126=LINE('',#691,#165);
#127=LINE('',#697,#166);
#128=LINE('',#703,#167);
#129=LINE('',#708,#168);
#130=LINE('',#710,#169);
#131=LINE('',#712,#170);
#132=LINE('',#713,#171);
#133=LINE('',#716,#172);
#134=LINE('',#718,#173);
#135=LINE('',#719,#174);
#136=LINE('',#722,#175);
#137=LINE('',#724,#176);
#138=LINE('',#725,#177);
#139=LINE('',#727,#178);
#140=LINE('',#728,#179);
#141=VECTOR('',#498,0.0551181102362205);
#142=VECTOR('',#505,0.0551181102362205);
#143=VECTOR('',#512,0.0551181102362205);
#144=VECTOR('',#519,0.0551181102362205);
#145=VECTOR('',#526,0.393700787401575);
#146=VECTOR('',#529,0.393700787401575);
#147=VECTOR('',#532,0.393700787401575);
#148=VECTOR('',#533,0.393700787401575);
#149=VECTOR('',#534,0.393700787401575);
#150=VECTOR('',#537,0.393700787401575);
#151=VECTOR('',#538,0.393700787401575);
#152=VECTOR('',#539,0.393700787401575);
#153=VECTOR('',#542,0.393700787401575);
#154=VECTOR('',#543,0.393700787401575);
#155=VECTOR('',#544,0.393700787401575);
#156=VECTOR('',#551,0.393700787401575);
#157=VECTOR('',#554,0.393700787401575);
#158=VECTOR('',#555,0.393700787401575);
#159=VECTOR('',#556,0.393700787401575);
#160=VECTOR('',#559,0.393700787401575);
#161=VECTOR('',#560,0.393700787401575);
#162=VECTOR('',#561,0.393700787401575);
#163=VECTOR('',#564,0.393700787401575);
#164=VECTOR('',#565,0.393700787401575);
#165=VECTOR('',#572,0.18);
#166=VECTOR('',#579,0.0551181102362204);
#167=VECTOR('',#586,0.0551181102362204);
#168=VECTOR('',#591,0.393700787401575);
#169=VECTOR('',#592,0.393700787401575);
#170=VECTOR('',#593,0.393700787401575);
#171=VECTOR('',#594,0.393700787401575);
#172=VECTOR('',#597,0.393700787401575);
#173=VECTOR('',#598,0.393700787401575);
#174=VECTOR('',#599,0.393700787401575);
#175=VECTOR('',#602,0.393700787401575);
#176=VECTOR('',#603,0.393700787401575);
#177=VECTOR('',#604,0.393700787401575);
#178=VECTOR('',#607,0.393700787401575);
#179=VECTOR('',#608,0.393700787401575);
#180=CIRCLE('',#453,0.0551181102362205);
#181=CIRCLE('',#454,0.0551181102362205);
#182=CIRCLE('',#456,0.0551181102362205);
#183=CIRCLE('',#457,0.0551181102362205);
#184=CIRCLE('',#459,0.0551181102362205);
#185=CIRCLE('',#460,0.0551181102362205);
#186=CIRCLE('',#462,0.0551181102362205);
#187=CIRCLE('',#463,0.0551181102362205);
#188=CIRCLE('',#465,0.85);
#189=CIRCLE('',#466,0.85);
#190=CIRCLE('',#471,0.95);
#191=CIRCLE('',#472,0.95);
#192=CIRCLE('',#478,0.18);
#193=CIRCLE('',#479,0.18);
#194=CIRCLE('',#481,0.0551181102362204);
#195=CIRCLE('',#482,0.0551181102362204);
#196=CIRCLE('',#484,0.0551181102362204);
#197=CIRCLE('',#485,0.0551181102362204);
#198=VERTEX_POINT('',#615);
#199=VERTEX_POINT('',#617);
#200=VERTEX_POINT('',#621);
#201=VERTEX_POINT('',#623);
#202=VERTEX_POINT('',#627);
#203=VERTEX_POINT('',#629);
#204=VERTEX_POINT('',#633);
#205=VERTEX_POINT('',#635);
#206=VERTEX_POINT('',#639);
#207=VERTEX_POINT('',#640);
#208=VERTEX_POINT('',#642);
#209=VERTEX_POINT('',#644);
#210=VERTEX_POINT('',#648);
#211=VERTEX_POINT('',#650);
#212=VERTEX_POINT('',#654);
#213=VERTEX_POINT('',#656);
#214=VERTEX_POINT('',#660);
#215=VERTEX_POINT('',#662);
#216=VERTEX_POINT('',#666);
#217=VERTEX_POINT('',#668);
#218=VERTEX_POINT('',#672);
#219=VERTEX_POINT('',#674);
#220=VERTEX_POINT('',#678);
#221=VERTEX_POINT('',#680);
#222=VERTEX_POINT('',#688);
#223=VERTEX_POINT('',#690);
#224=VERTEX_POINT('',#694);
#225=VERTEX_POINT('',#696);
#226=VERTEX_POINT('',#700);
#227=VERTEX_POINT('',#702);
#228=VERTEX_POINT('',#706);
#229=VERTEX_POINT('',#707);
#230=VERTEX_POINT('',#709);
#231=VERTEX_POINT('',#711);
#232=VERTEX_POINT('',#715);
#233=VERTEX_POINT('',#717);
#234=VERTEX_POINT('',#721);
#235=VERTEX_POINT('',#723);
#236=EDGE_CURVE('',#198,#198,#180,.T.);
#237=EDGE_CURVE('',#198,#199,#102,.T.);
#238=EDGE_CURVE('',#199,#199,#181,.T.);
#239=EDGE_CURVE('',#200,#200,#182,.T.);
#240=EDGE_CURVE('',#200,#201,#103,.T.);
#241=EDGE_CURVE('',#201,#201,#183,.T.);
#242=EDGE_CURVE('',#202,#202,#184,.T.);
#243=EDGE_CURVE('',#202,#203,#104,.T.);
#244=EDGE_CURVE('',#203,#203,#185,.T.);
#245=EDGE_CURVE('',#204,#204,#186,.T.);
#246=EDGE_CURVE('',#204,#205,#105,.T.);
#247=EDGE_CURVE('',#205,#205,#187,.T.);
#248=EDGE_CURVE('',#206,#207,#188,.T.);
#249=EDGE_CURVE('',#206,#208,#106,.T.);
#250=EDGE_CURVE('',#209,#208,#189,.T.);
#251=EDGE_CURVE('',#207,#209,#107,.T.);
#252=EDGE_CURVE('',#207,#210,#108,.T.);
#253=EDGE_CURVE('',#211,#209,#109,.T.);
#254=EDGE_CURVE('',#210,#211,#110,.T.);
#255=EDGE_CURVE('',#210,#212,#111,.T.);
#256=EDGE_CURVE('',#213,#211,#112,.T.);
#257=EDGE_CURVE('',#212,#213,#113,.T.);
#258=EDGE_CURVE('',#212,#214,#114,.T.);
#259=EDGE_CURVE('',#215,#213,#115,.T.);
#260=EDGE_CURVE('',#214,#215,#116,.T.);
#261=EDGE_CURVE('',#214,#216,#190,.T.);
#262=EDGE_CURVE('',#217,#215,#191,.T.);
#263=EDGE_CURVE('',#216,#217,#117,.T.);
#264=EDGE_CURVE('',#216,#218,#118,.T.);
#265=EDGE_CURVE('',#219,#217,#119,.T.);
#266=EDGE_CURVE('',#218,#219,#120,.T.);
#267=EDGE_CURVE('',#218,#220,#121,.T.);
#268=EDGE_CURVE('',#221,#219,#122,.T.);
#269=EDGE_CURVE('',#220,#221,#123,.T.);
#270=EDGE_CURVE('',#220,#206,#124,.T.);
#271=EDGE_CURVE('',#208,#221,#125,.T.);
#272=EDGE_CURVE('',#222,#222,#192,.T.);
#273=EDGE_CURVE('',#222,#223,#126,.T.);
#274=EDGE_CURVE('',#223,#223,#193,.T.);
#275=EDGE_CURVE('',#224,#224,#194,.T.);
#276=EDGE_CURVE('',#224,#225,#127,.T.);
#277=EDGE_CURVE('',#225,#225,#195,.T.);
#278=EDGE_CURVE('',#226,#226,#196,.T.);
#279=EDGE_CURVE('',#226,#227,#128,.T.);
#280=EDGE_CURVE('',#227,#227,#197,.T.);
#281=EDGE_CURVE('',#228,#229,#129,.T.);
#282=EDGE_CURVE('',#229,#230,#130,.T.);
#283=EDGE_CURVE('',#231,#230,#131,.T.);
#284=EDGE_CURVE('',#228,#231,#132,.T.);
#285=EDGE_CURVE('',#232,#228,#133,.T.);
#286=EDGE_CURVE('',#233,#231,#134,.T.);
#287=EDGE_CURVE('',#232,#233,#135,.T.);
#288=EDGE_CURVE('',#234,#232,#136,.T.);
#289=EDGE_CURVE('',#235,#233,#137,.T.);
#290=EDGE_CURVE('',#234,#235,#138,.T.);
#291=EDGE_CURVE('',#229,#234,#139,.T.);
#292=EDGE_CURVE('',#230,#235,#140,.T.);
#293=ORIENTED_EDGE('',*,*,#236,.F.);
#294=ORIENTED_EDGE('',*,*,#237,.T.);
#295=ORIENTED_EDGE('',*,*,#238,.F.);
#296=ORIENTED_EDGE('',*,*,#237,.F.);
#297=ORIENTED_EDGE('',*,*,#239,.F.);
#298=ORIENTED_EDGE('',*,*,#240,.T.);
#299=ORIENTED_EDGE('',*,*,#241,.F.);
#300=ORIENTED_EDGE('',*,*,#240,.F.);
#301=ORIENTED_EDGE('',*,*,#242,.F.);
#302=ORIENTED_EDGE('',*,*,#243,.T.);
#303=ORIENTED_EDGE('',*,*,#244,.F.);
#304=ORIENTED_EDGE('',*,*,#243,.F.);
#305=ORIENTED_EDGE('',*,*,#245,.F.);
#306=ORIENTED_EDGE('',*,*,#246,.T.);
#307=ORIENTED_EDGE('',*,*,#247,.F.);
#308=ORIENTED_EDGE('',*,*,#246,.F.);
#309=ORIENTED_EDGE('',*,*,#248,.F.);
#310=ORIENTED_EDGE('',*,*,#249,.T.);
#311=ORIENTED_EDGE('',*,*,#250,.F.);
#312=ORIENTED_EDGE('',*,*,#251,.F.);
#313=ORIENTED_EDGE('',*,*,#252,.F.);
#314=ORIENTED_EDGE('',*,*,#251,.T.);
#315=ORIENTED_EDGE('',*,*,#253,.F.);
#316=ORIENTED_EDGE('',*,*,#254,.F.);
#317=ORIENTED_EDGE('',*,*,#255,.F.);
#318=ORIENTED_EDGE('',*,*,#254,.T.);
#319=ORIENTED_EDGE('',*,*,#256,.F.);
#320=ORIENTED_EDGE('',*,*,#257,.F.);
#321=ORIENTED_EDGE('',*,*,#258,.F.);
#322=ORIENTED_EDGE('',*,*,#257,.T.);
#323=ORIENTED_EDGE('',*,*,#259,.F.);
#324=ORIENTED_EDGE('',*,*,#260,.F.);
#325=ORIENTED_EDGE('',*,*,#261,.F.);
#326=ORIENTED_EDGE('',*,*,#260,.T.);
#327=ORIENTED_EDGE('',*,*,#262,.F.);
#328=ORIENTED_EDGE('',*,*,#263,.F.);
#329=ORIENTED_EDGE('',*,*,#264,.F.);
#330=ORIENTED_EDGE('',*,*,#263,.T.);
#331=ORIENTED_EDGE('',*,*,#265,.F.);
#332=ORIENTED_EDGE('',*,*,#266,.F.);
#333=ORIENTED_EDGE('',*,*,#267,.F.);
#334=ORIENTED_EDGE('',*,*,#266,.T.);
#335=ORIENTED_EDGE('',*,*,#268,.F.);
#336=ORIENTED_EDGE('',*,*,#269,.F.);
#337=ORIENTED_EDGE('',*,*,#270,.F.);
#338=ORIENTED_EDGE('',*,*,#269,.T.);
#339=ORIENTED_EDGE('',*,*,#271,.F.);
#340=ORIENTED_EDGE('',*,*,#249,.F.);
#341=ORIENTED_EDGE('',*,*,#271,.T.);
#342=ORIENTED_EDGE('',*,*,#268,.T.);
#343=ORIENTED_EDGE('',*,*,#265,.T.);
#344=ORIENTED_EDGE('',*,*,#262,.T.);
#345=ORIENTED_EDGE('',*,*,#259,.T.);
#346=ORIENTED_EDGE('',*,*,#256,.T.);
#347=ORIENTED_EDGE('',*,*,#253,.T.);
#348=ORIENTED_EDGE('',*,*,#250,.T.);
#349=ORIENTED_EDGE('',*,*,#272,.F.);
#350=ORIENTED_EDGE('',*,*,#273,.T.);
#351=ORIENTED_EDGE('',*,*,#274,.F.);
#352=ORIENTED_EDGE('',*,*,#273,.F.);
#353=ORIENTED_EDGE('',*,*,#275,.F.);
#354=ORIENTED_EDGE('',*,*,#276,.T.);
#355=ORIENTED_EDGE('',*,*,#277,.F.);
#356=ORIENTED_EDGE('',*,*,#276,.F.);
#357=ORIENTED_EDGE('',*,*,#278,.F.);
#358=ORIENTED_EDGE('',*,*,#279,.T.);
#359=ORIENTED_EDGE('',*,*,#280,.F.);
#360=ORIENTED_EDGE('',*,*,#279,.F.);
#361=ORIENTED_EDGE('',*,*,#281,.T.);
#362=ORIENTED_EDGE('',*,*,#282,.T.);
#363=ORIENTED_EDGE('',*,*,#283,.F.);
#364=ORIENTED_EDGE('',*,*,#284,.F.);
#365=ORIENTED_EDGE('',*,*,#285,.T.);
#366=ORIENTED_EDGE('',*,*,#284,.T.);
#367=ORIENTED_EDGE('',*,*,#286,.F.);
#368=ORIENTED_EDGE('',*,*,#287,.F.);
#369=ORIENTED_EDGE('',*,*,#288,.T.);
#370=ORIENTED_EDGE('',*,*,#287,.T.);
#371=ORIENTED_EDGE('',*,*,#289,.F.);
#372=ORIENTED_EDGE('',*,*,#290,.F.);
#373=ORIENTED_EDGE('',*,*,#291,.T.);
#374=ORIENTED_EDGE('',*,*,#290,.T.);
#375=ORIENTED_EDGE('',*,*,#292,.F.);
#376=ORIENTED_EDGE('',*,*,#282,.F.);
#377=ORIENTED_EDGE('',*,*,#292,.T.);
#378=ORIENTED_EDGE('',*,*,#289,.T.);
#379=ORIENTED_EDGE('',*,*,#286,.T.);
#380=ORIENTED_EDGE('',*,*,#283,.T.);
#381=ORIENTED_EDGE('',*,*,#278,.T.);
#382=ORIENTED_EDGE('',*,*,#275,.T.);
#383=ORIENTED_EDGE('',*,*,#272,.T.);
#384=ORIENTED_EDGE('',*,*,#248,.T.);
#385=ORIENTED_EDGE('',*,*,#252,.T.);
#386=ORIENTED_EDGE('',*,*,#255,.T.);
#387=ORIENTED_EDGE('',*,*,#258,.T.);
#388=ORIENTED_EDGE('',*,*,#261,.T.);
#389=ORIENTED_EDGE('',*,*,#264,.T.);
#390=ORIENTED_EDGE('',*,*,#267,.T.);
#391=ORIENTED_EDGE('',*,*,#270,.T.);
#392=ORIENTED_EDGE('',*,*,#245,.T.);
#393=ORIENTED_EDGE('',*,*,#242,.T.);
#394=ORIENTED_EDGE('',*,*,#239,.T.);
#395=ORIENTED_EDGE('',*,*,#236,.T.);
#396=ORIENTED_EDGE('',*,*,#291,.F.);
#397=ORIENTED_EDGE('',*,*,#281,.F.);
#398=ORIENTED_EDGE('',*,*,#285,.F.);
#399=ORIENTED_EDGE('',*,*,#288,.F.);
#400=ORIENTED_EDGE('',*,*,#280,.T.);
#401=ORIENTED_EDGE('',*,*,#277,.T.);
#402=ORIENTED_EDGE('',*,*,#274,.T.);
#403=ORIENTED_EDGE('',*,*,#247,.T.);
#404=ORIENTED_EDGE('',*,*,#244,.T.);
#405=ORIENTED_EDGE('',*,*,#241,.T.);
#406=ORIENTED_EDGE('',*,*,#238,.T.);
#407=CYLINDRICAL_SURFACE('',#452,0.0551181102362205);
#408=CYLINDRICAL_SURFACE('',#455,0.0551181102362205);
#409=CYLINDRICAL_SURFACE('',#458,0.0551181102362205);
#410=CYLINDRICAL_SURFACE('',#461,0.0551181102362205);
#411=CYLINDRICAL_SURFACE('',#464,0.85);
#412=CYLINDRICAL_SURFACE('',#470,0.95);
#413=CYLINDRICAL_SURFACE('',#477,0.18);
#414=CYLINDRICAL_SURFACE('',#480,0.0551181102362204);
#415=CYLINDRICAL_SURFACE('',#483,0.0551181102362204);
#416=ADVANCED_FACE('',(#43),#407,.F.);
#417=ADVANCED_FACE('',(#44),#408,.F.);
#418=ADVANCED_FACE('',(#45),#409,.F.);
#419=ADVANCED_FACE('',(#46),#410,.F.);
#420=ADVANCED_FACE('',(#47),#411,.F.);
#421=ADVANCED_FACE('',(#48),#30,.T.);
#422=ADVANCED_FACE('',(#49),#31,.T.);
#423=ADVANCED_FACE('',(#50),#32,.T.);
#424=ADVANCED_FACE('',(#51),#412,.T.);
#425=ADVANCED_FACE('',(#52),#33,.T.);
#426=ADVANCED_FACE('',(#53),#34,.T.);
#427=ADVANCED_FACE('',(#54),#35,.T.);
#428=ADVANCED_FACE('',(#55),#36,.T.);
#429=ADVANCED_FACE('',(#56),#413,.F.);
#430=ADVANCED_FACE('',(#57),#414,.F.);
#431=ADVANCED_FACE('',(#58),#415,.F.);
#432=ADVANCED_FACE('',(#59),#37,.T.);
#433=ADVANCED_FACE('',(#60),#38,.T.);
#434=ADVANCED_FACE('',(#61),#39,.T.);
#435=ADVANCED_FACE('',(#62),#40,.T.);
#436=ADVANCED_FACE('',(#63,#15,#16,#17,#18,#19,#20,#21,#22),#41,.T.);
#437=ADVANCED_FACE('',(#64,#23,#24,#25,#26,#27,#28,#29),#42,.F.);
#438=CLOSED_SHELL('',(#416,#417,#418,#419,#420,#421,#422,#423,#424,#425,
#426,#427,#428,#429,#430,#431,#432,#433,#434,#435,#436,#437));
#439=DERIVED_UNIT_ELEMENT(#441,1.);
#440=DERIVED_UNIT_ELEMENT(#738,-3.);
#441=(
MASS_UNIT()
NAMED_UNIT(*)
SI_UNIT(.KILO.,.GRAM.)
);
#442=DERIVED_UNIT((#439,#440));
#443=MEASURE_REPRESENTATION_ITEM('density measure',
POSITIVE_RATIO_MEASURE(7850.),#442);
#444=PROPERTY_DEFINITION_REPRESENTATION(#449,#446);
#445=PROPERTY_DEFINITION_REPRESENTATION(#450,#447);
#446=REPRESENTATION('material name',(#448),#733);
#447=REPRESENTATION('density',(#443),#733);
#448=DESCRIPTIVE_REPRESENTATION_ITEM('Steel','Steel');
#449=PROPERTY_DEFINITION('material property','material name',#746);
#450=PROPERTY_DEFINITION('material property','density of part',#746);
#451=AXIS2_PLACEMENT_3D('',#613,#492,#493);
#452=AXIS2_PLACEMENT_3D('',#614,#494,#495);
#453=AXIS2_PLACEMENT_3D('',#616,#496,#497);
#454=AXIS2_PLACEMENT_3D('',#619,#499,#500);
#455=AXIS2_PLACEMENT_3D('',#620,#501,#502);
#456=AXIS2_PLACEMENT_3D('',#622,#503,#504);
#457=AXIS2_PLACEMENT_3D('',#625,#506,#507);
#458=AXIS2_PLACEMENT_3D('',#626,#508,#509);
#459=AXIS2_PLACEMENT_3D('',#628,#510,#511);
#460=AXIS2_PLACEMENT_3D('',#631,#513,#514);
#461=AXIS2_PLACEMENT_3D('',#632,#515,#516);
#462=AXIS2_PLACEMENT_3D('',#634,#517,#518);
#463=AXIS2_PLACEMENT_3D('',#637,#520,#521);
#464=AXIS2_PLACEMENT_3D('',#638,#522,#523);
#465=AXIS2_PLACEMENT_3D('',#641,#524,#525);
#466=AXIS2_PLACEMENT_3D('',#645,#527,#528);
#467=AXIS2_PLACEMENT_3D('',#647,#530,#531);
#468=AXIS2_PLACEMENT_3D('',#653,#535,#536);
#469=AXIS2_PLACEMENT_3D('',#659,#540,#541);
#470=AXIS2_PLACEMENT_3D('',#665,#545,#546);
#471=AXIS2_PLACEMENT_3D('',#667,#547,#548);
#472=AXIS2_PLACEMENT_3D('',#669,#549,#550);
#473=AXIS2_PLACEMENT_3D('',#671,#552,#553);
#474=AXIS2_PLACEMENT_3D('',#677,#557,#558);
#475=AXIS2_PLACEMENT_3D('',#683,#562,#563);
#476=AXIS2_PLACEMENT_3D('',#686,#566,#567);
#477=AXIS2_PLACEMENT_3D('',#687,#568,#569);
#478=AXIS2_PLACEMENT_3D('',#689,#570,#571);
#479=AXIS2_PLACEMENT_3D('',#692,#573,#574);
#480=AXIS2_PLACEMENT_3D('',#693,#575,#576);
#481=AXIS2_PLACEMENT_3D('',#695,#577,#578);
#482=AXIS2_PLACEMENT_3D('',#698,#580,#581);
#483=AXIS2_PLACEMENT_3D('',#699,#582,#583);
#484=AXIS2_PLACEMENT_3D('',#701,#584,#585);
#485=AXIS2_PLACEMENT_3D('',#704,#587,#588);
#486=AXIS2_PLACEMENT_3D('',#705,#589,#590);
#487=AXIS2_PLACEMENT_3D('',#714,#595,#596);
#488=AXIS2_PLACEMENT_3D('',#720,#600,#601);
#489=AXIS2_PLACEMENT_3D('',#726,#605,#606);
#490=AXIS2_PLACEMENT_3D('',#729,#609,#610);
#491=AXIS2_PLACEMENT_3D('',#730,#611,#612);
#492=DIRECTION('axis',(0.,0.,1.));
#493=DIRECTION('refdir',(1.,0.,0.));
#494=DIRECTION('center_axis',(0.,-2.22044604925031E-16,1.));
#495=DIRECTION('ref_axis',(-1.,0.,0.));
#496=DIRECTION('center_axis',(0.,2.22044604925031E-16,-1.));
#497=DIRECTION('ref_axis',(-1.,0.,0.));
#498=DIRECTION('',(0.,2.22044604925031E-16,-1.));
#499=DIRECTION('center_axis',(0.,-2.22044604925031E-16,1.));
#500=DIRECTION('ref_axis',(-1.,0.,0.));
#501=DIRECTION('center_axis',(0.,-2.22044604925031E-16,1.));
#502=DIRECTION('ref_axis',(-1.,0.,0.));
#503=DIRECTION('center_axis',(0.,2.22044604925031E-16,-1.));
#504=DIRECTION('ref_axis',(-1.,0.,0.));
#505=DIRECTION('',(0.,2.22044604925031E-16,-1.));
#506=DIRECTION('center_axis',(0.,-2.22044604925031E-16,1.));
#507=DIRECTION('ref_axis',(-1.,0.,0.));
#508=DIRECTION('center_axis',(0.,2.22044604925031E-16,-1.));
#509=DIRECTION('ref_axis',(-1.,0.,0.));
#510=DIRECTION('center_axis',(0.,2.22044604925031E-16,-1.));
#511=DIRECTION('ref_axis',(-1.,0.,0.));
#512=DIRECTION('',(0.,2.22044604925031E-16,-1.));
#513=DIRECTION('center_axis',(0.,-2.22044604925031E-16,1.));
#514=DIRECTION('ref_axis',(-1.,0.,0.));
#515=DIRECTION('center_axis',(0.,2.22044604925031E-16,-1.));
#516=DIRECTION('ref_axis',(-1.,0.,0.));
#517=DIRECTION('center_axis',(0.,2.22044604925031E-16,-1.));
#518=DIRECTION('ref_axis',(-1.,0.,0.));
#519=DIRECTION('',(0.,2.22044604925031E-16,-1.));
#520=DIRECTION('center_axis',(0.,-2.22044604925031E-16,1.));
#521=DIRECTION('ref_axis',(-1.,0.,0.));
#522=DIRECTION('center_axis',(0.,-2.22044604925031E-16,1.));
#523=DIRECTION('ref_axis',(-6.12323399573676E-17,1.,2.22044604925031E-16));
#524=DIRECTION('center_axis',(0.,-2.22044604925031E-16,1.));
#525=DIRECTION('ref_axis',(-6.12323399573676E-17,1.,2.22044604925031E-16));
#526=DIRECTION('',(0.,-2.22044604925031E-16,1.));
#527=DIRECTION('center_axis',(0.,2.22044604925031E-16,-1.));
#528=DIRECTION('ref_axis',(-6.12323399573676E-17,1.,2.22044604925031E-16));
#529=DIRECTION('',(0.,-2.22044604925031E-16,1.));
#530=DIRECTION('center_axis',(0.,1.,2.22044604925031E-16));
#531=DIRECTION('ref_axis',(-1.,0.,0.));
#532=DIRECTION('',(1.,0.,0.));
#533=DIRECTION('',(-1.,0.,0.));
#534=DIRECTION('',(0.,-2.22044604925031E-16,1.));
#535=DIRECTION('center_axis',(1.,0.,0.));
#536=DIRECTION('ref_axis',(0.,1.,2.22044604925031E-16));
#537=DIRECTION('',(0.,-1.,-2.22044604925031E-16));
#538=DIRECTION('',(0.,1.,2.22044604925031E-16));
#539=DIRECTION('',(0.,-2.22044604925031E-16,1.));
#540=DIRECTION('center_axis',(0.,-1.,-2.22044604925031E-16));
#541=DIRECTION('ref_axis',(1.,0.,0.));
#542=DIRECTION('',(-1.,0.,0.));
#543=DIRECTION('',(1.,0.,0.));
#544=DIRECTION('',(0.,-2.22044604925031E-16,1.));
#545=DIRECTION('center_axis',(0.,-2.22044604925031E-16,1.));
#546=DIRECTION('ref_axis',(0.,1.,2.22044604925031E-16));
#547=DIRECTION('center_axis',(0.,2.22044604925031E-16,-1.));
#548=DIRECTION('ref_axis',(0.,1.,2.22044604925031E-16));
#549=DIRECTION('center_axis',(0.,-2.22044604925031E-16,1.));
#550=DIRECTION('ref_axis',(0.,1.,2.22044604925031E-16));
#551=DIRECTION('',(0.,-2.22044604925031E-16,1.));
#552=DIRECTION('center_axis',(0.,1.,2.22044604925031E-16));
#553=DIRECTION('ref_axis',(-1.,0.,0.));
#554=DIRECTION('',(1.,0.,0.));
#555=DIRECTION('',(-1.,0.,0.));
#556=DIRECTION('',(0.,-2.22044604925031E-16,1.));
#557=DIRECTION('center_axis',(1.,0.,0.));
#558=DIRECTION('ref_axis',(0.,1.,2.22044604925031E-16));
#559=DIRECTION('',(0.,-1.,-2.22044604925031E-16));
#560=DIRECTION('',(0.,1.,2.22044604925031E-16));
#561=DIRECTION('',(0.,-2.22044604925031E-16,1.));
#562=DIRECTION('center_axis',(0.,-1.,-2.22044604925031E-16));
#563=DIRECTION('ref_axis',(1.,0.,0.));
#564=DIRECTION('',(-1.,0.,0.));
#565=DIRECTION('',(1.,0.,0.));
#566=DIRECTION('center_axis',(0.,-2.22044604925031E-16,1.));
#567=DIRECTION('ref_axis',(-1.,0.,0.));
#568=DIRECTION('center_axis',(0.,2.22044604925031E-16,-1.));
#569=DIRECTION('ref_axis',(-1.,0.,0.));
#570=DIRECTION('center_axis',(0.,2.22044604925031E-16,-1.));
#571=DIRECTION('ref_axis',(-1.,0.,0.));
#572=DIRECTION('',(0.,2.22044604925031E-16,-1.));
#573=DIRECTION('center_axis',(0.,-2.22044604925031E-16,1.));
#574=DIRECTION('ref_axis',(-1.,0.,0.));
#575=DIRECTION('center_axis',(0.,2.22044604925031E-16,-1.));
#576=DIRECTION('ref_axis',(-1.,0.,0.));
#577=DIRECTION('center_axis',(0.,2.22044604925031E-16,-1.));
#578=DIRECTION('ref_axis',(-1.,0.,0.));
#579=DIRECTION('',(0.,2.22044604925031E-16,-1.));
#580=DIRECTION('center_axis',(0.,-2.22044604925031E-16,1.));
#581=DIRECTION('ref_axis',(-1.,0.,0.));
#582=DIRECTION('center_axis',(0.,2.22044604925031E-16,-1.));
#583=DIRECTION('ref_axis',(-1.,0.,0.));
#584=DIRECTION('center_axis',(0.,2.22044604925031E-16,-1.));
#585=DIRECTION('ref_axis',(-1.,0.,0.));
#586=DIRECTION('',(0.,2.22044604925031E-16,-1.));
#587=DIRECTION('center_axis',(0.,-2.22044604925031E-16,1.));
#588=DIRECTION('ref_axis',(-1.,0.,0.));
#589=DIRECTION('center_axis',(0.,-1.,-2.22044604925031E-16));
#590=DIRECTION('ref_axis',(1.,0.,0.));
#591=DIRECTION('',(1.,0.,0.));
#592=DIRECTION('',(0.,-2.22044604925031E-16,1.));
#593=DIRECTION('',(1.,0.,0.));
#594=DIRECTION('',(0.,-2.22044604925031E-16,1.));
#595=DIRECTION('center_axis',(-1.,0.,0.));
#596=DIRECTION('ref_axis',(0.,-1.,-2.22044604925031E-16));
#597=DIRECTION('',(0.,-1.,-2.22044604925031E-16));
#598=DIRECTION('',(0.,-1.,-2.22044604925031E-16));
#599=DIRECTION('',(0.,-2.22044604925031E-16,1.));
#600=DIRECTION('center_axis',(0.,1.,2.22044604925031E-16));
#601=DIRECTION('ref_axis',(-1.,0.,0.));
#602=DIRECTION('',(-1.,0.,0.));
#603=DIRECTION('',(-1.,0.,0.));
#604=DIRECTION('',(0.,-2.22044604925031E-16,1.));
#605=DIRECTION('center_axis',(1.,0.,0.));
#606=DIRECTION('ref_axis',(0.,1.,2.22044604925031E-16));
#607=DIRECTION('',(0.,1.,2.22044604925031E-16));
#608=DIRECTION('',(0.,1.,2.22044604925031E-16));
#609=DIRECTION('center_axis',(0.,-2.22044604925031E-16,1.));
#610=DIRECTION('ref_axis',(0.,-1.,-2.22044604925031E-16));
#611=DIRECTION('center_axis',(0.,-2.22044604925031E-16,1.));
#612=DIRECTION('ref_axis',(1.,0.,0.));
#613=CARTESIAN_POINT('',(0.,0.,0.));
#614=CARTESIAN_POINT('Origin',(-0.8132,1.41460645410132,0.401406441335603));
#615=CARTESIAN_POINT('',(-0.758081889763779,1.41460645410132,0.401406441335603));
#616=CARTESIAN_POINT('Origin',(-0.8132,1.41460645410132,0.401406441335603));
#617=CARTESIAN_POINT('',(-0.758081889763779,1.41460645410132,0.201406441335603));
#618=CARTESIAN_POINT('',(-0.758081889763779,1.41460645410132,0.401406441335603));
#619=CARTESIAN_POINT('Origin',(-0.8132,1.41460645410132,0.201406441335603));
#620=CARTESIAN_POINT('Origin',(1.35,1.75140645410132,0.401406441335603));
#621=CARTESIAN_POINT('',(1.40511811023622,1.75140645410132,0.401406441335603));
#622=CARTESIAN_POINT('Origin',(1.35,1.75140645410132,0.401406441335603));
#623=CARTESIAN_POINT('',(1.40511811023622,1.75140645410132,0.201406441335603));
#624=CARTESIAN_POINT('',(1.40511811023622,1.75140645410132,0.401406441335603));
#625=CARTESIAN_POINT('Origin',(1.35,1.75140645410132,0.201406441335603));
#626=CARTESIAN_POINT('Origin',(1.35,-0.548593545898678,0.401406441335603));
#627=CARTESIAN_POINT('',(1.40511811023622,-0.548593545898678,0.401406441335603));
#628=CARTESIAN_POINT('Origin',(1.35,-0.548593545898678,0.401406441335603));
#629=CARTESIAN_POINT('',(1.40511811023622,-0.548593545898678,0.201406441335603));
#630=CARTESIAN_POINT('',(1.40511811023622,-0.548593545898678,0.401406441335603));
#631=CARTESIAN_POINT('Origin',(1.35,-0.548593545898678,0.201406441335603));
#632=CARTESIAN_POINT('Origin',(-0.8132,-0.211793545898678,0.401406441335603));
#633=CARTESIAN_POINT('',(-0.758081889763779,-0.211793545898678,0.401406441335603));
#634=CARTESIAN_POINT('Origin',(-0.8132,-0.211793545898678,0.401406441335603));
#635=CARTESIAN_POINT('',(-0.758081889763779,-0.211793545898678,0.201406441335603));
#636=CARTESIAN_POINT('',(-0.758081889763779,-0.211793545898678,0.401406441335603));
#637=CARTESIAN_POINT('Origin',(-0.8132,-0.211793545898678,0.201406441335603));
#638=CARTESIAN_POINT('Origin',(0.,0.601406454101322,0.401406441335603));
#639=CARTESIAN_POINT('',(-5.20474889637625E-17,1.45140645410132,0.401406441335603));
#640=CARTESIAN_POINT('',(0.,-0.248593545898678,0.401406441335603));
#641=CARTESIAN_POINT('Origin',(0.,0.601406454101322,0.401406441335603));
#642=CARTESIAN_POINT('',(-5.20474889637625E-17,1.45140645410132,0.59825683503639));
#643=CARTESIAN_POINT('',(-5.20474889637625E-17,1.45140645410132,0.401406441335603));
#644=CARTESIAN_POINT('',(0.,-0.248593545898678,0.59825683503639));
#645=CARTESIAN_POINT('Origin',(0.,0.601406454101322,0.59825683503639));
#646=CARTESIAN_POINT('',(0.,-0.248593545898678,0.401406441335603));
#647=CARTESIAN_POINT('Origin',(0.5,-0.248593545898678,0.401406441335603));
#648=CARTESIAN_POINT('',(0.5,-0.248593545898678,0.401406441335603));
#649=CARTESIAN_POINT('',(0.25,-0.248593545898678,0.401406441335603));
#650=CARTESIAN_POINT('',(0.5,-0.248593545898678,0.59825683503639));
#651=CARTESIAN_POINT('',(0.5,-0.248593545898678,0.59825683503639));
#652=CARTESIAN_POINT('',(0.5,-0.248593545898678,0.401406441335603));
#653=CARTESIAN_POINT('Origin',(0.5,-0.348593545898678,0.401406441335603));
#654=CARTESIAN_POINT('',(0.5,-0.348593545898678,0.401406441335603));
#655=CARTESIAN_POINT('',(0.5,0.126406454101322,0.401406441335603));
#656=CARTESIAN_POINT('',(0.5,-0.348593545898678,0.59825683503639));
#657=CARTESIAN_POINT('',(0.5,-0.348593545898678,0.59825683503639));
#658=CARTESIAN_POINT('',(0.5,-0.348593545898678,0.401406441335603));
#659=CARTESIAN_POINT('Origin',(5.81707229594993E-17,-0.348593545898678,
0.401406441335603));
#660=CARTESIAN_POINT('',(5.81707229594993E-17,-0.348593545898678,0.401406441335603));
#661=CARTESIAN_POINT('',(2.90853614797496E-17,-0.348593545898678,0.401406441335603));
#662=CARTESIAN_POINT('',(5.81707229594993E-17,-0.348593545898678,0.59825683503639));
#663=CARTESIAN_POINT('',(5.81707229594993E-17,-0.348593545898678,0.59825683503639));
#664=CARTESIAN_POINT('',(5.81707229594993E-17,-0.348593545898678,0.401406441335603));
#665=CARTESIAN_POINT('Origin',(0.,0.601406454101322,0.401406441335603));
#666=CARTESIAN_POINT('',(0.,1.55140645410132,0.401406441335603));
#667=CARTESIAN_POINT('Origin',(0.,0.601406454101322,0.401406441335603));
#668=CARTESIAN_POINT('',(0.,1.55140645410132,0.59825683503639));
#669=CARTESIAN_POINT('Origin',(0.,0.601406454101322,0.59825683503639));
#670=CARTESIAN_POINT('',(0.,1.55140645410132,0.401406441335603));
#671=CARTESIAN_POINT('Origin',(0.5,1.55140645410132,0.401406441335603));
#672=CARTESIAN_POINT('',(0.5,1.55140645410132,0.401406441335603));
#673=CARTESIAN_POINT('',(0.25,1.55140645410132,0.401406441335603));
#674=CARTESIAN_POINT('',(0.5,1.55140645410132,0.59825683503639));
#675=CARTESIAN_POINT('',(0.5,1.55140645410132,0.59825683503639));
#676=CARTESIAN_POINT('',(0.5,1.55140645410132,0.401406441335603));
#677=CARTESIAN_POINT('Origin',(0.5,1.45140645410132,0.401406441335603));
#678=CARTESIAN_POINT('',(0.5,1.45140645410132,0.401406441335603));
#679=CARTESIAN_POINT('',(0.5,1.02640645410132,0.401406441335603));
#680=CARTESIAN_POINT('',(0.5,1.45140645410132,0.59825683503639));
#681=CARTESIAN_POINT('',(0.5,1.45140645410132,0.59825683503639));
#682=CARTESIAN_POINT('',(0.5,1.45140645410132,0.401406441335603));
#683=CARTESIAN_POINT('Origin',(-5.20474889637625E-17,1.45140645410132,0.401406441335603));
#684=CARTESIAN_POINT('',(-2.60237444818812E-17,1.45140645410132,0.401406441335603));
#685=CARTESIAN_POINT('',(-5.20474889637625E-17,1.45140645410132,0.59825683503639));
#686=CARTESIAN_POINT('Origin',(-0.225,0.601406454101322,0.59825683503639));
#687=CARTESIAN_POINT('Origin',(0.,0.601406454101322,0.401406441335603));
#688=CARTESIAN_POINT('',(0.18,0.601406454101322,0.401406441335603));
#689=CARTESIAN_POINT('Origin',(0.,0.601406454101322,0.401406441335603));
#690=CARTESIAN_POINT('',(0.18,0.601406454101322,0.201406441335603));
#691=CARTESIAN_POINT('',(0.18,0.601406454101322,0.401406441335603));
#692=CARTESIAN_POINT('Origin',(0.,0.601406454101322,0.201406441335603));
#693=CARTESIAN_POINT('Origin',(0.685,0.916367084022582,0.401406441335603));
#694=CARTESIAN_POINT('',(0.74011811023622,0.916367084022582,0.401406441335603));
#695=CARTESIAN_POINT('Origin',(0.685,0.916367084022582,0.401406441335603));
#696=CARTESIAN_POINT('',(0.74011811023622,0.916367084022582,0.201406441335603));
#697=CARTESIAN_POINT('',(0.74011811023622,0.916367084022582,0.401406441335603));
#698=CARTESIAN_POINT('Origin',(0.685,0.916367084022582,0.201406441335603));
#699=CARTESIAN_POINT('Origin',(-0.685,0.916367084022582,0.401406441335603));
#700=CARTESIAN_POINT('',(-0.62988188976378,0.916367084022582,0.401406441335603));
#701=CARTESIAN_POINT('Origin',(-0.685,0.916367084022582,0.401406441335603));
#702=CARTESIAN_POINT('',(-0.62988188976378,0.916367084022582,0.201406441335603));
#703=CARTESIAN_POINT('',(-0.62988188976378,0.916367084022582,0.401406441335603));
#704=CARTESIAN_POINT('Origin',(-0.685,0.916367084022582,0.201406441335603));
#705=CARTESIAN_POINT('Origin',(-1.5,-0.898593545898678,0.201406441335603));
#706=CARTESIAN_POINT('',(-1.5,-0.898593545898678,0.201406441335603));
#707=CARTESIAN_POINT('',(1.5,-0.898593545898678,0.201406441335603));
#708=CARTESIAN_POINT('',(-1.5,-0.898593545898678,0.201406441335603));
#709=CARTESIAN_POINT('',(1.5,-0.898593545898678,0.401406441335603));
#710=CARTESIAN_POINT('',(1.5,-0.898593545898678,0.201406441335603));
#711=CARTESIAN_POINT('',(-1.5,-0.898593545898678,0.401406441335603));
#712=CARTESIAN_POINT('',(-1.5,-0.898593545898678,0.401406441335603));
#713=CARTESIAN_POINT('',(-1.5,-0.898593545898678,0.201406441335603));
#714=CARTESIAN_POINT('Origin',(-1.5,2.10140645410132,0.201406441335603));
#715=CARTESIAN_POINT('',(-1.5,2.10140645410132,0.201406441335603));
#716=CARTESIAN_POINT('',(-1.5,2.10140645410132,0.201406441335603));
#717=CARTESIAN_POINT('',(-1.5,2.10140645410132,0.401406441335603));
#718=CARTESIAN_POINT('',(-1.5,2.10140645410132,0.401406441335603));
#719=CARTESIAN_POINT('',(-1.5,2.10140645410132,0.201406441335603));
#720=CARTESIAN_POINT('Origin',(1.5,2.10140645410132,0.201406441335603));
#721=CARTESIAN_POINT('',(1.5,2.10140645410132,0.201406441335603));
#722=CARTESIAN_POINT('',(1.5,2.10140645410132,0.201406441335603));
#723=CARTESIAN_POINT('',(1.5,2.10140645410132,0.401406441335603));
#724=CARTESIAN_POINT('',(1.5,2.10140645410132,0.401406441335603));
#725=CARTESIAN_POINT('',(1.5,2.10140645410132,0.201406441335603));
#726=CARTESIAN_POINT('Origin',(1.5,-0.898593545898678,0.201406441335603));
#727=CARTESIAN_POINT('',(1.5,-0.898593545898678,0.201406441335603));
#728=CARTESIAN_POINT('',(1.5,-0.898593545898678,0.401406441335603));
#729=CARTESIAN_POINT('Origin',(0.,0.601406454101322,0.401406441335603));
#730=CARTESIAN_POINT('Origin',(0.,0.601406454101322,0.201406441335603));
#731=UNCERTAINTY_MEASURE_WITH_UNIT(LENGTH_MEASURE(0.000393700787401575),
#736,'DISTANCE_ACCURACY_VALUE',
'Maximum model space distance between geometric entities at asserted c
onnectivities');
#732=UNCERTAINTY_MEASURE_WITH_UNIT(LENGTH_MEASURE(0.000393700787401575),
#736,'DISTANCE_ACCURACY_VALUE',
'Maximum model space distance between geometric entities at asserted c
onnectivities');
#733=(
GEOMETRIC_REPRESENTATION_CONTEXT(3)
GLOBAL_UNCERTAINTY_ASSIGNED_CONTEXT((#731))
GLOBAL_UNIT_ASSIGNED_CONTEXT((#736,#740,#741))
REPRESENTATION_CONTEXT('','3D')
);
#734=(
GEOMETRIC_REPRESENTATION_CONTEXT(3)
GLOBAL_UNCERTAINTY_ASSIGNED_CONTEXT((#732))
GLOBAL_UNIT_ASSIGNED_CONTEXT((#736,#740,#741))
REPRESENTATION_CONTEXT('','3D')
);
#735=DIMENSIONAL_EXPONENTS(1.,0.,0.,0.,0.,0.,0.);
#736=(
CONVERSION_BASED_UNIT('inch',#739)
LENGTH_UNIT()
NAMED_UNIT(#735)
);
#737=(
LENGTH_UNIT()
NAMED_UNIT(*)
SI_UNIT(.MILLI.,.METRE.)
);
#738=(
LENGTH_UNIT()
NAMED_UNIT(*)
SI_UNIT($,.METRE.)
);
#739=LENGTH_MEASURE_WITH_UNIT(LENGTH_MEASURE(25.4),#737);
#740=(
NAMED_UNIT(*)
PLANE_ANGLE_UNIT()
SI_UNIT($,.RADIAN.)
);
#741=(
NAMED_UNIT(*)
SI_UNIT($,.STERADIAN.)
SOLID_ANGLE_UNIT()
);
#742=SHAPE_DEFINITION_REPRESENTATION(#743,#744);
#743=PRODUCT_DEFINITION_SHAPE('',$,#746);
#744=SHAPE_REPRESENTATION('',(#451),#733);
#745=PRODUCT_DEFINITION_CONTEXT('part definition',#750,'design');
#746=PRODUCT_DEFINITION('2026-04-22-00-17-38-220',
'stepper motor base v1',#747,#745);
#747=PRODUCT_DEFINITION_FORMATION('',$,#752);
#748=PRODUCT_RELATED_PRODUCT_CATEGORY('stepper motor base v1',
'stepper motor base v1',(#752));
#749=APPLICATION_PROTOCOL_DEFINITION('international standard',
'automotive_design',2009,#750);
#750=APPLICATION_CONTEXT(
'Core Data for Automotive Mechanical Design Process');
#751=PRODUCT_CONTEXT('part definition',#750,'mechanical');
#752=PRODUCT('2026-04-22-00-17-38-220','stepper motor base v1',$,(#751));
#753=PRESENTATION_STYLE_ASSIGNMENT((#754));
#754=SURFACE_STYLE_USAGE(.BOTH.,#755);
#755=SURFACE_SIDE_STYLE('',(#756));
#756=SURFACE_STYLE_FILL_AREA(#757);
#757=FILL_AREA_STYLE('Steel - Satin',(#758));
#758=FILL_AREA_STYLE_COLOUR('Steel - Satin',#759);
#759=COLOUR_RGB('Steel - Satin',0.627450980392157,0.627450980392157,0.627450980392157);
ENDSEC;
END-ISO-10303-21;
