ISO-10303-21;
HEADER;
/* Generated by software containing ST-Developer
 * from STEP Tools, Inc. (www.steptools.com) 
 */

FILE_DESCRIPTION(
/* description */ (''),
/* implementation_level */ '2;1');

FILE_NAME(
/* name */ 'stepper motor base.step',
/* time_stamp */ '2026-04-23T00:09:54-05:00',
/* author */ (''),
/* organization */ (''),
/* preprocessor_version */ 'ST-DEVELOPER v20.1',
/* originating_system */ 'Autodesk Translation Framework v15.8.0.0',
/* authorisation */ '');

FILE_SCHEMA (('AUTOMOTIVE_DESIGN { 1 0 10303 214 3 1 1 }'));
ENDSEC;

DATA;
#10=MECHANICAL_DESIGN_GEOMETRIC_PRESENTATION_REPRESENTATION('',(#13),#578);
#11=SHAPE_REPRESENTATION_RELATIONSHIP('SRR','None',#588,#12);
#12=ADVANCED_BREP_SHAPE_REPRESENTATION('',(#14),#577);
#13=STYLED_ITEM('',(#597),#14);
#14=MANIFOLD_SOLID_BREP('Body1',#346);
#15=FACE_BOUND('',#70,.T.);
#16=FACE_BOUND('',#71,.T.);
#17=FACE_BOUND('',#72,.T.);
#18=FACE_BOUND('',#73,.T.);
#19=FACE_BOUND('',#75,.T.);
#20=FACE_BOUND('',#76,.T.);
#21=FACE_BOUND('',#77,.T.);
#22=PLANE('',#363);
#23=PLANE('',#364);
#24=PLANE('',#365);
#25=PLANE('',#369);
#26=PLANE('',#370);
#27=PLANE('',#371);
#28=PLANE('',#372);
#29=PLANE('',#382);
#30=PLANE('',#383);
#31=PLANE('',#384);
#32=PLANE('',#385);
#33=PLANE('',#386);
#34=PLANE('',#387);
#35=FACE_OUTER_BOUND('',#53,.T.);
#36=FACE_OUTER_BOUND('',#54,.T.);
#37=FACE_OUTER_BOUND('',#55,.T.);
#38=FACE_OUTER_BOUND('',#56,.T.);
#39=FACE_OUTER_BOUND('',#57,.T.);
#40=FACE_OUTER_BOUND('',#58,.T.);
#41=FACE_OUTER_BOUND('',#59,.T.);
#42=FACE_OUTER_BOUND('',#60,.T.);
#43=FACE_OUTER_BOUND('',#61,.T.);
#44=FACE_OUTER_BOUND('',#62,.T.);
#45=FACE_OUTER_BOUND('',#63,.T.);
#46=FACE_OUTER_BOUND('',#64,.T.);
#47=FACE_OUTER_BOUND('',#65,.T.);
#48=FACE_OUTER_BOUND('',#66,.T.);
#49=FACE_OUTER_BOUND('',#67,.T.);
#50=FACE_OUTER_BOUND('',#68,.T.);
#51=FACE_OUTER_BOUND('',#69,.T.);
#52=FACE_OUTER_BOUND('',#74,.T.);
#53=EDGE_LOOP('',(#233,#234,#235,#236));
#54=EDGE_LOOP('',(#237,#238,#239,#240));
#55=EDGE_LOOP('',(#241,#242,#243,#244));
#56=EDGE_LOOP('',(#245,#246,#247,#248));
#57=EDGE_LOOP('',(#249,#250,#251,#252));
#58=EDGE_LOOP('',(#253,#254,#255,#256));
#59=EDGE_LOOP('',(#257,#258,#259,#260));
#60=EDGE_LOOP('',(#261,#262,#263,#264));
#61=EDGE_LOOP('',(#265,#266,#267,#268,#269,#270,#271,#272));
#62=EDGE_LOOP('',(#273,#274,#275,#276));
#63=EDGE_LOOP('',(#277,#278,#279,#280));
#64=EDGE_LOOP('',(#281,#282,#283,#284));
#65=EDGE_LOOP('',(#285,#286,#287,#288));
#66=EDGE_LOOP('',(#289,#290,#291,#292));
#67=EDGE_LOOP('',(#293,#294,#295,#296));
#68=EDGE_LOOP('',(#297,#298,#299,#300));
#69=EDGE_LOOP('',(#301,#302,#303,#304));
#70=EDGE_LOOP('',(#305,#306,#307,#308,#309,#310,#311,#312));
#71=EDGE_LOOP('',(#313));
#72=EDGE_LOOP('',(#314));
#73=EDGE_LOOP('',(#315));
#74=EDGE_LOOP('',(#316,#317,#318,#319));
#75=EDGE_LOOP('',(#320));
#76=EDGE_LOOP('',(#321));
#77=EDGE_LOOP('',(#322));
#78=LINE('',#487,#113);
#79=LINE('',#490,#114);
#80=LINE('',#493,#115);
#81=LINE('',#495,#116);
#82=LINE('',#496,#117);
#83=LINE('',#499,#118);
#84=LINE('',#501,#119);
#85=LINE('',#502,#120);
#86=LINE('',#505,#121);
#87=LINE('',#507,#122);
#88=LINE('',#508,#123);
#89=LINE('',#514,#124);
#90=LINE('',#517,#125);
#91=LINE('',#519,#126);
#92=LINE('',#520,#127);
#93=LINE('',#523,#128);
#94=LINE('',#525,#129);
#95=LINE('',#526,#130);
#96=LINE('',#528,#131);
#97=LINE('',#529,#132);
#98=LINE('',#535,#133);
#99=LINE('',#541,#134);
#100=LINE('',#547,#135);
#101=LINE('',#552,#136);
#102=LINE('',#554,#137);
#103=LINE('',#556,#138);
#104=LINE('',#557,#139);
#105=LINE('',#560,#140);
#106=LINE('',#562,#141);
#107=LINE('',#563,#142);
#108=LINE('',#566,#143);
#109=LINE('',#568,#144);
#110=LINE('',#569,#145);
#111=LINE('',#571,#146);
#112=LINE('',#572,#147);
#113=VECTOR('',#394,0.393700787401575);
#114=VECTOR('',#397,0.393700787401575);
#115=VECTOR('',#400,0.393700787401575);
#116=VECTOR('',#401,0.393700787401575);
#117=VECTOR('',#402,0.393700787401575);
#118=VECTOR('',#405,0.393700787401575);
#119=VECTOR('',#406,0.393700787401575);
#120=VECTOR('',#407,0.393700787401575);
#121=VECTOR('',#410,0.393700787401575);
#122=VECTOR('',#411,0.393700787401575);
#123=VECTOR('',#412,0.393700787401575);
#124=VECTOR('',#419,0.393700787401575);
#125=VECTOR('',#422,0.393700787401575);
#126=VECTOR('',#423,0.393700787401575);
#127=VECTOR('',#424,0.393700787401575);
#128=VECTOR('',#427,0.393700787401575);
#129=VECTOR('',#428,0.393700787401575);
#130=VECTOR('',#429,0.393700787401575);
#131=VECTOR('',#432,0.393700787401575);
#132=VECTOR('',#433,0.393700787401575);
#133=VECTOR('',#440,0.177165354330709);
#134=VECTOR('',#447,0.0551181102362204);
#135=VECTOR('',#454,0.0551181102362204);
#136=VECTOR('',#459,0.393700787401575);
#137=VECTOR('',#460,0.393700787401575);
#138=VECTOR('',#461,0.393700787401575);
#139=VECTOR('',#462,0.393700787401575);
#140=VECTOR('',#465,0.393700787401575);
#141=VECTOR('',#466,0.393700787401575);
#142=VECTOR('',#467,0.393700787401575);
#143=VECTOR('',#470,0.393700787401575);
#144=VECTOR('',#471,0.393700787401575);
#145=VECTOR('',#472,0.393700787401575);
#146=VECTOR('',#475,0.393700787401575);
#147=VECTOR('',#476,0.393700787401575);
#148=CIRCLE('',#361,1.25);
#149=CIRCLE('',#362,1.25);
#150=CIRCLE('',#367,1.35);
#151=CIRCLE('',#368,1.35);
#152=CIRCLE('',#374,0.177165354330709);
#153=CIRCLE('',#375,0.177165354330709);
#154=CIRCLE('',#377,0.0551181102362204);
#155=CIRCLE('',#378,0.0551181102362204);
#156=CIRCLE('',#380,0.0551181102362204);
#157=CIRCLE('',#381,0.0551181102362204);
#158=VERTEX_POINT('',#483);
#159=VERTEX_POINT('',#484);
#160=VERTEX_POINT('',#486);
#161=VERTEX_POINT('',#488);
#162=VERTEX_POINT('',#492);
#163=VERTEX_POINT('',#494);
#164=VERTEX_POINT('',#498);
#165=VERTEX_POINT('',#500);
#166=VERTEX_POINT('',#504);
#167=VERTEX_POINT('',#506);
#168=VERTEX_POINT('',#510);
#169=VERTEX_POINT('',#512);
#170=VERTEX_POINT('',#516);
#171=VERTEX_POINT('',#518);
#172=VERTEX_POINT('',#522);
#173=VERTEX_POINT('',#524);
#174=VERTEX_POINT('',#532);
#175=VERTEX_POINT('',#534);
#176=VERTEX_POINT('',#538);
#177=VERTEX_POINT('',#540);
#178=VERTEX_POINT('',#544);
#179=VERTEX_POINT('',#546);
#180=VERTEX_POINT('',#550);
#181=VERTEX_POINT('',#551);
#182=VERTEX_POINT('',#553);
#183=VERTEX_POINT('',#555);
#184=VERTEX_POINT('',#559);
#185=VERTEX_POINT('',#561);
#186=VERTEX_POINT('',#565);
#187=VERTEX_POINT('',#567);
#188=EDGE_CURVE('',#158,#159,#148,.T.);
#189=EDGE_CURVE('',#158,#160,#78,.T.);
#190=EDGE_CURVE('',#161,#160,#149,.T.);
#191=EDGE_CURVE('',#159,#161,#79,.T.);
#192=EDGE_CURVE('',#159,#162,#80,.T.);
#193=EDGE_CURVE('',#163,#161,#81,.T.);
#194=EDGE_CURVE('',#162,#163,#82,.T.);
#195=EDGE_CURVE('',#162,#164,#83,.T.);
#196=EDGE_CURVE('',#165,#163,#84,.T.);
#197=EDGE_CURVE('',#164,#165,#85,.T.);
#198=EDGE_CURVE('',#164,#166,#86,.T.);
#199=EDGE_CURVE('',#167,#165,#87,.T.);
#200=EDGE_CURVE('',#166,#167,#88,.T.);
#201=EDGE_CURVE('',#166,#168,#150,.T.);
#202=EDGE_CURVE('',#169,#167,#151,.T.);
#203=EDGE_CURVE('',#168,#169,#89,.T.);
#204=EDGE_CURVE('',#168,#170,#90,.T.);
#205=EDGE_CURVE('',#171,#169,#91,.T.);
#206=EDGE_CURVE('',#170,#171,#92,.T.);
#207=EDGE_CURVE('',#170,#172,#93,.T.);
#208=EDGE_CURVE('',#173,#171,#94,.T.);
#209=EDGE_CURVE('',#172,#173,#95,.T.);
#210=EDGE_CURVE('',#172,#158,#96,.T.);
#211=EDGE_CURVE('',#160,#173,#97,.T.);
#212=EDGE_CURVE('',#174,#174,#152,.T.);
#213=EDGE_CURVE('',#174,#175,#98,.T.);
#214=EDGE_CURVE('',#175,#175,#153,.T.);
#215=EDGE_CURVE('',#176,#176,#154,.T.);
#216=EDGE_CURVE('',#176,#177,#99,.T.);
#217=EDGE_CURVE('',#177,#177,#155,.T.);
#218=EDGE_CURVE('',#178,#178,#156,.T.);
#219=EDGE_CURVE('',#178,#179,#100,.T.);
#220=EDGE_CURVE('',#179,#179,#157,.T.);
#221=EDGE_CURVE('',#180,#181,#101,.T.);
#222=EDGE_CURVE('',#181,#182,#102,.T.);
#223=EDGE_CURVE('',#183,#182,#103,.T.);
#224=EDGE_CURVE('',#180,#183,#104,.T.);
#225=EDGE_CURVE('',#184,#180,#105,.T.);
#226=EDGE_CURVE('',#185,#183,#106,.T.);
#227=EDGE_CURVE('',#184,#185,#107,.T.);
#228=EDGE_CURVE('',#186,#184,#108,.T.);
#229=EDGE_CURVE('',#187,#185,#109,.T.);
#230=EDGE_CURVE('',#186,#187,#110,.T.);
#231=EDGE_CURVE('',#181,#186,#111,.T.);
#232=EDGE_CURVE('',#182,#187,#112,.T.);
#233=ORIENTED_EDGE('',*,*,#188,.F.);
#234=ORIENTED_EDGE('',*,*,#189,.T.);
#235=ORIENTED_EDGE('',*,*,#190,.F.);
#236=ORIENTED_EDGE('',*,*,#191,.F.);
#237=ORIENTED_EDGE('',*,*,#192,.F.);
#238=ORIENTED_EDGE('',*,*,#191,.T.);
#239=ORIENTED_EDGE('',*,*,#193,.F.);
#240=ORIENTED_EDGE('',*,*,#194,.F.);
#241=ORIENTED_EDGE('',*,*,#195,.F.);
#242=ORIENTED_EDGE('',*,*,#194,.T.);
#243=ORIENTED_EDGE('',*,*,#196,.F.);
#244=ORIENTED_EDGE('',*,*,#197,.F.);
#245=ORIENTED_EDGE('',*,*,#198,.F.);
#246=ORIENTED_EDGE('',*,*,#197,.T.);
#247=ORIENTED_EDGE('',*,*,#199,.F.);
#248=ORIENTED_EDGE('',*,*,#200,.F.);
#249=ORIENTED_EDGE('',*,*,#201,.F.);
#250=ORIENTED_EDGE('',*,*,#200,.T.);
#251=ORIENTED_EDGE('',*,*,#202,.F.);
#252=ORIENTED_EDGE('',*,*,#203,.F.);
#253=ORIENTED_EDGE('',*,*,#204,.F.);
#254=ORIENTED_EDGE('',*,*,#203,.T.);
#255=ORIENTED_EDGE('',*,*,#205,.F.);
#256=ORIENTED_EDGE('',*,*,#206,.F.);
#257=ORIENTED_EDGE('',*,*,#207,.F.);
#258=ORIENTED_EDGE('',*,*,#206,.T.);
#259=ORIENTED_EDGE('',*,*,#208,.F.);
#260=ORIENTED_EDGE('',*,*,#209,.F.);
#261=ORIENTED_EDGE('',*,*,#210,.F.);
#262=ORIENTED_EDGE('',*,*,#209,.T.);
#263=ORIENTED_EDGE('',*,*,#211,.F.);
#264=ORIENTED_EDGE('',*,*,#189,.F.);
#265=ORIENTED_EDGE('',*,*,#211,.T.);
#266=ORIENTED_EDGE('',*,*,#208,.T.);
#267=ORIENTED_EDGE('',*,*,#205,.T.);
#268=ORIENTED_EDGE('',*,*,#202,.T.);
#269=ORIENTED_EDGE('',*,*,#199,.T.);
#270=ORIENTED_EDGE('',*,*,#196,.T.);
#271=ORIENTED_EDGE('',*,*,#193,.T.);
#272=ORIENTED_EDGE('',*,*,#190,.T.);
#273=ORIENTED_EDGE('',*,*,#212,.F.);
#274=ORIENTED_EDGE('',*,*,#213,.T.);
#275=ORIENTED_EDGE('',*,*,#214,.F.);
#276=ORIENTED_EDGE('',*,*,#213,.F.);
#277=ORIENTED_EDGE('',*,*,#215,.F.);
#278=ORIENTED_EDGE('',*,*,#216,.T.);
#279=ORIENTED_EDGE('',*,*,#217,.F.);
#280=ORIENTED_EDGE('',*,*,#216,.F.);
#281=ORIENTED_EDGE('',*,*,#218,.F.);
#282=ORIENTED_EDGE('',*,*,#219,.T.);
#283=ORIENTED_EDGE('',*,*,#220,.F.);
#284=ORIENTED_EDGE('',*,*,#219,.F.);
#285=ORIENTED_EDGE('',*,*,#221,.T.);
#286=ORIENTED_EDGE('',*,*,#222,.T.);
#287=ORIENTED_EDGE('',*,*,#223,.F.);
#288=ORIENTED_EDGE('',*,*,#224,.F.);
#289=ORIENTED_EDGE('',*,*,#225,.T.);
#290=ORIENTED_EDGE('',*,*,#224,.T.);
#291=ORIENTED_EDGE('',*,*,#226,.F.);
#292=ORIENTED_EDGE('',*,*,#227,.F.);
#293=ORIENTED_EDGE('',*,*,#228,.T.);
#294=ORIENTED_EDGE('',*,*,#227,.T.);
#295=ORIENTED_EDGE('',*,*,#229,.F.);
#296=ORIENTED_EDGE('',*,*,#230,.F.);
#297=ORIENTED_EDGE('',*,*,#231,.T.);
#298=ORIENTED_EDGE('',*,*,#230,.T.);
#299=ORIENTED_EDGE('',*,*,#232,.F.);
#300=ORIENTED_EDGE('',*,*,#222,.F.);
#301=ORIENTED_EDGE('',*,*,#232,.T.);
#302=ORIENTED_EDGE('',*,*,#229,.T.);
#303=ORIENTED_EDGE('',*,*,#226,.T.);
#304=ORIENTED_EDGE('',*,*,#223,.T.);
#305=ORIENTED_EDGE('',*,*,#188,.T.);
#306=ORIENTED_EDGE('',*,*,#192,.T.);
#307=ORIENTED_EDGE('',*,*,#195,.T.);
#308=ORIENTED_EDGE('',*,*,#198,.T.);
#309=ORIENTED_EDGE('',*,*,#201,.T.);
#310=ORIENTED_EDGE('',*,*,#204,.T.);
#311=ORIENTED_EDGE('',*,*,#207,.T.);
#312=ORIENTED_EDGE('',*,*,#210,.T.);
#313=ORIENTED_EDGE('',*,*,#212,.T.);
#314=ORIENTED_EDGE('',*,*,#215,.T.);
#315=ORIENTED_EDGE('',*,*,#218,.T.);
#316=ORIENTED_EDGE('',*,*,#231,.F.);
#317=ORIENTED_EDGE('',*,*,#221,.F.);
#318=ORIENTED_EDGE('',*,*,#225,.F.);
#319=ORIENTED_EDGE('',*,*,#228,.F.);
#320=ORIENTED_EDGE('',*,*,#214,.T.);
#321=ORIENTED_EDGE('',*,*,#217,.T.);
#322=ORIENTED_EDGE('',*,*,#220,.T.);
#323=CYLINDRICAL_SURFACE('',#360,1.25);
#324=CYLINDRICAL_SURFACE('',#366,1.35);
#325=CYLINDRICAL_SURFACE('',#373,0.177165354330709);
#326=CYLINDRICAL_SURFACE('',#376,0.0551181102362204);
#327=CYLINDRICAL_SURFACE('',#379,0.0551181102362204);
#328=ADVANCED_FACE('',(#35),#323,.F.);
#329=ADVANCED_FACE('',(#36),#22,.T.);
#330=ADVANCED_FACE('',(#37),#23,.T.);
#331=ADVANCED_FACE('',(#38),#24,.T.);
#332=ADVANCED_FACE('',(#39),#324,.T.);
#333=ADVANCED_FACE('',(#40),#25,.T.);
#334=ADVANCED_FACE('',(#41),#26,.T.);
#335=ADVANCED_FACE('',(#42),#27,.T.);
#336=ADVANCED_FACE('',(#43),#28,.T.);
#337=ADVANCED_FACE('',(#44),#325,.F.);
#338=ADVANCED_FACE('',(#45),#326,.F.);
#339=ADVANCED_FACE('',(#46),#327,.F.);
#340=ADVANCED_FACE('',(#47),#29,.T.);
#341=ADVANCED_FACE('',(#48),#30,.T.);
#342=ADVANCED_FACE('',(#49),#31,.T.);
#343=ADVANCED_FACE('',(#50),#32,.T.);
#344=ADVANCED_FACE('',(#51,#15,#16,#17,#18),#33,.T.);
#345=ADVANCED_FACE('',(#52,#19,#20,#21),#34,.F.);
#346=CLOSED_SHELL('',(#328,#329,#330,#331,#332,#333,#334,#335,#336,#337,
#338,#339,#340,#341,#342,#343,#344,#345));
#347=DERIVED_UNIT_ELEMENT(#349,1.);
#348=DERIVED_UNIT_ELEMENT(#582,-3.);
#349=(
MASS_UNIT()
NAMED_UNIT(*)
SI_UNIT(.KILO.,.GRAM.)
);
#350=DERIVED_UNIT((#347,#348));
#351=MEASURE_REPRESENTATION_ITEM('density measure',
POSITIVE_RATIO_MEASURE(7850.),#350);
#352=PROPERTY_DEFINITION_REPRESENTATION(#357,#354);
#353=PROPERTY_DEFINITION_REPRESENTATION(#358,#355);
#354=REPRESENTATION('material name',(#356),#577);
#355=REPRESENTATION('density',(#351),#577);
#356=DESCRIPTIVE_REPRESENTATION_ITEM('Steel','Steel');
#357=PROPERTY_DEFINITION('material property','material name',#590);
#358=PROPERTY_DEFINITION('material property','density of part',#590);
#359=AXIS2_PLACEMENT_3D('',#481,#388,#389);
#360=AXIS2_PLACEMENT_3D('',#482,#390,#391);
#361=AXIS2_PLACEMENT_3D('',#485,#392,#393);
#362=AXIS2_PLACEMENT_3D('',#489,#395,#396);
#363=AXIS2_PLACEMENT_3D('',#491,#398,#399);
#364=AXIS2_PLACEMENT_3D('',#497,#403,#404);
#365=AXIS2_PLACEMENT_3D('',#503,#408,#409);
#366=AXIS2_PLACEMENT_3D('',#509,#413,#414);
#367=AXIS2_PLACEMENT_3D('',#511,#415,#416);
#368=AXIS2_PLACEMENT_3D('',#513,#417,#418);
#369=AXIS2_PLACEMENT_3D('',#515,#420,#421);
#370=AXIS2_PLACEMENT_3D('',#521,#425,#426);
#371=AXIS2_PLACEMENT_3D('',#527,#430,#431);
#372=AXIS2_PLACEMENT_3D('',#530,#434,#435);
#373=AXIS2_PLACEMENT_3D('',#531,#436,#437);
#374=AXIS2_PLACEMENT_3D('',#533,#438,#439);
#375=AXIS2_PLACEMENT_3D('',#536,#441,#442);
#376=AXIS2_PLACEMENT_3D('',#537,#443,#444);
#377=AXIS2_PLACEMENT_3D('',#539,#445,#446);
#378=AXIS2_PLACEMENT_3D('',#542,#448,#449);
#379=AXIS2_PLACEMENT_3D('',#543,#450,#451);
#380=AXIS2_PLACEMENT_3D('',#545,#452,#453);
#381=AXIS2_PLACEMENT_3D('',#548,#455,#456);
#382=AXIS2_PLACEMENT_3D('',#549,#457,#458);
#383=AXIS2_PLACEMENT_3D('',#558,#463,#464);
#384=AXIS2_PLACEMENT_3D('',#564,#468,#469);
#385=AXIS2_PLACEMENT_3D('',#570,#473,#474);
#386=AXIS2_PLACEMENT_3D('',#573,#477,#478);
#387=AXIS2_PLACEMENT_3D('',#574,#479,#480);
#388=DIRECTION('axis',(0.,0.,1.));
#389=DIRECTION('refdir',(1.,0.,0.));
#390=DIRECTION('center_axis',(0.,1.,0.));
#391=DIRECTION('ref_axis',(-6.12323399573677E-17,0.,-1.));
#392=DIRECTION('center_axis',(0.,1.,0.));
#393=DIRECTION('ref_axis',(-6.12323399573677E-17,0.,-1.));
#394=DIRECTION('',(0.,1.,0.));
#395=DIRECTION('center_axis',(0.,-1.,0.));
#396=DIRECTION('ref_axis',(-6.12323399573677E-17,0.,-1.));
#397=DIRECTION('',(0.,1.,0.));
#398=DIRECTION('center_axis',(0.,0.,-1.));
#399=DIRECTION('ref_axis',(-1.,0.,0.));
#400=DIRECTION('',(1.,0.,0.));
#401=DIRECTION('',(-1.,0.,0.));
#402=DIRECTION('',(0.,1.,0.));
#403=DIRECTION('center_axis',(1.,0.,0.));
#404=DIRECTION('ref_axis',(0.,0.,-1.));
#405=DIRECTION('',(0.,0.,1.));
#406=DIRECTION('',(0.,0.,-1.));
#407=DIRECTION('',(0.,1.,0.));
#408=DIRECTION('center_axis',(0.,0.,1.));
#409=DIRECTION('ref_axis',(1.,0.,0.));
#410=DIRECTION('',(-1.,0.,0.));
#411=DIRECTION('',(1.,0.,0.));
#412=DIRECTION('',(0.,1.,0.));
#413=DIRECTION('center_axis',(0.,1.,0.));
#414=DIRECTION('ref_axis',(0.,0.,-1.));
#415=DIRECTION('center_axis',(0.,-1.,0.));
#416=DIRECTION('ref_axis',(0.,0.,-1.));
#417=DIRECTION('center_axis',(0.,1.,0.));
#418=DIRECTION('ref_axis',(0.,0.,-1.));
#419=DIRECTION('',(0.,1.,0.));
#420=DIRECTION('center_axis',(0.,0.,-1.));
#421=DIRECTION('ref_axis',(-1.,0.,0.));
#422=DIRECTION('',(1.,0.,0.));
#423=DIRECTION('',(-1.,0.,0.));
#424=DIRECTION('',(0.,1.,0.));
#425=DIRECTION('center_axis',(1.,0.,0.));
#426=DIRECTION('ref_axis',(0.,0.,-1.));
#427=DIRECTION('',(0.,0.,1.));
#428=DIRECTION('',(0.,0.,-1.));
#429=DIRECTION('',(0.,1.,0.));
#430=DIRECTION('center_axis',(0.,0.,1.));
#431=DIRECTION('ref_axis',(1.,0.,0.));
#432=DIRECTION('',(-1.,0.,0.));
#433=DIRECTION('',(1.,0.,0.));
#434=DIRECTION('center_axis',(0.,1.,0.));
#435=DIRECTION('ref_axis',(-1.,0.,0.));
#436=DIRECTION('center_axis',(0.,-1.,0.));
#437=DIRECTION('ref_axis',(-1.,0.,0.));
#438=DIRECTION('center_axis',(0.,-1.,0.));
#439=DIRECTION('ref_axis',(-1.,0.,0.));
#440=DIRECTION('',(0.,-1.,0.));
#441=DIRECTION('center_axis',(0.,1.,0.));
#442=DIRECTION('ref_axis',(-1.,0.,0.));
#443=DIRECTION('center_axis',(0.,-1.,0.));
#444=DIRECTION('ref_axis',(-1.,0.,0.));
#445=DIRECTION('center_axis',(0.,-1.,0.));
#446=DIRECTION('ref_axis',(-1.,0.,0.));
#447=DIRECTION('',(0.,-1.,0.));
#448=DIRECTION('center_axis',(0.,1.,0.));
#449=DIRECTION('ref_axis',(-1.,0.,0.));
#450=DIRECTION('center_axis',(0.,-1.,0.));
#451=DIRECTION('ref_axis',(-1.,0.,0.));
#452=DIRECTION('center_axis',(0.,-1.,0.));
#453=DIRECTION('ref_axis',(-1.,0.,0.));
#454=DIRECTION('',(0.,-1.,0.));
#455=DIRECTION('center_axis',(0.,1.,0.));
#456=DIRECTION('ref_axis',(-1.,0.,0.));
#457=DIRECTION('center_axis',(0.,0.,1.));
#458=DIRECTION('ref_axis',(1.,0.,0.));
#459=DIRECTION('',(1.,0.,0.));
#460=DIRECTION('',(0.,1.,0.));
#461=DIRECTION('',(1.,0.,0.));
#462=DIRECTION('',(0.,1.,0.));
#463=DIRECTION('center_axis',(-1.,0.,0.));
#464=DIRECTION('ref_axis',(0.,0.,1.));
#465=DIRECTION('',(0.,0.,1.));
#466=DIRECTION('',(0.,0.,1.));
#467=DIRECTION('',(0.,1.,0.));
#468=DIRECTION('center_axis',(0.,0.,-1.));
#469=DIRECTION('ref_axis',(-1.,0.,0.));
#470=DIRECTION('',(-1.,0.,0.));
#471=DIRECTION('',(-1.,0.,0.));
#472=DIRECTION('',(0.,1.,0.));
#473=DIRECTION('center_axis',(1.,0.,0.));
#474=DIRECTION('ref_axis',(0.,0.,-1.));
#475=DIRECTION('',(0.,0.,-1.));
#476=DIRECTION('',(0.,0.,-1.));
#477=DIRECTION('center_axis',(0.,1.,0.));
#478=DIRECTION('ref_axis',(0.,0.,1.));
#479=DIRECTION('center_axis',(0.,1.,0.));
#480=DIRECTION('ref_axis',(1.,0.,0.));
#481=CARTESIAN_POINT('',(0.,0.,0.));
#482=CARTESIAN_POINT('Origin',(0.,0.15,0.));
#483=CARTESIAN_POINT('',(-7.65404249467096E-17,0.15,-1.25));
#484=CARTESIAN_POINT('',(0.,0.15,1.25));
#485=CARTESIAN_POINT('Origin',(0.,0.15,0.));
#486=CARTESIAN_POINT('',(-7.65404249467096E-17,0.45,-1.25));
#487=CARTESIAN_POINT('',(-7.65404249467096E-17,0.15,-1.25));
#488=CARTESIAN_POINT('',(0.,0.45,1.25));
#489=CARTESIAN_POINT('Origin',(0.,0.45,0.));
#490=CARTESIAN_POINT('',(0.,0.15,1.25));
#491=CARTESIAN_POINT('Origin',(0.5,0.15,1.25));
#492=CARTESIAN_POINT('',(0.5,0.15,1.25));
#493=CARTESIAN_POINT('',(0.25,0.15,1.25));
#494=CARTESIAN_POINT('',(0.5,0.45,1.25));
#495=CARTESIAN_POINT('',(0.5,0.45,1.25));
#496=CARTESIAN_POINT('',(0.5,0.15,1.25));
#497=CARTESIAN_POINT('Origin',(0.5,0.15,1.35));
#498=CARTESIAN_POINT('',(0.5,0.15,1.35));
#499=CARTESIAN_POINT('',(0.5,0.15,0.675));
#500=CARTESIAN_POINT('',(0.5,0.45,1.35));
#501=CARTESIAN_POINT('',(0.5,0.45,1.35));
#502=CARTESIAN_POINT('',(0.5,0.15,1.35));
#503=CARTESIAN_POINT('Origin',(8.26636589424463E-17,0.15,1.35));
#504=CARTESIAN_POINT('',(8.26636589424463E-17,0.15,1.35));
#505=CARTESIAN_POINT('',(4.13318294712232E-17,0.15,1.35));
#506=CARTESIAN_POINT('',(8.26636589424463E-17,0.45,1.35));
#507=CARTESIAN_POINT('',(8.26636589424463E-17,0.45,1.35));
#508=CARTESIAN_POINT('',(8.26636589424463E-17,0.15,1.35));
#509=CARTESIAN_POINT('Origin',(0.,0.15,0.));
#510=CARTESIAN_POINT('',(0.,0.15,-1.35));
#511=CARTESIAN_POINT('Origin',(0.,0.15,0.));
#512=CARTESIAN_POINT('',(0.,0.45,-1.35));
#513=CARTESIAN_POINT('Origin',(0.,0.45,0.));
#514=CARTESIAN_POINT('',(0.,0.15,-1.35));
#515=CARTESIAN_POINT('Origin',(0.5,0.15,-1.35));
#516=CARTESIAN_POINT('',(0.5,0.15,-1.35));
#517=CARTESIAN_POINT('',(0.25,0.15,-1.35));
#518=CARTESIAN_POINT('',(0.5,0.45,-1.35));
#519=CARTESIAN_POINT('',(0.5,0.45,-1.35));
#520=CARTESIAN_POINT('',(0.5,0.15,-1.35));
#521=CARTESIAN_POINT('Origin',(0.5,0.15,-1.25));
#522=CARTESIAN_POINT('',(0.5,0.15,-1.25));
#523=CARTESIAN_POINT('',(0.5,0.15,-0.625));
#524=CARTESIAN_POINT('',(0.5,0.45,-1.25));
#525=CARTESIAN_POINT('',(0.5,0.45,-1.25));
#526=CARTESIAN_POINT('',(0.5,0.15,-1.25));
#527=CARTESIAN_POINT('Origin',(-7.65404249467096E-17,0.15,-1.25));
#528=CARTESIAN_POINT('',(-3.82702124733548E-17,0.15,-1.25));
#529=CARTESIAN_POINT('',(-7.65404249467096E-17,0.45,-1.25));
#530=CARTESIAN_POINT('Origin',(-0.425,0.45,0.));
#531=CARTESIAN_POINT('Origin',(0.,0.15,0.));
#532=CARTESIAN_POINT('',(0.177165354330709,0.15,-2.16964984100909E-17));
#533=CARTESIAN_POINT('Origin',(0.,0.15,0.));
#534=CARTESIAN_POINT('',(0.177165354330709,0.,-2.16964984100909E-17));
#535=CARTESIAN_POINT('',(0.177165354330709,0.15,2.16964984100909E-17));
#536=CARTESIAN_POINT('Origin',(0.,0.,0.));
#537=CARTESIAN_POINT('Origin',(0.685,0.15,-0.31496062992126));
#538=CARTESIAN_POINT('',(0.74011811023622,0.15,-0.31496062992126));
#539=CARTESIAN_POINT('Origin',(0.685,0.15,-0.31496062992126));
#540=CARTESIAN_POINT('',(0.74011811023622,0.,-0.31496062992126));
#541=CARTESIAN_POINT('',(0.74011811023622,0.15,-0.31496062992126));
#542=CARTESIAN_POINT('Origin',(0.685,0.,-0.31496062992126));
#543=CARTESIAN_POINT('Origin',(-0.685,0.15,-0.31496062992126));
#544=CARTESIAN_POINT('',(-0.62988188976378,0.15,-0.31496062992126));
#545=CARTESIAN_POINT('Origin',(-0.685,0.15,-0.31496062992126));
#546=CARTESIAN_POINT('',(-0.62988188976378,0.,-0.31496062992126));
#547=CARTESIAN_POINT('',(-0.62988188976378,0.15,-0.31496062992126));
#548=CARTESIAN_POINT('Origin',(-0.685,0.,-0.31496062992126));
#549=CARTESIAN_POINT('Origin',(-1.5,0.,1.5));
#550=CARTESIAN_POINT('',(-1.5,0.,1.5));
#551=CARTESIAN_POINT('',(1.5,0.,1.5));
#552=CARTESIAN_POINT('',(-1.5,0.,1.5));
#553=CARTESIAN_POINT('',(1.5,0.15,1.5));
#554=CARTESIAN_POINT('',(1.5,0.,1.5));
#555=CARTESIAN_POINT('',(-1.5,0.15,1.5));
#556=CARTESIAN_POINT('',(-1.5,0.15,1.5));
#557=CARTESIAN_POINT('',(-1.5,0.,1.5));
#558=CARTESIAN_POINT('Origin',(-1.5,0.,-1.5));
#559=CARTESIAN_POINT('',(-1.5,0.,-1.5));
#560=CARTESIAN_POINT('',(-1.5,0.,-1.5));
#561=CARTESIAN_POINT('',(-1.5,0.15,-1.5));
#562=CARTESIAN_POINT('',(-1.5,0.15,-1.5));
#563=CARTESIAN_POINT('',(-1.5,0.,-1.5));
#564=CARTESIAN_POINT('Origin',(1.5,0.,-1.5));
#565=CARTESIAN_POINT('',(1.5,0.,-1.5));
#566=CARTESIAN_POINT('',(1.5,0.,-1.5));
#567=CARTESIAN_POINT('',(1.5,0.15,-1.5));
#568=CARTESIAN_POINT('',(1.5,0.15,-1.5));
#569=CARTESIAN_POINT('',(1.5,0.,-1.5));
#570=CARTESIAN_POINT('Origin',(1.5,0.,1.5));
#571=CARTESIAN_POINT('',(1.5,0.,1.5));
#572=CARTESIAN_POINT('',(1.5,0.15,1.5));
#573=CARTESIAN_POINT('Origin',(0.,0.15,0.));
#574=CARTESIAN_POINT('Origin',(0.,0.,0.));
#575=UNCERTAINTY_MEASURE_WITH_UNIT(LENGTH_MEASURE(0.000393700787401575),
#580,'DISTANCE_ACCURACY_VALUE',
'Maximum model space distance between geometric entities at asserted c
onnectivities');
#576=UNCERTAINTY_MEASURE_WITH_UNIT(LENGTH_MEASURE(0.000393700787401575),
#580,'DISTANCE_ACCURACY_VALUE',
'Maximum model space distance between geometric entities at asserted c
onnectivities');
#577=(
GEOMETRIC_REPRESENTATION_CONTEXT(3)
GLOBAL_UNCERTAINTY_ASSIGNED_CONTEXT((#575))
GLOBAL_UNIT_ASSIGNED_CONTEXT((#580,#584,#585))
REPRESENTATION_CONTEXT('','3D')
);
#578=(
GEOMETRIC_REPRESENTATION_CONTEXT(3)
GLOBAL_UNCERTAINTY_ASSIGNED_CONTEXT((#576))
GLOBAL_UNIT_ASSIGNED_CONTEXT((#580,#584,#585))
REPRESENTATION_CONTEXT('','3D')
);
#579=DIMENSIONAL_EXPONENTS(1.,0.,0.,0.,0.,0.,0.);
#580=(
CONVERSION_BASED_UNIT('inch',#583)
LENGTH_UNIT()
NAMED_UNIT(#579)
);
#581=(
LENGTH_UNIT()
NAMED_UNIT(*)
SI_UNIT(.MILLI.,.METRE.)
);
#582=(
LENGTH_UNIT()
NAMED_UNIT(*)
SI_UNIT($,.METRE.)
);
#583=LENGTH_MEASURE_WITH_UNIT(LENGTH_MEASURE(25.4),#581);
#584=(
NAMED_UNIT(*)
PLANE_ANGLE_UNIT()
SI_UNIT($,.RADIAN.)
);
#585=(
NAMED_UNIT(*)
SI_UNIT($,.STERADIAN.)
SOLID_ANGLE_UNIT()
);
#586=SHAPE_DEFINITION_REPRESENTATION(#587,#588);
#587=PRODUCT_DEFINITION_SHAPE('',$,#590);
#588=SHAPE_REPRESENTATION('',(#359),#577);
#589=PRODUCT_DEFINITION_CONTEXT('part definition',#594,'design');
#590=PRODUCT_DEFINITION('2026-04-22-00-17-38-220','stepper mount',#591,
#589);
#591=PRODUCT_DEFINITION_FORMATION('',$,#596);
#592=PRODUCT_RELATED_PRODUCT_CATEGORY('stepper mount','stepper mount',(#596));
#593=APPLICATION_PROTOCOL_DEFINITION('international standard',
'automotive_design',2009,#594);
#594=APPLICATION_CONTEXT(
'Core Data for Automotive Mechanical Design Process');
#595=PRODUCT_CONTEXT('part definition',#594,'mechanical');
#596=PRODUCT('2026-04-22-00-17-38-220','stepper mount',$,(#595));
#597=PRESENTATION_STYLE_ASSIGNMENT((#598));
#598=SURFACE_STYLE_USAGE(.BOTH.,#599);
#599=SURFACE_SIDE_STYLE('',(#600));
#600=SURFACE_STYLE_FILL_AREA(#601);
#601=FILL_AREA_STYLE('Steel - Satin',(#602));
#602=FILL_AREA_STYLE_COLOUR('Steel - Satin',#603);
#603=COLOUR_RGB('Steel - Satin',0.627450980392157,0.627450980392157,0.627450980392157);
ENDSEC;
END-ISO-10303-21;
