ISO-10303-21;
HEADER;
FILE_DESCRIPTION (( 'STEP AP214' ),
    '1' );
FILE_NAME ('Badminton Trainer Mount.STEP',
    '2026-09-19T17:29:58',
    ( '' ),
    ( '' ),
    'SwSTEP 2.0',
    'SolidWorks 2026',
    '' );
FILE_SCHEMA (( 'AUTOMOTIVE_DESIGN' ));
ENDSEC;

DATA;
#1 = VECTOR ( 'NONE', #571, 1000.000000000000000 ) ;
#2 = VERTEX_POINT ( 'NONE', #85 ) ;
#3 = LINE ( 'NONE', #153, #467 ) ;
#4 = EDGE_CURVE ( 'NONE', #990, #485, #174, .T. ) ;
#5 = CARTESIAN_POINT ( 'NONE',  ( 0.000000000000000000, -4.921000000000000263, 37.98920000000000385 ) ) ;
#6 = EDGE_LOOP ( 'NONE', ( #923, #898, #589, #841 ) ) ;
#7 = DIRECTION ( 'NONE',  ( -0.000000000000000000, 1.000000000000000000, -0.000000000000000000 ) ) ;
#8 = EDGE_CURVE ( 'NONE', #724, #312, #410, .T. ) ;
#9 = DIRECTION ( 'NONE',  ( 0.000000000000000000, 0.000000000000000000, 1.000000000000000000 ) ) ;
#10 = ORIENTED_EDGE ( 'NONE', *, *, #642, .F. ) ;
#11 = DIRECTION ( 'NONE',  ( 0.000000000000000000, 0.000000000000000000, 1.000000000000000000 ) ) ;
#12 = ORIENTED_EDGE ( 'NONE', *, *, #311, .T. ) ;
#13 = CARTESIAN_POINT ( 'NONE',  ( -12.49999999999999645, -2.000000000000000000, 17.50000000000000355 ) ) ;
#14 = CIRCLE ( 'NONE', #405, 4.564379999999999882 ) ;
#15 = ORIENTED_EDGE ( 'NONE', *, *, #285, .F. ) ;
#16 = EDGE_CURVE ( 'NONE', #374, #540, #634, .T. ) ;
#17 = ORIENTED_EDGE ( 'NONE', *, *, #446, .F. ) ;
#18 = CARTESIAN_POINT ( 'NONE',  ( 0.000000000000000000, -4.921000000000000263, 35.50000000000000711 ) ) ;
#19 = EDGE_LOOP ( 'NONE', ( #548, #472, #15, #790 ) ) ;
#20 = ORIENTED_EDGE ( 'NONE', *, *, #70, .T. ) ;
#21 = CARTESIAN_POINT ( 'NONE',  ( -37.50000000000000711, -12.00000000000000000, 44.99999999999999289 ) ) ;
#22 = EDGE_CURVE ( 'NONE', #332, #1002, #14, .T. ) ;
#23 = VERTEX_POINT ( 'NONE', #25 ) ;
#24 = FACE_OUTER_BOUND ( 'NONE', #826, .T. ) ;
#25 = CARTESIAN_POINT ( 'NONE',  ( 5.500000000000005329, 2.000000000000000000, 7.500000000000005329 ) ) ;
#26 = EDGE_LOOP ( 'NONE', ( #379, #887 ) ) ;
#27 = DIRECTION ( 'NONE',  ( 0.000000000000000000, 0.000000000000000000, 1.000000000000000000 ) ) ;
#28 = ORIENTED_EDGE ( 'NONE', *, *, #1031, .T. ) ;
#29 = FILL_AREA_STYLE ('',( #608 ) ) ;
#30 = EDGE_CURVE ( 'NONE', #595, #508, #337, .T. ) ;
#31 = AXIS2_PLACEMENT_3D ( 'NONE', #32, #350, #516 ) ;
#32 = CARTESIAN_POINT ( 'NONE',  ( 0.000000000000000000, -12.00000000000000000, 35.50000000000000711 ) ) ;
#33 = EDGE_LOOP ( 'NONE', ( #158, #972, #775, #933 ) ) ;
#34 = DIRECTION ( 'NONE',  ( -1.000000000000000000, -0.000000000000000000, -0.000000000000000000 ) ) ;
#35 = CARTESIAN_POINT ( 'NONE',  ( 5.589753357092195939E-16, -4.921000000000000263, -40.06438000000000699 ) ) ;
#36 = DIRECTION ( 'NONE',  ( 0.000000000000000000, 1.000000000000000000, -0.000000000000000000 ) ) ;
#37 = ORIENTED_EDGE ( 'NONE', *, *, #890, .T. ) ;
#38 = LINE ( 'NONE', #906, #808 ) ;
#39 = ORIENTED_EDGE ( 'NONE', *, *, #828, .F. ) ;
#40 = PLANE ( 'NONE',  #441 ) ;
#41 = AXIS2_PLACEMENT_3D ( 'NONE', #313, #301, #783 ) ;
#42 = EDGE_CURVE ( 'NONE', #1002, #332, #81, .T. ) ;
#43 = CARTESIAN_POINT ( 'NONE',  ( -10.49999999999999645, 0.000000000000000000, -15.50000000000000000 ) ) ;
#44 = ORIENTED_EDGE ( 'NONE', *, *, #959, .F. ) ;
#45 = DIRECTION ( 'NONE',  ( -0.000000000000000000, -1.000000000000000000, -0.000000000000000000 ) ) ;
#46 = CARTESIAN_POINT ( 'NONE',  ( 10.50000000000000888, -2.000000000000000000, -15.50000000000000178 ) ) ;
#47 = LINE ( 'NONE', #271, #669 ) ;
#48 = VERTEX_POINT ( 'NONE', #720 ) ;
#49 = AXIS2_PLACEMENT_3D ( 'NONE', #292, #1019, #382 ) ;
#50 = DIRECTION ( 'NONE',  ( -1.000000000000000000, 0.000000000000000000, 8.260587980841936314E-17 ) ) ;
#51 = EDGE_CURVE ( 'NONE', #455, #163, #974, .T. ) ;
#52 = EDGE_LOOP ( 'NONE', ( #874, #622, #637, #780 ) ) ;
#53 = DIRECTION ( 'NONE',  ( -0.000000000000000000, -1.000000000000000000, -0.000000000000000000 ) ) ;
#54 = DIRECTION ( 'NONE',  ( -0.000000000000000000, 1.000000000000000000, -0.000000000000000000 ) ) ;
#55 = ORIENTED_EDGE ( 'NONE', *, *, #319, .F. ) ;
#56 = LINE ( 'NONE', #368, #897 ) ;
#57 = ADVANCED_FACE ( 'NONE', ( #628 ), #403, .F. ) ;
#58 = ORIENTED_EDGE ( 'NONE', *, *, #579, .F. ) ;
#59 = DIRECTION ( 'NONE',  ( -0.000000000000000000, 1.000000000000000000, -0.000000000000000000 ) ) ;
#60 = FACE_OUTER_BOUND ( 'NONE', #736, .T. ) ;
#61 = DIRECTION ( 'NONE',  ( -0.000000000000000000, -1.000000000000000000, -0.000000000000000000 ) ) ;
#62 = VECTOR ( 'NONE', #45, 1000.000000000000000 ) ;
#63 = ORIENTED_EDGE ( 'NONE', *, *, #109, .T. ) ;
#64 = CARTESIAN_POINT ( 'NONE',  ( 3.048390812437589833E-16, -2.000000000000000000, -37.98920000000000385 ) ) ;
#65 = EDGE_CURVE ( 'NONE', #236, #1007, #99, .T. ) ;
#66 = CARTESIAN_POINT ( 'NONE',  ( 5.589753357092195939E-16, -2.000000000000000444, 30.93562000000000367 ) ) ;
#67 = VECTOR ( 'NONE', #807, 1000.000000000000000 ) ;
#68 = EDGE_LOOP ( 'NONE', ( #533, #751, #809, #815 ) ) ;
#69 = CARTESIAN_POINT ( 'NONE',  ( -5.499999999999998224, 0.000000000000000000, 7.500000000000007105 ) ) ;
#70 = EDGE_CURVE ( 'NONE', #969, #910, #554, .T. ) ;
#71 = DIRECTION ( 'NONE',  ( 1.000000000000000000, -0.000000000000000000, 0.000000000000000000 ) ) ;
#72 = ORIENTED_EDGE ( 'NONE', *, *, #982, .T. ) ;
#73 = LINE ( 'NONE', #615, #742 ) ;
#74 = CARTESIAN_POINT ( 'NONE',  ( 10.50000000000000533, 0.000000000000000000, 17.50000000000000355 ) ) ;
#75 = AXIS2_PLACEMENT_3D ( 'NONE', #159, #156, #778 ) ;
#76 = ORIENTED_EDGE ( 'NONE', *, *, #859, .T. ) ;
#77 = LINE ( 'NONE', #306, #476 ) ;
#78 = ORIENTED_EDGE ( 'NONE', *, *, #65, .F. ) ;
#79 = EDGE_CURVE ( 'NONE', #540, #595, #789, .T. ) ;
#80 = CARTESIAN_POINT ( 'NONE',  ( -3.999999999999995559, 2.000000000000000000, 7.500000000000007105 ) ) ;
#81 = CIRCLE ( 'NONE', #714, 4.564379999999999882 ) ;
#82 = ORIENTED_EDGE ( 'NONE', *, *, #572, .F. ) ;
#83 = VERTEX_POINT ( 'NONE', #952 ) ;
#84 = DIRECTION ( 'NONE',  ( 0.000000000000000000, 0.000000000000000000, 1.000000000000000000 ) ) ;
#85 = CARTESIAN_POINT ( 'NONE',  ( 12.49999999999999822, -2.000000000000000000, -17.49999999999999645 ) ) ;
#86 = VERTEX_POINT ( 'NONE', #5 ) ;
#87 = CARTESIAN_POINT ( 'NONE',  ( -5.499999999999994671, 2.000000000000000000, 17.50000000000000355 ) ) ;
#88 = CARTESIAN_POINT ( 'NONE',  ( -12.49999999999999645, 2.000000000000000000, 17.50000000000000355 ) ) ;
#89 = EDGE_CURVE ( 'NONE', #1007, #404, #580, .T. ) ;
#90 = CARTESIAN_POINT ( 'NONE',  ( -37.49999999999999289, -2.000000000000000000, -45.00000000000000711 ) ) ;
#91 = ORIENTED_EDGE ( 'NONE', *, *, #388, .T. ) ;
#92 = DIRECTION ( 'NONE',  ( -0.000000000000000000, 1.000000000000000000, -0.000000000000000000 ) ) ;
#93 = CARTESIAN_POINT ( 'NONE',  ( -5.500000000000000888, 2.000000000000000000, 1.908195823574488198E-15 ) ) ;
#94 = AXIS2_PLACEMENT_3D ( 'NONE', #913, #142, #526 ) ;
#95 = CARTESIAN_POINT ( 'NONE',  ( 10.50000000000000888, 0.000000000000000000, -15.50000000000000178 ) ) ;
#96 = VERTEX_POINT ( 'NONE', #249 ) ;
#97 = LINE ( 'NONE', #985, #428 ) ;
#98 = DIRECTION ( 'NONE',  ( 1.000000000000000000, 0.000000000000000000, 0.000000000000000000 ) ) ;
#99 = LINE ( 'NONE', #238, #308 ) ;
#100 = EDGE_CURVE ( 'NONE', #186, #863, #869, .T. ) ;
#101 = ORIENTED_EDGE ( 'NONE', *, *, #515, .F. ) ;
#102 = CARTESIAN_POINT ( 'NONE',  ( -5.499999999999998224, 2.000000000000000000, 7.500000000000007105 ) ) ;
#103 = EDGE_CURVE ( 'NONE', #698, #447, #750, .T. ) ;
#104 = DIRECTION ( 'NONE',  ( -0.000000000000000000, -1.000000000000000000, -0.000000000000000000 ) ) ;
#105 = VECTOR ( 'NONE', #965, 1000.000000000000000 ) ;
#106 = DIRECTION ( 'NONE',  ( 0.000000000000000000, -0.000000000000000000, -1.000000000000000000 ) ) ;
#107 = ORIENTED_EDGE ( 'NONE', *, *, #521, .T. ) ;
#108 = DIRECTION ( 'NONE',  ( 0.000000000000000000, 1.000000000000000000, -0.000000000000000000 ) ) ;
#109 = EDGE_CURVE ( 'NONE', #455, #506, #489, .T. ) ;
#110 = VECTOR ( 'NONE', #166, 1000.000000000000000 ) ;
#111 = LINE ( 'NONE', #656, #211 ) ;
#112 = VERTEX_POINT ( 'NONE', #95 ) ;
#113 = CARTESIAN_POINT ( 'NONE',  ( 0.000000000000000000, -2.000000000000000000, 35.50000000000000711 ) ) ;
#114 =( LENGTH_UNIT ( ) NAMED_UNIT ( * ) SI_UNIT ( .MILLI., .METRE. ) );
#115 = ADVANCED_FACE ( 'NONE', ( #528 ), #823, .F. ) ;
#116 = CARTESIAN_POINT ( 'NONE',  ( -8.131516293641275366E-16, 2.000000000000000000, -7.499999999999996447 ) ) ;
#117 = ORIENTED_EDGE ( 'NONE', *, *, #865, .T. ) ;
#118 = PLANE ( 'NONE',  #536 ) ;
#119 = LINE ( 'NONE', #1004, #169 ) ;
#120 = VECTOR ( 'NONE', #59, 1000.000000000000000 ) ;
#121 = EDGE_CURVE ( 'NONE', #657, #83, #652, .T. ) ;
#122 = CARTESIAN_POINT ( 'NONE',  ( 3.048390812437590326E-16, -12.00000000000000000, -37.98920000000000385 ) ) ;
#123 = ORIENTED_EDGE ( 'NONE', *, *, #845, .F. ) ;
#124 = DIRECTION ( 'NONE',  ( -1.486905836551548832E-16, 0.000000000000000000, -1.000000000000000000 ) ) ;
#125 = ORIENTED_EDGE ( 'NONE', *, *, #951, .F. ) ;
#126 = PLANE ( 'NONE',  #94 ) ;
#127 = DIRECTION ( 'NONE',  ( -1.084202172485503941E-16, 0.000000000000000000, -1.000000000000000000 ) ) ;
#128 = ADVANCED_BREP_SHAPE_REPRESENTATION ( 'Badminton Trainer Mount', ( #381, #538 ), #992 ) ;
#129 = ADVANCED_FACE ( 'NONE', ( #677, #1001, #1006, #902 ), #754, .F. ) ;
#130 = EDGE_LOOP ( 'NONE', ( #1010, #78, #631, #433 ) ) ;
#131 = AXIS2_PLACEMENT_3D ( 'NONE', #93, #409, #719 ) ;
#132 = ORIENTED_EDGE ( 'NONE', *, *, #757, .F. ) ;
#133 = DIRECTION ( 'NONE',  ( -0.000000000000000000, 1.000000000000000000, -0.000000000000000000 ) ) ;
#134 = DIRECTION ( 'NONE',  ( -1.577021341797097067E-16, 0.000000000000000000, -1.000000000000000000 ) ) ;
#135 = CARTESIAN_POINT ( 'NONE',  ( 4.000000000000003553, 0.000000000000000000, -7.499999999999997335 ) ) ;
#136 = ORIENTED_EDGE ( 'NONE', *, *, #551, .F. ) ;
#137 = ADVANCED_FACE ( 'NONE', ( #660 ), #594, .F. ) ;
#138 = CARTESIAN_POINT ( 'NONE',  ( 12.50000000000000000, 2.000000000000000000, -1.858632295689436004E-15 ) ) ;
#139 = CARTESIAN_POINT ( 'NONE',  ( 37.50000000000000711, -12.00000000000000000, -45.00000000000000711 ) ) ;
#140 = SHAPE_DEFINITION_REPRESENTATION ( #146, #128 ) ;
#141 = EDGE_LOOP ( 'NONE', ( #253, #686 ) ) ;
#142 = DIRECTION ( 'NONE',  ( -8.260587980841936314E-17, 0.000000000000000000, -1.000000000000000000 ) ) ;
#143 = EDGE_CURVE ( 'NONE', #438, #984, #111, .T. ) ;
#144 = CARTESIAN_POINT ( 'NONE',  ( 1.182766006347823700E-15, 0.000000000000000000, 7.500000000000006217 ) ) ;
#145 = VECTOR ( 'NONE', #259, 1000.000000000000000 ) ;
#146 = PRODUCT_DEFINITION_SHAPE ( 'NONE', 'NONE',  #185 ) ;
#147 = VECTOR ( 'NONE', #275, 1000.000000000000000 ) ;
#148 = EDGE_LOOP ( 'NONE', ( #979, #1032, #240, #799 ) ) ;
#149 = FACE_OUTER_BOUND ( 'NONE', #490, .T. ) ;
#150 = ADVANCED_FACE ( 'NONE', ( #427 ), #909, .F. ) ;
#151 = DIRECTION ( 'NONE',  ( 1.577021341797096821E-16, 0.000000000000000000, -1.000000000000000000 ) ) ;
#152 = EDGE_LOOP ( 'NONE', ( #76, #694, #125, #37 ) ) ;
#153 = CARTESIAN_POINT ( 'NONE',  ( 3.048390812437589833E-16, -2.000000000000000000, 33.01080000000000325 ) ) ;
#154 = EDGE_CURVE ( 'NONE', #389, #506, #903, .T. ) ;
#155 = ORIENTED_EDGE ( 'NONE', *, *, #579, .T. ) ;
#156 = DIRECTION ( 'NONE',  ( -0.000000000000000000, 1.000000000000000000, -0.000000000000000000 ) ) ;
#157 = ORIENTED_EDGE ( 'NONE', *, *, #708, .F. ) ;
#158 = ORIENTED_EDGE ( 'NONE', *, *, #30, .F. ) ;
#159 = CARTESIAN_POINT ( 'NONE',  ( 0.000000000000000000, -2.000000000000000000, -35.50000000000000711 ) ) ;
#160 = CIRCLE ( 'NONE', #872, 2.489199999999996749 ) ;
#161 = CARTESIAN_POINT ( 'NONE',  ( -5.500000000000000888, 2.000000000000000000, 1.908195823574488198E-15 ) ) ;
#162 = ADVANCED_FACE ( 'NONE', ( #829 ), #987, .F. ) ;
#163 = VERTEX_POINT ( 'NONE', #122 ) ;
#164 = DIRECTION ( 'NONE',  ( -0.000000000000000000, 1.000000000000000000, -0.000000000000000000 ) ) ;
#165 = EDGE_CURVE ( 'NONE', #680, #340, #573, .T. ) ;
#166 = DIRECTION ( 'NONE',  ( 5.782411586589357392E-17, 0.000000000000000000, -1.000000000000000000 ) ) ;
#167 = CARTESIAN_POINT ( 'NONE',  ( -5.500000000000000888, 0.000000000000000000, 1.908195823574488198E-15 ) ) ;
#168 = ORIENTED_EDGE ( 'NONE', *, *, #154, .F. ) ;
#169 = VECTOR ( 'NONE', #53, 1000.000000000000000 ) ;
#170 = DIRECTION ( 'NONE',  ( 1.541976423090495387E-16, 0.000000000000000000, -1.000000000000000000 ) ) ;
#171 = ORIENTED_EDGE ( 'NONE', *, *, #493, .T. ) ;
#172 = DIRECTION ( 'NONE',  ( -1.000000000000000000, 0.000000000000000000, -0.000000000000000000 ) ) ;
#173 = EDGE_CURVE ( 'NONE', #231, #468, #47, .T. ) ;
#174 = LINE ( 'NONE', #167, #701 ) ;
#175 = ORIENTED_EDGE ( 'NONE', *, *, #758, .T. ) ;
#176 = CARTESIAN_POINT ( 'NONE',  ( -12.50000000000000178, 2.000000000000000000, -17.49999999999999645 ) ) ;
#177 = CARTESIAN_POINT ( 'NONE',  ( -3.999999999999998224, 0.000000000000000000, 1.156482317317870936E-15 ) ) ;
#178 = AXIS2_PLACEMENT_3D ( 'NONE', #421, #729, #665 ) ;
#179 = STYLED_ITEM ( 'NONE', ( #414 ), #381 ) ;
#180 = DIRECTION ( 'NONE',  ( 0.000000000000000000, 0.000000000000000000, 1.000000000000000000 ) ) ;
#181 = ORIENTED_EDGE ( 'NONE', *, *, #951, .T. ) ;
#182 = PLANE ( 'NONE',  #260 ) ;
#183 = SURFACE_STYLE_FILL_AREA ( #29 ) ;
#184 = CARTESIAN_POINT ( 'NONE',  ( 0.000000000000000000, -4.921000000000000263, -35.50000000000000711 ) ) ;
#185 = PRODUCT_DEFINITION ( 'UNKNOWN', '', #504, #487 ) ;
#186 = VERTEX_POINT ( 'NONE', #361 ) ;
#187 = CARTESIAN_POINT ( 'NONE',  ( 10.50000000000000355, -2.000000000000000000, 17.50000000000000711 ) ) ;
#188 = CARTESIAN_POINT ( 'NONE',  ( 0.000000000000000000, -4.921000000000000263, -35.50000000000000711 ) ) ;
#189 = AXIS2_PLACEMENT_3D ( 'NONE', #21, #192, #804 ) ;
#190 = DIRECTION ( 'NONE',  ( -1.000000000000000000, 0.000000000000000000, 1.734723475976807094E-15 ) ) ;
#191 = ORIENTED_EDGE ( 'NONE', *, *, #802, .T. ) ;
#192 = DIRECTION ( 'NONE',  ( 0.000000000000000000, 0.000000000000000000, -1.000000000000000000 ) ) ;
#193 = ORIENTED_EDGE ( 'NONE', *, *, #258, .F. ) ;
#194 = VECTOR ( 'NONE', #788, 1000.000000000000000 ) ;
#195 = CARTESIAN_POINT ( 'NONE',  ( 0.000000000000000000, -2.000000000000000000, 35.50000000000000711 ) ) ;
#196 = VERTEX_POINT ( 'NONE', #588 ) ;
#197 = CARTESIAN_POINT ( 'NONE',  ( 0.000000000000000000, 2.000000000000000000, -17.49999999999999645 ) ) ;
#198 = EDGE_LOOP ( 'NONE', ( #278, #997, #663, #876, #266, #416, #250, #604, #944, #831, #866, #325 ) ) ;
#199 = CARTESIAN_POINT ( 'NONE',  ( -8.131516293641275366E-16, 2.000000000000000000, -7.499999999999996447 ) ) ;
#200 = EDGE_CURVE ( 'NONE', #236, #23, #206, .T. ) ;
#201 = DIRECTION ( 'NONE',  ( 0.000000000000000000, 0.000000000000000000, 1.000000000000000000 ) ) ;
#202 = ORIENTED_EDGE ( 'NONE', *, *, #636, .T. ) ;
#203 = DIRECTION ( 'NONE',  ( 0.000000000000000000, -1.000000000000000000, 0.000000000000000000 ) ) ;
#204 = DIRECTION ( 'NONE',  ( 1.486905836551548832E-16, 0.000000000000000000, 1.000000000000000000 ) ) ;
#205 = VECTOR ( 'NONE', #607, 1000.000000000000000 ) ;
#206 = LINE ( 'NONE', #511, #425 ) ;
#207 = ORIENTED_EDGE ( 'NONE', *, *, #173, .T. ) ;
#208 = ORIENTED_EDGE ( 'NONE', *, *, #890, .F. ) ;
#209 = LINE ( 'NONE', #908, #816 ) ;
#210 = CYLINDRICAL_SURFACE ( 'NONE', #178, 4.564379999999999882 ) ;
#211 = VECTOR ( 'NONE', #265, 1000.000000000000000 ) ;
#212 = ADVANCED_FACE ( 'NONE', ( #505 ), #834, .F. ) ;
#213 = DIRECTION ( 'NONE',  ( 0.000000000000000000, 0.000000000000000000, 1.000000000000000000 ) ) ;
#214 = LINE ( 'NONE', #1011, #333 ) ;
#215 = VECTOR ( 'NONE', #954, 1000.000000000000000 ) ;
#216 = DIRECTION ( 'NONE',  ( 0.000000000000000000, -0.000000000000000000, -1.000000000000000000 ) ) ;
#217 = CARTESIAN_POINT ( 'NONE',  ( 5.589753357092195939E-16, -2.000000000000000000, 30.93562000000000367 ) ) ;
#218 = PRODUCT_RELATED_PRODUCT_CATEGORY ( 'part', '', ( #234 ) ) ;
#219 = EDGE_LOOP ( 'NONE', ( #721, #226 ) ) ;
#220 = DIRECTION ( 'NONE',  ( -0.000000000000000000, 1.000000000000000000, -0.000000000000000000 ) ) ;
#221 = DIRECTION ( 'NONE',  ( -0.000000000000000000, -1.000000000000000000, -0.000000000000000000 ) ) ;
#222 = ORIENTED_EDGE ( 'NONE', *, *, #591, .T. ) ;
#223 = LINE ( 'NONE', #626, #435 ) ;
#224 = LINE ( 'NONE', #773, #110 ) ;
#225 = AXIS2_PLACEMENT_3D ( 'NONE', #986, #733, #98 ) ;
#226 = ORIENTED_EDGE ( 'NONE', *, *, #982, .F. ) ;
#227 = CARTESIAN_POINT ( 'NONE',  ( 4.000000000000003553, 2.000000000000000000, -7.499999999999997335 ) ) ;
#228 = EDGE_CURVE ( 'NONE', #969, #340, #354, .T. ) ;
#229 = DIRECTION ( 'NONE',  ( -1.000000000000000000, 0.000000000000000000, 1.577021341797097067E-16 ) ) ;
#230 = APPLICATION_PROTOCOL_DEFINITION ( 'draft international standard', 'automotive_design', 1998, #861 ) ;
#231 = VERTEX_POINT ( 'NONE', #921 ) ;
#232 = DIRECTION ( 'NONE',  ( 0.000000000000000000, 0.000000000000000000, 1.000000000000000000 ) ) ;
#233 = ADVANCED_FACE ( 'NONE', ( #813 ), #210, .F. ) ;
#234 = PRODUCT ( 'Badminton Trainer Mount', 'Badminton Trainer Mount', '', ( #539 ) ) ;
#235 = AXIS2_PLACEMENT_3D ( 'NONE', #113, #413, #406 ) ;
#236 = VERTEX_POINT ( 'NONE', #995 ) ;
#237 = CARTESIAN_POINT ( 'NONE',  ( 3.048390812437592298E-16, -4.921000000000000263, 33.01080000000000325 ) ) ;
#238 = CARTESIAN_POINT ( 'NONE',  ( 4.000000000000002665, 2.000000000000000000, 7.500000000000005329 ) ) ;
#239 = EDGE_CURVE ( 'NONE', #96, #23, #342, .T. ) ;
#240 = ORIENTED_EDGE ( 'NONE', *, *, #349, .F. ) ;
#241 = DIRECTION ( 'NONE',  ( -1.000000000000000000, 0.000000000000000000, 8.260587980841936314E-17 ) ) ;
#242 = AXIS2_PLACEMENT_3D ( 'NONE', #454, #134, #229 ) ;
#243 = ORIENTED_EDGE ( 'NONE', *, *, #989, .T. ) ;
#244 = VECTOR ( 'NONE', #34, 1000.000000000000000 ) ;
#245 = CARTESIAN_POINT ( 'NONE',  ( -3.999999999999998224, 2.000000000000000000, 1.156482317317870936E-15 ) ) ;
#246 = ORIENTED_EDGE ( 'NONE', *, *, #598, .T. ) ;
#247 = FACE_OUTER_BOUND ( 'NONE', #148, .T. ) ;
#248 = CARTESIAN_POINT ( 'NONE',  ( 5.500000000000005329, 2.000000000000000000, 0.000000000000000000 ) ) ;
#249 = CARTESIAN_POINT ( 'NONE',  ( 5.500000000000005329, 2.000000000000000000, 17.50000000000000355 ) ) ;
#250 = ORIENTED_EDGE ( 'NONE', *, *, #934, .T. ) ;
#251 = LINE ( 'NONE', #881, #442 ) ;
#252 = ORIENTED_EDGE ( 'NONE', *, *, #22, .F. ) ;
#253 = ORIENTED_EDGE ( 'NONE', *, *, #51, .T. ) ;
#254 = EDGE_LOOP ( 'NONE', ( #738, #431, #191, #462 ) ) ;
#255 = FACE_OUTER_BOUND ( 'NONE', #581, .T. ) ;
#256 = ORIENTED_EDGE ( 'NONE', *, *, #16, .T. ) ;
#257 = VECTOR ( 'NONE', #417, 1000.000000000000000 ) ;
#258 = EDGE_CURVE ( 'NONE', #661, #595, #387, .T. ) ;
#259 = DIRECTION ( 'NONE',  ( -2.891205793294678326E-16, 0.000000000000000000, -1.000000000000000000 ) ) ;
#260 = AXIS2_PLACEMENT_3D ( 'NONE', #575, #108, #11 ) ;
#261 = VERTEX_POINT ( 'NONE', #543 ) ;
#262 = LINE ( 'NONE', #643, #474 ) ;
#263 = SURFACE_SIDE_STYLE ('',( #183 ) ) ;
#264 = EDGE_CURVE ( 'NONE', #485, #559, #838, .T. ) ;
#265 = DIRECTION ( 'NONE',  ( 1.000000000000000000, 0.000000000000000000, -1.084202172485503941E-16 ) ) ;
#266 = ORIENTED_EDGE ( 'NONE', *, *, #632, .T. ) ;
#267 = FACE_OUTER_BOUND ( 'NONE', #880, .T. ) ;
#268 = ORIENTED_EDGE ( 'NONE', *, *, #699, .F. ) ;
#269 = LINE ( 'NONE', #901, #461 ) ;
#270 = AXIS2_PLACEMENT_3D ( 'NONE', #352, #667, #749 ) ;
#271 = CARTESIAN_POINT ( 'NONE',  ( 12.50000000000000355, -2.000000000000000000, 17.50000000000000355 ) ) ;
#272 = ORIENTED_EDGE ( 'NONE', *, *, #42, .F. ) ;
#273 = DIRECTION ( 'NONE',  ( -0.000000000000000000, 1.000000000000000000, -0.000000000000000000 ) ) ;
#274 = EDGE_CURVE ( 'NONE', #83, #657, #359, .T. ) ;
#275 = DIRECTION ( 'NONE',  ( -0.000000000000000000, 1.000000000000000000, -0.000000000000000000 ) ) ;
#276 = AXIS2_PLACEMENT_3D ( 'NONE', #437, #54, #201 ) ;
#277 = DIRECTION ( 'NONE',  ( 0.000000000000000000, 0.000000000000000000, -1.000000000000000000 ) ) ;
#278 = ORIENTED_EDGE ( 'NONE', *, *, #165, .F. ) ;
#279 = FACE_OUTER_BOUND ( 'NONE', #618, .T. ) ;
#280 = FACE_OUTER_BOUND ( 'NONE', #328, .T. ) ;
#281 = DIRECTION ( 'NONE',  ( -0.000000000000000000, 1.000000000000000000, -0.000000000000000000 ) ) ;
#282 = ORIENTED_EDGE ( 'NONE', *, *, #100, .F. ) ;
#283 = PLANE ( 'NONE',  #270 ) ;
#284 = DIRECTION ( 'NONE',  ( -1.000000000000000000, -0.000000000000000000, -0.000000000000000000 ) ) ;
#285 = EDGE_CURVE ( 'NONE', #418, #2, #936, .T. ) ;
#286 = CARTESIAN_POINT ( 'NONE',  ( -10.49999999999999645, -2.000000000000000000, 17.50000000000000355 ) ) ;
#287 = ORIENTED_EDGE ( 'NONE', *, *, #747, .T. ) ;
#288 = CARTESIAN_POINT ( 'NONE',  ( 4.000000000000003553, 2.000000000000000000, 2.312964634635744929E-16 ) ) ;
#289 = ORIENTED_EDGE ( 'NONE', *, *, #818, .F. ) ;
#290 = LINE ( 'NONE', #763, #205 ) ;
#291 = EDGE_CURVE ( 'NONE', #236, #499, #224, .T. ) ;
#292 = CARTESIAN_POINT ( 'NONE',  ( 0.000000000000000000, -4.921000000000000263, -35.50000000000000711 ) ) ;
#293 = AXIS2_PLACEMENT_3D ( 'NONE', #650, #704, #568 ) ;
#294 = DIRECTION ( 'NONE',  ( -1.000000000000000000, 0.000000000000000000, -1.541976423090495387E-16 ) ) ;
#295 = EDGE_LOOP ( 'NONE', ( #725, #193, #1003, #256 ) ) ;
#296 = LINE ( 'NONE', #199, #302 ) ;
#297 = CARTESIAN_POINT ( 'NONE',  ( -37.49999999999999289, -12.00000000000000000, -45.00000000000000711 ) ) ;
#298 = EDGE_CURVE ( 'NONE', #309, #112, #1024, .T. ) ;
#299 = DIRECTION ( 'NONE',  ( 0.000000000000000000, 0.000000000000000000, 1.000000000000000000 ) ) ;
#300 = EDGE_LOOP ( 'NONE', ( #702, #470, #569, #717, #678, #512 ) ) ;
#301 = DIRECTION ( 'NONE',  ( -1.577021341797097067E-16, 0.000000000000000000, -1.000000000000000000 ) ) ;
#302 = VECTOR ( 'NONE', #452, 1000.000000000000000 ) ;
#303 = DIRECTION ( 'NONE',  ( -0.000000000000000000, 1.000000000000000000, -0.000000000000000000 ) ) ;
#304 = ORIENTED_EDGE ( 'NONE', *, *, #103, .F. ) ;
#305 = ADVANCED_FACE ( 'NONE', ( #464 ), #377, .F. ) ;
#306 = CARTESIAN_POINT ( 'NONE',  ( 12.50000000000000355, 2.000000000000000000, 17.50000000000000355 ) ) ;
#307 = DIRECTION ( 'NONE',  ( 0.000000000000000000, 0.000000000000000000, 1.000000000000000000 ) ) ;
#308 = VECTOR ( 'NONE', #327, 1000.000000000000000 ) ;
#309 = VERTEX_POINT ( 'NONE', #74 ) ;
#310 = FACE_OUTER_BOUND ( 'NONE', #152, .T. ) ;
#311 = EDGE_CURVE ( 'NONE', #698, #611, #849, .T. ) ;
#312 = VERTEX_POINT ( 'NONE', #765 ) ;
#313 = CARTESIAN_POINT ( 'NONE',  ( 1.182766006347823700E-15, 2.000000000000000000, 7.500000000000006217 ) ) ;
#314 = ADVANCED_FACE ( 'NONE', ( #1029, #620, #760 ), #449, .T. ) ;
#315 = EDGE_LOOP ( 'NONE', ( #967, #384, #157, #155 ) ) ;
#316 = VECTOR ( 'NONE', #832, 1000.000000000000000 ) ;
#317 = ORIENTED_EDGE ( 'NONE', *, *, #258, .T. ) ;
#318 = LINE ( 'NONE', #864, #696 ) ;
#319 = EDGE_CURVE ( 'NONE', #661, #732, #531, .T. ) ;
#320 = DIRECTION ( 'NONE',  ( -1.000000000000000000, 0.000000000000000000, 0.000000000000000000 ) ) ;
#321 = VERTEX_POINT ( 'NONE', #88 ) ;
#322 = VECTOR ( 'NONE', #481, 1000.000000000000000 ) ;
#323 = DIRECTION ( 'NONE',  ( 0.000000000000000000, 0.000000000000000000, 1.000000000000000000 ) ) ;
#324 =( GEOMETRIC_REPRESENTATION_CONTEXT ( 3 ) GLOBAL_UNCERTAINTY_ASSIGNED_CONTEXT ( ( #415 ) ) GLOBAL_UNIT_ASSIGNED_CONTEXT ( ( #114, #347, #895 ) ) REPRESENTATION_CONTEXT ( 'NONE', 'WORKASPACE' ) );
#325 = ORIENTED_EDGE ( 'NONE', *, *, #1018, .F. ) ;
#326 = CARTESIAN_POINT ( 'NONE',  ( 10.50000000000000355, -2.000000000000000000, 17.50000000000000711 ) ) ;
#327 = DIRECTION ( 'NONE',  ( -0.000000000000000000, -1.000000000000000000, -0.000000000000000000 ) ) ;
#328 = EDGE_LOOP ( 'NONE', ( #175, #58, #904, #344 ) ) ;
#329 = PLANE ( 'NONE',  #976 ) ;
#330 = CARTESIAN_POINT ( 'NONE',  ( 3.048390812437592298E-16, -4.921000000000000263, -37.98920000000000385 ) ) ;
#331 = DIRECTION ( 'NONE',  ( -0.000000000000000000, 1.000000000000000000, -0.000000000000000000 ) ) ;
#332 = VERTEX_POINT ( 'NONE', #66 ) ;
#333 = VECTOR ( 'NONE', #767, 1000.000000000000000 ) ;
#334 = CARTESIAN_POINT ( 'NONE',  ( 12.50000000000000355, 2.000000000000000000, 17.50000000000000355 ) ) ;
#335 = ADVANCED_FACE ( 'NONE', ( #60 ), #770, .T. ) ;
#336 = DIRECTION ( 'NONE',  ( 2.891205793294678326E-16, 0.000000000000000000, 1.000000000000000000 ) ) ;
#337 = LINE ( 'NONE', #963, #633 ) ;
#338 = EDGE_LOOP ( 'NONE', ( #674, #494, #606, #762, #10, #846 ) ) ;
#339 = CARTESIAN_POINT ( 'NONE',  ( 0.000000000000000000, -2.000000000000000444, -35.50000000000000711 ) ) ;
#340 = VERTEX_POINT ( 'NONE', #693 ) ;
#341 = VECTOR ( 'NONE', #855, 1000.000000000000000 ) ;
#342 = LINE ( 'NONE', #248, #322 ) ;
#343 = VECTOR ( 'NONE', #241, 1000.000000000000000 ) ;
#344 = ORIENTED_EDGE ( 'NONE', *, *, #624, .T. ) ;
#345 = FACE_OUTER_BOUND ( 'NONE', #315, .T. ) ;
#346 = EDGE_LOOP ( 'NONE', ( #912, #1016, #55, #317 ) ) ;
#347 =( NAMED_UNIT ( * ) PLANE_ANGLE_UNIT ( ) SI_UNIT ( $, .RADIAN. ) );
#348 = EDGE_CURVE ( 'NONE', #910, #48, #843, .T. ) ;
#349 = EDGE_CURVE ( 'NONE', #468, #525, #690, .T. ) ;
#350 = DIRECTION ( 'NONE',  ( -0.000000000000000000, 1.000000000000000000, -0.000000000000000000 ) ) ;
#351 = EDGE_LOOP ( 'NONE', ( #576, #400, #63, #918 ) ) ;
#352 = CARTESIAN_POINT ( 'NONE',  ( 2.489199999999998969, -4.921000000000000263, 35.50000000000000711 ) ) ;
#353 = CARTESIAN_POINT ( 'NONE',  ( 10.50000000000000355, -2.000000000000000000, 17.50000000000000711 ) ) ;
#354 = LINE ( 'NONE', #286, #794 ) ;
#355 = EDGE_CURVE ( 'NONE', #523, #309, #639, .T. ) ;
#356 = ORIENTED_EDGE ( 'NONE', *, *, #501, .T. ) ;
#357 = LINE ( 'NONE', #197, #988 ) ;
#358 = CARTESIAN_POINT ( 'NONE',  ( 0.000000000000000000, -4.921000000000000263, 35.50000000000000711 ) ) ;
#359 = CIRCLE ( 'NONE', #939, 2.489199999999996749 ) ;
#360 = CIRCLE ( 'NONE', #49, 4.564379999999999882 ) ;
#361 = CARTESIAN_POINT ( 'NONE',  ( -5.499999999999994671, 2.000000000000000000, 17.50000000000000355 ) ) ;
#362 = ORIENTED_EDGE ( 'NONE', *, *, #740, .T. ) ;
#363 = DIRECTION ( 'NONE',  ( -0.000000000000000000, 1.000000000000000000, -0.000000000000000000 ) ) ;
#364 = EDGE_CURVE ( 'NONE', #447, #698, #360, .T. ) ;
#365 = CARTESIAN_POINT ( 'NONE',  ( -3.999999999999995559, 0.000000000000000000, 7.500000000000007105 ) ) ;
#366 = DIRECTION ( 'NONE',  ( -0.000000000000000000, 1.000000000000000000, -0.000000000000000000 ) ) ;
#367 = ORIENTED_EDGE ( 'NONE', *, *, #200, .T. ) ;
#368 = CARTESIAN_POINT ( 'NONE',  ( 10.50000000000000888, -2.000000000000000000, -15.50000000000000178 ) ) ;
#369 = ORIENTED_EDGE ( 'NONE', *, *, #348, .F. ) ;
#370 = DIRECTION ( 'NONE',  ( 0.000000000000000000, 0.000000000000000000, 1.000000000000000000 ) ) ;
#371 = VECTOR ( 'NONE', #761, 1000.000000000000000 ) ;
#372 = CARTESIAN_POINT ( 'NONE',  ( 0.000000000000000000, 0.000000000000000000, 17.50000000000000355 ) ) ;
#373 = CARTESIAN_POINT ( 'NONE',  ( 5.500000000000005329, 2.000000000000000000, 0.000000000000000000 ) ) ;
#374 = VERTEX_POINT ( 'NONE', #297 ) ;
#375 = LINE ( 'NONE', #1017, #830 ) ;
#376 = VECTOR ( 'NONE', #746, 1000.000000000000000 ) ;
#377 = PLANE ( 'NONE',  #242 ) ;
#378 = VECTOR ( 'NONE', #931, 1000.000000000000000 ) ;
#379 = ORIENTED_EDGE ( 'NONE', *, *, #121, .T. ) ;
#380 = CARTESIAN_POINT ( 'NONE',  ( -37.50000000000000711, -2.000000000000000000, 44.99999999999999289 ) ) ;
#381 = MANIFOLD_SOLID_BREP ( 'CBORE for #8 Pan Head Machine Screw1', #996 ) ;
#382 = DIRECTION ( 'NONE',  ( 0.000000000000000000, 0.000000000000000000, 1.000000000000000000 ) ) ;
#383 = EDGE_CURVE ( 'NONE', #468, #309, #587, .T. ) ;
#384 = ORIENTED_EDGE ( 'NONE', *, *, #228, .F. ) ;
#385 = LINE ( 'NONE', #703, #343 ) ;
#386 = VECTOR ( 'NONE', #553, 1000.000000000000000 ) ;
#387 = LINE ( 'NONE', #139, #779 ) ;
#388 = EDGE_CURVE ( 'NONE', #559, #438, #1013, .T. ) ;
#389 = VERTEX_POINT ( 'NONE', #330 ) ;
#390 = FACE_OUTER_BOUND ( 'NONE', #254, .T. ) ;
#391 = VECTOR ( 'NONE', #320, 1000.000000000000000 ) ;
#392 = ORIENTED_EDGE ( 'NONE', *, *, #100, .T. ) ;
#393 = CARTESIAN_POINT ( 'NONE',  ( 0.000000000000000000, -12.00000000000000000, 37.98920000000000385 ) ) ;
#394 = EDGE_CURVE ( 'NONE', #447, #584, #800, .T. ) ;
#395 = CARTESIAN_POINT ( 'NONE',  ( -10.49999999999999645, -2.000000000000000000, 17.50000000000000355 ) ) ;
#396 = EDGE_LOOP ( 'NONE', ( #39, #557 ) ) ;
#397 = DIRECTION ( 'NONE',  ( 1.000000000000000000, 0.000000000000000000, 0.000000000000000000 ) ) ;
#398 = CARTESIAN_POINT ( 'NONE',  ( 0.000000000000000000, -2.000000000000000444, 35.50000000000000711 ) ) ;
#399 = AXIS2_PLACEMENT_3D ( 'NONE', #18, #92, #323 ) ;
#400 = ORIENTED_EDGE ( 'NONE', *, *, #51, .F. ) ;
#401 = CARTESIAN_POINT ( 'NONE',  ( 0.000000000000000000, -2.000000000000000000, 35.50000000000000711 ) ) ;
#402 = DIRECTION ( 'NONE',  ( 0.000000000000000000, 0.000000000000000000, -1.000000000000000000 ) ) ;
#403 = CYLINDRICAL_SURFACE ( 'NONE', #956, 4.564379999999999882 ) ;
#404 = VERTEX_POINT ( 'NONE', #882 ) ;
#405 = AXIS2_PLACEMENT_3D ( 'NONE', #562, #646, #180 ) ;
#406 = DIRECTION ( 'NONE',  ( 0.000000000000000000, 0.000000000000000000, 1.000000000000000000 ) ) ;
#407 = CIRCLE ( 'NONE', #672, 2.489199999999996749 ) ;
#408 = EDGE_LOOP ( 'NONE', ( #478, #641, #282, #964 ) ) ;
#409 = DIRECTION ( 'NONE',  ( -1.000000000000000000, 0.000000000000000000, 3.469446951953614682E-16 ) ) ;
#410 = LINE ( 'NONE', #245, #145 ) ;
#411 = EDGE_CURVE ( 'NONE', #506, #389, #635, .T. ) ;
#412 = ORIENTED_EDGE ( 'NONE', *, *, #22, .T. ) ;
#413 = DIRECTION ( 'NONE',  ( -0.000000000000000000, 1.000000000000000000, -0.000000000000000000 ) ) ;
#414 = PRESENTATION_STYLE_ASSIGNMENT (( #968 ) ) ;
#415 = UNCERTAINTY_MEASURE_WITH_UNIT (LENGTH_MEASURE( 1.000000000000000082E-05 ), #114, 'distance_accuracy_value', 'NONE');
#416 = ORIENTED_EDGE ( 'NONE', *, *, #89, .F. ) ;
#417 = DIRECTION ( 'NONE',  ( 1.000000000000000000, 0.000000000000000000, 0.000000000000000000 ) ) ;
#418 = VERTEX_POINT ( 'NONE', #654 ) ;
#419 = DIRECTION ( 'NONE',  ( -0.000000000000000000, -1.000000000000000000, -0.000000000000000000 ) ) ;
#420 = PLANE ( 'NONE',  #131 ) ;
#421 = CARTESIAN_POINT ( 'NONE',  ( 0.000000000000000000, -2.000000000000000000, -35.50000000000000711 ) ) ;
#422 = ORIENTED_EDGE ( 'NONE', *, *, #609, .T. ) ;
#423 = DIRECTION ( 'NONE',  ( 0.000000000000000000, 0.000000000000000000, 1.000000000000000000 ) ) ;
#424 = PLANE ( 'NONE',  #225 ) ;
#425 = VECTOR ( 'NONE', #522, 1000.000000000000000 ) ;
#426 = ADVANCED_FACE ( 'NONE', ( #486 ), #503, .F. ) ;
#427 = FACE_OUTER_BOUND ( 'NONE', #198, .T. ) ;
#428 = VECTOR ( 'NONE', #791, 1000.000000000000000 ) ;
#429 = ORIENTED_EDGE ( 'NONE', *, *, #699, .T. ) ;
#430 = FACE_OUTER_BOUND ( 'NONE', #782, .T. ) ;
#431 = ORIENTED_EDGE ( 'NONE', *, *, #591, .F. ) ;
#432 = DIRECTION ( 'NONE',  ( -1.000000000000000000, 0.000000000000000000, 1.084202172485503941E-16 ) ) ;
#433 = ORIENTED_EDGE ( 'NONE', *, *, #757, .T. ) ;
#434 = CARTESIAN_POINT ( 'NONE',  ( 0.000000000000000000, -2.000000000000000444, 40.06438000000000699 ) ) ;
#435 = VECTOR ( 'NONE', #1023, 1000.000000000000000 ) ;
#436 = CARTESIAN_POINT ( 'NONE',  ( 4.000000000000003553, 2.000000000000000000, -7.499999999999997335 ) ) ;
#437 = CARTESIAN_POINT ( 'NONE',  ( 0.000000000000000000, -2.000000000000000000, -35.50000000000000711 ) ) ;
#438 = VERTEX_POINT ( 'NONE', #728 ) ;
#439 = DIRECTION ( 'NONE',  ( -5.782411586589358625E-17, 0.000000000000000000, 1.000000000000000000 ) ) ;
#440 = CARTESIAN_POINT ( 'NONE',  ( 5.500000000000005329, 0.000000000000000000, 17.50000000000000355 ) ) ;
#441 = AXIS2_PLACEMENT_3D ( 'NONE', #812, #980, #336 ) ;
#442 = VECTOR ( 'NONE', #170, 1000.000000000000000 ) ;
#443 = DIRECTION ( 'NONE',  ( -1.000000000000000000, 0.000000000000000000, -0.000000000000000000 ) ) ;
#444 = ORIENTED_EDGE ( 'NONE', *, *, #708, .T. ) ;
#445 = FACE_BOUND ( 'NONE', #219, .T. ) ;
#446 = EDGE_CURVE ( 'NONE', #48, #2, #577, .T. ) ;
#447 = VERTEX_POINT ( 'NONE', #35 ) ;
#448 = CARTESIAN_POINT ( 'NONE',  ( -10.49999999999999645, -2.000000000000000000, -15.50000000000000000 ) ) ;
#449 = PLANE ( 'NONE',  #814 ) ;
#450 = CARTESIAN_POINT ( 'NONE',  ( 2.489199999999998969, -4.921000000000000263, -35.50000000000000711 ) ) ;
#451 = ADVANCED_FACE ( 'NONE', ( #659 ), #424, .F. ) ;
#452 = DIRECTION ( 'NONE',  ( 1.000000000000000000, 0.000000000000000000, -1.084202172485503941E-16 ) ) ;
#453 = VECTOR ( 'NONE', #273, 1000.000000000000000 ) ;
#454 = CARTESIAN_POINT ( 'NONE',  ( 1.182766006347823700E-15, 2.000000000000000000, 7.500000000000006217 ) ) ;
#455 = VERTEX_POINT ( 'NONE', #793 ) ;
#456 = LINE ( 'NONE', #448, #120 ) ;
#457 = EDGE_CURVE ( 'NONE', #894, #48, #269, .T. ) ;
#458 = ADVANCED_FACE ( 'NONE', ( #24 ), #40, .F. ) ;
#459 = AXIS2_PLACEMENT_3D ( 'NONE', #583, #599, #106 ) ;
#460 = DIRECTION ( 'NONE',  ( 0.000000000000000000, -1.000000000000000000, 0.000000000000000000 ) ) ;
#461 = VECTOR ( 'NONE', #104, 1000.000000000000000 ) ;
#462 = ORIENTED_EDGE ( 'NONE', *, *, #42, .T. ) ;
#463 = LINE ( 'NONE', #546, #878 ) ;
#464 = FACE_OUTER_BOUND ( 'NONE', #68, .T. ) ;
#465 = EDGE_LOOP ( 'NONE', ( #222, #117 ) ) ;
#466 = LINE ( 'NONE', #227, #215 ) ;
#467 = VECTOR ( 'NONE', #164, 1000.000000000000000 ) ;
#468 = VERTEX_POINT ( 'NONE', #353 ) ;
#469 = CARTESIAN_POINT ( 'NONE',  ( 0.000000000000000000, -4.921000000000000263, 35.50000000000000711 ) ) ;
#470 = ORIENTED_EDGE ( 'NONE', *, *, #383, .F. ) ;
#471 = VECTOR ( 'NONE', #891, 1000.000000000000000 ) ;
#472 = ORIENTED_EDGE ( 'NONE', *, *, #521, .F. ) ;
#473 = ADVANCED_FACE ( 'NONE', ( #664 ), #420, .F. ) ;
#474 = VECTOR ( 'NONE', #658, 1000.000000000000000 ) ;
#475 = CARTESIAN_POINT ( 'NONE',  ( 0.000000000000000000, -4.921000000000000263, -30.93562000000000367 ) ) ;
#476 = VECTOR ( 'NONE', #787, 1000.000000000000000 ) ;
#477 = DIRECTION ( 'NONE',  ( -0.000000000000000000, 1.000000000000000000, -0.000000000000000000 ) ) ;
#478 = ORIENTED_EDGE ( 'NONE', *, *, #4, .T. ) ;
#479 = PLANE ( 'NONE',  #822 ) ;
#480 = ADVANCED_FACE ( 'NONE', ( #649 ), #973, .F. ) ;
#481 = DIRECTION ( 'NONE',  ( 0.000000000000000000, 0.000000000000000000, -1.000000000000000000 ) ) ;
#482 = DIRECTION ( 'NONE',  ( -0.000000000000000000, 1.000000000000000000, -0.000000000000000000 ) ) ;
#483 = ORIENTED_EDGE ( 'NONE', *, *, #488, .F. ) ;
#484 = DIRECTION ( 'NONE',  ( -1.000000000000000000, 0.000000000000000000, 0.000000000000000000 ) ) ;
#485 = VERTEX_POINT ( 'NONE', #69 ) ;
#486 = FACE_OUTER_BOUND ( 'NONE', #300, .T. ) ;
#487 = PRODUCT_DEFINITION_CONTEXT ( 'detailed design', #861, 'design' ) ;
#488 = EDGE_CURVE ( 'NONE', #163, #455, #407, .T. ) ;
#489 = LINE ( 'NONE', #795, #836 ) ;
#490 = EDGE_LOOP ( 'NONE', ( #856, #369, #101, #123 ) ) ;
#491 = CARTESIAN_POINT ( 'NONE',  ( -5.499999999999998224, 2.000000000000000000, 7.500000000000007105 ) ) ;
#492 = VECTOR ( 'NONE', #71, 1000.000000000000000 ) ;
#493 = EDGE_CURVE ( 'NONE', #863, #724, #209, .T. ) ;
#494 = ORIENTED_EDGE ( 'NONE', *, *, #70, .F. ) ;
#495 = ORIENTED_EDGE ( 'NONE', *, *, #291, .F. ) ;
#496 = CYLINDRICAL_SURFACE ( 'NONE', #235, 2.489199999999996749 ) ;
#497 = DIRECTION ( 'NONE',  ( 0.000000000000000000, 0.000000000000000000, 1.000000000000000000 ) ) ;
#498 = DIRECTION ( 'NONE',  ( -0.000000000000000000, 1.000000000000000000, -0.000000000000000000 ) ) ;
#499 = VERTEX_POINT ( 'NONE', #436 ) ;
#500 = DIRECTION ( 'NONE',  ( 1.000000000000000000, 0.000000000000000000, 1.577021341797096821E-16 ) ) ;
#501 = EDGE_CURVE ( 'NONE', #163, #389, #745, .T. ) ;
#502 = CIRCLE ( 'NONE', #627, 2.489199999999996749 ) ;
#503 = PLANE ( 'NONE',  #886 ) ;
#504 = PRODUCT_DEFINITION_FORMATION_WITH_SPECIFIED_SOURCE ( 'ANY', '', #234, .NOT_KNOWN. ) ;
#505 = FACE_OUTER_BOUND ( 'NONE', #614, .T. ) ;
#506 = VERTEX_POINT ( 'NONE', #919 ) ;
#507 = LINE ( 'NONE', #102, #950 ) ;
#508 = VERTEX_POINT ( 'NONE', #759 ) ;
#509 = DIRECTION ( 'NONE',  ( -0.000000000000000000, 1.000000000000000000, -0.000000000000000000 ) ) ;
#510 = MECHANICAL_DESIGN_GEOMETRIC_PRESENTATION_REPRESENTATION (  '', ( #179 ), #324 ) ;
#511 = CARTESIAN_POINT ( 'NONE',  ( 1.182766006347823700E-15, 2.000000000000000000, 7.500000000000006217 ) ) ;
#512 = ORIENTED_EDGE ( 'NONE', *, *, #947, .T. ) ;
#513 = DIRECTION ( 'NONE',  ( 1.000000000000000000, 0.000000000000000000, -1.486905836551548832E-16 ) ) ;
#514 = CARTESIAN_POINT ( 'NONE',  ( 37.50000000000000711, -2.000000000000000000, -45.00000000000000711 ) ) ;
#515 = EDGE_CURVE ( 'NONE', #321, #910, #597, .T. ) ;
#516 = DIRECTION ( 'NONE',  ( 0.000000000000000000, 0.000000000000000000, 1.000000000000000000 ) ) ;
#517 = ORIENTED_EDGE ( 'NONE', *, *, #632, .F. ) ;
#518 = CARTESIAN_POINT ( 'NONE',  ( 37.49999999999999289, -12.00000000000000000, 44.99999999999999289 ) ) ;
#519 = VECTOR ( 'NONE', #671, 1000.000000000000000 ) ;
#520 = LINE ( 'NONE', #847, #544 ) ;
#521 = EDGE_CURVE ( 'NONE', #2, #231, #520, .T. ) ;
#522 = DIRECTION ( 'NONE',  ( 1.000000000000000000, 0.000000000000000000, -1.577021341797097067E-16 ) ) ;
#523 = VERTEX_POINT ( 'NONE', #440 ) ;
#524 =( LENGTH_UNIT ( ) NAMED_UNIT ( * ) SI_UNIT ( .MILLI., .METRE. ) );
#525 = VERTEX_POINT ( 'NONE', #46 ) ;
#526 = DIRECTION ( 'NONE',  ( -1.000000000000000000, 0.000000000000000000, 8.260587980841936314E-17 ) ) ;
#527 = AXIS2_PLACEMENT_3D ( 'NONE', #983, #277, #443 ) ;
#528 = FACE_OUTER_BOUND ( 'NONE', #338, .T. ) ;
#529 = DIRECTION ( 'NONE',  ( 0.000000000000000000, 0.000000000000000000, 1.000000000000000000 ) ) ;
#530 = DIRECTION ( 'NONE',  ( 1.000000000000000000, 0.000000000000000000, -1.577021341797097067E-16 ) ) ;
#531 = LINE ( 'NONE', #547, #194 ) ;
#532 = CARTESIAN_POINT ( 'NONE',  ( 4.000000000000002665, 0.000000000000000000, 7.500000000000005329 ) ) ;
#533 = ORIENTED_EDGE ( 'NONE', *, *, #89, .T. ) ;
#534 = ADVANCED_FACE ( 'NONE', ( #280 ), #126, .F. ) ;
#535 = DIRECTION ( 'NONE',  ( 0.000000000000000000, 0.000000000000000000, 1.000000000000000000 ) ) ;
#536 = AXIS2_PLACEMENT_3D ( 'NONE', #373, #840, #213 ) ;
#537 = CARTESIAN_POINT ( 'NONE',  ( 12.49999999999999822, 2.000000000000000000, -17.49999999999999645 ) ) ;
#538 = AXIS2_PLACEMENT_3D ( 'NONE', #1030, #299, #943 ) ;
#539 = PRODUCT_CONTEXT ( 'NONE', #578, 'mechanical' ) ;
#540 = VERTEX_POINT ( 'NONE', #842 ) ;
#541 = DIRECTION ( 'NONE',  ( 0.000000000000000000, 0.000000000000000000, 1.000000000000000000 ) ) ;
#542 = AXIS2_PLACEMENT_3D ( 'NONE', #673, #281, #741 ) ;
#543 = CARTESIAN_POINT ( 'NONE',  ( 0.000000000000000000, -4.921000000000000263, 40.06438000000000699 ) ) ;
#544 = VECTOR ( 'NONE', #204, 1000.000000000000000 ) ;
#545 = ORIENTED_EDGE ( 'NONE', *, *, #274, .F. ) ;
#546 = CARTESIAN_POINT ( 'NONE',  ( -10.49999999999999645, -2.000000000000000000, -15.50000000000000000 ) ) ;
#547 = CARTESIAN_POINT ( 'NONE',  ( 37.49999999999999289, -12.00000000000000000, 44.99999999999999289 ) ) ;
#548 = ORIENTED_EDGE ( 'NONE', *, *, #781, .T. ) ;
#549 = DIRECTION ( 'NONE',  ( -0.000000000000000000, 1.000000000000000000, -0.000000000000000000 ) ) ;
#550 = AXIS2_PLACEMENT_3D ( 'NONE', #518, #294, #991 ) ;
#551 = EDGE_CURVE ( 'NONE', #418, #819, #752, .T. ) ;
#552 = ORIENTED_EDGE ( 'NONE', *, *, #239, .T. ) ;
#553 = DIRECTION ( 'NONE',  ( -0.000000000000000000, -1.000000000000000000, -0.000000000000000000 ) ) ;
#554 = LINE ( 'NONE', #395, #391 ) ;
#555 =( NAMED_UNIT ( * ) PLANE_ANGLE_UNIT ( ) SI_UNIT ( $, .RADIAN. ) );
#556 = VECTOR ( 'NONE', #221, 1000.000000000000000 ) ;
#557 = ORIENTED_EDGE ( 'NONE', *, *, #565, .F. ) ;
#558 = CARTESIAN_POINT ( 'NONE',  ( -37.50000000000000711, -2.000000000000000000, 44.99999999999999289 ) ) ;
#559 = VERTEX_POINT ( 'NONE', #365 ) ;
#560 = AXIS2_PLACEMENT_3D ( 'NONE', #772, #949, #700 ) ;
#561 = UNCERTAINTY_MEASURE_WITH_UNIT (LENGTH_MEASURE( 1.000000000000000082E-05 ), #524, 'distance_accuracy_value', 'NONE');
#562 = CARTESIAN_POINT ( 'NONE',  ( 0.000000000000000000, -2.000000000000000444, 35.50000000000000711 ) ) ;
#563 = ORIENTED_EDGE ( 'NONE', *, *, #734, .T. ) ;
#564 = PLANE ( 'NONE',  #848 ) ;
#565 = EDGE_CURVE ( 'NONE', #584, #611, #1026, .T. ) ;
#566 = CARTESIAN_POINT ( 'NONE',  ( 10.50000000000000355, -2.000000000000000000, 17.50000000000000711 ) ) ;
#567 = VECTOR ( 'NONE', #284, 1000.000000000000000 ) ;
#568 = DIRECTION ( 'NONE',  ( 0.000000000000000000, 0.000000000000000000, 1.000000000000000000 ) ) ;
#569 = ORIENTED_EDGE ( 'NONE', *, *, #173, .F. ) ;
#570 = DIRECTION ( 'NONE',  ( -0.000000000000000000, 1.000000000000000000, -0.000000000000000000 ) ) ;
#571 = DIRECTION ( 'NONE',  ( -0.000000000000000000, 1.000000000000000000, -0.000000000000000000 ) ) ;
#572 = EDGE_CURVE ( 'NONE', #312, #499, #296, .T. ) ;
#573 = LINE ( 'NONE', #43, #376 ) ;
#574 = ORIENTED_EDGE ( 'NONE', *, *, #8, .T. ) ;
#575 = CARTESIAN_POINT ( 'NONE',  ( 0.000000000000000000, 2.000000000000000000, 0.000000000000000000 ) ) ;
#576 = ORIENTED_EDGE ( 'NONE', *, *, #501, .F. ) ;
#577 = LINE ( 'NONE', #994, #957 ) ;
#578 = APPLICATION_CONTEXT ( 'automotive_design' ) ;
#579 = EDGE_CURVE ( 'NONE', #797, #680, #456, .T. ) ;
#580 = LINE ( 'NONE', #715, #471 ) ;
#581 = EDGE_LOOP ( 'NONE', ( #495, #367, #929, #824, #136, #958, #600, #202, #392, #171, #574, #850 ) ) ;
#582 = DIRECTION ( 'NONE',  ( 5.782411586589357392E-17, 0.000000000000000000, -1.000000000000000000 ) ) ;
#583 = CARTESIAN_POINT ( 'NONE',  ( 0.000000000000000000, -2.000000000000000000, 0.000000000000000000 ) ) ;
#584 = VERTEX_POINT ( 'NONE', #833 ) ;
#585 = LINE ( 'NONE', #711, #1020 ) ;
#586 = VECTOR ( 'NONE', #582, 1000.000000000000000 ) ;
#587 = LINE ( 'NONE', #566, #905 ) ;
#588 = CARTESIAN_POINT ( 'NONE',  ( -37.50000000000000711, -12.00000000000000000, 44.99999999999999289 ) ) ;
#589 = ORIENTED_EDGE ( 'NONE', *, *, #493, .F. ) ;
#590 = CARTESIAN_POINT ( 'NONE',  ( -5.499999999999994671, 0.000000000000000000, 17.50000000000000355 ) ) ;
#591 = EDGE_CURVE ( 'NONE', #261, #691, #932, .T. ) ;
#592 = LINE ( 'NONE', #87, #386 ) ;
#593 = AXIS2_PLACEMENT_3D ( 'NONE', #889, #133, #535 ) ;
#594 = CYLINDRICAL_SURFACE ( 'NONE', #868, 2.489199999999996749 ) ;
#595 = VERTEX_POINT ( 'NONE', #514 ) ;
#596 = DIRECTION ( 'NONE',  ( -1.000000000000000000, 0.000000000000000000, -5.782411586589358625E-17 ) ) ;
#597 = LINE ( 'NONE', #930, #998 ) ;
#598 = EDGE_CURVE ( 'NONE', #23, #404, #119, .T. ) ;
#599 = DIRECTION ( 'NONE',  ( 0.000000000000000000, -1.000000000000000000, 0.000000000000000000 ) ) ;
#600 = ORIENTED_EDGE ( 'NONE', *, *, #845, .T. ) ;
#601 = DIRECTION ( 'NONE',  ( 0.000000000000000000, -0.000000000000000000, -1.000000000000000000 ) ) ;
#602 = CARTESIAN_POINT ( 'NONE',  ( 0.000000000000000000, -2.000000000000000444, -35.50000000000000711 ) ) ;
#603 = DIRECTION ( 'NONE',  ( -0.000000000000000000, 1.000000000000000000, -0.000000000000000000 ) ) ;
#604 = ORIENTED_EDGE ( 'NONE', *, *, #143, .F. ) ;
#605 = DIRECTION ( 'NONE',  ( 1.000000000000000000, -0.000000000000000000, 0.000000000000000000 ) ) ;
#606 = ORIENTED_EDGE ( 'NONE', *, *, #228, .T. ) ;
#607 = DIRECTION ( 'NONE',  ( 0.000000000000000000, 0.000000000000000000, -1.000000000000000000 ) ) ;
#608 = FILL_AREA_STYLE_COLOUR ( '', #621 ) ;
#609 = EDGE_CURVE ( 'NONE', #508, #670, #676, .T. ) ;
#610 = LINE ( 'NONE', #928, #316 ) ;
#611 = VERTEX_POINT ( 'NONE', #681 ) ;
#612 = DIRECTION ( 'NONE',  ( -0.000000000000000000, -1.000000000000000000, -0.000000000000000000 ) ) ;
#613 = CARTESIAN_POINT ( 'NONE',  ( 0.000000000000000000, -12.00000000000000000, 35.50000000000000711 ) ) ;
#614 = EDGE_LOOP ( 'NONE', ( #666, #132, #82, #870 ) ) ;
#615 = CARTESIAN_POINT ( 'NONE',  ( 0.000000000000000000, -2.000000000000000000, 37.98920000000000385 ) ) ;
#616 = AXIS2_PLACEMENT_3D ( 'NONE', #401, #549, #84 ) ;
#617 = DIRECTION ( 'NONE',  ( -0.000000000000000000, 1.000000000000000000, -0.000000000000000000 ) ) ;
#618 = EDGE_LOOP ( 'NONE', ( #517, #1027, #552, #246 ) ) ;
#619 = CARTESIAN_POINT ( 'NONE',  ( 37.49999999999999289, -12.00000000000000000, 44.99999999999999289 ) ) ;
#620 = FACE_BOUND ( 'NONE', #26, .T. ) ;
#621 = COLOUR_RGB ( '',0.7921568627450980005, 0.8196078431372548767, 0.9333333333333333481 ) ;
#622 = ORIENTED_EDGE ( 'NONE', *, *, #394, .T. ) ;
#623 = PLANE ( 'NONE',  #560 ) ;
#624 = EDGE_CURVE ( 'NONE', #525, #112, #214, .T. ) ;
#625 = ORIENTED_EDGE ( 'NONE', *, *, #457, .F. ) ;
#626 = CARTESIAN_POINT ( 'NONE',  ( -3.999999999999995559, 2.000000000000000000, 7.500000000000007105 ) ) ;
#627 = AXIS2_PLACEMENT_3D ( 'NONE', #685, #363, #529 ) ;
#628 = FACE_OUTER_BOUND ( 'NONE', #771, .T. ) ;
#629 = ORIENTED_EDGE ( 'NONE', *, *, #727, .F. ) ;
#630 = CARTESIAN_POINT ( 'NONE',  ( 37.50000000000000711, -12.00000000000000000, -45.00000000000000711 ) ) ;
#631 = ORIENTED_EDGE ( 'NONE', *, *, #291, .T. ) ;
#632 = EDGE_CURVE ( 'NONE', #523, #404, #290, .T. ) ;
#633 = VECTOR ( 'NONE', #801, 1000.000000000000000 ) ;
#634 = LINE ( 'NONE', #885, #67 ) ;
#635 = CIRCLE ( 'NONE', #853, 2.489199999999996749 ) ;
#636 = EDGE_CURVE ( 'NONE', #321, #186, #375, .T. ) ;
#637 = ORIENTED_EDGE ( 'NONE', *, *, #565, .T. ) ;
#638 = LINE ( 'NONE', #961, #105 ) ;
#639 = LINE ( 'NONE', #372, #492 ) ;
#640 = DIRECTION ( 'NONE',  ( -3.469446951953614682E-16, 0.000000000000000000, -1.000000000000000000 ) ) ;
#641 = ORIENTED_EDGE ( 'NONE', *, *, #927, .F. ) ;
#642 = EDGE_CURVE ( 'NONE', #186, #990, #592, .T. ) ;
#643 = CARTESIAN_POINT ( 'NONE',  ( 0.000000000000000000, 2.000000000000000000, 17.50000000000000355 ) ) ;
#644 = DIRECTION ( 'NONE',  ( -0.000000000000000000, 1.000000000000000000, -0.000000000000000000 ) ) ;
#645 = AXIS2_PLACEMENT_3D ( 'NONE', #358, #837, #370 ) ;
#646 = DIRECTION ( 'NONE',  ( -0.000000000000000000, 1.000000000000000000, -0.000000000000000000 ) ) ;
#647 = ORIENTED_EDGE ( 'NONE', *, *, #828, .T. ) ;
#648 = DIRECTION ( 'NONE',  ( 1.486905836551548832E-16, 0.000000000000000000, 1.000000000000000000 ) ) ;
#649 = FACE_OUTER_BOUND ( 'NONE', #835, .T. ) ;
#650 = CARTESIAN_POINT ( 'NONE',  ( 0.000000000000000000, -12.00000000000000000, -35.50000000000000711 ) ) ;
#651 = ORIENTED_EDGE ( 'NONE', *, *, #8, .F. ) ;
#652 = CIRCLE ( 'NONE', #31, 2.489199999999996749 ) ;
#653 = CARTESIAN_POINT ( 'NONE',  ( -12.49999999999999645, -2.000000000000000000, 17.50000000000000355 ) ) ;
#654 = CARTESIAN_POINT ( 'NONE',  ( 12.49999999999999822, 2.000000000000000000, -17.49999999999999645 ) ) ;
#655 = CIRCLE ( 'NONE', #839, 4.564379999999999882 ) ;
#656 = CARTESIAN_POINT ( 'NONE',  ( -8.131516293641275366E-16, 0.000000000000000000, -7.499999999999996447 ) ) ;
#657 = VERTEX_POINT ( 'NONE', #393 ) ;
#658 = DIRECTION ( 'NONE',  ( 1.000000000000000000, -0.000000000000000000, 0.000000000000000000 ) ) ;
#659 = FACE_OUTER_BOUND ( 'NONE', #295, .T. ) ;
#660 = FACE_OUTER_BOUND ( 'NONE', #705, .T. ) ;
#661 = VERTEX_POINT ( 'NONE', #630 ) ;
#662 = FACE_BOUND ( 'NONE', #977, .T. ) ;
#663 = ORIENTED_EDGE ( 'NONE', *, *, #298, .F. ) ;
#664 = FACE_OUTER_BOUND ( 'NONE', #408, .T. ) ;
#665 = DIRECTION ( 'NONE',  ( 0.000000000000000000, 0.000000000000000000, 1.000000000000000000 ) ) ;
#666 = ORIENTED_EDGE ( 'NONE', *, *, #143, .T. ) ;
#667 = DIRECTION ( 'NONE',  ( 0.000000000000000000, -1.000000000000000000, 0.000000000000000000 ) ) ;
#668 = ADVANCED_FACE ( 'NONE', ( #1028 ), #706, .F. ) ;
#669 = VECTOR ( 'NONE', #190, 1000.000000000000000 ) ;
#670 = VERTEX_POINT ( 'NONE', #558 ) ;
#671 = DIRECTION ( 'NONE',  ( 1.486905836551548832E-16, 0.000000000000000000, 1.000000000000000000 ) ) ;
#672 = AXIS2_PLACEMENT_3D ( 'NONE', #1000, #220, #687 ) ;
#673 = CARTESIAN_POINT ( 'NONE',  ( 0.000000000000000000, -4.921000000000000263, -35.50000000000000711 ) ) ;
#674 = ORIENTED_EDGE ( 'NONE', *, *, #515, .T. ) ;
#675 = LINE ( 'NONE', #217, #453 ) ;
#676 = LINE ( 'NONE', #380, #567 ) ;
#677 = FACE_BOUND ( 'NONE', #396, .T. ) ;
#678 = ORIENTED_EDGE ( 'NONE', *, *, #858, .F. ) ;
#679 = PLANE ( 'NONE',  #764 ) ;
#680 = VERTEX_POINT ( 'NONE', #776 ) ;
#681 = CARTESIAN_POINT ( 'NONE',  ( 0.000000000000000000, -2.000000000000000444, -30.93562000000000367 ) ) ;
#682 = AXIS2_PLACEMENT_3D ( 'NONE', #187, #500, #722 ) ;
#683 = ADVANCED_FACE ( 'NONE', ( #867 ), #871, .F. ) ;
#684 = CARTESIAN_POINT ( 'NONE',  ( 0.000000000000000000, 2.000000000000000000, -17.49999999999999645 ) ) ;
#685 = CARTESIAN_POINT ( 'NONE',  ( 0.000000000000000000, -4.921000000000000263, 35.50000000000000711 ) ) ;
#686 = ORIENTED_EDGE ( 'NONE', *, *, #488, .T. ) ;
#687 = DIRECTION ( 'NONE',  ( 0.000000000000000000, 0.000000000000000000, 1.000000000000000000 ) ) ;
#688 = VECTOR ( 'NONE', #303, 1000.000000000000000 ) ;
#689 = VECTOR ( 'NONE', #151, 1000.000000000000000 ) ;
#690 = LINE ( 'NONE', #326, #769 ) ;
#691 = VERTEX_POINT ( 'NONE', #857 ) ;
#692 = DIRECTION ( 'NONE',  ( 1.000000000000000000, -0.000000000000000000, 0.000000000000000000 ) ) ;
#693 = CARTESIAN_POINT ( 'NONE',  ( -10.49999999999999645, 0.000000000000000000, 17.50000000000000355 ) ) ;
#694 = ORIENTED_EDGE ( 'NONE', *, *, #16, .F. ) ;
#695 = DIRECTION ( 'NONE',  ( 1.541976423090495387E-16, 0.000000000000000000, -1.000000000000000000 ) ) ;
#696 = VECTOR ( 'NONE', #397, 1000.000000000000000 ) ;
#697 = CARTESIAN_POINT ( 'NONE',  ( 0.000000000000000000, -2.000000000000000000, -30.93562000000000367 ) ) ;
#698 = VERTEX_POINT ( 'NONE', #475 ) ;
#699 = EDGE_CURVE ( 'NONE', #657, #86, #73, .T. ) ;
#700 = DIRECTION ( 'NONE',  ( -1.486905836551548832E-16, 0.000000000000000000, -1.000000000000000000 ) ) ;
#701 = VECTOR ( 'NONE', #709, 1000.000000000000000 ) ;
#702 = ORIENTED_EDGE ( 'NONE', *, *, #355, .T. ) ;
#703 = CARTESIAN_POINT ( 'NONE',  ( 10.50000000000000888, 0.000000000000000000, -15.50000000000000178 ) ) ;
#704 = DIRECTION ( 'NONE',  ( -0.000000000000000000, 1.000000000000000000, -0.000000000000000000 ) ) ;
#705 = EDGE_LOOP ( 'NONE', ( #545, #960, #72, #268 ) ) ;
#706 = PLANE ( 'NONE',  #41 ) ;
#707 = ADVANCED_FACE ( 'NONE', ( #390 ), #935, .F. ) ;
#708 = EDGE_CURVE ( 'NONE', #797, #969, #463, .T. ) ;
#709 = DIRECTION ( 'NONE',  ( -3.469446951953614682E-16, 0.000000000000000000, -1.000000000000000000 ) ) ;
#710 = ORIENTED_EDGE ( 'NONE', *, *, #865, .F. ) ;
#711 = CARTESIAN_POINT ( 'NONE',  ( 37.49999999999999289, -12.00000000000000000, 44.99999999999999289 ) ) ;
#712 = ORIENTED_EDGE ( 'NONE', *, *, #364, .T. ) ;
#713 = DIRECTION ( 'NONE',  ( -1.000000000000000000, 0.000000000000000000, -0.000000000000000000 ) ) ;
#714 = AXIS2_PLACEMENT_3D ( 'NONE', #398, #331, #873 ) ;
#715 = CARTESIAN_POINT ( 'NONE',  ( 1.182766006347823700E-15, 0.000000000000000000, 7.500000000000006217 ) ) ;
#716 = VECTOR ( 'NONE', #739, 1000.000000000000000 ) ;
#717 = ORIENTED_EDGE ( 'NONE', *, *, #781, .F. ) ;
#718 = PLANE ( 'NONE',  #189 ) ;
#719 = DIRECTION ( 'NONE',  ( 3.469446951953614682E-16, 0.000000000000000000, 1.000000000000000000 ) ) ;
#720 = CARTESIAN_POINT ( 'NONE',  ( -12.50000000000000178, -2.000000000000000000, -17.49999999999999645 ) ) ;
#721 = ORIENTED_EDGE ( 'NONE', *, *, #747, .F. ) ;
#722 = DIRECTION ( 'NONE',  ( 1.577021341797096821E-16, 0.000000000000000000, -1.000000000000000000 ) ) ;
#723 = CARTESIAN_POINT ( 'NONE',  ( 5.589753357092195939E-16, -2.000000000000000000, -40.06438000000000699 ) ) ;
#724 = VERTEX_POINT ( 'NONE', #80 ) ;
#725 = ORIENTED_EDGE ( 'NONE', *, *, #79, .T. ) ;
#726 = LINE ( 'NONE', #978, #586 ) ;
#727 = EDGE_CURVE ( 'NONE', #83, #792, #3, .T. ) ;
#728 = CARTESIAN_POINT ( 'NONE',  ( -4.000000000000000000, 0.000000000000000000, -7.499999999999996447 ) ) ;
#729 = DIRECTION ( 'NONE',  ( -0.000000000000000000, 1.000000000000000000, -0.000000000000000000 ) ) ;
#730 = EDGE_LOOP ( 'NONE', ( #444, #20, #786, #785, #107, #207, #743, #766 ) ) ;
#731 = LINE ( 'NONE', #875, #244 ) ;
#732 = VERTEX_POINT ( 'NONE', #619 ) ;
#733 = DIRECTION ( 'NONE',  ( -0.000000000000000000, 0.000000000000000000, 1.000000000000000000 ) ) ;
#734 = EDGE_CURVE ( 'NONE', #724, #559, #223, .T. ) ;
#735 = DIRECTION ( 'NONE',  ( 0.000000000000000000, 0.000000000000000000, 1.000000000000000000 ) ) ;
#736 = EDGE_LOOP ( 'NONE', ( #907, #17, #625, #243 ) ) ;
#737 = FACE_OUTER_BOUND ( 'NONE', #465, .T. ) ;
#738 = ORIENTED_EDGE ( 'NONE', *, *, #1031, .F. ) ;
#739 = DIRECTION ( 'NONE',  ( -2.891205793294678326E-16, 0.000000000000000000, -1.000000000000000000 ) ) ;
#740 = EDGE_CURVE ( 'NONE', #374, #661, #318, .T. ) ;
#741 = DIRECTION ( 'NONE',  ( 0.000000000000000000, 0.000000000000000000, 1.000000000000000000 ) ) ;
#742 = VECTOR ( 'NONE', #938, 1000.000000000000000 ) ;
#743 = ORIENTED_EDGE ( 'NONE', *, *, #349, .T. ) ;
#744 = CARTESIAN_POINT ( 'NONE',  ( -37.50000000000000711, -12.00000000000000000, 44.99999999999999289 ) ) ;
#745 = LINE ( 'NONE', #64, #147 ) ;
#746 = DIRECTION ( 'NONE',  ( 0.000000000000000000, 0.000000000000000000, 1.000000000000000000 ) ) ;
#747 = EDGE_CURVE ( 'NONE', #86, #792, #160, .T. ) ;
#748 = EDGE_LOOP ( 'NONE', ( #422, #208, #289, #916 ) ) ;
#749 = DIRECTION ( 'NONE',  ( 0.000000000000000000, -0.000000000000000000, -1.000000000000000000 ) ) ;
#750 = CIRCLE ( 'NONE', #1015, 4.564379999999999882 ) ;
#751 = ORIENTED_EDGE ( 'NONE', *, *, #598, .F. ) ;
#752 = LINE ( 'NONE', #138, #519 ) ;
#753 = PRESENTATION_LAYER_ASSIGNMENT (  '', '', ( #179 ) ) ;
#754 = PLANE ( 'NONE',  #459 ) ;
#755 = EDGE_LOOP ( 'NONE', ( #272, #252 ) ) ;
#756 = PLANE ( 'NONE',  #550 ) ;
#757 = EDGE_CURVE ( 'NONE', #499, #984, #466, .T. ) ;
#758 = EDGE_CURVE ( 'NONE', #112, #680, #385, .T. ) ;
#759 = CARTESIAN_POINT ( 'NONE',  ( 37.49999999999999289, -2.000000000000000000, 44.99999999999999289 ) ) ;
#760 = FACE_OUTER_BOUND ( 'NONE', #805, .T. ) ;
#761 = DIRECTION ( 'NONE',  ( 1.541976423090495387E-16, 0.000000000000000000, -1.000000000000000000 ) ) ;
#762 = ORIENTED_EDGE ( 'NONE', *, *, #1018, .T. ) ;
#763 = CARTESIAN_POINT ( 'NONE',  ( 5.500000000000005329, 0.000000000000000000, 0.000000000000000000 ) ) ;
#764 = AXIS2_PLACEMENT_3D ( 'NONE', #288, #596, #439 ) ;
#765 = CARTESIAN_POINT ( 'NONE',  ( -4.000000000000000000, 2.000000000000000000, -7.499999999999996447 ) ) ;
#766 = ORIENTED_EDGE ( 'NONE', *, *, #1021, .T. ) ;
#767 = DIRECTION ( 'NONE',  ( -0.000000000000000000, 1.000000000000000000, -0.000000000000000000 ) ) ;
#768 = AXIS2_PLACEMENT_3D ( 'NONE', #896, #36, #914 ) ;
#769 = VECTOR ( 'NONE', #962, 1000.000000000000000 ) ;
#770 = PLANE ( 'NONE',  #796 ) ;
#771 = EDGE_LOOP ( 'NONE', ( #710, #28, #412, #948 ) ) ;
#772 = CARTESIAN_POINT ( 'NONE',  ( -12.50000000000000000, 2.000000000000000000, 1.858632295689436004E-15 ) ) ;
#773 = CARTESIAN_POINT ( 'NONE',  ( 4.000000000000003553, 2.000000000000000000, 2.312964634635744929E-16 ) ) ;
#774 = ADVANCED_FACE ( 'NONE', ( #310 ), #479, .F. ) ;
#775 = ORIENTED_EDGE ( 'NONE', *, *, #859, .F. ) ;
#776 = CARTESIAN_POINT ( 'NONE',  ( -10.49999999999999645, 0.000000000000000000, -15.50000000000000000 ) ) ;
#777 = EDGE_LOOP ( 'NONE', ( #483, #356, #955, #892 ) ) ;
#778 = DIRECTION ( 'NONE',  ( 0.000000000000000000, 0.000000000000000000, 1.000000000000000000 ) ) ;
#779 = VECTOR ( 'NONE', #617, 1000.000000000000000 ) ;
#780 = ORIENTED_EDGE ( 'NONE', *, *, #311, .F. ) ;
#781 = EDGE_CURVE ( 'NONE', #819, #231, #77, .T. ) ;
#782 = EDGE_LOOP ( 'NONE', ( #970, #712 ) ) ;
#783 = DIRECTION ( 'NONE',  ( -1.000000000000000000, 0.000000000000000000, 1.577021341797097067E-16 ) ) ;
#784 = ADVANCED_FACE ( 'NONE', ( #149 ), #623, .F. ) ;
#785 = ORIENTED_EDGE ( 'NONE', *, *, #446, .T. ) ;
#786 = ORIENTED_EDGE ( 'NONE', *, *, #348, .T. ) ;
#787 = DIRECTION ( 'NONE',  ( -0.000000000000000000, -1.000000000000000000, -0.000000000000000000 ) ) ;
#788 = DIRECTION ( 'NONE',  ( -1.541976423090495387E-16, -0.000000000000000000, 1.000000000000000000 ) ) ;
#789 = LINE ( 'NONE', #90, #257 ) ;
#790 = ORIENTED_EDGE ( 'NONE', *, *, #551, .T. ) ;
#791 = DIRECTION ( 'NONE',  ( -0.000000000000000000, 1.000000000000000000, -0.000000000000000000 ) ) ;
#792 = VERTEX_POINT ( 'NONE', #237 ) ;
#793 = CARTESIAN_POINT ( 'NONE',  ( 0.000000000000000000, -12.00000000000000000, -33.01080000000000325 ) ) ;
#794 = VECTOR ( 'NONE', #603, 1000.000000000000000 ) ;
#795 = CARTESIAN_POINT ( 'NONE',  ( 0.000000000000000000, -2.000000000000000000, -33.01080000000000325 ) ) ;
#796 = AXIS2_PLACEMENT_3D ( 'NONE', #684, #402, #713 ) ;
#797 = VERTEX_POINT ( 'NONE', #945 ) ;
#798 = DIRECTION ( 'NONE',  ( -0.000000000000000000, 1.000000000000000000, -0.000000000000000000 ) ) ;
#799 = ORIENTED_EDGE ( 'NONE', *, *, #383, .T. ) ;
#800 = LINE ( 'NONE', #723, #1 ) ;
#801 = DIRECTION ( 'NONE',  ( -1.541976423090495387E-16, -0.000000000000000000, 1.000000000000000000 ) ) ;
#802 = EDGE_CURVE ( 'NONE', #261, #1002, #97, .T. ) ;
#803 = ORIENTED_EDGE ( 'NONE', *, *, #121, .F. ) ;
#804 = DIRECTION ( 'NONE',  ( -1.000000000000000000, 0.000000000000000000, -0.000000000000000000 ) ) ;
#805 = EDGE_LOOP ( 'NONE', ( #937, #993, #181, #362 ) ) ;
#806 = DIRECTION ( 'NONE',  ( 0.000000000000000000, 0.000000000000000000, -1.000000000000000000 ) ) ;
#807 = DIRECTION ( 'NONE',  ( -0.000000000000000000, 1.000000000000000000, -0.000000000000000000 ) ) ;
#808 = VECTOR ( 'NONE', #61, 1000.000000000000000 ) ;
#809 = ORIENTED_EDGE ( 'NONE', *, *, #200, .F. ) ;
#810 = EDGE_CURVE ( 'NONE', #732, #508, #585, .T. ) ;
#811 = CARTESIAN_POINT ( 'NONE',  ( -12.50000000000000000, 2.000000000000000000, 1.858632295689436004E-15 ) ) ;
#812 = CARTESIAN_POINT ( 'NONE',  ( -3.999999999999998224, 2.000000000000000000, 1.156482317317870936E-15 ) ) ;
#813 = FACE_OUTER_BOUND ( 'NONE', #52, .T. ) ;
#814 = AXIS2_PLACEMENT_3D ( 'NONE', #942, #460, #216 ) ;
#815 = ORIENTED_EDGE ( 'NONE', *, *, #65, .T. ) ;
#816 = VECTOR ( 'NONE', #530, 1000.000000000000000 ) ;
#817 = FACE_OUTER_BOUND ( 'NONE', #19, .T. ) ;
#818 = EDGE_CURVE ( 'NONE', #732, #196, #731, .T. ) ;
#819 = VERTEX_POINT ( 'NONE', #334 ) ;
#820 = DIRECTION ( 'NONE',  ( 1.000000000000000000, 0.000000000000000000, 0.000000000000000000 ) ) ;
#821 = ADVANCED_FACE ( 'NONE', ( #255 ), #182, .T. ) ;
#822 = AXIS2_PLACEMENT_3D ( 'NONE', #1033, #851, #695 ) ;
#823 = PLANE ( 'NONE',  #527 ) ;
#824 = ORIENTED_EDGE ( 'NONE', *, *, #858, .T. ) ;
#825 = CARTESIAN_POINT ( 'NONE',  ( -4.000000000000000000, 2.000000000000000000, -7.499999999999996447 ) ) ;
#826 = EDGE_LOOP ( 'NONE', ( #91, #44, #651, #563 ) ) ;
#827 = DIRECTION ( 'NONE',  ( -0.000000000000000000, 1.000000000000000000, -0.000000000000000000 ) ) ;
#828 = EDGE_CURVE ( 'NONE', #611, #584, #655, .T. ) ;
#829 = FACE_OUTER_BOUND ( 'NONE', #351, .T. ) ;
#830 = VECTOR ( 'NONE', #692, 1000.000000000000000 ) ;
#831 = ORIENTED_EDGE ( 'NONE', *, *, #264, .F. ) ;
#832 = DIRECTION ( 'NONE',  ( 1.000000000000000000, -0.000000000000000000, 0.000000000000000000 ) ) ;
#833 = CARTESIAN_POINT ( 'NONE',  ( 5.589753357092195939E-16, -2.000000000000000444, -40.06438000000000699 ) ) ;
#834 = PLANE ( 'NONE',  #852 ) ;
#835 = EDGE_LOOP ( 'NONE', ( #953, #304, #12, #647 ) ) ;
#836 = VECTOR ( 'NONE', #498, 1000.000000000000000 ) ;
#837 = DIRECTION ( 'NONE',  ( -0.000000000000000000, 1.000000000000000000, -0.000000000000000000 ) ) ;
#838 = LINE ( 'NONE', #144, #341 ) ;
#839 = AXIS2_PLACEMENT_3D ( 'NONE', #339, #570, #27 ) ;
#840 = DIRECTION ( 'NONE',  ( -1.000000000000000000, 0.000000000000000000, 0.000000000000000000 ) ) ;
#841 = ORIENTED_EDGE ( 'NONE', *, *, #927, .T. ) ;
#842 = CARTESIAN_POINT ( 'NONE',  ( -37.49999999999999289, -2.000000000000000000, -45.00000000000000711 ) ) ;
#843 = LINE ( 'NONE', #13, #378 ) ;
#844 = CARTESIAN_POINT ( 'NONE',  ( 12.50000000000000000, 2.000000000000000000, -1.858632295689436004E-15 ) ) ;
#845 = EDGE_CURVE ( 'NONE', #894, #321, #971, .T. ) ;
#846 = ORIENTED_EDGE ( 'NONE', *, *, #636, .F. ) ;
#847 = CARTESIAN_POINT ( 'NONE',  ( 12.49999999999999822, -2.000000000000000000, -17.49999999999999645 ) ) ;
#848 = AXIS2_PLACEMENT_3D ( 'NONE', #844, #513, #124 ) ;
#849 = LINE ( 'NONE', #697, #688 ) ;
#850 = ORIENTED_EDGE ( 'NONE', *, *, #572, .T. ) ;
#851 = DIRECTION ( 'NONE',  ( 1.000000000000000000, 0.000000000000000000, 1.541976423090495387E-16 ) ) ;
#852 = AXIS2_PLACEMENT_3D ( 'NONE', #116, #127, #432 ) ;
#853 = AXIS2_PLACEMENT_3D ( 'NONE', #188, #644, #497 ) ;
#854 = ADVANCED_FACE ( 'NONE', ( #345 ), #329, .F. ) ;
#855 = DIRECTION ( 'NONE',  ( 1.000000000000000000, 0.000000000000000000, -1.577021341797097067E-16 ) ) ;
#856 = ORIENTED_EDGE ( 'NONE', *, *, #457, .T. ) ;
#857 = CARTESIAN_POINT ( 'NONE',  ( 5.589753357092195939E-16, -4.921000000000000263, 30.93562000000000367 ) ) ;
#858 = EDGE_CURVE ( 'NONE', #96, #819, #262, .T. ) ;
#859 = EDGE_CURVE ( 'NONE', #670, #540, #251, .T. ) ;
#860 = DIRECTION ( 'NONE',  ( -0.000000000000000000, 1.000000000000000000, -0.000000000000000000 ) ) ;
#861 = APPLICATION_CONTEXT ( 'automotive_design' ) ;
#862 = APPLICATION_PROTOCOL_DEFINITION ( 'draft international standard', 'automotive_design', 1998, #578 ) ;
#863 = VERTEX_POINT ( 'NONE', #491 ) ;
#864 = CARTESIAN_POINT ( 'NONE',  ( -37.49999999999999289, -12.00000000000000000, -45.00000000000000711 ) ) ;
#865 = EDGE_CURVE ( 'NONE', #691, #261, #941, .T. ) ;
#866 = ORIENTED_EDGE ( 'NONE', *, *, #4, .F. ) ;
#867 = FACE_OUTER_BOUND ( 'NONE', #777, .T. ) ;
#868 = AXIS2_PLACEMENT_3D ( 'NONE', #195, #366, #735 ) ;
#869 = LINE ( 'NONE', #161, #884 ) ;
#870 = ORIENTED_EDGE ( 'NONE', *, *, #959, .T. ) ;
#871 = CYLINDRICAL_SURFACE ( 'NONE', #75, 2.489199999999996749 ) ;
#872 = AXIS2_PLACEMENT_3D ( 'NONE', #469, #7, #541 ) ;
#873 = DIRECTION ( 'NONE',  ( 0.000000000000000000, 0.000000000000000000, 1.000000000000000000 ) ) ;
#874 = ORIENTED_EDGE ( 'NONE', *, *, #364, .F. ) ;
#875 = CARTESIAN_POINT ( 'NONE',  ( -37.50000000000000711, -12.00000000000000000, 44.99999999999999289 ) ) ;
#876 = ORIENTED_EDGE ( 'NONE', *, *, #355, .F. ) ;
#877 = CARTESIAN_POINT ( 'NONE',  ( 0.000000000000000000, 2.000000000000000000, 17.50000000000000355 ) ) ;
#878 = VECTOR ( 'NONE', #232, 1000.000000000000000 ) ;
#879 = DIRECTION ( 'NONE',  ( 0.000000000000000000, 0.000000000000000000, 1.000000000000000000 ) ) ;
#880 = EDGE_LOOP ( 'NONE', ( #629, #803, #429, #287 ) ) ;
#881 = CARTESIAN_POINT ( 'NONE',  ( -37.50000000000000711, -2.000000000000000000, 44.99999999999999289 ) ) ;
#882 = CARTESIAN_POINT ( 'NONE',  ( 5.500000000000005329, 0.000000000000000000, 7.500000000000005329 ) ) ;
#883 = ADVANCED_FACE ( 'NONE', ( #267 ), #496, .F. ) ;
#884 = VECTOR ( 'NONE', #640, 1000.000000000000000 ) ;
#885 = CARTESIAN_POINT ( 'NONE',  ( -37.49999999999999289, -12.00000000000000000, -45.00000000000000711 ) ) ;
#886 = AXIS2_PLACEMENT_3D ( 'NONE', #877, #806, #172 ) ;
#887 = ORIENTED_EDGE ( 'NONE', *, *, #274, .T. ) ;
#888 = FACE_OUTER_BOUND ( 'NONE', #748, .T. ) ;
#889 = CARTESIAN_POINT ( 'NONE',  ( 0.000000000000000000, -2.000000000000000000, -35.50000000000000711 ) ) ;
#890 = EDGE_CURVE ( 'NONE', #196, #670, #638, .T. ) ;
#891 = DIRECTION ( 'NONE',  ( 1.000000000000000000, 0.000000000000000000, -1.577021341797097067E-16 ) ) ;
#892 = ORIENTED_EDGE ( 'NONE', *, *, #109, .F. ) ;
#893 = CARTESIAN_POINT ( 'NONE',  ( -10.49999999999999645, -2.000000000000000000, -15.50000000000000000 ) ) ;
#894 = VERTEX_POINT ( 'NONE', #176 ) ;
#895 =( NAMED_UNIT ( * ) SI_UNIT ( $, .STERADIAN. ) SOLID_ANGLE_UNIT ( ) );
#896 = CARTESIAN_POINT ( 'NONE',  ( 0.000000000000000000, 0.000000000000000000, 0.000000000000000000 ) ) ;
#897 = VECTOR ( 'NONE', #50, 1000.000000000000000 ) ;
#898 = ORIENTED_EDGE ( 'NONE', *, *, #734, .F. ) ;
#899 = PLANE ( 'NONE',  #682 ) ;
#900 = ADVANCED_FACE ( 'NONE', ( #247 ), #899, .F. ) ;
#901 = CARTESIAN_POINT ( 'NONE',  ( -12.50000000000000178, 2.000000000000000000, -17.49999999999999645 ) ) ;
#902 = FACE_BOUND ( 'NONE', #730, .T. ) ;
#903 = CIRCLE ( 'NONE', #542, 2.489199999999996749 ) ;
#904 = ORIENTED_EDGE ( 'NONE', *, *, #1021, .F. ) ;
#905 = VECTOR ( 'NONE', #509, 1000.000000000000000 ) ;
#906 = CARTESIAN_POINT ( 'NONE',  ( 5.500000000000005329, 2.000000000000000000, 17.50000000000000355 ) ) ;
#907 = ORIENTED_EDGE ( 'NONE', *, *, #285, .T. ) ;
#908 = CARTESIAN_POINT ( 'NONE',  ( 1.182766006347823700E-15, 2.000000000000000000, 7.500000000000006217 ) ) ;
#909 = PLANE ( 'NONE',  #768 ) ;
#910 = VERTEX_POINT ( 'NONE', #653 ) ;
#911 = PLANE ( 'NONE',  #1009 ) ;
#912 = ORIENTED_EDGE ( 'NONE', *, *, #30, .T. ) ;
#913 = CARTESIAN_POINT ( 'NONE',  ( 10.50000000000000888, -2.000000000000000000, -15.50000000000000178 ) ) ;
#914 = DIRECTION ( 'NONE',  ( 0.000000000000000000, 0.000000000000000000, 1.000000000000000000 ) ) ;
#915 = AXIS2_PLACEMENT_3D ( 'NONE', #602, #827, #924 ) ;
#916 = ORIENTED_EDGE ( 'NONE', *, *, #810, .T. ) ;
#917 = LINE ( 'NONE', #744, #371 ) ;
#918 = ORIENTED_EDGE ( 'NONE', *, *, #411, .T. ) ;
#919 = CARTESIAN_POINT ( 'NONE',  ( 0.000000000000000000, -4.921000000000000263, -33.01080000000000325 ) ) ;
#920 = ADVANCED_FACE ( 'NONE', ( #888 ), #718, .F. ) ;
#921 = CARTESIAN_POINT ( 'NONE',  ( 12.50000000000000355, -2.000000000000000000, 17.50000000000000355 ) ) ;
#922 = FACE_OUTER_BOUND ( 'NONE', #130, .T. ) ;
#923 = ORIENTED_EDGE ( 'NONE', *, *, #264, .T. ) ;
#924 = DIRECTION ( 'NONE',  ( 0.000000000000000000, 0.000000000000000000, 1.000000000000000000 ) ) ;
#925 = CARTESIAN_POINT ( 'NONE',  ( 10.50000000000000355, 0.000000000000000000, 17.50000000000000711 ) ) ;
#926 = VECTOR ( 'NONE', #648, 1000.000000000000000 ) ;
#927 = EDGE_CURVE ( 'NONE', #863, #485, #507, .T. ) ;
#928 = CARTESIAN_POINT ( 'NONE',  ( 0.000000000000000000, 0.000000000000000000, 17.50000000000000355 ) ) ;
#929 = ORIENTED_EDGE ( 'NONE', *, *, #239, .F. ) ;
#930 = CARTESIAN_POINT ( 'NONE',  ( -12.49999999999999645, 2.000000000000000000, 17.50000000000000355 ) ) ;
#931 = DIRECTION ( 'NONE',  ( -1.486905836551548832E-16, 0.000000000000000000, -1.000000000000000000 ) ) ;
#932 = CIRCLE ( 'NONE', #645, 4.564379999999999882 ) ;
#933 = ORIENTED_EDGE ( 'NONE', *, *, #609, .F. ) ;
#934 = EDGE_CURVE ( 'NONE', #1007, #984, #726, .T. ) ;
#935 = CYLINDRICAL_SURFACE ( 'NONE', #616, 4.564379999999999882 ) ;
#936 = LINE ( 'NONE', #537, #556 ) ;
#937 = ORIENTED_EDGE ( 'NONE', *, *, #319, .T. ) ;
#938 = DIRECTION ( 'NONE',  ( -0.000000000000000000, 1.000000000000000000, -0.000000000000000000 ) ) ;
#939 = AXIS2_PLACEMENT_3D ( 'NONE', #613, #860, #307 ) ;
#940 = ADVANCED_FACE ( 'NONE', ( #817 ), #564, .T. ) ;
#941 = CIRCLE ( 'NONE', #399, 4.564379999999999882 ) ;
#942 = CARTESIAN_POINT ( 'NONE',  ( 0.000000000000000000, -12.00000000000000000, 0.000000000000000000 ) ) ;
#943 = DIRECTION ( 'NONE',  ( 1.000000000000000000, 0.000000000000000000, 0.000000000000000000 ) ) ;
#944 = ORIENTED_EDGE ( 'NONE', *, *, #388, .F. ) ;
#945 = CARTESIAN_POINT ( 'NONE',  ( -10.49999999999999645, -2.000000000000000000, -15.50000000000000000 ) ) ;
#946 = ADVANCED_FACE ( 'NONE', ( #445, #737 ), #283, .F. ) ;
#947 = EDGE_CURVE ( 'NONE', #96, #523, #38, .T. ) ;
#948 = ORIENTED_EDGE ( 'NONE', *, *, #802, .F. ) ;
#949 = DIRECTION ( 'NONE',  ( 1.000000000000000000, 0.000000000000000000, -1.486905836551548832E-16 ) ) ;
#950 = VECTOR ( 'NONE', #419, 1000.000000000000000 ) ;
#951 = EDGE_CURVE ( 'NONE', #196, #374, #917, .T. ) ;
#952 = CARTESIAN_POINT ( 'NONE',  ( 3.048390812437590326E-16, -12.00000000000000000, 33.01080000000000325 ) ) ;
#953 = ORIENTED_EDGE ( 'NONE', *, *, #394, .F. ) ;
#954 = DIRECTION ( 'NONE',  ( -0.000000000000000000, -1.000000000000000000, -0.000000000000000000 ) ) ;
#955 = ORIENTED_EDGE ( 'NONE', *, *, #154, .T. ) ;
#956 = AXIS2_PLACEMENT_3D ( 'NONE', #975, #482, #9 ) ;
#957 = VECTOR ( 'NONE', #820, 1000.000000000000000 ) ;
#958 = ORIENTED_EDGE ( 'NONE', *, *, #989, .F. ) ;
#959 = EDGE_CURVE ( 'NONE', #312, #438, #999, .T. ) ;
#960 = ORIENTED_EDGE ( 'NONE', *, *, #727, .T. ) ;
#961 = CARTESIAN_POINT ( 'NONE',  ( -37.50000000000000711, -12.00000000000000000, 44.99999999999999289 ) ) ;
#962 = DIRECTION ( 'NONE',  ( 1.577021341797096821E-16, 0.000000000000000000, -1.000000000000000000 ) ) ;
#963 = CARTESIAN_POINT ( 'NONE',  ( 37.49999999999999289, -2.000000000000000000, 44.99999999999999289 ) ) ;
#964 = ORIENTED_EDGE ( 'NONE', *, *, #642, .T. ) ;
#965 = DIRECTION ( 'NONE',  ( -0.000000000000000000, 1.000000000000000000, -0.000000000000000000 ) ) ;
#966 = ADVANCED_FACE ( 'NONE', ( #922 ), #679, .T. ) ;
#967 = ORIENTED_EDGE ( 'NONE', *, *, #165, .T. ) ;
#968 = SURFACE_STYLE_USAGE ( .BOTH. , #263 ) ;
#969 = VERTEX_POINT ( 'NONE', #1008 ) ;
#970 = ORIENTED_EDGE ( 'NONE', *, *, #103, .T. ) ;
#971 = LINE ( 'NONE', #811, #926 ) ;
#972 = ORIENTED_EDGE ( 'NONE', *, *, #79, .F. ) ;
#973 = CYLINDRICAL_SURFACE ( 'NONE', #593, 4.564379999999999882 ) ;
#974 = CIRCLE ( 'NONE', #293, 2.489199999999996749 ) ;
#975 = CARTESIAN_POINT ( 'NONE',  ( 0.000000000000000000, -2.000000000000000000, 35.50000000000000711 ) ) ;
#976 = AXIS2_PLACEMENT_3D ( 'NONE', #893, #484, #423 ) ;
#977 = EDGE_LOOP ( 'NONE', ( #1022, #168 ) ) ;
#978 = CARTESIAN_POINT ( 'NONE',  ( 4.000000000000003553, 0.000000000000000000, 2.312964634635744929E-16 ) ) ;
#979 = ORIENTED_EDGE ( 'NONE', *, *, #298, .T. ) ;
#980 = DIRECTION ( 'NONE',  ( -1.000000000000000000, 0.000000000000000000, 2.891205793294678326E-16 ) ) ;
#981 = ADVANCED_FACE ( 'NONE', ( #279 ), #118, .T. ) ;
#982 = EDGE_CURVE ( 'NONE', #792, #86, #502, .T. ) ;
#983 = CARTESIAN_POINT ( 'NONE',  ( 0.000000000000000000, 2.000000000000000000, 17.50000000000000355 ) ) ;
#984 = VERTEX_POINT ( 'NONE', #135 ) ;
#985 = CARTESIAN_POINT ( 'NONE',  ( 0.000000000000000000, -2.000000000000000000, 40.06438000000000699 ) ) ;
#986 = CARTESIAN_POINT ( 'NONE',  ( -37.49999999999999289, -12.00000000000000000, -45.00000000000000711 ) ) ;
#987 = CYLINDRICAL_SURFACE ( 'NONE', #276, 2.489199999999996749 ) ;
#988 = VECTOR ( 'NONE', #605, 1000.000000000000000 ) ;
#989 = EDGE_CURVE ( 'NONE', #894, #418, #357, .T. ) ;
#990 = VERTEX_POINT ( 'NONE', #590 ) ;
#991 = DIRECTION ( 'NONE',  ( -1.541976423090495387E-16, 0.000000000000000000, 1.000000000000000000 ) ) ;
#992 =( GEOMETRIC_REPRESENTATION_CONTEXT ( 3 ) GLOBAL_UNCERTAINTY_ASSIGNED_CONTEXT ( ( #561 ) ) GLOBAL_UNIT_ASSIGNED_CONTEXT ( ( #524, #555, #1025 ) ) REPRESENTATION_CONTEXT ( 'NONE', 'WORKASPACE' ) );
#993 = ORIENTED_EDGE ( 'NONE', *, *, #818, .T. ) ;
#994 = CARTESIAN_POINT ( 'NONE',  ( -12.50000000000000178, -2.000000000000000000, -17.49999999999999645 ) ) ;
#995 = CARTESIAN_POINT ( 'NONE',  ( 4.000000000000002665, 2.000000000000000000, 7.500000000000005329 ) ) ;
#996 = CLOSED_SHELL ( 'NONE', ( #233, #683, #57, #137, #150, #966, #305, #981, #426, #940, #335, #784, #115, #473, #668, #458, #212, #821, #900, #534, #854, #129, #1012, #920, #774, #451, #314, #883, #946, #707, #162, #1005, #480 ) ) ;
#997 = ORIENTED_EDGE ( 'NONE', *, *, #758, .F. ) ;
#998 = VECTOR ( 'NONE', #612, 1000.000000000000000 ) ;
#999 = LINE ( 'NONE', #825, #62 ) ;
#1000 = CARTESIAN_POINT ( 'NONE',  ( 0.000000000000000000, -12.00000000000000000, -35.50000000000000711 ) ) ;
#1001 = FACE_BOUND ( 'NONE', #755, .T. ) ;
#1002 = VERTEX_POINT ( 'NONE', #434 ) ;
#1003 = ORIENTED_EDGE ( 'NONE', *, *, #740, .F. ) ;
#1004 = CARTESIAN_POINT ( 'NONE',  ( 5.500000000000005329, 2.000000000000000000, 7.500000000000005329 ) ) ;
#1005 = ADVANCED_FACE ( 'NONE', ( #662, #430 ), #911, .F. ) ;
#1006 = FACE_OUTER_BOUND ( 'NONE', #33, .T. ) ;
#1007 = VERTEX_POINT ( 'NONE', #532 ) ;
#1008 = CARTESIAN_POINT ( 'NONE',  ( -10.49999999999999645, -2.000000000000000000, 17.50000000000000355 ) ) ;
#1009 = AXIS2_PLACEMENT_3D ( 'NONE', #450, #203, #601 ) ;
#1010 = ORIENTED_EDGE ( 'NONE', *, *, #934, .F. ) ;
#1011 = CARTESIAN_POINT ( 'NONE',  ( 10.50000000000000888, -2.000000000000000000, -15.50000000000000178 ) ) ;
#1012 = ADVANCED_FACE ( 'NONE', ( #1014 ), #756, .F. ) ;
#1013 = LINE ( 'NONE', #177, #716 ) ;
#1014 = FACE_OUTER_BOUND ( 'NONE', #346, .T. ) ;
#1015 = AXIS2_PLACEMENT_3D ( 'NONE', #184, #477, #879 ) ;
#1016 = ORIENTED_EDGE ( 'NONE', *, *, #810, .F. ) ;
#1017 = CARTESIAN_POINT ( 'NONE',  ( 0.000000000000000000, 2.000000000000000000, 17.50000000000000355 ) ) ;
#1018 = EDGE_CURVE ( 'NONE', #340, #990, #610, .T. ) ;
#1019 = DIRECTION ( 'NONE',  ( -0.000000000000000000, 1.000000000000000000, -0.000000000000000000 ) ) ;
#1020 = VECTOR ( 'NONE', #798, 1000.000000000000000 ) ;
#1021 = EDGE_CURVE ( 'NONE', #525, #797, #56, .T. ) ;
#1022 = ORIENTED_EDGE ( 'NONE', *, *, #411, .F. ) ;
#1023 = DIRECTION ( 'NONE',  ( -0.000000000000000000, -1.000000000000000000, -0.000000000000000000 ) ) ;
#1024 = LINE ( 'NONE', #925, #689 ) ;
#1025 =( NAMED_UNIT ( * ) SI_UNIT ( $, .STERADIAN. ) SOLID_ANGLE_UNIT ( ) );
#1026 = CIRCLE ( 'NONE', #915, 4.564379999999999882 ) ;
#1027 = ORIENTED_EDGE ( 'NONE', *, *, #947, .F. ) ;
#1028 = FACE_OUTER_BOUND ( 'NONE', #6, .T. ) ;
#1029 = FACE_BOUND ( 'NONE', #141, .T. ) ;
#1030 = CARTESIAN_POINT ( 'NONE',  ( 0.000000000000000000, 0.000000000000000000, 0.000000000000000000 ) ) ;
#1031 = EDGE_CURVE ( 'NONE', #691, #332, #675, .T. ) ;
#1032 = ORIENTED_EDGE ( 'NONE', *, *, #624, .F. ) ;
#1033 = CARTESIAN_POINT ( 'NONE',  ( -37.50000000000000711, -12.00000000000000000, 44.99999999999999289 ) ) ;
ENDSEC;
END-ISO-10303-21;
